<svg xmlns="http://www.w3.org/2000/svg" className='fill-current' width="95.99" height="96" viewBox="0 0 95.99 96">
  <path id="Trazado_34" data-name="Trazado 34" d="M417.873,155.513q-33.994,0-67.989,0c-2.545,0-3.166.552-3.167,2.811q0,17.134,0,34.268h.006q0,17.281,0,34.561c0,1.93.715,2.566,2.878,2.566h68.207c2.317,0,3.005-.609,3.005-2.658q0-34.463,0-68.927C420.813,156.133,420.117,155.513,417.873,155.513Zm-1.5,70.228H351.133V159.467h65.239Z" transform="translate(-324.824 -144.614)" fill="#currentColor" fill-rule="evenodd"/>
  <path id="Trazado_35" data-name="Trazado 35" d="M260.493,140.022c2.4,0,4.794.011,7.19,0,1.418-.009,2.373-.81,2.4-1.957.024-1.183-.953-2.01-2.423-2.041-.436-.009-.872,0-1.307,0h-7.158v-1.162q0-7.148,0-14.3c0-1.836-.76-2.533-2.764-2.535q-5.937-.007-11.875,0c-2.028,0-2.79.686-2.79,2.515q0,45.489,0,90.978c0,1.787.765,2.5,2.69,2.5q5.991.008,11.984,0c2,0,2.753-.7,2.755-2.545q.008-7.149.007-14.3v-1.151h1.183c2.469,0,4.939.013,7.408-.015a2.017,2.017,0,1,0-.025-3.992c-.4-.013-.8,0-1.2,0h-7.31V140.022Zm-5.722,69.943H246.2v-87.9h8.57Z" transform="translate(-241.759 -118.021)" fill="#currentColor" fill-rule="evenodd"/>
  <path id="Trazado_36" data-name="Trazado 36" d="M401.822,251.337q5.719.009,11.438,0h1.212c0,4.32-.006,8.492,0,12.662,0,1.786.808,2.581,2.606,2.59q3.758.017,7.516.007c2.24,0,2.954-.7,2.955-2.913,0-4.063,0-8.126,0-12.346h1.3c3.776,0,7.552.011,11.328,0,1.795,0,2.607-.809,2.616-2.59q.021-3.976,0-7.952a2.239,2.239,0,0,0-2.555-2.532c-3.812-.011-7.625,0-11.437,0h-1.257v-1.289q0-5.664,0-11.329c0-1.854-.789-2.63-2.666-2.635q-3.813-.011-7.625,0c-2.024,0-2.779.747-2.781,2.742q-.009,5.664-.007,11.328c0,.38,0,.76,0,1.183-4.35,0-8.525-.007-12.7,0a2.233,2.233,0,0,0-2.547,2.536q-.017,3.976,0,7.952C399.225,250.546,400.022,251.334,401.822,251.337Zm1.815-8.716h1.13q5.666,0,11.332,0c1.947,0,2.724-.765,2.727-2.691.006-4.136,0-8.273,0-12.486h4.353v1.51c0,3.7,0,7.409.009,11.114a2.232,2.232,0,0,0,2.531,2.554c3.814.013,7.628,0,11.441,0h1.224v4.359H426.021c-2.1,0-2.833.722-2.833,2.791v12.422h-4.358V261q0-5.557,0-11.114c0-2.208-.714-2.9-2.956-2.9l-11.114-.006h-1.126Z" transform="translate(-360.001 -196.801)" fill="#currentColor" fill-rule="evenodd"/>
  <path id="Trazado_37" data-name="Trazado 37" d="M426.229,185.66h-4.2v4.26h4.2Z" transform="translate(-374.132 -167.69)" fill="#currentColor" fill-rule="evenodd"/>
  <path id="Trazado_38" data-name="Trazado 38" d="M456.114,185.708h-4.23v4.232h4.23Z" transform="translate(-396.058 -167.725)" fill="#currentColor" fill-rule="evenodd"/>
  <path id="Trazado_39" data-name="Trazado 39" d="M486.139,185.82h-4.224v4.224h4.224Z" transform="translate(-418.11 -167.807)" fill="#currentColor" fill-rule="evenodd"/>
  <path id="Trazado_40" data-name="Trazado 40" d="M516.206,185.762h-4.225v4.244h4.225Z" transform="translate(-440.188 -167.765)" fill="#currentColor" fill-rule="evenodd"/>
  <path id="Trazado_41" data-name="Trazado 41" d="M421.807,399.963h4.262v-4.185h-4.262Z" transform="translate(-373.973 -321.981)" fill="#currentColor" fill-rule="evenodd"/>
  <path id="Trazado_42" data-name="Trazado 42" d="M451.942,399.948h4.207v-4.262h-4.207Z" transform="translate(-396.099 -321.918)" fill="#currentColor" fill-rule="evenodd"/>
  <path id="Trazado_43" data-name="Trazado 43" d="M482.019,399.983h4.223v-4.221h-4.223Z" transform="translate(-418.186 -321.971)" fill="#currentColor" fill-rule="evenodd"/>
  <path id="Trazado_44" data-name="Trazado 44" d="M511.979,399.971h4.231v-4.236h-4.231Z" transform="translate(-440.187 -321.952)" fill="#currentColor" fill-rule="evenodd"/>
  <path id="Trazado_45" data-name="Trazado 45" d="M268.636,140.745h-4.223v4.218h4.223Z" transform="translate(-257.83 -134.141)" fill="#currentColor" fill-rule="evenodd"/>
  <path id="Trazado_46" data-name="Trazado 46" d="M264.418,444.978h4.242v-4.219h-4.242Z" transform="translate(-257.833 -355.579)" fill="#currentColor" fill-rule="evenodd"/>
</svg>
