<svg id="Capa_1" xmlns="http://www.w3.org/2000/svg" version="1.1" viewBox="0 0 96 96">
  <defs>
    <style>
      .st0 {
        fill: #059669;
      }
    </style>
  </defs>
  <path class="st0" d="M92.7,10.5H24.7c-2.7,0-3.5.7-3.5,3.2v4.1s-3,0-3,0V2.9C18.2.9,17.2,0,15,0,11.1,0,7.1,0,3.2,0,.9,0,0,.9,0,2.9v90.3c0,2,.9,2.9,3.1,2.9,2,0,4,0,6,0s4,0,6,0c2.2,0,3.1-.9,3.1-2.9,0-4.7,0-9.5,0-14.2v-.8h2.6c.1,0,.3,0,.4,0v4.4c0,2.1.9,2.9,3.3,2.9h68.2c2.5,0,3.4-.8,3.4-3V13.5c0-2.2-.9-3-3.3-3ZM5.2,91.3V4.8h7.8v86.5s-7.8,0-7.8,0ZM18.2,73.4V22.6h2.9s0,50.9,0,50.9h-2.9ZM26.3,80.8v-2.6s0,0,0,0c1.3.2,2.5-.7,2.7-2,.2-1.3-.7-2.5-2-2.7-.2,0-.5,0-.6,0,0,0,0,0,0,0V22.6c1.6,0,2.7-1,2.7-2.3,0-1.4-1.1-2.3-2.7-2.4v-2.6h64.5v65.5s-64.5,0-64.5,0Z"/>
  <path class="st0" d="M80.6,41.1c-.3,0-.5,0-.7,0-2.5,0-5.1,0-7.6,0h-4.7s0-12.2,0-12.2c0-2-1-3-3-3-2.5,0-5.1,0-7.6,0-2.2,0-3.2.9-3.2,3.1,0,3.8,0,7.6,0,11.3v.8h-4c-2.8,0-5.6,0-8.3,0-1.4-.2-2.8.8-3,2.2,0,.3,0,.5,0,.7,0,2.7,0,5.3,0,8,0,2,1,3,3,3,3.8,0,7.6,0,11.4,0h.8v3.9c0,2.8,0,5.6,0,8.4,0,2,1,3,3,3,1.6,0,3.2,0,4.8,0s1.8,0,2.7,0c2.5,0,3.3-.9,3.3-3.3v-12h4.7c2.5,0,5,0,7.6,0,2,0,3-1,3-3,0-2.7,0-5.3,0-7.9.2-1.4-.8-2.8-2.2-3ZM77.7,49.8h-12c-2.3,0-3.2.9-3.2,3.2v12h-3.6v-11.9c0-2.4-.9-3.3-3.3-3.3h-11.9s0-3.6,0-3.6h12.1c2.1,0,3.1-.9,3.1-3.1,0-2.8,0-5.5,0-8.3v-3.8s3.6,0,3.6,0v1.1c0,3.7,0,7.4,0,11.1-.2,1.4.8,2.8,2.2,3,.3,0,.5,0,.7,0,2.5,0,5.1,0,7.6,0h4.7s0,3.6,0,3.6Z"/>
  <rect class="st0" x="47.2" y="17.6" width="4.9" height="5"/>
  <rect class="st0" x="55.1" y="17.6" width="5" height="5"/>
  <rect class="st0" x="63.1" y="17.7" width="5" height="5"/>
  <rect class="st0" x="71.1" y="17.6" width="5" height="5"/>
  <rect class="st0" x="47.1" y="73.4" width="5" height="4.9"/>
  <rect class="st0" x="55.1" y="73.4" width="5" height="5"/>
  <rect class="st0" x="63.1" y="73.4" width="5" height="5"/>
  <rect class="st0" x="71.1" y="73.4" width="5" height="5"/>
  <rect class="st0" x="6.6" y="6.2" width="5" height="5"/>
  <rect class="st0" x="6.6" y="84.8" width="5" height="5"/>
</svg>