<svg xmlns="http://www.w3.org/2000/svg" width="96.208" height="70.743" viewBox="0 0 96.208 70.743">
  <g transform="translate(-4.677 -105.5)">
    <path id="Trazado_31" data-name="Trazado 31" d="M99.287,162.248H94.941V131.19h4.409a1.534,1.534,0,0,0,1.461-2l-5.56-17.446a1.534,1.534,0,0,0-1.461-1.068H58.731l-4.794-4.734a1.534,1.534,0,0,0-2.155,0l-4.8,4.735H11.77a1.534,1.534,0,0,0-1.461,1.068l-5.56,17.446a1.534,1.534,0,0,0,1.461,2H10.62v31.058H6.274a1.534,1.534,0,0,0-1.534,1.534V174.71a1.534,1.534,0,0,0,1.534,1.534H29.792v-.008a1.574,1.574,0,0,0,.158.008H99.287a1.534,1.534,0,0,0,1.534-1.534V163.782A1.534,1.534,0,0,0,99.287,162.248Zm-21.984,0V131.19h14.57v31.058ZM28.387,131.19l.021,31.058H13.687V131.19ZM7.808,165.316h20.6l.005,7.86H7.808ZM29.29,128.123H8.309l4.582-14.379h30.98Zm33.251,45.053H43.178V153.621H62.541Zm11.695,0H65.609V152.087a1.534,1.534,0,0,0-1.534-1.534H41.644a1.534,1.534,0,0,0-1.534,1.534v21.089H31.482L31.454,130.3l21.405-21.109L74.236,130.3Zm-12.4-59.432H92.67l4.582,14.379H76.4Zm35.915,59.432H77.3v-7.86h20.45Z" transform="translate(0 0)" fill="#3f3f46"/>
    <path id="Trazado_32" data-name="Trazado 32" d="M217.467,188.023v3.112h-3.112a1.524,1.524,0,0,0-1.523,1.523v4.237a1.525,1.525,0,0,0,1.523,1.523h3.112v3.112a1.524,1.524,0,0,0,1.523,1.523h4.237a1.524,1.524,0,0,0,1.523-1.523v-3.112h3.112a1.525,1.525,0,0,0,1.523-1.523v-4.237a1.525,1.525,0,0,0-1.523-1.523H224.75v-3.112a1.524,1.524,0,0,0-1.523-1.523H218.99A1.524,1.524,0,0,0,217.467,188.023Zm1.986,3.575v-3.112h3.311V191.6a1.524,1.524,0,0,0,1.523,1.523H227.4v3.31h-3.112a1.524,1.524,0,0,0-1.523,1.523v3.112h-3.311v-3.112a1.524,1.524,0,0,0-1.523-1.523h-3.112v-3.31h3.112A1.524,1.524,0,0,0,219.454,191.6Z" transform="translate(-168.249 -65.471)" fill="#3f3f46"/>
  </g>
</svg>
