<?xml version="1.0" encoding="UTF-8"?>
<svg id="Capa_1" xmlns="http://www.w3.org/2000/svg" version="1.1" viewBox="0 0 96 96">
  <!-- Generator: Adobe Illustrator 29.1.0, SVG Export Plug-In . SVG Version: 2.1.0 Build 142)  -->
  <defs>
    <style>
      .st0 {
        fill: #059669;
      }
    </style>
  </defs>
  <path id="Trazado_137" class="st0" d="M93.5,8.6c-2.3-3.1-5.9-4.9-9.7-4.8h-1.6v-.9C82.2,1.3,80.9,0,79.4,0s-2.8,1.3-2.8,2.8v7.5c0,1.6,1.3,2.8,2.8,2.8s2.8-1.3,2.8-2.8v-.9h1.6c3.6,0,6.6,2.9,6.6,6.6,0,.6,0,1.2-.3,1.8l-7.5,26.1c-2.6,9.1-12,14.3-21.1,11.7-5.7-1.6-10.1-6.1-11.7-11.7l-7.5-26.1c-1-3.5,1-7.1,4.5-8.1.6-.2,1.2-.3,1.8-.3h1.6v.9c0,1.6,1.3,2.8,2.8,2.8s2.8-1.3,2.8-2.8V2.8C55.9,1.3,54.7,0,53.1,0s-2.8,1.3-2.8,2.8v.9h-1.6c-6.7,0-12.2,5.5-12.2,12.2,0,1.1.2,2.3.5,3.3l7.5,26.1c1.3,4.7,4.2,8.9,8.2,11.9.8.6,1.7,1.2,2.7,1.7l8.2,19.4v2c0,5.5-4.5,10-10,10s-10-4.5-10-10v-19.3c0-8.9-7.2-16.1-16.1-16.1s-16.1,7.2-16.1,16.1v6.7c-7.6,1.6-12.5,9-11,16.6,1.6,7.6,9,12.5,16.6,11,7.6-1.6,12.5-9,11-16.6-1.1-5.5-5.4-9.8-11-11v-6.7c0-5.8,4.7-10.5,10.5-10.5s10.5,4.7,10.5,10.5v19.3c0,8.6,7,15.6,15.6,15.6s15.6-7,15.6-15.6v-2l8.2-19.4c.9-.5,1.8-1.1,2.7-1.7,3.9-3,6.8-7.1,8.2-11.9l7.5-26.1c1.1-3.7.3-7.6-2-10.7ZM22.5,81.6c0,4.7-3.8,8.4-8.4,8.4s-8.4-3.8-8.4-8.4c0-4.7,3.8-8.4,8.4-8.4h0c4.7,0,8.4,3.8,8.4,8.4ZM66.2,70.6l-3.8-9.1c2.5.4,5.1.4,7.7,0l-3.8,9.1Z"/>
</svg>