<?xml version="1.0" encoding="UTF-8"?>
<svg id="Capa_2" data-name="Capa 2" xmlns="http://www.w3.org/2000/svg" viewBox="0 0 355.12 318.35">
  <defs>
    <style>
      .cls-1 {
        fill: #009349;
      }

      .cls-2 {
        font-size: 13.22px;
      }

      .cls-2, .cls-3, .cls-4 {
        font-family: Montserrat-SemiBold, Montserrat;
        font-weight: 600;
      }

      .cls-2, .cls-4, .cls-5, .cls-6 {
        fill: #fcfffc;
      }

      .cls-7 {
        stroke: #113b54;
      }

      .cls-7, .cls-8, .cls-9 {
        fill: none;
        stroke-miterlimit: 10;
      }

      .cls-10 {
        fill: #ee8c5f;
      }

      .cls-11 {
        fill: #fb6767;
      }

      .cls-12 {
        fill: #e67950;
      }

      .cls-13 {
        fill: #ffd58f;
      }

      .cls-14 {
        fill: #7fbbc9;
      }

      .cls-8 {
        stroke: #1f1f1f;
        stroke-width: .75px;
      }

      .cls-15 {
        fill: #ff9416;
      }

      .cls-16 {
        fill: #fff;
      }

      .cls-17 {
        fill: #00db74;
      }

      .cls-3 {
        fill: #414141;
        font-size: 14.79px;
      }

      .cls-18 {
        fill: #db8158;
      }

      .cls-19 {
        fill: #c5efd8;
      }

      .cls-20 {
        fill: #f97316;
      }

      .cls-21 {
        fill: #1f1f1f;
      }

      .cls-22 {
        fill: #282828;
      }

      .cls-4 {
        font-size: 17.61px;
      }

      .cls-23 {
        fill: #e3f8ff;
      }

      .cls-24 {
        fill: #2c1817;
      }

      .cls-5 {
        opacity: .5;
      }

      .cls-25 {
        fill: #00ff98;
      }

      .cls-26 {
        fill: #dfecf3;
      }

      .cls-27 {
        fill: #9bb3c2;
      }

      .cls-28 {
        fill: #eee;
      }

      .cls-29 {
        fill: #005f2f;
      }

      .cls-30 {
        fill: #a4c8b4;
      }

      .cls-31 {
        fill: #fbc367;
      }

      .cls-32 {
        fill: #deebf2;
      }

      .cls-9 {
        stroke: #1b374f;
        stroke-width: .5px;
      }

      .cls-33 {
        fill: #e8b45f;
      }

      .cls-34 {
        fill: #657b6f;
      }
    </style>
  </defs>
  <g id="OBJECTS">
    <g>
      <g>
        <path class="cls-17" d="M143.56,192.06l-5.99-173.32h0s-.08-2.33-.08-2.33C137.18,7.28,129.5-.06,120.35,0L16.03.76C6.87.83-.3,8.27,0,17.4l.12,3.4h.14s-.14,0-.14,0l7.77,225.05.08,2.49c.31,9.13,7.98,16.47,17.15,16.4l104.32-.75c9.15-.06,16.34-7.52,16.03-16.65l-1.91-55.28ZM145.38,245.01s-.03,0-.04,0h.04s0,0,0,0Z"/>
        <polygon class="cls-25" points="14.37 245.85 7.9 245.85 7.69 239.98 14.29 239.98 14.37 245.85"/>
        <polygon class="cls-25" points="6.17 20.8 .13 20.8 .35 27.4 6.26 27.4 6.17 20.8"/>
        <g>
          <path class="cls-26" d="M153.81,16.41C153.48,7.28,145.21-.06,135.36,0L23.12.76c-9.86.07-17.57,7.51-17.24,16.63l.12,3.4,147.88-2.06-.08-2.33Z"/>
          <path class="cls-26" d="M14.46,248.34l-.09-2.49c1.18.09,147.93-.84,147.93-.84l-4.21-113.14,4.3,115.47c.33,9.13-7.4,16.59-17.25,16.65l-112.24.75c-9.86.08-18.12-7.27-18.45-16.4Z"/>
        </g>
        <path class="cls-34" d="M24.44,14.59c2.28.08,4.27-1.6,4.46-3.77.18-2.16-1.52-3.98-3.79-4.06-2.28-.08-4.28,1.6-4.46,3.76-.18,2.16,1.52,3.98,3.8,4.07Z"/>
        <path class="cls-34" d="M42.37,14.48c2.28.08,4.27-1.6,4.46-3.77.18-2.16-1.52-3.98-3.79-4.06-2.28-.08-4.28,1.6-4.46,3.76-.18,2.16,1.52,3.98,3.8,4.07Z"/>
        <path class="cls-27" d="M92.78,261.81c4.19-.03,7.48-3.2,7.34-7.08-.14-3.88-3.66-7.01-7.85-6.98-4.19.03-7.48,3.2-7.34,7.08s3.66,7.01,7.85,6.98Z"/>
        <polygon class="cls-1" points="153.9 18.74 162.31 245.01 14.37 245.85 6.01 20.8 153.9 18.74"/>
      </g>
      <polygon class="cls-5" points="222.24 35.22 228.34 161.76 41.71 164.81 35.61 38.32 222.24 35.22"/>
      <text class="cls-2" transform="translate(176.93 131.67) rotate(4.66) scale(.94 1) skewX(4.89)"><tspan x="0" y="0">12</tspan></text>
      <text class="cls-2" transform="translate(146.19 132.59) rotate(4.66) scale(.94 1) skewX(4.89)"><tspan x="0" y="0">11</tspan></text>
      <text class="cls-2" transform="translate(113.03 133.18) rotate(4.66) scale(.94 1) skewX(4.89)"><tspan x="0" y="0">10</tspan></text>
      <text class="cls-2" transform="translate(178.79 103.79) rotate(4.66) scale(.94 1) skewX(4.89)"><tspan x="0" y="0">8</tspan></text>
      <g>
        <line class="cls-9" x1="67.22" y1="50.61" x2="72.16" y2="152.9"/>
        <line class="cls-9" x1="99.2" y1="50.27" x2="104.16" y2="152.92"/>
        <line class="cls-9" x1="131.18" y1="49.74" x2="136.12" y2="152.07"/>
        <line class="cls-9" x1="163.16" y1="49.2" x2="168.1" y2="151.52"/>
        <line class="cls-9" x1="195.14" y1="48.67" x2="200.08" y2="151"/>
        <line class="cls-9" x1="208.2" y1="58.09" x2="57.27" y2="60.6"/>
        <line class="cls-9" x1="209.92" y1="85.86" x2="58.99" y2="88.37"/>
        <line class="cls-9" x1="211.65" y1="113.63" x2="60.72" y2="116.14"/>
        <line class="cls-9" x1="213.38" y1="141.4" x2="62.45" y2="143.91"/>
      </g>
      <polygon class="cls-1" points="142.88 93.4 180.49 92.78 182.07 125.45 144.45 125.86 142.88 93.4"/>
      <text class="cls-4" transform="translate(160.32 115.64) rotate(4.66) scale(.94 1) skewX(4.89)"><tspan x="0" y="0">7</tspan></text>
      <text class="cls-2" transform="translate(82.41 79.23) rotate(4.66) scale(.94 1) skewX(4.89)"><tspan x="0" y="0">1</tspan></text>
      <text class="cls-2" transform="translate(113.34 77.95) rotate(4.66) scale(.94 1) skewX(4.89)"><tspan x="0" y="0">2</tspan></text>
      <text class="cls-2" transform="translate(144.28 76.67) rotate(4.66) scale(.94 1) skewX(4.89)"><tspan x="0" y="0">3</tspan></text>
      <text class="cls-2" transform="translate(175.21 75.39) rotate(4.66) scale(.94 1) skewX(4.89)"><tspan x="0" y="0">4</tspan></text>
      <text class="cls-2" transform="translate(82.4 106.37) rotate(4.66) scale(.94 1) skewX(4.89)"><tspan x="0" y="0">5</tspan></text>
      <text class="cls-2" transform="translate(83.83 133.86) rotate(4.66) scale(.94 1) skewX(4.89)"><tspan x="0" y="0">9</tspan></text>
      <text class="cls-2" transform="translate(113.5 105.29) rotate(4.66) scale(.94 1) skewX(4.89)"><tspan x="0" y="0">6</tspan></text>
      <path class="cls-20" d="M175.13,96.56c-4.34-1.45-10.68-.26-14.78,3.41-1.88.33-3.78,1.04-5.63,2.3-4.46,3.03-7.41,8.62-6.71,13.12,1.22,7.92,11.33,7.91,18.56,4.09,4.81-2.53,9.04-6.91,10.94-12.02,1.69-4.54,1.67-9.54-2.38-10.89ZM168.06,116.16c-2.64,2.22-5.82,4.02-8.86,4.74-4.8,1.14-8.09-1.72-8.29-6.16-.21-4.56,3.26-10.16,7.67-12.84-1.34,1.82-2.21,4.04-2.29,6.67-.02.67,2.99.31,3,.24.08-2.74,1.23-5.62,3.42-7.98.15-.16.32-.32.48-.48.53-.03,1.06-.02,1.59.06.99.15,3.02-.16.98-.46-.63-.09-1.27-.16-1.92-.19,3.41-2.9,8.69-4.65,10.83-1.66,3.36,4.69-1.6,13.84-6.61,18.06Z"/>
      <path class="cls-32" d="M175.81,36.67v.03c2.55,6.91-2.22,14.14-9.38,14.25l-66.74,1.01c-4.53.07-8.67-2.83-10.28-7.2h0c-2.54-6.9,2.22-14.14,9.39-14.25l66.73-1.04c4.53-.07,8.68,2.83,10.29,7.2Z"/>
      <polygon class="cls-15" points="194.53 177.26 195.81 211.89 121.5 212.92 120.21 178.3 194.53 177.26"/>
      <line class="cls-9" x1="194.53" y1="177.26" x2="121.5" y2="212.92"/>
      <line class="cls-9" x1="120.21" y1="178.3" x2="195.81" y2="211.89"/>
      <text class="cls-3" transform="translate(114.83 45.84) rotate(-1.29) skewX(-.63)"><tspan x="0" y="0">Julio</tspan></text>
      <path class="cls-16" d="M103.47,40.86l3.14-2.96c.76-.71,2.01-.18,2.08.89l.36,5.67c.07,1.07-1.11,1.69-1.96,1.04l-3.5-2.71c-.62-.48-.68-1.4-.12-1.93Z"/>
      <path class="cls-16" d="M161.76,40.57l-3.14,2.96c-.76.71-2.01.18-2.08-.89l-.36-5.67c-.07-1.07,1.11-1.69,1.96-1.04l3.5,2.71c.62.48.68,1.4.12,1.93Z"/>
      <g>
        <path class="cls-6" d="M288.59,60.78c-.1,24.77-19.83,44.76-44.06,44.66-15.66-.07-29.36-8.51-37.07-21.16l-25.38,4.62,19.9-18.16c-.75-3.32-1.15-6.77-1.14-10.32.1-24.77,19.83-44.76,44.06-44.66,24.23.1,43.79,20.26,43.69,45.03Z"/>
        <g>
          <rect class="cls-11" x="237.64" y="39.89" width="15.61" height="41.42"/>
          <rect class="cls-11" x="224.74" y="52.79" width="41.42" height="15.61"/>
        </g>
      </g>
      <g>
        <path class="cls-23" d="M237.14,204.78c-2.6,2.17-3.47,31.01-3.47,31.01l20.93-40.34c-4.02.43-14.86,7.16-17.46,9.33Z"/>
        <path class="cls-18" d="M226.46,292.9l-64.23,10.7,1.16,14.74s88.52,0,94.01,0,3.85-27.05,3.85-27.05l-34.79,1.61Z"/>
        <g>
          <path class="cls-22" d="M301.12,103.01s10.16-23.95,35.67-13.17c23.48,9.92,26.07,47.17-2.04,56.49-23.71,7.86-40.82-25.04-33.63-43.32Z"/>
          <path class="cls-15" d="M293.73,102.18s19.47-4.33,30.98,10.12c12.27,15.4,12.35,35.22,3.92,41.17l-34.9-51.29Z"/>
          <g>
            <path class="cls-22" d="M277.99,198.12c-46.58-2.02-50.64-22.08-50.86-38.42-.32-23.29,13.47-57.78,47.74-61.41,63.85-6.77,83.37,103.31,3.12,99.83Z"/>
            <path class="cls-6" d="M229.98,318.34h82.97c-2.41-7.52-2.49-17.12-6.05-29.2l14.88-88.05-24.92-10.4s-38.82,4.3-42.25,4.77c-3.43.46-26.35,35.53-28.22,37.79-1.87,2.26,1.56,22.86,1.56,27.37,0,2.88,1.18,34.89,2.03,57.72Z"/>
            <path class="cls-8" d="M303.46,193.23l5.49,11.33-12.09,6.72,6.6,6.98s-9.67,13.84-12.3,18.82c-2.62,4.99.64,51.18-10.64,53.13"/>
            <path class="cls-31" d="M269.15,193.78s-17.26,29.87-19.32,36.81c-2.06,6.94.63,87.75.63,87.75h31.3s-3.48-74.74-2.79-83.63c.69-8.89,24.5-41.47,24.5-41.47l-6.6-2.55-27.71,3.09Z"/>
            <line class="cls-8" x1="273.69" y1="287.08" x2="253.73" y2="305.08"/>
            <line class="cls-8" x1="277.02" y1="292.94" x2="272.17" y2="303.56"/>
            <path class="cls-33" d="M249.05,252.71s21.95,1.16,30.17,0l.31,13.38s-22.97.37-30.35-.08l-.13-13.3Z"/>
            <path class="cls-13" d="M275.09,183.89s-8.13,4.61-10.08,5.92c-1.95,1.31.23,16.71.23,16.71l10.51-3.69,5.1,9.33,10.31-6.29,9.74,6.29s6.23-16.17,6-19.04c-.24-2.87-10.21-9.7-10.21-9.7l-21.59.47Z"/>
            <path class="cls-10" d="M286.44,201.82h0c-6.15.25-11.29-4.65-11.32-10.8l-.04-7.13c-12.08,3.81-21.47-1.93-25.62-12.33-1.04-2.59-1.74-5.46-2.09-8.55-.04-.38-.07-.76-.11-1.14l-3.06-37.14,50.85-5.33,1.8,71.28c.15,5.93-4.49,10.89-10.41,11.13Z"/>
            <path class="cls-22" d="M239.13,149.7c2.2-7.41,11.69-15.42,17.64-20.35,14.44,19.69,42.75,25.58,54.76,15.52.87-7.16-1.53-23.75-10.41-32.79-11.91-12.13-32.95-11.54-42.83-6.54-20.93,10.59-21.87,37.47-19.16,44.17Z"/>
          </g>
          <path class="cls-10" d="M290.96,157.09c0,5,4.03,8.82,9,8.54,4.97-.28,9-4.56,9-9.56s-4.03-8.82-9-8.54c-4.97.28-9,4.56-9,9.56Z"/>
          <path class="cls-8" d="M303.67,155.11c-4.35-1.94-7.34-.21-8.71,3.75"/>
          <path class="cls-21" d="M267.43,142.56c-.03,1.11,6.13,2.17,9.79,2.27,3.66.1,4.95-.77,4.98-1.88.03-1.11-4.42-2.13-8.08-2.22-3.66-.1-6.65.72-6.68,1.83Z"/>
          <path class="cls-24" d="M267.88,156.02c-.06,2.1.71,3.82,1.71,3.85,1,.03,1.85-1.65,1.91-3.75.06-2.1-.71-3.82-1.71-3.85-1-.03-1.85,1.65-1.91,3.75Z"/>
          <path class="cls-21" d="M254.6,142.22c-.03,1.11-6.24,1.85-9.9,1.75-3.66-.1-4.9-1.03-4.87-2.14.03-1.11,4.53-1.89,8.19-1.79,3.66.1,6.61,1.07,6.58,2.18Z"/>
          <path class="cls-24" d="M253.45,155.64c-.06,2.1-.91,3.78-1.91,3.75-1-.03-1.76-1.75-1.71-3.85.06-2.1.91-3.78,1.91-3.75,1,.03,1.76,1.75,1.71,3.85Z"/>
          <path class="cls-8" d="M261,163.27c-.73-.04-1.49.14-2.05.61-.56.47-.86,1.27-.64,1.97.34,1.05,1.6,1.42,2.67,1.65"/>
          <path class="cls-22" d="M275.09,183.88s10.5-1.99,15.87-8.07c0,0,1.48,9.13-3.54,13.56-3.94,3.48-10.71,2.47-12.29,1.63l-.04-7.13Z"/>
          <path class="cls-29" d="M254.04,105.41s11.28-4.56,20.83-3.22c9.94,1.39,23.07,12.56,23.96,39.82h5.59s.68-41.87-25.71-43.98c-18.89-1.51-24.66,7.38-24.66,7.38Z"/>
          <path class="cls-29" d="M313.19,155.59c0,9.21-6.38,16.67-14.24,16.67s-9.41-7.46-9.41-16.67,1.54-16.67,9.41-16.67,14.24,7.46,14.24,16.67Z"/>
          <path class="cls-7" d="M266.65,180.82c5.27,3.72,18.01,4.93,22.2,2.01,3.94-2.75,9.6-11.56,10.63-14.48"/>
          <path class="cls-1" d="M313.19,155.59c0,9.21-5.25,16.67-11.72,16.67s-7.74-7.46-7.74-16.67,1.27-16.67,7.74-16.67,11.72,7.46,11.72,16.67Z"/>
          <circle class="cls-25" cx="266.65" cy="180.82" r="2.5"/>
          <path class="cls-28" d="M258.23,174.49h11.46s-2.18,3.82-6.74,3.82-4.72-3.82-4.72-3.82Z"/>
          <path class="cls-12" d="M253.54,167.5c0,1.78-1.66,3.32-4.07,4.06-1.04-2.59-1.74-5.46-2.09-8.55,3.49.35,6.16,2.23,6.16,4.49Z"/>
          <ellipse class="cls-12" cx="278.19" cy="167.5" rx="7.4" ry="4.56"/>
        </g>
        <path class="cls-10" d="M304.8,292.9l-76.89,11.91-.79,13.52s103.12,0,108.62,0,3.85-27.05,3.85-27.05l-34.79,1.61Z"/>
        <path class="cls-10" d="M227.91,304.81s-18.34-5.1-20.94-5.27c-2.6-.17-17.36,10.46-16.71,12.85.65,2.39,11.07.43,15.19-4.99,0,0,6.4,11.28,21.68,10.93l.79-13.52Z"/>
        <path class="cls-6" d="M316.92,199.95c-18.56.24-11.31,91.34-11.31,91.34h33.55s3.69-91.68-22.24-91.34Z"/>
        <polygon class="cls-13" points="304.8 292.9 305.4 282.17 328.75 279.48 331.61 284.49 335.75 279.48 341.92 279.48 341.92 291.29 304.8 292.9"/>
        <line class="cls-8" x1="304.8" y1="292.9" x2="306.89" y2="228.71"/>
        <path class="cls-8" d="M263.96,194.36l-14.13,10.41,4.21,6.51-11.69,6.98s-2.42,12.03-2.51,14.89c-.09,2.85,1.39,56.2,9.21,57.07"/>
      </g>
      <g>
        <path class="cls-19" d="M66.35,309.3l-46.16-91.03h130.55l50.74,100.07h-120.42c-6.22,0-11.9-3.49-14.71-9.04Z"/>
        <path class="cls-30" d="M193.36,302.32l-42.62-84.05h-10.13l46.16,91.03c2.81,5.54,8.5,9.04,14.71,9.04h109.16c2.5,0,4.52-2.02,4.52-4.52h0c0-2.5-2.02-4.52-4.52-4.52h-105.91c-4.8,0-9.2-2.7-11.37-6.98Z"/>
        <path class="cls-34" d="M280.23,315.33h-60.45c-.84,0-1.53-.68-1.53-1.53h0c0-.84.68-1.53,1.53-1.53h60.45c.84,0,1.53.68,1.53,1.53h0c0,.84-.68,1.53-1.53,1.53Z"/>
        <path class="cls-34" d="M290.47,313.81c0,.84-.68,1.53-1.53,1.53s-1.53-.68-1.53-1.53.68-1.53,1.53-1.53,1.53.68,1.53,1.53Z"/>
        <path class="cls-14" d="M296.31,313.81c0,.84-.68,1.53-1.53,1.53s-1.53-.68-1.53-1.53.68-1.53,1.53-1.53,1.53.68,1.53,1.53Z"/>
      </g>
      <line class="cls-8" x1="228.34" y1="290.91" x2="234.1" y2="293.46"/>
    </g>
  </g>
</svg>