<?xml version="1.0" encoding="UTF-8"?>
<svg id="Capa_2" data-name="Capa 2" xmlns="http://www.w3.org/2000/svg" viewBox="0 0 673.14 500">
  <defs>
    <style>
      .cls-1 {
        fill: #ffcc9c;
      }

      .cls-2 {
        fill: #162d43;
      }

      .cls-3 {
        fill: #f1f6ff;
      }

      .cls-4 {
        fill: #f8bd8a;
      }

      .cls-5 {
        fill: #fff;
      }

      .cls-6 {
        stroke: #fff;
      }

      .cls-6, .cls-7, .cls-8, .cls-9 {
        fill: none;
      }

      .cls-6, .cls-8, .cls-9 {
        stroke-miterlimit: 10;
      }

      .cls-10 {
        fill: #ffc63a;
      }

      .cls-11 {
        fill: #008ded;
      }

      .cls-12 {
        fill: #d0e9ff;
      }

      .cls-8 {
        stroke-width: 2px;
      }

      .cls-8, .cls-9 {
        stroke: #008ded;
      }

      .cls-13 {
        fill: #8cc6ff;
      }

      .cls-14 {
        fill: #007be5;
      }

      .cls-15 {
        fill: #ffe693;
      }
    </style>
  </defs>
  <g id="Capa_1-2" data-name="Capa 1">
    <path class="cls-3" d="M431.63,308.49c10.52-34.18,10.02-77.64-21.71-100.81-19.5-14.24-43.8-12.52-66.37-8.79-19.37,3.2-49.97,13.72-67.77,1.28-8.62-6.02-12.19-17.47-11.15-27.93,1.04-10.46,6-20.12,11.6-29.02,10.06-16.02,22.66-34.23,21.53-54.01-1.79-31.07-28.81-53.21-56.9-61.6-34.23-10.22-75.59-5.8-107.64,9.44-16.72,7.95-34.75,20.89-37.87,40.49-1.67,10.48,1.32,21.17-.5,31.61-1.79,10.27-8.63,19.88-16.17,26.82-20.57,18.92-50.83,25.35-68.15,48.13-26.77,35.2,3.77,77.56,22.7,108.09,11.85,19.11,26.11,38.24,33.88,59.49,3.7,10.14,5.6,21.18,2.69,31.78-2.63,9.58-8.95,17.37-16.5,23.61-6.65,5.5-14.14,9.85-21.66,14.03-.18-.32-.58-.51-1.02-.28-1.86.96-3.84,2.12-5.28,3.67-1.08,1.17-2.19,3.14-.61,4.33.32.24.93.15,1.19-.15.15-.18.24-.34.31-.51,5.73,6.38,15.04,5.06,22.77,4.23,11.99-1.27,23.98-1.3,36-.5,12.95.86,25.84,2.26,38.83,2.19,12.62-.07,25.22-1.06,37.81-1.84,52-3.2,104.09-4.69,156.19-4.64,25.92.03,51.83.49,77.74,1.18.35.61.71,1.22,1.1,1.82,1.23,1.88,4.22.19,3.13-1.7,1.87.05,3.74.09,5.61.15,1.51.04,1.5-2.27,0-2.34-2.35-.11-4.71-.19-7.07-.29-9.62-17.97.78-40.55,8.14-57.58,8.65-20,18.72-39.49,25.15-60.38"/>
    <path class="cls-10" d="M414.81,309.87c-8.18-6.29-19.84.15-26.77,5.36-5,3.75-9.24,8.34-12.62,13.51-.57.45-1.09.95-1.52,1.52.4-1.64.77-3.28,1.14-4.93.35-1.01.59-2.1.68-3.2,1.72-8.49,2.9-17.09,3.49-25.77.02-.26-.37-.25-.4,0-.77,6.55-1.81,13.08-3.08,19.55.07-2.91-.27-6.03-1.81-8.13-1.16-1.59-3.48-2.6-5.17-1.12-1.62,1.43-1.62,4.16-.33,5.74,1.13,1.38,2.89,2.02,4.08,3.39,2.05,2.35,2,4.87,1.65,7.56-1.44,6.29-3.1,12.52-5.04,18.67-.14.3-.28.59-.42.89.44-5.65-.9-11.36-3.99-16.28-3.77-6.01-10.89-10.74-18.1-7.48-5.71,2.59-7.57,13.2-2.68,17.45,2.65,2.3,6.47,2.05,9.74,2.09,2.81.03,6.14-.05,8.83.86,4.41,1.49,4.52,6.23,4.09,10.06-.82,2.32-1.69,4.63-2.59,6.93.52-2.89.43-5.84-1.4-8.28-1.66-2.22-5.15-3.78-7.53-1.61-1.83,1.67-1.47,4.32.52,5.64.61.4,1.27.51,1.9.82,3.59,1.77,5.17,3.57,4.26,7.7-.77,3.48-2.71,6.59-4.16,9.81-.09.2-.05.37.04.5-1.49,3.1-3.07,6.14-4.71,9.15,2.42-11.11-2.92-21.82-8.48-31.28-2.76-4.69-4.96-7.14-10.36-8.56-4.22-1.11-8.43-.71-11.39,2.8-5.26,6.24-3.34,16.79,4.38,19.89,6.06,2.43,13.07,2.28,18.62,6.04,2.98,2.02,5.5,5.15,5.58,8.89.05,2.56-.74,5.29-1.55,7.91-2.13,3.65-4.38,7.23-6.7,10.76.75-2.87.9-5.96.56-8.69-.54-4.19-6-9.59-10.4-9.4-3.48.15-6.21,5.15-4.23,8.13,1.43,2.14,4.68,2.74,6.84,3.86,6.35,3.28,4.93,8.46,2.01,13.68,0,0,0,.01,0,.02-4.81,6.73-9.94,13.27-15.37,19.64-.73.85.46,2.08,1.25,1.25,5.16-5.47,9.95-11.32,14.41-17.45,4.47-2.78,8.92,2.49,14.08,1.54,3.1-.57,5.34-3.28,3.79-6.41-1.55-3.15-5.71-3.69-8.76-2.89-2.46.65-4.48,2.06-6.28,3.76,1.91-2.77,3.76-5.59,5.53-8.45.03-.03.06-.05.09-.08,4.74-6.22,13.14-2.71,19.21-.65,5.22,1.77,10.47,3.87,15.98,4.58,3.91.5,8.29.14,10.95-3.14,2.02-2.5,2.61-6.08,1.59-9.11-2.87-8.53-16.43-7.95-23.38-6.86-7.18,1.13-15.19,3.53-20.54,8.72,3.29-5.75,6.32-11.62,9.09-17.58.04-.04.08-.07.12-.12.76-1.06,1.34-2.46,2.3-3.36,2.02-1.9,4.33-1.67,6.67-1.13,2.74.63,5.25,1.95,7.8,3.09,3.6,1.61,7.61,3.11,11.62,2.35,6.51-1.23,12.47-9.37,9.47-15.85-3.62-7.81-13.38-7.34-20-4.24-5.62,2.63-10.5,6.58-14.46,11.3,2.9-6.88,5.46-13.9,7.65-21.03,2.32-3.23,4.51-5.96,9.32-4.73,1.87.48,3.77,1.73,5.76,1.51,2.7-.3,4.34-2.9,2.86-5.4-2.93-4.97-10.47-2.28-14.69,1.53v-.03c.05-.04.09-.09.13-.15,4.29-6.93,10.17-6.86,17.64-6.84,5.94.01,12.62.72,18.44-.68,8.57-2.05,12.39-11.64,4.73-17.53"/>
    <path class="cls-15" d="M392.82,360.42c-.4,3.77.59,7.92,1.09,11.65.62,4.7,1.15,8.39-2.85,11.65-.03.03-.06.06-.08.09,0,0-.01,0-.02,0,2.05-2.96,3.12-7.93-.24-9.36-1.69-.72-3.19.52-3.16,2.24.02,1.27.97,2.36,1.42,3.5,1.16,2.92-.37,4.53-2.21,6.25-4.3,1.96-8.5,4.15-12.59,6.54,2.65-2.88,4.73-6.27,5.92-10.02,1.4-4.41.9-10.59-4.31-12.22-4.32-1.35-8.95,3.06-9.19,7.26-.15,2.58,1.13,4.98,2.43,7.11.92,1.51,1.96,2.98,2.58,4.65.53,1.43.87,2.86-.16,4.29-.49.68-1.32,1.16-1.93,1.72-.03.03-.04.06-.06.08-3.52,2.23-6.97,4.62-10.31,7.16,2.82-3.79,3.67-9.03,3.79-13.63.12-4.46-.63-13.03-6.23-14.13-1.99-.39-4.19.27-5.6,1.75-1.85,1.94-1.71,4.72-1.07,7.14.9,3.4,2.65,6.53,4.19,9.67,1.79,3.65,4.69,8.64,1.17,12.13-.02.02-.03.04-.04.06-1.65,1.35-3.27,2.74-4.86,4.17.92-1.27,1.64-2.65,1.85-4.26.26-1.98-.43-4.55-2.54-5.27-2.1-.71-3.62.92-3.72,2.91-.17,3.32,3.51,5.68,2.13,8.72-3.49,3.31-6.77,6.8-9.79,10.49-.46.56.41,1.21.89.68,3.56-3.93,7.25-7.7,11.09-11.28,0,0,0,0,.01,0,3.04-2.27,6.18-3.58,8.76.14.88,1.27,1.52,3.26,2.99,3.99,2.03,1,4.95-1.13,4.76-3.33-.24-2.78-4.08-5.77-6.76-5.76-1.74,0-3.68.36-5.42,1.07,2.02-1.75,4.09-3.46,6.21-5.1,1.58-.72,3.23-1.45,4.84-1.62,2.36-.26,4.53,1.07,6.05,2.78,2.82,3.18,3.3,7.6,5.33,11.21,2.58,4.6,9.38,4.94,12.87,1.12,1.96-2.15,1.86-4.83.82-7.39-1.33-3.28-3.05-4.46-6.23-5.81-6.4-2.72-13.58-5.19-20.36-2.76,1.75-1.27,3.54-2.51,5.36-3.71.09.05.2.06.32-.01,1.9-1.17,3.7-2.65,5.83-3.42,2.52-.91,3.78-.07,5.19,2.04.25.38.37.78.68,1.13,1,1.15,2.69,1.15,3.59-.13,1.17-1.67-.1-3.74-1.63-4.6-1.69-.95-3.55-.76-5.32-.2,1.37-.75,2.75-1.49,4.14-2.2,2.37-.59,5.36-.91,6.66,1.74.79,1.62,1.01,3.72,1.27,5.48.29,2.05.45,4.47,2.11,5.95,3.07,2.72,9.59.68,10.75-3.12,1.46-4.8-2.1-8.89-6.19-10.76-3.35-1.54-7.05-1.91-10.56-1.17.18-.11.35-.22.53-.33,3.71-1.72,7.49-3.28,11.32-4.7,1.66-.44,3.25-.68,4.89.42.95.64,1.5,1.68,2.46,2.28,1.1.69,2.82.46,3.58-.68.8-1.18-.04-2.56-1.13-3.16-1.45-.79-3.44-.75-5.26-.47,3.97-1.33,7.98-2.52,12.04-3.54.15-.04.13-.28-.03-.25-5.4,1.08-10.72,2.53-15.91,4.31-.69.15-1.35.39-1.96.69-1.01.36-2.01.73-3.01,1.12.32-.32.6-.68.83-1.08,2.97-2.55,5.51-5.59,7.46-9.04,2.7-4.79,5.8-12.64,1.17-17.27-4.33-4.33-10.05-1.14-10.63,4.42"/>
    <path class="cls-10" d="M27.68,327.4c5.82,1.39,12.5.69,18.44.68,7.47-.02,13.35-.09,17.64,6.84.03.06.08.1.12.15,0,0,0,.02,0,.03-4.22-3.81-11.76-6.5-14.69-1.53-1.47,2.5.16,5.1,2.86,5.4,2,.22,3.89-1.03,5.76-1.51,4.81-1.23,7,1.5,9.32,4.73,2.19,7.12,4.75,14.14,7.65,21.03-3.96-4.73-8.84-8.67-14.46-11.3-6.62-3.1-16.38-3.57-20,4.24-3,6.48,2.96,14.62,9.47,15.85,4.01.76,8.02-.75,11.62-2.35,2.55-1.14,5.06-2.46,7.8-3.09,2.34-.54,4.65-.77,6.67,1.13.96.9,1.54,2.31,2.3,3.36.03.05.08.08.12.12,2.77,5.96,5.8,11.84,9.09,17.58-5.35-5.18-13.36-7.59-20.54-8.72-6.94-1.09-20.51-1.67-23.38,6.86-1.02,3.03-.43,6.61,1.59,9.11,2.66,3.28,7.04,3.64,10.95,3.14,5.5-.71,10.75-2.82,15.98-4.58,6.08-2.06,14.47-5.56,19.22.65.03.03.06.05.09.08,1.77,2.86,3.62,5.68,5.53,8.45-1.8-1.7-3.82-3.11-6.28-3.76-3.04-.81-7.2-.26-8.75,2.89-1.54,3.13.69,5.85,3.79,6.41,5.16.94,9.6-4.33,14.08-1.55,4.46,6.13,9.25,11.99,14.41,17.45.79.84,1.97-.39,1.25-1.25-5.43-6.37-10.56-12.9-15.37-19.64,0,0,0-.01,0-.02-2.93-5.21-4.34-10.4,2.01-13.68,2.16-1.12,5.42-1.72,6.85-3.86,1.98-2.98-.75-7.97-4.23-8.13-4.39-.19-9.86,5.21-10.4,9.4-.35,2.73-.19,5.82.56,8.69-2.33-3.53-4.57-7.11-6.7-10.76-.81-2.62-1.6-5.35-1.55-7.91.08-3.74,2.6-6.87,5.58-8.89,5.54-3.76,12.56-3.61,18.62-6.04,7.72-3.1,9.64-13.65,4.38-19.89-2.96-3.5-7.17-3.9-11.39-2.8-5.4,1.41-7.6,3.86-10.36,8.56-5.56,9.46-10.9,20.17-8.48,31.28-1.64-3-3.21-6.05-4.71-9.15.09-.13.13-.3.04-.5-1.44-3.21-3.39-6.33-4.16-9.81-.92-4.13.67-5.93,4.26-7.7.64-.32,1.3-.42,1.9-.82,2-1.33,2.35-3.97.52-5.64-2.38-2.18-5.87-.61-7.53,1.6-1.83,2.45-1.92,5.4-1.4,8.28-.9-2.3-1.76-4.61-2.59-6.93-.43-3.82-.33-8.57,4.09-10.06,2.69-.91,6.02-.83,8.83-.86,3.26-.04,7.09.21,9.74-2.09,4.89-4.24,3.03-14.86-2.68-17.45-7.21-3.27-14.33,1.47-18.1,7.48-3.09,4.92-4.42,10.63-3.99,16.28-.14-.3-.27-.6-.41-.89-1.94-6.15-3.61-12.38-5.04-18.67-.34-2.69-.39-5.22,1.65-7.56,1.19-1.36,2.94-2.01,4.07-3.39,1.3-1.58,1.29-4.32-.33-5.74-1.69-1.49-4.02-.47-5.17,1.12-1.53,2.1-1.88,5.22-1.81,8.13-1.27-6.48-2.31-13-3.08-19.55-.03-.25-.41-.26-.4,0,.58,8.67,1.77,17.27,3.49,25.76.1,1.1.33,2.19.68,3.2.36,1.65.74,3.29,1.14,4.93-.43-.57-.95-1.07-1.52-1.52-3.38-5.17-7.62-9.76-12.62-13.51-6.93-5.2-18.59-11.65-26.77-5.36-7.66,5.89-3.84,15.48,4.74,17.53"/>
    <path class="cls-15" d="M34.31,356.01c-4.63,4.63-1.53,12.49,1.17,17.27,1.95,3.45,4.49,6.49,7.46,9.04.23.4.51.76.83,1.08-1-.39-2-.76-3.01-1.12-.61-.3-1.27-.54-1.96-.69-5.2-1.78-10.51-3.23-15.91-4.31-.16-.03-.19.21-.03.25,4.06,1.03,8.07,2.21,12.04,3.54-1.82-.28-3.81-.32-5.26.47-1.09.6-1.92,1.98-1.13,3.16.76,1.14,2.48,1.36,3.58.68.96-.6,1.51-1.65,2.46-2.28,1.64-1.1,3.23-.86,4.89-.42,3.84,1.42,7.62,2.98,11.32,4.7.17.11.35.22.53.33-3.51-.74-7.22-.37-10.56,1.17-4.09,1.88-7.65,5.96-6.19,10.76,1.16,3.8,7.68,5.84,10.75,3.12,1.66-1.48,1.82-3.9,2.11-5.95.25-1.76.47-3.87,1.27-5.48,1.3-2.65,4.29-2.33,6.66-1.74,1.39.71,2.77,1.44,4.14,2.2-1.77-.56-3.63-.75-5.32.2-1.53.86-2.8,2.93-1.63,4.6.9,1.29,2.59,1.28,3.59.13.3-.35.42-.75.67-1.13,1.41-2.11,2.67-2.96,5.19-2.05,2.12.77,3.92,2.25,5.83,3.42.12.07.23.06.32.01,1.83,1.19,3.61,2.44,5.36,3.71-6.79-2.43-13.96.04-20.36,2.76-3.18,1.35-4.9,2.53-6.23,5.81-1.04,2.56-1.14,5.25.82,7.39,3.49,3.82,10.28,3.48,12.86-1.12,2.03-3.61,2.51-8.03,5.33-11.21,1.51-1.71,3.69-3.04,6.05-2.78,1.62.18,3.26.9,4.85,1.62,2.12,1.64,4.19,3.35,6.21,5.1-1.74-.71-3.67-1.06-5.42-1.07-2.68,0-6.52,2.99-6.76,5.76-.19,2.2,2.73,4.33,4.76,3.33,1.46-.72,2.11-2.72,2.99-3.99,2.58-3.72,5.73-2.41,8.76-.14,0,0,0,0,0,0,3.84,3.58,7.53,7.34,11.09,11.28.48.53,1.35-.12.89-.68-3.01-3.69-6.3-7.19-9.79-10.49-1.38-3.04,2.3-5.4,2.13-8.72-.1-2-1.63-3.62-3.72-2.91-2.11.72-2.79,3.29-2.54,5.27.21,1.6.93,2.99,1.85,4.26-1.58-1.43-3.2-2.82-4.86-4.17-.01-.02-.02-.04-.04-.06-3.52-3.49-.62-8.48,1.17-12.13,1.54-3.14,3.3-6.26,4.19-9.67.64-2.42.77-5.2-1.07-7.14-1.4-1.48-3.61-2.14-5.6-1.75-5.6,1.1-6.35,9.68-6.23,14.13.12,4.61.97,9.84,3.8,13.63-3.34-2.54-6.79-4.93-10.31-7.16-.02-.03-.04-.06-.06-.08-.6-.57-1.44-1.04-1.93-1.72-1.03-1.43-.69-2.86-.16-4.29.62-1.67,1.66-3.14,2.58-4.65,1.31-2.13,2.58-4.53,2.43-7.11-.24-4.19-4.87-8.61-9.19-7.26-5.21,1.63-5.71,7.81-4.31,12.22,1.19,3.75,3.27,7.14,5.92,10.02-4.09-2.39-8.29-4.57-12.59-6.54-1.84-1.72-3.38-3.33-2.21-6.25.45-1.14,1.4-2.23,1.42-3.5.03-1.72-1.47-2.97-3.16-2.24-3.37,1.43-2.29,6.4-.24,9.36,0,0-.01,0-.02,0-.02-.03-.05-.06-.08-.09-4-3.26-3.48-6.96-2.85-11.65.5-3.73,1.49-7.88,1.09-11.65-.59-5.56-6.3-8.75-10.63-4.42"/>
    <path class="cls-9" d="M110.17,107.11h217.42c6.3,0,11.42,5.12,11.42,11.42v283.84c0,6.3-5.12,11.42-11.42,11.42H110.17c-6.3,0-11.42-5.12-11.42-11.42V118.52c0-6.3,5.12-11.42,11.42-11.42Z"/>
    <path class="cls-12" d="M327.59,112.11H110.17c-3.54,0-6.42,2.87-6.42,6.42v283.84c0,3.54,2.87,6.42,6.42,6.42h217.42c3.54,0,6.42-2.87,6.42-6.42V118.52c0-3.54-2.87-6.42-6.42-6.42"/>
    <rect class="cls-10" x="136.65" y="300.78" width="32.89" height="54"/>
    <polygon class="cls-5" points="153.09 316.85 156.64 324.04 164.58 325.2 158.84 330.8 160.19 338.7 153.09 334.97 145.99 338.7 147.35 330.8 141.61 325.2 149.54 324.04 153.09 316.85"/>
    <rect class="cls-11" x="169.54" y="138.78" width="32.89" height="54"/>
    <rect class="cls-5" x="182.38" y="152.76" width="7.21" height="26.04"/>
    <rect class="cls-5" x="172.97" y="162.17" width="26.04" height="7.21"/>
    <path class="cls-11" d="M301.11,408.78h26.48c3.54,0,6.42-2.87,6.42-6.42V118.52c0-1.93-.86-3.66-2.21-4.83h-30.69v295.09Z"/>
    <line class="cls-6" x1="136.65" y1="130.73" x2="136.65" y2="408.78"/>
    <line class="cls-6" x1="334.01" y1="192.78" x2="103.75" y2="192.78"/>
    <line class="cls-6" x1="334.01" y1="246.78" x2="103.75" y2="246.78"/>
    <line class="cls-6" x1="334.01" y1="300.78" x2="103.75" y2="300.78"/>
    <line class="cls-6" x1="334.01" y1="354.78" x2="103.75" y2="354.78"/>
    <line class="cls-6" x1="169.54" y1="130.73" x2="169.54" y2="408.78"/>
    <line class="cls-6" x1="202.43" y1="130.73" x2="202.43" y2="408.78"/>
    <line class="cls-6" x1="235.33" y1="130.73" x2="235.33" y2="408.78"/>
    <line class="cls-6" x1="268.22" y1="130.73" x2="268.22" y2="408.78"/>
    <line class="cls-6" x1="301.11" y1="130.73" x2="301.11" y2="408.78"/>
    <path class="cls-13" d="M327.59,112.11H110.17c-3.54,0-6.42,2.87-6.42,6.42v20.25h230.26v-20.25c0-3.54-2.87-6.42-6.42-6.42"/>
    <path class="cls-10" d="M521.92,394.95c-3.56-.31-5.76,3.75-6.81,6.56-.76,2.03-1.14,4.16-1.16,6.3-.08.24-.14.48-.16.73-.19-.55-.39-1.1-.59-1.65-.09-.36-.22-.72-.4-1.06-1.08-2.8-2.34-5.53-3.79-8.17-.04-.08-.15,0-.11.07,1,2.06,1.91,4.15,2.75,6.28-.52-.86-1.2-1.71-2.04-2.04-.63-.25-1.5-.11-1.72.64-.21.72.3,1.52.98,1.74.59.19,1.22.05,1.82.23,1.04.3,1.49,1.05,1.89,1.9.75,2.1,1.43,4.23,2.01,6.39.01.11.03.22.05.34-.93-1.73-2.38-3.15-4.2-4.01-2.22-1.05-5.18-1.1-6.67,1.2-1.18,1.82.26,5.26,2.47,5.59,1.2.18,2.27-.61,3.23-1.21.83-.51,1.78-1.16,2.74-1.4,1.57-.39,2.48.97,3.07,2.17.19.83.37,1.67.54,2.5-.39-.94-.96-1.78-1.95-2.16-.9-.34-2.21-.14-2.49.94-.22.83.38,1.53,1.2,1.55.25,0,.46-.09.71-.11,1.38-.15,2.18.08,2.68,1.45.42,1.16.44,2.43.62,3.64.01.07.05.12.11.14.14,1.18.25,2.36.33,3.55-1.37-3.69-4.92-5.82-8.31-7.54-1.68-.85-2.78-1.16-4.62-.56-1.44.46-2.59,1.37-2.8,2.94-.37,2.8,2.16,5.52,4.99,4.99,2.22-.42,4.24-1.77,6.56-1.71,1.25.04,2.57.48,3.29,1.55.49.74.77,1.68,1.02,2.6.06,1.46.07,2.93.05,4.39-.32-.98-.85-1.91-1.46-2.64-.94-1.12-3.54-1.68-4.79-.8-.99.69-.85,2.66.28,3.16.82.36,1.88-.07,2.72-.15,2.46-.23,3.02,1.55,3.14,3.61,0,0,0,0,0,0-.15,2.86-.42,5.73-.82,8.6-.05.38.52.52.6.13.48-2.56.79-5.16.95-7.78.79-1.65,3.07-.94,4.4-2.17.8-.74.94-1.95-.09-2.58-1.04-.63-2.36-.01-3.09.79-.6.65-.92,1.44-1.13,2.27.04-1.16.05-2.33.04-3.5,0-.01,0-.03.01-.04.22-2.7,3.33-3.24,5.48-3.78,1.85-.46,3.78-.82,5.52-1.64,1.24-.58,2.45-1.5,2.61-2.96.12-1.11-.37-2.26-1.23-2.95-2.43-1.95-6.28.75-8.1,2.36-1.88,1.67-3.77,3.87-4.37,6.38-.11-2.29-.32-4.57-.63-6.82,0-.02.01-.04.01-.06.02-.45-.07-.97.04-1.41.23-.93.95-1.29,1.73-1.57.92-.33,1.9-.41,2.85-.56,1.35-.2,2.8-.51,3.83-1.48,1.67-1.57,1.89-5.06-.2-6.39-2.51-1.6-5.27.35-6.62,2.49-1.15,1.82-1.84,3.88-2.11,6-.44-2.55-1-5.07-1.69-7.56.07-1.38.2-2.58,1.84-3.12.63-.21,1.42-.2,1.96-.63.73-.59.72-1.66-.17-2.11-1.78-.9-3.48,1.29-4,3.19h0s0-.05,0-.07c-.04-2.82,1.69-3.9,3.87-5.29,1.74-1.1,3.82-2.15,5.25-3.64,2.12-2.2,1.44-5.71-1.89-6"/>
    <path class="cls-15" d="M530.72,407.6c.74,1.49,2.09,2.78,3.15,4.04,1.34,1.59,2.4,2.82,1.7,4.97,0,.02,0,.04-.01.05,0,0,0,0,0,0,.06-1.58-.72-3.66-2.3-3.4-.79.13-1.05.94-.64,1.57.31.47.91.64,1.35.96,1.12.8.93,1.76.66,2.83-1.12,1.74-2.16,3.54-3.1,5.38.3-1.69.26-3.43-.18-5.09-.52-1.96-2.17-4.12-4.47-3.49-1.91.52-2.58,3.24-1.68,4.85.55.99,1.59,1.57,2.58,2.05.7.34,1.43.64,2.05,1.11.53.4.99.85.95,1.62-.02.36-.21.74-.3,1.09,0,.02,0,.03,0,.05-.77,1.65-1.48,3.35-2.11,5.07.15-2.06-.77-4.19-1.82-5.93-1.01-1.67-3.31-4.66-5.63-3.74-.83.32-1.48,1.09-1.65,1.96-.22,1.15.48,2.15,1.29,2.89,1.13,1.04,2.52,1.78,3.83,2.58,1.52.92,3.77,2.08,3.29,4.2,0,.01,0,.02,0,.03-.29.89-.56,1.78-.81,2.69.04-.69-.02-1.37-.32-2.01-.37-.79-1.23-1.58-2.18-1.35-.94.23-1.12,1.19-.68,1.95.72,1.26,2.63,1.27,2.84,2.72-.51,2.04-.9,4.11-1.14,6.18-.04.32.44.35.49.04.39-2.29.86-4.55,1.43-6.77,0,0,0,0,0,0,.59-1.55,1.44-2.78,3.27-2.02.62.26,1.33.85,2.04.77.99-.11,1.56-1.58.97-2.35-.74-.97-2.87-1.17-3.86-.53-.64.41-1.27,1-1.75,1.67.33-1.12.7-2.24,1.09-3.35.41-.64.85-1.29,1.4-1.74.81-.65,1.93-.67,2.89-.4,1.79.51,3.01,2.03,4.61,2.88,2.04,1.09,4.62-.39,5.01-2.62.22-1.25-.45-2.22-1.44-2.92-1.26-.89-2.18-.93-3.67-.67-3.01.51-6.23,1.29-8.16,3.78.35-.88.71-1.76,1.1-2.63.04,0,.09-.03.11-.08.43-.88.74-1.85,1.34-2.64.71-.93,1.38-.92,2.4-.47.18.08.32.2.51.26.64.19,1.26-.21,1.29-.9.04-.89-.92-1.36-1.68-1.31-.85.05-1.49.56-2.01,1.18.33-.6.66-1.2,1.01-1.79.74-.78,1.76-1.6,2.87-.93.67.41,1.25,1.13,1.76,1.72.59.69,1.22,1.54,2.18,1.7,1.78.28,3.7-2.01,3.23-3.69-.59-2.12-2.87-2.78-4.82-2.51-1.6.22-3.05.96-4.17,2.06.04-.08.08-.16.12-.25.96-1.51,1.99-2.98,3.07-4.41.51-.55,1.04-1.02,1.9-1,.5,0,.95.27,1.45.26.57,0,1.15-.5,1.16-1.1.02-.62-.62-.94-1.16-.9-.72.05-1.45.53-2.05,1.07,1.15-1.43,2.35-2.81,3.61-4.15.05-.05-.02-.13-.07-.08-1.74,1.67-3.36,3.46-4.85,5.34-.22.22-.41.46-.56.72-.29.37-.57.74-.84,1.12.04-.19.06-.39.05-.6.49-1.64.71-3.36.62-5.1-.13-2.4-.84-6.03-3.64-6.65-2.62-.58-3.98,1.95-2.88,4.14"/>
    <path class="cls-15" d="M328.65,414.77c.56,1.17,1.59,2.2,2.4,3.2,1.02,1.26,1.83,2.24,1.25,3.91,0,.01,0,.03,0,.04,0,0,0,0,0,0,.07-1.23-.51-2.87-1.74-2.69-.62.09-.84.72-.52,1.22.23.37.7.52,1.04.77.86.64.7,1.39.47,2.22-.9,1.34-1.74,2.73-2.5,4.16.26-1.31.26-2.67-.06-3.98-.38-1.54-1.63-3.25-3.44-2.79-1.5.38-2.06,2.49-1.38,3.76.42.78,1.22,1.25,1.98,1.64.54.28,1.1.52,1.58.9.41.32.76.68.72,1.28-.02.28-.18.57-.25.85,0,.01,0,.02,0,.04-.63,1.28-1.21,2.59-1.73,3.93.14-1.61-.54-3.29-1.33-4.65-.76-1.32-2.51-3.69-4.34-3.01-.65.24-1.17.83-1.32,1.51-.19.9.35,1.68.96,2.28.87.83,1.94,1.43,2.95,2.07,1.18.75,2.91,1.68,2.51,3.33,0,0,0,.02,0,.03-.24.69-.46,1.38-.67,2.08.04-.53,0-1.07-.22-1.57-.28-.62-.94-1.25-1.68-1.08-.74.17-.89.91-.56,1.51.54,1,2.04,1.03,2.18,2.16-.43,1.59-.76,3.19-.98,4.81-.03.25.34.28.38.04.34-1.78.74-3.54,1.22-5.27,0,0,0,0,0,0,.48-1.2,1.16-2.15,2.58-1.53.48.21,1.03.68,1.58.63.77-.07,1.24-1.21.79-1.82-.57-.77-2.22-.95-3-.47-.51.31-1.01.76-1.39,1.28.28-.87.58-1.74.9-2.6.33-.49.68-1,1.12-1.34.64-.5,1.51-.5,2.26-.27,1.39.42,2.32,1.63,3.56,2.32,1.57.88,3.62-.23,3.95-1.97.19-.97-.32-1.74-1.08-2.3-.97-.72-1.69-.76-2.86-.58-2.35.35-4.89.91-6.43,2.83.28-.69.58-1.37.9-2.04.03,0,.07-.02.09-.06.35-.68.61-1.43,1.09-2.04.57-.72,1.09-.7,1.88-.33.14.06.25.16.4.21.5.15.99-.15,1.02-.68.04-.7-.7-1.07-1.3-1.05-.66.02-1.17.41-1.59.89.26-.46.54-.92.82-1.38.59-.59,1.4-1.22,2.25-.68.52.33.96.9,1.35,1.37.45.54.93,1.22,1.68,1.36,1.38.25,2.92-1.51,2.58-2.83-.43-1.66-2.2-2.22-3.73-2.03-1.25.15-2.4.7-3.29,1.55.03-.06.06-.13.09-.19.77-1.17,1.6-2.3,2.46-3.4.41-.42.83-.78,1.5-.75.39.01.74.22,1.13.23.44,0,.9-.37.92-.84.02-.49-.47-.74-.89-.72-.56.03-1.14.4-1.62.8.92-1.1,1.88-2.16,2.88-3.18.04-.04-.01-.11-.05-.07-1.38,1.28-2.67,2.65-3.87,4.1-.17.17-.32.36-.45.55-.23.28-.46.57-.68.86.04-.15.05-.31.05-.46.41-1.28.61-2.62.56-3.97-.07-1.88-.57-4.72-2.74-5.25-2.04-.49-3.13,1.46-2.31,3.19"/>
    <path class="cls-10" d="M317.63,403.4c-2.74.27-3.82,3.66-4.22,5.93-.29,1.64-.27,3.31.02,4.93-.03.19-.04.38-.02.57-.22-.39-.45-.78-.68-1.16-.12-.26-.27-.51-.45-.75-1.22-1.96-2.56-3.85-4.03-5.64-.04-.05-.12.02-.08.07,1.05,1.41,2.04,2.87,2.98,4.36-.52-.58-1.16-1.12-1.84-1.25-.51-.1-1.15.13-1.21.73-.05.57.44,1.1.99,1.17.47.06.93-.13,1.41-.09.83.08,1.28.58,1.7,1.17.87,1.48,1.68,3,2.43,4.55.03.08.05.17.08.25-.95-1.18-2.25-2.04-3.75-2.43-1.83-.48-4.08-.1-4.88,1.86-.64,1.54.94,3.95,2.67,3.88.93-.04,1.63-.79,2.27-1.37.55-.51,1.18-1.13,1.87-1.45,1.13-.52,2.02.38,2.63,1.2.26.6.52,1.21.76,1.82-.43-.65-.98-1.21-1.79-1.35-.73-.13-1.69.21-1.75,1.06-.05.66.5,1.11,1.13,1,.19-.03.34-.13.52-.19,1.02-.31,1.66-.25,2.23.72.49.82.68,1.78.99,2.66.02.05.06.08.1.09.28.88.53,1.75.76,2.64-1.56-2.6-4.55-3.7-7.36-4.52-1.39-.41-2.27-.48-3.57.23-1.02.56-1.77,1.4-1.7,2.62.12,2.17,2.42,3.87,4.48,3.06,1.62-.64,2.95-1.95,4.72-2.23.95-.15,2.01,0,2.71.71.48.49.82,1.16,1.14,1.82.25,1.1.47,2.2.67,3.31-.38-.69-.91-1.32-1.48-1.79-.87-.71-2.92-.76-3.74.08-.65.66-.26,2.13.66,2.35.67.16,1.41-.32,2.03-.5,1.83-.52,2.5.74,2.89,2.29,0,0,0,0,0,0,.3,2.19.49,4.39.61,6.62.01.3.47.32.47.01,0-2-.14-4.02-.39-6.02.36-1.36,2.19-1.15,3.01-2.27.5-.68.44-1.61-.44-1.94-.88-.33-1.78.33-2.23,1.04-.36.58-.49,1.22-.53,1.88-.14-.89-.29-1.77-.47-2.65,0-.01,0-.02,0-.03-.22-2.07,2.06-2.93,3.61-3.64,1.34-.61,2.74-1.16,3.94-2.03.85-.62,1.63-1.49,1.55-2.61-.06-.85-.6-1.66-1.36-2.06-2.11-1.13-4.64,1.46-5.79,2.94-1.19,1.53-2.3,3.46-2.4,5.45-.41-1.72-.9-3.41-1.45-5.07,0-.01,0-.03,0-.04-.05-.35-.19-.72-.17-1.08.04-.74.53-1.11,1.09-1.44.65-.38,1.38-.58,2.08-.83.99-.35,2.05-.79,2.69-1.67,1.04-1.43.71-4.1-1.06-4.81-2.13-.85-3.94,1.02-4.66,2.83-.61,1.54-.84,3.2-.74,4.84-.7-1.87-1.48-3.7-2.36-5.48-.14-1.05-.21-1.98.94-2.62.45-.25,1.05-.35,1.39-.76.47-.55.31-1.36-.43-1.57-1.48-.43-2.45,1.47-2.57,2.98,0,0,0,0,0,0,0-.02,0-.03,0-.05-.43-2.13.72-3.19,2.18-4.55,1.15-1.08,2.58-2.17,3.46-3.5,1.29-1.97.28-4.52-2.28-4.27"/>
    <path class="cls-2" d="M621.47,441.11H224.82c-4.32,0-7.83,3.51-7.83,7.83s3.51,7.83,7.83,7.83h396.65c4.32,0,7.83-3.5,7.83-7.83s-3.51-7.83-7.83-7.83"/>
    <polygon class="cls-8" points="584.93 191.28 567.05 166.59 557.4 192.4 584.93 191.28"/>
    <polygon class="cls-11" points="576.12 146.74 588.09 160.57 592.52 144.64 576.12 146.74"/>
    <polygon class="cls-8" points="345.07 97.11 368.75 77.92 342.46 69.69 345.07 97.11"/>
    <polygon class="cls-11" points="389.06 85.9 375.9 98.6 392.04 102.16 389.06 85.9"/>
    <polygon class="cls-11" points="503.44 112.41 520.97 117.62 516.13 101.82 503.44 112.41"/>
    <polygon class="cls-15" points="400.76 65.48 395.91 74.01 404.76 73.4 400.76 65.48"/>
    <polygon class="cls-15" points="522.93 85.9 527.18 94.74 531.71 87.12 522.93 85.9"/>
    <polygon class="cls-10" points="255.76 175.12 276.45 197.51 282.96 170.74 255.76 175.12"/>
    <polygon class="cls-10" points="571.8 250.17 567.56 240.88 562.68 248.71 571.8 250.17"/>
    <polygon class="cls-11" points="269.79 218.29 256.27 205.98 253.76 222.32 269.79 218.29"/>
    <polygon class="cls-13" points="290.92 228.65 282.1 224.36 283.28 233.15 290.92 228.65"/>
    <polygon class="cls-13" points="329.32 97 320.5 92.72 321.68 101.5 329.32 97"/>
    <polygon class="cls-9" points="550.87 133.95 559.12 139.25 558.99 130.39 550.87 133.95"/>
    <path class="cls-1" d="M493.73,248.65s3.09,31.68,3.09,32.92-7.07,33.9-7.34,34.43c-.27.53-3.33-9.99-3.33-9.99l1.62-23.66-4.58-32.58,10.55-1.13Z"/>
    <path class="cls-4" d="M494.36,255.1c-.37-3.8-.63-6.45-.63-6.45l-10.55,1.13,4.58,32.58-1.62,23.66s.09.31.24.82c2.68-1.52,4.77-4.85,5.65-7.38.28-.81-.15-1.41-.76-1.67-2.31-7.29-3.51-15.12-3.75-22.75-.12-3.81.06-7.75,1.21-11.41,1.18-3.77,3.07-6.25,5.63-8.54"/>
    <path class="cls-2" d="M445.57,431.79s-11.43,1.51-12.37,7.25c0,0-.6,1.1.74,1.73,1.34.63,21.82.2,21.82.2,0,0,.72-2.94-.49-7.42l-9.69-1.76Z"/>
    <path class="cls-2" d="M475.27,431.79s-10.13,1.51-11.07,7.25c0,0-.6,1.1.74,1.73,1.34.63,20.52.2,20.52.2,0,0,.72-2.94-.49-7.42l-9.69-1.76Z"/>
    <path class="cls-1" d="M444.74,348.77l.82,83.02s2.6,7.33,9.69,1.76l11.18-82.78-21.7-1.99Z"/>
    <path class="cls-4" d="M453.22,429.48c-.39,2.19-.78,4.22-1.74,6.03,1.09-.24,2.34-.83,3.78-1.96l11.18-82.78-21.7-1.99.1,10.2c.96,1.02,1.98,1.98,3.04,2.89,2.54,2.15,5.54,4.1,7.44,6.88,4.89,7.15,2.87,16.97,2.28,25.08-.87,11.92-2.25,23.89-4.39,35.66"/>
    <path class="cls-1" d="M467.76,349.97l7.52,81.82s2.12,5.18,9.64,1.8l4.57-85.23-21.72,1.61Z"/>
    <path class="cls-4" d="M481.73,422.86c-.08,4,.03,7.92-.99,11.84,1.16-.07,2.53-.38,4.16-1.12l4.57-85.23-21.72,1.61.72,7.86c.66.64,1.3,1.47,1.64,1.69,1.87,1.25,4.48,1.34,6.55,2.18,7.75,3.15,8.09,12.29,7.58,19.45-.99,13.88-2.22,27.8-2.52,41.7"/>
    <path class="cls-1" d="M455.86,238.18c.31-.38-.16-.99-.67-.85-.07.02-.13.04-.2.06-.57-.72-1.01-1.77-1.73-2.3-1.49-1.11-3.8-1.66-5.5-2.36-1.68-.69-3.43-1.51-5.2-1.96-1.42-.36-2.67.2-3.96.83-1.98.66-3.93,1.93-5.8,2.86-2.26,1.11-4.52,2.23-6.78,3.34-.32.16-.65.32-1.01.32-.44,0-.84-.24-1.21-.48-1.67-1.1-3.26-2.35-4.65-3.78-1.17-1.2-2.22-2.5-3.27-3.8-1.92-2.38-3.67-4.89-5.35-7.45-1.57-2.38-3.11-4.77-4.99-6.93-.72-.83-2.51-2.91-3.81-2.19-1.5.82.8,2.39,1.22,3.1-.46.39-.77.93-.81,1.53-.02.22,0,.46-.14.64-.2.26-.62.23-.86.46-.45.42.07,1.31-.37,1.75-.1.1-.24.16-.33.27-.12.16-.12.38-.1.57.15,1.37.94,1.81,2.18,3.14.56.6.88.17,1.11-.33.43.11.85.33,1.26.5,1.04.42,1.5.97,1.95,1.98,2.24,5.11,5.61,9.61,8.07,14.6.86,1.75,1.85,3.47,2.96,5.08.79,1.14,1.71,2.3,3.14,2.59.76.15,1.55.1,2.32.01,3.9-.45,7.6-1.84,11.29-3.1.93-.32,1.86-.63,2.8-.92,5.64-1.73,11.62-3.52,16.88-6.32.17.1.41.17.89.28.72.16,1.02-.69.65-1.17"/>
    <path class="cls-4" d="M447.25,240.74c-6.76-.28-13.82,2.73-20.28,4.41-8.23,2.14-12.74-6.21-16.98-12.07,1.68,2.86,3.47,5.67,4.94,8.64.86,1.75,1.85,3.47,2.96,5.08.79,1.14,1.71,2.3,3.14,2.59.76.15,1.55.1,2.32.01,3.9-.45,7.6-1.84,11.29-3.1.93-.32,1.86-.63,2.8-.92,3.65-1.12,7.44-2.27,11.08-3.7-.15-.5-.56-.92-1.28-.95"/>
    <path class="cls-1" d="M473.68,224.55c1.17-1.79,1.03-4.54,1.26-6.66.05-.45.53-4.63.59-4.64-2.11.53-4.35,1.09-6.4-.03-1.92-1.05-2.86-3.23-3.21-5.28,1.48.07,2.99-1.32,3.81-2.39,1.01-1.33,1.7-3.15,1.37-4.83-.32-1.62-1.59-2.69-3.27-2.57-1.36.1-2.37.92-3.22,1.9-1.45-.99-3.33-1.37-4.88-2.21-2.18-1.18-3.93-2.89-4.65-5.3-.22-.73-1.02.62-.98.78-.33,4.14-.71,8.28-.75,12.43-.03,3.22-.62,8.54,1.05,11.5.45.79,1.19,1.31,2.02,1.62.99.37,2.18.12,3.11.5.91.38.86,1.35.9,2.21.07,1.42.09,2.84.07,4.25,2.83.27,5.67.45,8.52.54.8.03,1.61.04,2.37-.17,1.07-.3,1.8-.89,2.29-1.64"/>
    <path class="cls-11" d="M501.6,342.82c-.39-3.16-1.09-6.19-1.46-8.37-4.49-26.32-15.48-51.66-15.21-78.7.01-1.35-.39-3.15.94-4.02,1.51-.98,9.23-1.73,9.23-1.73,0,0-.43-1.85-.81-2.95-1.71-4.88-3.61-9.7-5.74-14.41-1.16-2.56-2.48-5.3-4.93-6.86-3.65-2.33-8.24-2.69-12.44-2.93-4.7-.27-9.43-.18-14.12.26-1.14.11-2.29.24-3.38.58-.75.23-1.46.57-2.17.9-3.13,1.47-6.24,2.97-9.33,4.51-1.49.74-2.98,1.53-4.5,2.2-.99.44-2.41.98-2.86,2.08-.92,2.22,3.47,7.78,4.6,9.55,1.11,1.73,2.22,3.46,3.34,5.19.15.23.32.48.58.57.22.08.46.02.69-.04,1.4-.36,2.75-.86,4.06-1.46-.15,1.1.17,10.89.16,12.19-.06,4.36-.25,8.72-.58,13.07-.69,8.85-2.11,17.55-4.35,26.15-3.42,13.18-6.05,26.27-8.39,39.68-.79,4.56-3.02,10.83,1.1,14.45,1.7,1.5,3.89,2.3,6.06,2.98,16.25,5.14,33.3,2.65,50.1,2.01,1.8-.07,3.67-.15,5.26-.98,4.61-2.39,4.85-8.35,4.16-13.92"/>
    <path class="cls-14" d="M484.49,249.72c.17,1.32.3,2.65.41,3.97.05-.78.26-1.5.97-1.96,1.51-.98,9.23-1.73,9.23-1.73,0,0-.43-1.86-.81-2.95-.24-.69-.52-.38-.99-.07-3.83,2.53-7.99-1.32-8.95-4.95-.1-.4-.26-.7-.59-.98-.16-.14-1.07-.41-1.11-.51.29.64.39,1.44.55,2.13.18.77.37,1.54.52,2.32.31,1.57.56,3.15.77,4.73"/>
    <path class="cls-14" d="M440.38,244.41c.79,1.23,1.59,2.47,2.38,3.7.15.23.32.48.58.57.22.08.46.02.69-.04,1.4-.36,2.75-.86,4.06-1.46.3-1.25.36-4.49-.14-4.22-1.75.95-2.46,1.39-4.48,1.43-1.02.02-2.06-.01-3.09,0"/>
    <path class="cls-11" d="M433.2,439.04s-.6,1.1.74,1.73c1.34.63,21.82.2,21.82.2,0,0,.16-.67.2-1.86-6.15.16-19.66-.03-22.75-.07"/>
    <path class="cls-11" d="M464.19,439.06c-.06.13-.5,1.12.75,1.71,1.34.63,20.52.2,20.52.2,0,0,.16-.68.2-1.87-5.09.16-16.45.03-21.47-.03"/>
    <path class="cls-2" d="M494.62,230.12c-.88-2.48-2.57-4.54-3.49-7.02-1.51-4.05.39-7.82-.27-11.9-.42-2.57-2.03-4.72-3.18-7-1.7-3.37-1.36-7.01-1.95-10.62-.52-3.12-1.68-6.33-3.65-8.82-.52-.67-1.11-1.31-1.87-1.69-1.57-.79-3.42-.35-5.07-.86-1.33-.42-2.48-1.31-3.58-2.12-2.38-1.74-4.81-3.51-7.85-2.18-2.74,1.2-3.37,4.58-6.58,5-1.02.13-2.08.19-3.02.62-1.29.59-1.79,1.68-1.64,3.03.55,4.84,2.51,11.66,5.88,15.34.84.92,1.51,1.76,2.04,2.57,0,0,2.34-3.08,3.99-.94.96,1.24,1.01,4.64,0,7.06-.65,1.57-2.4,1.67-2.43,3.47-.03,1.66.75,3.16.93,4.79.3,2.76-1.53,5.28-2.61,7.67-1.45,3.23-3.51,7.46-3.17,11.11.18,1.98,1.38,3.69,3.1,4.65,2.54,1.42,4.29.59,6.91.07,3.08-.62,5.91.7,8.81,1.35,1.9.42,3.78-.57,5.5-1.23,1.95-.76,2.8-1.19,4.93-.95,3.09.35,6.99-.43,8.49-3.5,1.08-2.21.69-5.3-.22-7.87"/>
    <path class="cls-14" d="M501.6,342.82c-.39-3.16-1.09-6.19-1.46-8.37-2.71-15.89-7.79-31.43-11.33-47.2-.04,7.63,1.01,15.02,2.89,22.61,2.36,9.57,6.76,25.87-3.02,33.02-5.24,3.83-12.37,1.92-18.2.82-3.99-.75-7.56-.61-11.46.62-4.77,1.5-9.28,3.42-14.26,4.2-3.86.6-7.69.57-10.17-2.91-.29-.41-.55-.85-.8-1.3-.41,3.13-.23,6.25,2.24,8.42,1.7,1.5,3.89,2.3,6.06,2.98,16.25,5.14,33.3,2.65,50.1,2.01,1.8-.07,3.67-.15,5.26-.98,4.6-2.39,4.85-8.35,4.16-13.92"/>
    <rect class="cls-7" x="173.14" width="500" height="500"/>
  </g>
</svg>