<svg id="Grupo_384" data-name="Grupo 384" xmlns="http://www.w3.org/2000/svg" width="96" height="96" viewBox="0 0 96 96">
  <g id="Grupo_39" data-name="Grupo 39">
    <path id="Trazado_9" data-name="Trazado 9" d="M91.594,87.188H78.844V17.906A1.406,1.406,0,0,0,77.437,16.5H67.406V1.406A1.406,1.406,0,0,0,66,0H30a1.406,1.406,0,0,0-1.406,1.406V16.5H18.563a1.406,1.406,0,0,0-1.406,1.406V87.188H4.406a4.406,4.406,0,0,0,0,8.813H91.594a4.406,4.406,0,0,0,0-8.812ZM31.406,2.813H64.594V16.5H59.719V15.065a2.159,2.159,0,0,0-2.156-2.156H53.156V8.5A2.159,2.159,0,0,0,51,6.346H45A2.159,2.159,0,0,0,42.844,8.5v4.406H38.438a2.159,2.159,0,0,0-2.156,2.156V16.5H31.406ZM43.5,20.409H39.094V15.721H43.5a2.159,2.159,0,0,0,2.156-2.156V9.159h4.688v4.406A2.159,2.159,0,0,0,52.5,15.721h4.406v4.688H52.5a2.159,2.159,0,0,0-2.156,2.156v4.406H45.656V22.565A2.159,2.159,0,0,0,43.5,20.409Zm-23.531-1.1H36.281v1.752a2.159,2.159,0,0,0,2.156,2.156h4.406v4.406A2.159,2.159,0,0,0,45,29.784h6a2.159,2.159,0,0,0,2.156-2.156V23.221h4.406a2.159,2.159,0,0,0,2.156-2.156V19.313H76.031V33.169H19.969Zm0,16.668H76v2.813H19.969Zm0,5.625H76.031V87.188H66.469V77.344a1.406,1.406,0,0,0-1.406-1.406H30.938a1.406,1.406,0,0,0-1.406,1.406v9.844H19.969ZM63.656,78.75v8.437H60.094V78.75Zm-6.375,0v8.437H38.719V78.75Zm-21.375,0v8.437H32.344V78.75ZM91.594,93.188H4.406a1.594,1.594,0,0,1,0-3.187H91.594a1.594,1.594,0,0,1,0,3.188Z" fill="#e0e0e0"/>
    <path id="Trazado_10" data-name="Trazado 10" d="M135.73,234.5h-6.349a.882.882,0,0,0-.882.882v5.878a.882.882,0,0,0,.882.882h6.349a.882.882,0,0,0,.882-.882v-5.878A.882.882,0,0,0,135.73,234.5Zm-.882,5.878h-4.585v-4.115h4.585Z" transform="translate(-103.007 -188.146)" fill="#e0e0e0"/>
    <path id="Trazado_11" data-name="Trazado 11" d="M321.73,234.5h-6.349a.882.882,0,0,0-.882.882v5.878a.882.882,0,0,0,.882.882h6.349a.882.882,0,0,0,.882-.882v-5.878A.882.882,0,0,0,321.73,234.5Zm-.882,5.878h-4.585v-4.115h4.585Z" transform="translate(-252.106 -188.146)" fill="#e0e0e0"/>
    <path id="Trazado_12" data-name="Trazado 12" d="M228.73,234.5h-6.349a.882.882,0,0,0-.882.882v5.878a.882.882,0,0,0,.882.882h6.349a.882.882,0,0,0,.882-.882v-5.878A.882.882,0,0,0,228.73,234.5Zm-.882,5.878h-4.585v-4.115h4.585Z" transform="translate(-177.556 -188.146)" fill="#e0e0e0"/>
    <path id="Trazado_13" data-name="Trazado 13" d="M135.73,321.5h-6.349a.882.882,0,0,0-.882.882v5.878a.882.882,0,0,0,.882.882h6.349a.881.881,0,0,0,.882-.882v-5.878A.882.882,0,0,0,135.73,321.5Zm-.882,5.878h-4.585v-4.115h4.585Z" transform="translate(-103.007 -257.949)" fill="#e0e0e0"/>
    <path id="Trazado_14" data-name="Trazado 14" d="M321.73,321.5h-6.349a.882.882,0,0,0-.882.882v5.878a.882.882,0,0,0,.882.882h6.349a.882.882,0,0,0,.882-.882v-5.878A.882.882,0,0,0,321.73,321.5Zm-.882,5.878h-4.585v-4.115h4.585Z" transform="translate(-252.106 -257.949)" fill="#e0e0e0"/>
    <path id="Trazado_15" data-name="Trazado 15" d="M228.73,321.5h-6.349a.882.882,0,0,0-.882.882v5.878a.882.882,0,0,0,.882.882h6.349a.882.882,0,0,0,.882-.882v-5.878A.882.882,0,0,0,228.73,321.5Zm-.882,5.878h-4.585v-4.115h4.585Z" transform="translate(-177.556 -257.949)" fill="#e0e0e0"/>
  </g>
</svg>
