<svg id="Capa_2" data-name="Capa 2" xmlns="http://www.w3.org/2000/svg" viewBox="0 0 130.61 90.1">
  <defs>
    <style>
      .cls-1 {
        fill: #db7005;
      }

      .cls-1, .cls-2 {
        fill-rule: evenodd;
      }

      .cls-2 {
        fill: #009349;
      }
    </style>
  </defs>
  <g id="Capa_1-2" data-name="Capa 1">
    <g>
      <path id="Trazado_123" data-name="Trazado 123" class="cls-2" d="M89.93,73.55c10.03,4.22,18.93,1.46,21.2,0,3.78-2.72,5.56-8.07,4.3-12.55-1.36-4.54-5.38-7.76-10.11-8.1-3.28-.08-6.56,0-9.84-.03-5.04.06-9.97-1.42-14.14-4.24-11.92-7.98-15.12-24.12-7.14-36.04,1.05-1.57,2.27-3.02,3.64-4.33,4.77-4.68,11.21-7.25,17.88-7.16,10,0,20,0,29.99,0h1.27c-.35.73-.62,1.33-.91,1.93-1.92,3.91-3.89,7.8-5.74,11.74-.29.82-1.13,1.33-1.99,1.2-7.56-.04-15.12-.03-22.67-.02-4.7.01-8.2,2.11-10.11,6.39s-1.23,8.29,1.68,12.02c1.88,2.4,4.77,3.78,7.81,3.73,4.03.14,8.08-.05,12.11.21,11.9.76,22.09,10.96,23.28,22.87,1.23,11.57-5,22.18-15.81,26.51-3.78,1.45-11.57,2.11-16.63,2.13-1.34-2.69-7.77-15.54-8.09-16.24Z"/>
      <path id="Trazado_124" data-name="Trazado 124" class="cls-2" d="M45.03,33.65c-3.02,6-5.89,11.73-8.76,17.45-6.3,12.54-12.6,25.08-18.89,37.62-.58.99-1.29,1.38-2.21,1.38H0C15.02,60.05,29.98,30.13,45.03,0c10.04,20.1,20.02,40.09,30.02,60.1-.45,0-.75,0-1.04,0-4.91,0-9.83-.03-14.74,0-.73,0-1.02,0-1.56-.96-3.93-7.97-7.89-15.93-11.86-23.87-.23-.46-.46-.91-.81-1.62Z"/>
      <path id="Trazado_125" data-name="Trazado 125" class="cls-1" d="M88.98,90.1h-7.48c-1.5,0-4.24,0-6.27,0-1.54,0-3.07-.96-3.76-2.34l-6.8-13.66h16.29s.05,0,.07.04c.43.87,7.73,15.54,7.95,15.96Z"/>
    </g>
  </g>
</svg>