<?xml version="1.0" encoding="UTF-8"?>
<svg id="Capa_2" data-name="Capa 2" xmlns="http://www.w3.org/2000/svg" viewBox="0 0 471.72 187.58">
  <defs>
    <style>
      .cls-1 {
        fill: #064e3b;
      }

      .cls-2, .cls-3 {
        fill: #f97316;
      }

      .cls-4 {
        fill: #009349;
      }

      .cls-4, .cls-3 {
        fill-rule: evenodd;
      }
    </style>
  </defs>
  <g id="Capa_1-2" data-name="Capa 1">
    <g>
      <g>
        <path class="cls-4" d="M305.92,64.4v1.4c-.4,10.4-5.6,18.4-15.9,22.5-1.4.6-3.5,1-5.7,1.3-.3,0-.7,0-1,.1-.9,0-1.9.2-2.9.2-2.8,0-5.4-.4-7.9-1.2-.1-.2-.3-.4-.4-.7-2.3-4.6-6.6-13.2-6.9-13.8,20.1,8,27.8-3.2,27.8-9.8s-4.1-11.8-15.1-11.7c-2.5,0-6,.5-7.5.5-4.2,0-8-.6-11.5-2.5-.8-.4-1.5-.9-2.3-1.4-13.8-9.3-15.3-29.4-3.1-40.7,4.7-4.4,11-6.9,17.5-6.8h31.3l-7.9,12.8c-.8,1.3-2.2,2-3.6,2h-19.8c-4.7,0-8.2,2.1-10.1,6.4-1.9,4.3-1.2,8.3,1.7,12,6.3,6.6,10,4.3,16.6,4.3,14.4,0,26.4,10.7,26.7,24.4v.7h0Z"/>
        <path id="Trazado_125" data-name="Trazado 125" class="cls-3" d="M264.22,89.3h-14c-1.6,0-3.1-.9-3.8-2.4h0l-6.3-12.6h16.7c.2.3,7.2,14.5,7.5,15h-.1Z"/>
        <path class="cls-4" d="M249.82,59.3c-9.9-19.7-19.7-39.5-29.6-59.3-14.9,29.8-29.7,59.5-44.6,89.3h13.8c1.6,0,3.1-.9,3.8-2.3,3.4-6.7,13.2-26.1,18.3-36.3,2.8-5.7,5.7-11.3,8.7-17.3.4.7.6,1.1.8,1.6,3.9,7.9,7.9,15.8,11.8,23.7.2.3.3.5.5.7h16.6l-.1-.1Z"/>
      </g>
      <g>
        <path class="cls-1" d="M38.69,156.29H8.59l-6.89,15.12H0l22.72-49.63h1.56l23,49.63h-1.63l-6.96-15.12ZM37.98,154.87l-14.48-31.45-14.27,31.45h28.75Z"/>
        <path class="cls-1" d="M83.92,134.71v32.52c0,10.93-6.89,17.96-17.47,17.89-5.89-.21-10.51-2.2-14.77-6.39l.99-.99c3.9,3.9,8.24,5.75,13.77,5.96,9.73.07,16.05-6.39,16.05-16.47v-7.6c-2.56,6.32-8.45,10.44-15.83,10.44-9.87,0-17.11-7.46-17.11-17.61s7.24-17.75,17.11-17.75c7.38,0,13.28,4.12,15.83,10.51v-10.51h1.42ZM82.5,152.46c0-9.44-6.67-16.4-15.83-16.4s-15.76,6.96-15.76,16.4,6.6,16.26,15.76,16.26,15.83-6.89,15.83-16.26Z"/>
        <path class="cls-1" d="M124.96,164.67l.99.99c-3.34,3.62-8.31,5.75-13.99,5.75-10.15,0-17.68-7.67-17.68-18.39s7.53-18.32,17.68-18.32,17.04,7.67,17.04,18.32h-33.3c0,10.01,6.82,16.97,16.26,16.97,5.33,0,9.94-1.92,12.99-5.33ZM95.78,151.61h31.81c-.64-9.16-6.53-15.48-15.62-15.48s-15.62,6.32-16.19,15.48Z"/>
        <path class="cls-1" d="M171.54,149.19v22.22h-1.42v-22.22c0-8.24-4.83-13.06-12.99-13.06-9.16.21-14.77,5.89-15.48,15.33v19.95h-1.42v-36.71h1.42v10.37c2.34-6.46,7.81-10.22,15.48-10.37,9.09,0,14.41,5.4,14.41,14.48Z"/>
        <path class="cls-1" d="M217.76,118.73v52.68h-1.42v-10.79c-2.7,6.6-8.8,10.93-16.54,10.93-10.37,0-17.96-7.81-17.96-18.46s7.6-18.53,17.96-18.53c7.74,0,13.84,4.33,16.54,10.93v-26.77h1.42ZM216.34,153.1c0-9.87-6.96-17.11-16.54-17.11s-16.54,7.24-16.54,17.11,6.96,17.04,16.54,17.04,16.54-7.17,16.54-17.04Z"/>
        <path class="cls-1" d="M257.8,171.42l-.07-8.31c-3.27,5.75-8.8,8.31-15.41,8.31-7.1,0-11.93-4.47-11.93-10.58s5.25-9.44,13.63-9.44h13.63v-4.47c-.07-6.74-3.9-10.79-11.64-10.79-4.9,0-8.88,1.99-12.85,5.11l-.85-1.14c4.12-3.27,8.52-5.4,13.7-5.4,8.45,0,12.99,4.76,13.06,12.21l.14,24.5h-1.42ZM257.73,159.91l-.07-7.1h-13.63c-7.81,0-12.21,2.91-12.21,8.02,0,5.4,4.12,9.16,10.58,9.16,7.1,0,12.42-2.84,15.34-10.08Z"/>
        <path class="cls-1" d="M308.57,123.21c-8.73,0-14.41,3.76-14.41,9.58,0,16.61,29.82,8.09,29.68,26.55,0,7.31-6.6,12.07-16.83,12.07-6.25,0-12.85-2.77-16.97-6.96l.99-.99c3.76,3.98,10.01,6.53,15.97,6.53,9.37,0,15.41-4.19,15.41-10.65.14-17.04-29.68-8.52-29.68-26.55,0-6.67,6.25-11,15.83-11,4.62,0,9.8,1.42,13.21,3.62l-.71,1.14c-3.2-2.06-8.09-3.34-12.5-3.34Z"/>
        <path class="cls-1" d="M361.11,171.42l-.07-8.31c-3.27,5.75-8.8,8.31-15.41,8.31-7.1,0-11.93-4.47-11.93-10.58s5.25-9.44,13.63-9.44h13.63v-4.47c-.07-6.74-3.9-10.79-11.64-10.79-4.9,0-8.88,1.99-12.85,5.11l-.85-1.14c4.12-3.27,8.52-5.4,13.7-5.4,8.45,0,12.99,4.76,13.06,12.21l.14,24.5h-1.42ZM361.03,159.91l-.07-7.1h-13.63c-7.81,0-12.21,2.91-12.21,8.02,0,5.4,4.12,9.16,10.58,9.16,7.1,0,12.42-2.84,15.34-10.08Z"/>
        <path class="cls-1" d="M378.71,118.73v52.68h-1.42v-52.68h1.42Z"/>
        <path class="cls-1" d="M424.3,134.71v36.71h-1.42v-10.72c-2.27,6.75-7.6,10.58-15.26,10.72-8.95,0-14.2-5.4-14.2-14.48v-22.22h1.42v22.22c0,8.24,4.76,13.06,12.78,13.06,9.58-.21,15.26-6.67,15.26-17.32v-17.96h1.42Z"/>
        <path class="cls-1" d="M471.72,118.73v52.68h-1.42v-10.79c-2.7,6.6-8.8,10.93-16.54,10.93-10.37,0-17.96-7.81-17.96-18.46s7.6-18.53,17.96-18.53c7.74,0,13.85,4.33,16.54,10.93v-26.77h1.42ZM470.3,153.1c0-9.87-6.96-17.11-16.54-17.11s-16.54,7.24-16.54,17.11,6.96,17.04,16.54,17.04,16.54-7.17,16.54-17.04Z"/>
      </g>
      <g>
        <path class="cls-2" d="M93.32,176.43v2.07h-2.54v6.66h-2.6v-6.66h-2.53v-2.07h7.67Z"/>
        <path class="cls-2" d="M100.86,178.39v6.77h-2.51v-1.01c-.46.72-1.17,1.12-2.08,1.12-1.42,0-2.39-1.01-2.39-2.59v-4.3h2.52v3.59c0,.66.36,1.08.91,1.08.65-.01,1.05-.55,1.05-1.32v-3.35h2.51Z"/>
        <path class="cls-2" d="M107.03,178.29v2.27c-1.29-.16-2.13.39-2.13,1.37v3.24h-2.52v-6.77h2.52v1.07c.47-.75,1.21-1.17,2.13-1.17Z"/>
        <path class="cls-2" d="M115.02,180.87v4.3h-2.52v-3.57c0-.67-.39-1.09-.97-1.09-.68.01-1.11.55-1.11,1.32v3.35h-2.52v-6.77h2.52v1.05c.47-.75,1.21-1.15,2.15-1.15,1.44,0,2.44,1.01,2.44,2.58Z"/>
        <path class="cls-2" d="M123.37,181.78c0,2.09-1.48,3.47-3.76,3.47s-3.77-1.38-3.77-3.47,1.49-3.47,3.77-3.47,3.76,1.37,3.76,3.47ZM118.37,181.8c0,.91.49,1.51,1.23,1.51s1.22-.6,1.22-1.51-.49-1.51-1.22-1.51-1.23.61-1.23,1.51Z"/>
        <path class="cls-2" d="M126.92,179.97c-.31,0-.51.11-.51.32,0,.76,3.54.42,3.54,2.74,0,1.39-1.21,2.24-2.98,2.24-1.2,0-2.3-.32-3.19-.96l.77-1.58c.85.55,1.71.83,2.45.83.34,0,.56-.1.56-.31,0-.77-3.46-.4-3.46-2.71,0-1.42,1.18-2.27,2.89-2.27,1.02,0,2.05.29,2.98.82l-.83,1.58c-.92-.47-1.68-.71-2.22-.71Z"/>
        <path class="cls-2" d="M145.3,180.87v4.3h-2.52v-3.57c0-.67-.37-1.09-.93-1.09-.65.01-1.06.55-1.06,1.32v3.35h-2.52v-3.57c0-.67-.37-1.09-.93-1.09-.66.01-1.07.55-1.07,1.32v3.35h-2.52v-6.77h2.52v1.03c.46-.73,1.18-1.13,2.1-1.13,1.06,0,1.87.55,2.23,1.47.44-.95,1.23-1.47,2.29-1.47,1.43,0,2.4,1.01,2.4,2.58Z"/>
        <path class="cls-2" d="M153.21,182.39h-4.56c.2.65.67,1.01,1.32,1.01.54,0,1.05-.24,1.49-.65l1.31,1.28c-.71.78-1.73,1.22-3.01,1.22-2.27,0-3.65-1.37-3.65-3.45s1.43-3.5,3.57-3.5c2.38,0,3.67,1.59,3.52,4.08ZM150.28,177.75h-1.84l1.33-2.24,2.18.72-1.67,1.52ZM149.72,180.01c-.6,0-.98.46-1.11,1.14h2.13c.01-.67-.41-1.14-1.02-1.14Z"/>
        <path class="cls-2" d="M161.21,175.92v9.24h-2.52v-.77c-.45.55-1.08.86-1.86.86-1.89,0-3.14-1.38-3.14-3.51s1.22-3.44,3.08-3.44c.8,0,1.46.31,1.92.87v-3.25h2.52ZM158.7,181.8c0-.9-.49-1.51-1.22-1.51s-1.23.61-1.23,1.51.49,1.52,1.23,1.52,1.22-.61,1.22-1.52Z"/>
        <path class="cls-2" d="M165.36,176.46c0,.76-.54,1.3-1.29,1.3s-1.3-.54-1.3-1.3.54-1.29,1.3-1.29,1.29.54,1.29,1.29ZM165.31,178.39v6.77h-2.52v-6.77h2.52Z"/>
        <path class="cls-2" d="M169.97,180.34c-.67,0-1.12.58-1.12,1.44s.45,1.47,1.12,1.47c.49,0,.86-.24,1.07-.75l1.96.98c-.52,1.12-1.67,1.76-3.16,1.76-2.13,0-3.52-1.37-3.52-3.45s1.41-3.5,3.55-3.5c1.42,0,2.55.65,3.12,1.77l-1.93.95c-.24-.42-.61-.67-1.08-.67Z"/>
        <path class="cls-2" d="M180.69,181.78c0,2.09-1.48,3.47-3.76,3.47s-3.77-1.38-3.77-3.47,1.49-3.47,3.77-3.47,3.76,1.37,3.76,3.47ZM175.7,181.8c0,.91.49,1.51,1.23,1.51s1.22-.6,1.22-1.51-.49-1.51-1.22-1.51-1.23.61-1.23,1.51Z"/>
        <path class="cls-2" d="M184.25,179.97c-.31,0-.51.11-.51.32,0,.76,3.54.42,3.54,2.74,0,1.39-1.21,2.24-2.98,2.24-1.2,0-2.3-.32-3.19-.96l.77-1.58c.85.55,1.71.83,2.45.83.34,0,.56-.1.56-.31,0-.77-3.46-.4-3.46-2.71,0-1.42,1.18-2.27,2.89-2.27,1.02,0,2.05.29,2.98.82l-.83,1.58c-.92-.47-1.68-.71-2.22-.71Z"/>
        <path class="cls-2" d="M198.07,175.92v9.24h-2.52v-.77c-.45.55-1.08.86-1.86.86-1.89,0-3.14-1.38-3.14-3.51s1.22-3.44,3.08-3.44c.8,0,1.46.31,1.92.87v-3.25h2.52ZM195.56,181.8c0-.9-.49-1.51-1.22-1.51s-1.23.61-1.23,1.51.49,1.52,1.23,1.52,1.22-.61,1.22-1.52Z"/>
        <path class="cls-2" d="M206.23,182.39h-4.56c.2.65.67,1.01,1.32,1.01.54,0,1.05-.24,1.49-.65l1.31,1.28c-.71.78-1.73,1.22-3.01,1.22-2.27,0-3.65-1.37-3.65-3.45s1.43-3.5,3.57-3.5c2.38,0,3.67,1.59,3.52,4.08ZM202.73,180.01c-.6,0-.98.46-1.11,1.14h2.13c.01-.67-.41-1.14-1.02-1.14Z"/>
        <path class="cls-2" d="M209.82,175.92v9.24h-2.52v-9.24h2.52Z"/>
        <path class="cls-2" d="M216.7,179.97c-.31,0-.51.11-.51.32,0,.76,3.54.42,3.54,2.74,0,1.39-1.21,2.24-2.98,2.24-1.2,0-2.3-.32-3.19-.96l.77-1.58c.85.55,1.71.83,2.45.83.34,0,.56-.1.56-.31,0-.77-3.46-.4-3.46-2.71,0-1.42,1.18-2.27,2.89-2.27,1.02,0,2.05.29,2.98.82l-.83,1.58c-.92-.47-1.68-.71-2.22-.71Z"/>
        <path class="cls-2" d="M223.37,176.46c0,.76-.54,1.3-1.29,1.3s-1.3-.54-1.3-1.3.54-1.29,1.3-1.29,1.29.54,1.29,1.29ZM223.32,178.39v6.77h-2.52v-6.77h2.52Z"/>
        <path class="cls-2" d="M227.4,179.97c-.31,0-.51.11-.51.32,0,.76,3.54.42,3.54,2.74,0,1.39-1.21,2.24-2.98,2.24-1.2,0-2.3-.32-3.19-.96l.77-1.58c.85.55,1.71.83,2.45.83.34,0,.56-.1.56-.31,0-.77-3.46-.4-3.46-2.71,0-1.42,1.18-2.27,2.89-2.27,1.02,0,2.05.29,2.98.82l-.83,1.58c-.92-.47-1.68-.71-2.22-.71Z"/>
        <path class="cls-2" d="M236.14,184.84c-.47.27-1.2.44-1.88.44-1.44.01-2.42-.82-2.42-2.23v-2.7h-.93v-1.61h.93v-1.88h2.5v1.88h1.67v1.61h-1.67v2.32c0,.44.22.65.57.65.2,0,.47-.09.77-.2l.45,1.73Z"/>
        <path class="cls-2" d="M243.66,182.39h-4.56c.2.65.67,1.01,1.32,1.01.54,0,1.05-.24,1.49-.65l1.31,1.28c-.71.78-1.73,1.22-3.01,1.22-2.27,0-3.65-1.37-3.65-3.45s1.43-3.5,3.57-3.5c2.38,0,3.67,1.59,3.52,4.08ZM240.17,180.01c-.6,0-.98.46-1.11,1.14h2.13c.01-.67-.41-1.14-1.02-1.14Z"/>
        <path class="cls-2" d="M256.22,180.87v4.3h-2.52v-3.57c0-.67-.37-1.09-.93-1.09-.65.01-1.06.55-1.06,1.32v3.35h-2.52v-3.57c0-.67-.37-1.09-.93-1.09-.66.01-1.07.55-1.07,1.32v3.35h-2.52v-6.77h2.52v1.03c.46-.73,1.18-1.13,2.1-1.13,1.06,0,1.87.55,2.23,1.47.44-.95,1.23-1.47,2.29-1.47,1.43,0,2.4,1.01,2.4,2.58Z"/>
        <path class="cls-2" d="M263.78,180.77v4.39h-2.47v-.75c-.41.55-1.08.86-1.98.86-1.44,0-2.29-.86-2.29-2.13s.91-2.03,2.61-2.05h1.66v-.03c0-.56-.4-.9-1.17-.9-.54,0-1.3.16-2.04.49l-.62-1.67c1.11-.45,2.2-.7,3.26-.7,1.9,0,3.04.91,3.04,2.48ZM261.32,182.93v-.61h-1.15c-.5,0-.76.21-.76.63s.27.67.76.67c.51,0,.96-.27,1.15-.7Z"/>
        <path class="cls-2" d="M274.83,175.92v9.24h-2.52v-.77c-.45.55-1.08.86-1.86.86-1.89,0-3.14-1.38-3.14-3.51s1.22-3.44,3.08-3.44c.8,0,1.46.31,1.92.87v-3.25h2.52ZM272.32,181.8c0-.9-.49-1.51-1.22-1.51s-1.23.61-1.23,1.51.49,1.52,1.23,1.52,1.22-.61,1.22-1.52Z"/>
        <path class="cls-2" d="M282.99,182.39h-4.56c.2.65.67,1.01,1.32,1.01.54,0,1.05-.24,1.49-.65l1.31,1.28c-.71.78-1.73,1.22-3.01,1.22-2.27,0-3.65-1.37-3.65-3.45s1.43-3.5,3.57-3.5c2.38,0,3.67,1.59,3.52,4.08ZM279.49,180.01c-.6,0-.98.46-1.11,1.14h2.13c.01-.67-.41-1.14-1.02-1.14Z"/>
        <path class="cls-2" d="M290.08,178.35c-.44,0-.72.15-.72.47,0,1.28,4.56.52,4.56,3.67,0,1.86-1.64,2.74-3.6,2.74-1.48,0-3.1-.52-4.2-1.38l.97-1.97c.9.76,2.35,1.33,3.25,1.33.55,0,.9-.19.9-.58,0-1.32-4.56-.49-4.56-3.56,0-1.68,1.43-2.75,3.61-2.75,1.33,0,2.7.4,3.65,1.01l-.96,1.99c-.9-.51-2.17-.97-2.9-.97Z"/>
        <path class="cls-2" d="M301.12,180.77v4.39h-2.47v-.75c-.41.55-1.08.86-1.98.86-1.44,0-2.29-.86-2.29-2.13s.91-2.03,2.61-2.05h1.66v-.03c0-.56-.4-.9-1.17-.9-.54,0-1.3.16-2.04.49l-.62-1.67c1.11-.45,2.2-.7,3.26-.7,1.9,0,3.04.91,3.04,2.48ZM298.65,182.93v-.61h-1.15c-.5,0-.76.21-.76.63s.27.67.76.67c.51,0,.96-.27,1.15-.7Z"/>
        <path class="cls-2" d="M305.03,175.92v9.24h-2.51v-9.24h2.51Z"/>
        <path class="cls-2" d="M313.42,178.39v6.77h-2.52v-1.01c-.46.72-1.17,1.12-2.08,1.12-1.42,0-2.39-1.01-2.39-2.59v-4.3h2.52v3.59c0,.66.36,1.08.91,1.08.65-.01,1.05-.55,1.05-1.32v-3.35h2.52Z"/>
        <path class="cls-2" d="M321.93,175.92v9.24h-2.52v-.77c-.45.55-1.08.86-1.86.86-1.89,0-3.14-1.38-3.14-3.51s1.22-3.44,3.08-3.44c.8,0,1.46.31,1.92.87v-3.25h2.52ZM319.42,181.8c0-.9-.49-1.51-1.22-1.51s-1.23.61-1.23,1.51.49,1.52,1.23,1.52,1.22-.61,1.22-1.52Z"/>
        <path class="cls-2" d="M333.23,175.92v9.24h-2.52v-.77c-.45.55-1.08.86-1.86.86-1.89,0-3.14-1.38-3.14-3.51s1.22-3.44,3.08-3.44c.8,0,1.46.31,1.92.87v-3.25h2.52ZM330.71,181.8c0-.9-.49-1.51-1.22-1.51s-1.23.61-1.23,1.51.49,1.52,1.23,1.52,1.22-.61,1.22-1.52Z"/>
        <path class="cls-2" d="M341.39,182.39h-4.56c.2.65.67,1.01,1.32,1.01.54,0,1.05-.24,1.49-.65l1.31,1.28c-.71.78-1.73,1.22-3.01,1.22-2.27,0-3.65-1.37-3.65-3.45s1.43-3.5,3.57-3.5c2.38,0,3.67,1.59,3.52,4.08ZM337.89,180.01c-.6,0-.98.46-1.11,1.14h2.13c.01-.67-.41-1.14-1.02-1.14Z"/>
        <path class="cls-2" d="M344.98,175.92v9.24h-2.51v-9.24h2.51Z"/>
        <path class="cls-2" d="M356.87,181.81c0,2.08-1.21,3.44-3.07,3.44-.8,0-1.46-.31-1.92-.87v3.2h-2.51v-9.19h2.51v.78c.45-.56,1.1-.87,1.86-.87,1.89,0,3.14,1.39,3.14,3.51ZM354.33,181.75c0-.9-.49-1.51-1.23-1.51s-1.22.61-1.22,1.51.5,1.51,1.22,1.51,1.23-.61,1.23-1.51Z"/>
        <path class="cls-2" d="M364.1,180.77v4.39h-2.47v-.75c-.41.55-1.08.86-1.98.86-1.44,0-2.29-.86-2.29-2.13s.91-2.03,2.61-2.05h1.66v-.03c0-.56-.4-.9-1.17-.9-.54,0-1.3.16-2.04.49l-.62-1.67c1.11-.45,2.2-.7,3.26-.7,1.9,0,3.04.91,3.04,2.48ZM361.63,182.93v-.61h-1.15c-.5,0-.76.21-.76.63s.27.67.76.67c.51,0,.96-.27,1.15-.7Z"/>
        <path class="cls-2" d="M370.08,178.29v2.27c-1.29-.16-2.13.39-2.13,1.37v3.24h-2.52v-6.77h2.52v1.07c.47-.75,1.21-1.17,2.13-1.17Z"/>
        <path class="cls-2" d="M375.6,184.84c-.47.27-1.2.44-1.88.44-1.44.01-2.41-.82-2.41-2.23v-2.7h-.93v-1.61h.93v-1.88h2.5v1.88h1.67v1.61h-1.67v2.32c0,.44.22.65.57.65.2,0,.47-.09.77-.2l.45,1.73Z"/>
        <path class="cls-2" d="M379.12,176.46c0,.76-.54,1.3-1.29,1.3s-1.29-.54-1.29-1.3.54-1.29,1.29-1.29,1.29.54,1.29,1.29ZM379.07,178.39v6.77h-2.52v-6.77h2.52Z"/>
        <path class="cls-2" d="M387.58,175.92v9.24h-2.52v-.77c-.45.55-1.08.86-1.86.86-1.89,0-3.14-1.38-3.14-3.51s1.22-3.44,3.08-3.44c.8,0,1.46.31,1.92.87v-3.25h2.52ZM385.06,181.8c0-.9-.49-1.51-1.22-1.51s-1.23.61-1.23,1.51.49,1.52,1.23,1.52,1.22-.61,1.22-1.52Z"/>
        <path class="cls-2" d="M396.17,181.78c0,2.09-1.48,3.47-3.76,3.47s-3.77-1.38-3.77-3.47,1.49-3.47,3.77-3.47,3.76,1.37,3.76,3.47ZM391.18,181.8c0,.91.49,1.51,1.23,1.51s1.22-.6,1.22-1.51-.49-1.51-1.22-1.51-1.23.61-1.23,1.51Z"/>
        <path class="cls-2" d="M406.89,175.92v9.24h-2.52v-.77c-.45.55-1.08.86-1.86.86-1.89,0-3.14-1.38-3.14-3.51s1.22-3.44,3.08-3.44c.8,0,1.46.31,1.92.87v-3.25h2.52ZM404.37,181.8c0-.9-.49-1.51-1.22-1.51s-1.23.61-1.23,1.51.49,1.52,1.23,1.52,1.22-.61,1.22-1.52Z"/>
        <path class="cls-2" d="M415.05,182.39h-4.56c.2.65.67,1.01,1.32,1.01.54,0,1.05-.24,1.49-.65l1.31,1.28c-.71.78-1.73,1.22-3.01,1.22-2.27,0-3.65-1.37-3.65-3.45s1.43-3.5,3.57-3.5c2.38,0,3.67,1.59,3.52,4.08ZM411.55,180.01c-.6,0-.98.46-1.11,1.14h2.13c.01-.67-.41-1.14-1.02-1.14Z"/>
        <path class="cls-2" d="M421.35,176.43v6.56h3.66v2.17h-6.25v-8.73h2.59Z"/>
        <path class="cls-2" d="M432.16,180.77v4.39h-2.47v-.75c-.41.55-1.08.86-1.98.86-1.44,0-2.29-.86-2.29-2.13s.91-2.03,2.61-2.05h1.66v-.03c0-.56-.4-.9-1.17-.9-.54,0-1.3.16-2.04.49l-.62-1.67c1.11-.45,2.2-.7,3.26-.7,1.9,0,3.04.91,3.04,2.48ZM429.7,182.93v-.61h-1.15c-.5,0-.76.21-.76.63s.27.67.76.67c.51,0,.96-.27,1.15-.7Z"/>
        <path class="cls-2" d="M440.44,178.51c-1.18,0-2.08.96-2.08,2.24s.9,2.25,2.08,2.25c.67,0,1.48-.4,2.08-1.01l1.49,1.59c-.95,1.02-2.38,1.68-3.7,1.68-2.65,0-4.61-1.92-4.61-4.5s1.99-4.42,4.69-4.42c1.32,0,2.73.6,3.61,1.54l-1.49,1.77c-.55-.7-1.36-1.16-2.08-1.16Z"/>
        <path class="cls-2" d="M451.69,181.78c0,2.09-1.48,3.47-3.76,3.47s-3.77-1.38-3.77-3.47,1.49-3.47,3.77-3.47,3.76,1.37,3.76,3.47ZM446.7,181.8c0,.91.49,1.51,1.23,1.51s1.22-.6,1.22-1.51-.49-1.51-1.22-1.51-1.23.61-1.23,1.51Z"/>
        <path class="cls-2" d="M455.25,179.97c-.31,0-.51.11-.51.32,0,.76,3.54.42,3.54,2.74,0,1.39-1.21,2.24-2.98,2.24-1.2,0-2.3-.32-3.19-.96l.77-1.58c.85.55,1.71.83,2.45.83.34,0,.56-.1.56-.31,0-.77-3.46-.4-3.46-2.71,0-1.42,1.18-2.27,2.89-2.27,1.02,0,2.05.29,2.98.82l-.83,1.58c-.92-.47-1.68-.71-2.22-.71Z"/>
        <path class="cls-2" d="M463.99,184.84c-.47.27-1.2.44-1.88.44-1.44.01-2.41-.82-2.41-2.23v-2.7h-.93v-1.61h.93v-1.88h2.5v1.88h1.67v1.61h-1.67v2.32c0,.44.22.65.57.65.2,0,.47-.09.77-.2l.45,1.73Z"/>
        <path class="cls-2" d="M471.18,180.77v4.39h-2.47v-.75c-.41.55-1.08.86-1.98.86-1.44,0-2.29-.86-2.29-2.13s.91-2.03,2.61-2.05h1.66v-.03c0-.56-.4-.9-1.17-.9-.54,0-1.3.16-2.04.49l-.62-1.67c1.11-.45,2.2-.7,3.26-.7,1.9,0,3.04.91,3.04,2.48ZM468.71,182.93v-.61h-1.15c-.5,0-.76.21-.76.63s.27.67.76.67c.51,0,.96-.27,1.15-.7Z"/>
      </g>
    </g>
  </g>
</svg>