<svg xmlns="http://www.w3.org/2000/svg" width="73.269" height="71.287" viewBox="0 0 73.269 71.287">
  <g id="Grupo_386" data-name="Grupo 386" transform="translate(-602.628 -83.052)">
    <g id="Grupo_166" data-name="Grupo 166" transform="translate(602.628 83.052)">
      <g id="Grupo_165" data-name="Grupo 165" transform="translate(0)">
        <path id="Trazado_69" data-name="Trazado 69" d="M645.294,151.662a31.85,31.85,0,1,1,18.694-57.631,35.633,35.633,0,1,0-8.878,56.083A31.827,31.827,0,0,1,645.294,151.662Z" transform="translate(-602.628 -83.052)" fill="#0a3318"/>
        <path id="Trazado_70" data-name="Trazado 70" d="M652.534,150.967A26.674,26.674,0,1,0,636.878,102.7a29.844,29.844,0,1,1,7.436,46.97A26.64,26.64,0,0,0,652.534,150.967Z" transform="translate(-614.997 -86.827)" fill="#3fa676"/>
      </g>
    </g>
    <path id="Trazado_71" data-name="Trazado 71" d="M667.457,126.574H657.183V116.3H647.152v10.274H636.878V136.6h10.274v10.275h10.031V136.6h10.274Z" transform="translate(-12.369 -12.007)" fill="#d94f0d"/>
  </g>
</svg>
