<svg id="Capa_2" data-name="Capa 2" xmlns="http://www.w3.org/2000/svg" viewBox="0 0 482.31 203.68">
  <defs>
    <style>
      .cls-1, .cls-2 {
        fill: #f97316;
      }

      .cls-3 {
        fill: #064e3b;
      }

      .cls-2, .cls-4 {
        fill-rule: evenodd;
      }

      .cls-4 {
        fill: #059669;
      }
    </style>
  </defs>
  <g id="Capa_1-2" data-name="Capa 1">
    <g>
      <g>
        <path id="Trazado_123" data-name="Trazado 123" class="cls-4" d="M268.85,72.52c10.03,4.22,18.93,1.46,21.2,0,3.78-2.72,5.56-8.07,4.3-12.55-1.36-4.54-5.38-7.76-10.11-8.1-3.28-.08-6.56,0-9.84-.03-5.04.06-9.97-1.42-14.14-4.24-11.92-7.98-15.12-24.12-7.14-36.04,1.05-1.57,2.27-3.02,3.64-4.33,4.77-4.68,11.21-7.25,17.88-7.16,10,0,20,0,29.99,0h1.27c-.35.73-.62,1.33-.91,1.93-1.92,3.91-3.89,7.8-5.74,11.74-.29.82-1.13,1.33-1.99,1.2-7.56-.04-15.12-.03-22.67-.02-4.7.01-8.2,2.11-10.11,6.39s-1.23,8.29,1.68,12.02c1.88,2.4,4.77,3.78,7.81,3.73,4.03.14,8.08-.05,12.11.21,11.9.76,22.09,10.96,23.28,22.87,1.23,11.57-5,22.18-15.81,26.51-3.78,1.45-11.57,2.11-16.63,2.13-1.34-2.69-7.77-15.54-8.09-16.24Z"/>
        <path id="Trazado_124" data-name="Trazado 124" class="cls-4" d="M223.83,33.14c-2.97,5.91-5.8,11.55-8.63,17.19-6.21,12.35-12.41,24.71-18.61,37.06-.58.97-1.27,1.36-2.17,1.36h-14.94c14.8-29.6,29.53-59.08,44.36-88.75,9.89,19.8,19.72,39.49,29.57,59.2-.44,0-.73,0-1.02,0-4.84,0-9.68-.03-14.52,0-.72,0-1.01,0-1.54-.95-3.87-7.85-7.77-15.69-11.69-23.52-.23-.45-.45-.9-.8-1.59Z"/>
        <path id="Trazado_125" data-name="Trazado 125" class="cls-2" d="M268.08,88.75h-7.59c-1.52,0-4.31,0-6.36,0-1.57,0-3.12-.97-3.82-2.37l-6.9-13.87h16.53s.06.01.08.04c.47.95,7.84,15.76,8.06,16.2Z"/>
      </g>
      <g>
        <path class="cls-3" d="M39.48,172.14H8.76l-7.03,15.43H0l23.18-50.63h1.59l23.47,50.63h-1.67l-7.1-15.43ZM38.75,170.69l-14.78-32.09-14.56,32.09h29.34Z"/>
        <path class="cls-3" d="M85.62,150.12v33.17c0,11.15-7.03,18.33-17.82,18.25-6.01-.22-10.72-2.25-15.07-6.52l1.01-1.01c3.98,3.98,8.4,5.87,14.05,6.08,9.92.07,16.37-6.52,16.37-16.8v-7.75c-2.61,6.45-8.62,10.65-16.15,10.65-10.07,0-17.46-7.61-17.46-17.96s7.39-18.11,17.46-18.11c7.53,0,13.54,4.2,16.15,10.72v-10.72h1.45ZM84.17,168.23c0-9.63-6.81-16.73-16.15-16.73s-16.08,7.1-16.08,16.73,6.74,16.59,16.08,16.59,16.15-7.03,16.15-16.59Z"/>
        <path class="cls-3" d="M127.48,180.68l1.01,1.01c-3.4,3.69-8.47,5.87-14.27,5.87-10.36,0-18.04-7.82-18.04-18.76s7.68-18.69,18.04-18.69,17.38,7.82,17.38,18.69h-33.97c0,10.21,6.95,17.31,16.59,17.31,5.43,0,10.14-1.96,13.26-5.43ZM97.71,167.36h32.45c-.65-9.34-6.66-15.79-15.94-15.79s-15.94,6.45-16.51,15.79Z"/>
        <path class="cls-3" d="M175,164.89v22.67h-1.45v-22.67c0-8.4-4.93-13.33-13.26-13.33-9.34.22-15.07,6.01-15.79,15.65v20.35h-1.45v-37.45h1.45v10.58c2.39-6.59,7.97-10.43,15.79-10.58,9.27,0,14.7,5.5,14.7,14.78Z"/>
        <path class="cls-3" d="M222.15,133.82v53.75h-1.45v-11.01c-2.75,6.74-8.98,11.15-16.88,11.15-10.58,0-18.33-7.97-18.33-18.83s7.75-18.9,18.33-18.9c7.9,0,14.12,4.42,16.88,11.15v-27.31h1.45ZM220.71,168.88c0-10.07-7.1-17.46-16.88-17.46s-16.88,7.39-16.88,17.46,7.1,17.38,16.88,17.38,16.88-7.32,16.88-17.38Z"/>
        <path class="cls-3" d="M263.01,187.57l-.07-8.47c-3.33,5.87-8.98,8.47-15.72,8.47-7.24,0-12.17-4.56-12.17-10.79s5.36-9.63,13.91-9.63h13.91v-4.56c-.07-6.88-3.98-11.01-11.88-11.01-5,0-9.05,2.03-13.11,5.22l-.87-1.16c4.2-3.33,8.69-5.5,13.98-5.5,8.62,0,13.25,4.85,13.33,12.46l.15,24.99h-1.45ZM262.94,175.83l-.07-7.24h-13.91c-7.97,0-12.46,2.97-12.46,8.19,0,5.5,4.2,9.34,10.79,9.34,7.24,0,12.68-2.9,15.65-10.29Z"/>
        <path class="cls-3" d="M314.8,138.38c-8.91,0-14.7,3.84-14.7,9.78,0,16.95,30.42,8.26,30.28,27.09,0,7.46-6.74,12.31-17.17,12.31-6.37,0-13.11-2.82-17.31-7.1l1.01-1.01c3.84,4.06,10.21,6.66,16.3,6.66,9.56,0,15.72-4.27,15.72-10.86.15-17.38-30.28-8.69-30.28-27.09,0-6.81,6.37-11.23,16.15-11.23,4.71,0,10,1.45,13.47,3.69l-.72,1.16c-3.26-2.1-8.26-3.4-12.75-3.4Z"/>
        <path class="cls-3" d="M368.4,187.57l-.07-8.47c-3.33,5.87-8.98,8.47-15.72,8.47-7.24,0-12.17-4.56-12.17-10.79s5.36-9.63,13.91-9.63h13.91v-4.56c-.07-6.88-3.98-11.01-11.88-11.01-5,0-9.05,2.03-13.11,5.22l-.87-1.16c4.2-3.33,8.69-5.5,13.98-5.5,8.62,0,13.25,4.85,13.33,12.46l.15,24.99h-1.45ZM368.33,175.83l-.07-7.24h-13.91c-7.97,0-12.46,2.97-12.46,8.19,0,5.5,4.2,9.34,10.79,9.34,7.24,0,12.68-2.9,15.65-10.29Z"/>
        <path class="cls-3" d="M386.36,133.82v53.75h-1.45v-53.75h1.45Z"/>
        <path class="cls-3" d="M432.87,150.12v37.45h-1.45v-10.94c-2.32,6.88-7.75,10.79-15.57,10.94-9.13,0-14.49-5.5-14.49-14.78v-22.67h1.45v22.67c0,8.4,4.85,13.33,13.04,13.33,9.78-.22,15.57-6.81,15.57-17.67v-18.33h1.45Z"/>
        <path class="cls-3" d="M481.25,133.82v53.75h-1.45v-11.01c-2.75,6.74-8.98,11.15-16.88,11.15-10.58,0-18.33-7.97-18.33-18.83s7.75-18.9,18.33-18.9c7.9,0,14.12,4.42,16.88,11.15v-27.31h1.45ZM479.8,168.88c0-10.07-7.1-17.46-16.88-17.46s-16.88,7.39-16.88,17.46,7.1,17.38,16.88,17.38,16.88-7.32,16.88-17.38Z"/>
      </g>
      <g>
        <path class="cls-1" d="M90.34,195.67c-.29,0-.47.09-.47.32,0,.97,3.99.36,3.99,3.16,0,1.72-1.51,2.48-3.25,2.48-1.34,0-2.84-.45-3.86-1.23l.95-1.91c.79.66,2.16,1.2,2.94,1.2.37,0,.62-.12.62-.4,0-1-3.99-.34-3.99-3.05,0-1.54,1.3-2.51,3.3-2.51,1.22,0,2.49.36,3.36.91l-.92,1.94c-.78-.43-1.98-.9-2.65-.9Z"/>
        <path class="cls-1" d="M97.34,193.81c0,.74-.52,1.25-1.25,1.25s-1.25-.52-1.25-1.25.52-1.25,1.25-1.25,1.25.52,1.25,1.25ZM97.32,195.53v6.02h-2.48v-6.02h2.48Z"/>
        <path class="cls-1" d="M101.22,197.05c-.21,0-.34.08-.34.2,0,.56,3.12.34,3.12,2.37,0,1.24-1.07,2.05-2.73,2.05-1.11,0-2.1-.29-2.94-.86l.75-1.54c.8.49,1.55.75,2.22.75.23,0,.37-.07.37-.18,0-.53-3.06-.3-3.06-2.33,0-1.27,1.05-2.08,2.65-2.08.96,0,1.89.25,2.79.76l-.81,1.53c-.89-.44-1.57-.66-2.04-.66Z"/>
        <path class="cls-1" d="M109.44,201.28c-.4.23-1.08.37-1.72.37-1.38.01-2.27-.79-2.27-2.05v-2.19h-.83v-1.56h.83v-1.68h2.46v1.68h1.41v1.56h-1.41v1.81c0,.32.19.52.48.51.14,0,.39-.07.62-.15l.42,1.69Z"/>
        <path class="cls-1" d="M116.46,199.09h-3.92c.17.47.52.71,1,.71.42,0,.85-.19,1.22-.54l1.29,1.27c-.64.7-1.56,1.1-2.73,1.1-2.06,0-3.28-1.21-3.28-3.07s1.28-3.12,3.21-3.12c2.1,0,3.33,1.43,3.2,3.65ZM113.28,197.09c-.43,0-.69.35-.79.86h1.5c.03-.5-.27-.86-.7-.86Z"/>
        <path class="cls-1" d="M127.83,197.71v3.84h-2.48v-3.12c0-.51-.27-.83-.68-.83-.46,0-.76.39-.76.97v2.98h-2.48v-3.12c0-.51-.27-.83-.68-.83-.46,0-.76.39-.76.97v2.98h-2.48v-6.02h2.48v.85c.41-.6,1.01-.96,1.79-.96.91,0,1.63.48,1.95,1.29.39-.81,1.07-1.29,1.97-1.29,1.24,0,2.12.9,2.12,2.29Z"/>
        <path class="cls-1" d="M134.84,197.65v3.89h-2.43v-.65c-.35.48-.92.76-1.69.76-1.28,0-2.01-.75-2.01-1.89s.8-1.82,2.33-1.84h1.38c-.01-.42-.33-.66-.94-.66-.45,0-1.14.13-1.83.39l-.55-1.65c1.02-.37,2.08-.58,2.97-.58,1.74,0,2.77.81,2.77,2.23ZM132.41,199.62v-.55h-.86c-.34,0-.53.17-.53.48s.2.53.55.53c.32,0,.64-.17.84-.46Z"/>
        <path class="cls-1" d="M145.06,193.38v8.16h-2.48v-.6c-.38.45-.91.69-1.53.69-1.67,0-2.76-1.23-2.76-3.14s1.06-3.06,2.7-3.06c.65,0,1.2.25,1.6.7v-2.76h2.48ZM142.59,198.56c0-.7-.35-1.17-.89-1.17s-.9.46-.9,1.17.35,1.17.9,1.17.89-.46.89-1.17Z"/>
        <path class="cls-1" d="M152.58,199.09h-3.92c.17.47.52.71,1,.71.42,0,.85-.19,1.22-.54l1.29,1.27c-.64.7-1.56,1.1-2.73,1.1-2.06,0-3.28-1.21-3.28-3.07s1.28-3.12,3.21-3.12c2.1,0,3.33,1.43,3.2,3.65ZM149.4,197.09c-.43,0-.69.35-.79.86h1.5c.03-.5-.27-.86-.7-.86Z"/>
        <path class="cls-1" d="M160.5,201.28c-.4.23-1.08.37-1.72.37-1.38.01-2.27-.79-2.27-2.05v-2.19h-.83v-1.56h.83v-1.68h2.46v1.68h1.41v1.56h-1.41v1.81c0,.32.19.52.48.51.14,0,.39-.07.62-.15l.42,1.69Z"/>
        <path class="cls-1" d="M167.72,195.53v6.02h-2.48v-.84c-.4.6-1,.95-1.77.95-1.23,0-2.1-.9-2.1-2.29v-3.84h2.48v3.12c0,.51.26.83.66.83.45,0,.74-.38.74-.97v-2.98h2.48Z"/>
        <path class="cls-1" d="M173.52,195.42v2.23c-1.11-.17-1.84.23-1.84,1.02v2.87h-2.48v-6.02h2.48v.88c.42-.63,1.06-.99,1.84-.99Z"/>
        <path class="cls-1" d="M180.97,197.71v3.84h-2.48v-3.12c0-.51-.29-.83-.72-.83-.48,0-.79.39-.79.97v2.98h-2.48v-6.02h2.48v.86c.41-.62,1.03-.97,1.83-.97,1.27,0,2.16.9,2.16,2.29Z"/>
        <path class="cls-1" d="M188.64,198.53c0,1.88-1.33,3.1-3.4,3.1s-3.4-1.22-3.4-3.1,1.33-3.09,3.4-3.09,3.4,1.21,3.4,3.09ZM184.34,198.56c0,.7.35,1.17.9,1.17s.9-.46.9-1.17-.35-1.17-.9-1.17-.9.46-.9,1.17Z"/>
        <path class="cls-1" d="M192.1,197.05c-.21,0-.34.08-.34.2,0,.56,3.12.34,3.12,2.37,0,1.24-1.07,2.05-2.73,2.05-1.11,0-2.1-.29-2.94-.86l.75-1.54c.8.49,1.55.75,2.22.75.23,0,.37-.07.37-.18,0-.53-3.06-.3-3.06-2.33,0-1.27,1.05-2.08,2.65-2.08.96,0,1.89.25,2.79.76l-.81,1.53c-.89-.44-1.57-.66-2.04-.66Z"/>
        <path class="cls-1" d="M204.94,193.38v8.16h-2.48v-.6c-.38.45-.91.69-1.53.69-1.67,0-2.76-1.23-2.76-3.14s1.06-3.06,2.7-3.06c.65,0,1.2.25,1.6.7v-2.76h2.48ZM202.46,198.56c0-.7-.35-1.17-.89-1.17s-.9.46-.9,1.17.35,1.17.9,1.17.89-.46.89-1.17Z"/>
        <path class="cls-1" d="M212.45,199.09h-3.92c.17.47.52.71,1,.71.42,0,.85-.19,1.22-.54l1.29,1.27c-.64.7-1.56,1.1-2.73,1.1-2.06,0-3.28-1.21-3.28-3.07s1.28-3.12,3.21-3.12c2.1,0,3.33,1.43,3.2,3.65ZM209.27,197.09c-.43,0-.69.35-.79.86h1.5c.03-.5-.27-.86-.7-.86Z"/>
        <path class="cls-1" d="M218.61,193.38v8.16h-2.48v-8.16h2.48Z"/>
        <path class="cls-1" d="M225.85,197.65v3.89h-2.43v-.65c-.35.48-.92.76-1.69.76-1.28,0-2.01-.75-2.01-1.89s.8-1.82,2.33-1.84h1.38c-.01-.42-.33-.66-.94-.66-.45,0-1.14.13-1.83.39l-.55-1.65c1.02-.37,2.08-.58,2.97-.58,1.74,0,2.77.81,2.77,2.23ZM223.41,199.62v-.55h-.86c-.34,0-.53.17-.53.48s.2.53.55.53c.32,0,.64-.17.84-.46Z"/>
        <path class="cls-1" d="M232.81,195.67c-.29,0-.47.09-.47.32,0,.97,3.99.36,3.99,3.16,0,1.72-1.51,2.48-3.25,2.48-1.34,0-2.84-.45-3.86-1.23l.95-1.91c.79.66,2.16,1.2,2.94,1.2.37,0,.62-.12.62-.4,0-1-3.99-.34-3.99-3.05,0-1.54,1.3-2.51,3.3-2.51,1.22,0,2.49.36,3.36.91l-.92,1.94c-.78-.43-1.98-.9-2.65-.9Z"/>
        <path class="cls-1" d="M243.29,199.09h-3.92c.17.47.52.71,1,.71.42,0,.85-.19,1.22-.54l1.29,1.27c-.64.7-1.56,1.1-2.73,1.1-2.06,0-3.28-1.21-3.28-3.07s1.28-3.12,3.21-3.12c2.1,0,3.33,1.43,3.2,3.65ZM240.11,197.09c-.43,0-.69.35-.79.86h1.5c.03-.5-.28-.86-.7-.86Z"/>
        <path class="cls-1" d="M247.2,197.44c-.48,0-.79.44-.79,1.11s.31,1.12.79,1.12c.35,0,.61-.2.74-.65l2,.92c-.44,1.07-1.5,1.68-2.87,1.68-1.91,0-3.16-1.21-3.16-3.07s1.25-3.12,3.18-3.12c1.31,0,2.35.64,2.85,1.74l-1.97.84c-.15-.36-.42-.57-.77-.57Z"/>
        <path class="cls-1" d="M255.11,195.42v2.23c-1.11-.17-1.84.23-1.84,1.02v2.87h-2.48v-6.02h2.48v.88c.42-.63,1.06-.99,1.84-.99Z"/>
        <path class="cls-1" d="M262.07,199.09h-3.92c.17.47.52.71,1,.71.42,0,.85-.19,1.22-.54l1.29,1.27c-.64.7-1.56,1.1-2.73,1.1-2.06,0-3.28-1.21-3.28-3.07s1.28-3.12,3.21-3.12c2.1,0,3.33,1.43,3.2,3.65ZM258.89,197.09c-.43,0-.69.35-.79.86h1.5c.03-.5-.27-.86-.7-.86Z"/>
        <path class="cls-1" d="M267.41,201.28c-.4.23-1.08.37-1.72.37-1.38.01-2.27-.79-2.27-2.05v-2.19h-.83v-1.56h.83v-1.68h2.46v1.68h1.41v1.56h-1.41v1.81c0,.32.19.52.48.51.14,0,.39-.07.62-.15l.42,1.69Z"/>
        <path class="cls-1" d="M274.16,197.65v3.89h-2.43v-.65c-.35.48-.92.76-1.69.76-1.28,0-2.01-.75-2.01-1.89s.8-1.82,2.33-1.84h1.38c-.01-.42-.33-.66-.93-.66-.45,0-1.14.13-1.83.39l-.55-1.65c1.02-.37,2.08-.58,2.97-.58,1.74,0,2.77.81,2.77,2.23ZM271.73,199.62v-.55h-.86c-.34,0-.53.17-.53.48s.2.53.55.53c.32,0,.64-.17.84-.46Z"/>
        <path class="cls-1" d="M279.79,195.42v2.23c-1.11-.17-1.84.23-1.84,1.02v2.87h-2.48v-6.02h2.48v.88c.42-.63,1.06-.99,1.84-.99Z"/>
        <path class="cls-1" d="M283.25,195.53v6.02h-2.48v-6.02h2.48ZM284.13,193.62l-1.51,1.42h-1.76l1.18-2.08,2.09.66Z"/>
        <path class="cls-1" d="M290.44,197.65v3.89h-2.43v-.65c-.35.48-.92.76-1.69.76-1.28,0-2.01-.75-2.01-1.89s.8-1.82,2.33-1.84h1.38c-.01-.42-.33-.66-.94-.66-.45,0-1.14.13-1.83.39l-.55-1.65c1.02-.37,2.08-.58,2.97-.58,1.74,0,2.77.81,2.77,2.23ZM288.01,199.62v-.55h-.86c-.34,0-.53.17-.53.48s.2.53.55.53c.32,0,.64-.17.84-.46Z"/>
        <path class="cls-1" d="M300.66,193.38v8.16h-2.48v-.6c-.38.45-.91.69-1.53.69-1.67,0-2.76-1.23-2.76-3.14s1.06-3.06,2.7-3.06c.65,0,1.2.25,1.6.7v-2.76h2.48ZM298.18,198.56c0-.7-.35-1.17-.89-1.17s-.9.46-.9,1.17.35,1.17.9,1.17.89-.46.89-1.17Z"/>
        <path class="cls-1" d="M308.17,199.09h-3.92c.17.47.52.71,1,.71.42,0,.85-.19,1.22-.54l1.29,1.27c-.64.7-1.56,1.1-2.73,1.1-2.06,0-3.28-1.21-3.28-3.07s1.28-3.12,3.21-3.12c2.1,0,3.33,1.43,3.2,3.65ZM304.99,197.09c-.43,0-.69.35-.79.86h1.5c.03-.5-.28-.86-.7-.86Z"/>
        <path class="cls-1" d="M314.87,195.67c-.29,0-.47.09-.47.32,0,.97,3.99.36,3.99,3.16,0,1.72-1.51,2.48-3.25,2.48-1.34,0-2.84-.45-3.86-1.23l.95-1.91c.79.66,2.16,1.2,2.94,1.2.37,0,.62-.12.62-.4,0-1-3.99-.34-3.99-3.05,0-1.54,1.3-2.51,3.3-2.51,1.22,0,2.49.36,3.36.91l-.92,1.94c-.78-.43-1.98-.9-2.65-.9Z"/>
        <path class="cls-1" d="M325.08,197.65v3.89h-2.43v-.65c-.35.48-.92.76-1.69.76-1.28,0-2.01-.75-2.01-1.89s.8-1.82,2.33-1.84h1.38c-.01-.42-.33-.66-.94-.66-.45,0-1.14.13-1.83.39l-.55-1.65c1.02-.37,2.08-.58,2.97-.58,1.74,0,2.77.81,2.77,2.23ZM322.64,199.62v-.55h-.86c-.34,0-.53.17-.53.48s.2.53.55.53c.32,0,.64-.17.84-.46Z"/>
        <path class="cls-1" d="M328.93,193.38v8.16h-2.48v-8.16h2.48Z"/>
        <path class="cls-1" d="M336.65,195.53v6.02h-2.48v-.84c-.4.6-1,.95-1.77.95-1.23,0-2.1-.9-2.1-2.29v-3.84h2.47v3.12c0,.51.26.83.66.83.45,0,.74-.38.74-.97v-2.98h2.48Z"/>
        <path class="cls-1" d="M344.46,193.38v8.16h-2.47v-.6c-.39.45-.91.69-1.53.69-1.67,0-2.76-1.23-2.76-3.14s1.06-3.06,2.7-3.06c.65,0,1.2.25,1.6.7v-2.76h2.47ZM341.98,198.56c0-.7-.35-1.17-.89-1.17s-.9.46-.9,1.17.35,1.17.9,1.17.89-.46.89-1.17Z"/>
        <path class="cls-1" d="M354.9,193.38v8.16h-2.47v-.6c-.39.45-.91.69-1.53.69-1.67,0-2.76-1.23-2.76-3.14s1.06-3.06,2.7-3.06c.65,0,1.2.25,1.6.7v-2.76h2.47ZM352.42,198.56c0-.7-.35-1.17-.89-1.17s-.9.46-.9,1.17.35,1.17.9,1.17.89-.46.89-1.17Z"/>
        <path class="cls-1" d="M362.41,199.09h-3.92c.17.47.52.71,1,.71.42,0,.85-.19,1.22-.54l1.29,1.27c-.64.7-1.56,1.1-2.73,1.1-2.06,0-3.28-1.21-3.28-3.07s1.28-3.12,3.21-3.12c2.1,0,3.33,1.43,3.2,3.65ZM359.23,197.09c-.43,0-.69.35-.79.86h1.5c.03-.5-.28-.86-.7-.86Z"/>
        <path class="cls-1" d="M366,193.38v8.16h-2.48v-8.16h2.48Z"/>
        <path class="cls-1" d="M376.93,198.58c0,1.86-1.06,3.06-2.7,3.06-.65,0-1.2-.25-1.59-.7v2.75h-2.48v-8.15h2.48v.61c.38-.45.91-.69,1.53-.69,1.67,0,2.76,1.23,2.76,3.14ZM374.43,198.51c0-.7-.35-1.17-.9-1.17s-.89.46-.89,1.17.35,1.17.89,1.17.9-.46.9-1.17Z"/>
        <path class="cls-1" d="M383.67,197.65v3.89h-2.43v-.65c-.35.48-.92.76-1.69.76-1.28,0-2.01-.75-2.01-1.89s.8-1.82,2.33-1.84h1.38c-.01-.42-.33-.66-.93-.66-.45,0-1.14.13-1.83.39l-.55-1.65c1.02-.37,2.08-.58,2.97-.58,1.74,0,2.77.81,2.77,2.23ZM381.24,199.62v-.55h-.86c-.34,0-.53.17-.53.48s.2.53.55.53c.32,0,.64-.17.84-.46Z"/>
        <path class="cls-1" d="M389.3,195.42v2.23c-1.11-.17-1.84.23-1.84,1.02v2.87h-2.47v-6.02h2.47v.88c.42-.63,1.06-.99,1.84-.99Z"/>
        <path class="cls-1" d="M394.58,201.28c-.4.23-1.08.37-1.72.37-1.38.01-2.27-.79-2.27-2.05v-2.19h-.83v-1.56h.83v-1.68h2.46v1.68h1.41v1.56h-1.41v1.81c0,.32.19.52.48.51.14,0,.39-.07.62-.15l.42,1.69Z"/>
        <path class="cls-1" d="M398.12,193.81c0,.74-.52,1.25-1.25,1.25s-1.25-.52-1.25-1.25.52-1.25,1.25-1.25,1.25.52,1.25,1.25ZM398.1,195.53v6.02h-2.47v-6.02h2.47Z"/>
        <path class="cls-1" d="M405.91,193.38v8.16h-2.47v-.6c-.39.45-.91.69-1.53.69-1.67,0-2.76-1.23-2.76-3.14s1.06-3.06,2.7-3.06c.65,0,1.2.25,1.6.7v-2.76h2.47ZM403.44,198.56c0-.7-.35-1.17-.89-1.17s-.9.46-.9,1.17.35,1.17.9,1.17.89-.46.89-1.17Z"/>
        <path class="cls-1" d="M413.81,198.53c0,1.88-1.33,3.1-3.4,3.1s-3.4-1.22-3.4-3.1,1.33-3.09,3.4-3.09,3.4,1.21,3.4,3.09ZM409.51,198.56c0,.7.35,1.17.9,1.17s.9-.46.9-1.17-.35-1.17-.9-1.17-.9.46-.9,1.17Z"/>
        <path class="cls-1" d="M423.75,193.38v8.16h-2.47v-.6c-.39.45-.91.69-1.53.69-1.67,0-2.76-1.23-2.76-3.14s1.06-3.06,2.7-3.06c.65,0,1.2.25,1.6.7v-2.76h2.47ZM421.28,198.56c0-.7-.35-1.17-.89-1.17s-.9.46-.9,1.17.35,1.17.9,1.17.89-.46.89-1.17Z"/>
        <path class="cls-1" d="M431.27,199.09h-3.92c.17.47.52.71,1,.71.42,0,.85-.19,1.22-.54l1.29,1.27c-.64.7-1.56,1.1-2.73,1.1-2.06,0-3.28-1.21-3.28-3.07s1.28-3.12,3.21-3.12c2.1,0,3.33,1.43,3.2,3.65ZM428.09,197.09c-.43,0-.69.35-.79.86h1.5c.03-.5-.28-.86-.7-.86Z"/>
        <path class="cls-1" d="M437.39,193.83v5.59h3.21v2.12h-5.76v-7.71h2.55Z"/>
        <path class="cls-1" d="M447.29,197.65v3.89h-2.43v-.65c-.35.48-.92.76-1.69.76-1.28,0-2.01-.75-2.01-1.89s.8-1.82,2.33-1.84h1.38c-.01-.42-.33-.66-.93-.66-.45,0-1.14.13-1.83.39l-.55-1.65c1.02-.37,2.08-.58,2.97-.58,1.74,0,2.77.81,2.77,2.23ZM444.86,199.62v-.55h-.86c-.34,0-.53.17-.53.48s.2.53.55.53c.32,0,.64-.17.84-.46Z"/>
        <path class="cls-1" d="M454.04,197.44c-.48,0-.79.44-.79,1.11s.31,1.12.79,1.12c.35,0,.61-.2.74-.65l2,.92c-.44,1.07-1.5,1.68-2.87,1.68-1.91,0-3.16-1.21-3.16-3.07s1.25-3.12,3.18-3.12c1.31,0,2.35.64,2.85,1.74l-1.97.84c-.15-.36-.42-.57-.77-.57Z"/>
        <path class="cls-1" d="M463.88,198.53c0,1.88-1.33,3.1-3.4,3.1s-3.4-1.22-3.4-3.1,1.33-3.09,3.4-3.09,3.4,1.21,3.4,3.09ZM459.58,198.56c0,.7.35,1.17.9,1.17s.9-.46.9-1.17-.35-1.17-.9-1.17-.9.46-.9,1.17Z"/>
        <path class="cls-1" d="M467.34,197.05c-.21,0-.34.08-.34.2,0,.56,3.12.34,3.12,2.37,0,1.24-1.07,2.05-2.73,2.05-1.11,0-2.1-.29-2.94-.86l.75-1.54c.8.49,1.55.75,2.22.75.23,0,.37-.07.37-.18,0-.53-3.06-.3-3.06-2.33,0-1.27,1.04-2.08,2.65-2.08.96,0,1.89.25,2.79.76l-.81,1.53c-.89-.44-1.57-.66-2.04-.66Z"/>
        <path class="cls-1" d="M475.56,201.28c-.4.23-1.08.37-1.72.37-1.38.01-2.27-.79-2.27-2.05v-2.19h-.83v-1.56h.83v-1.68h2.46v1.68h1.41v1.56h-1.41v1.81c0,.32.19.52.48.51.14,0,.39-.07.62-.15l.42,1.69Z"/>
        <path class="cls-1" d="M482.31,197.65v3.89h-2.43v-.65c-.35.48-.92.76-1.69.76-1.28,0-2.01-.75-2.01-1.89s.8-1.82,2.33-1.84h1.38c-.01-.42-.33-.66-.94-.66-.45,0-1.14.13-1.83.39l-.55-1.65c1.02-.37,2.08-.58,2.97-.58,1.74,0,2.77.81,2.77,2.23ZM479.88,199.62v-.55h-.86c-.34,0-.53.17-.53.48s.2.53.55.53c.32,0,.64-.17.84-.46Z"/>
      </g>
    </g>
  </g>
</svg>
