<?xml version="1.0" encoding="UTF-8"?>
<svg id="Capa_1" xmlns="http://www.w3.org/2000/svg" version="1.1" viewBox="0 0 95.9 96">
  <!-- Generator: Adobe Illustrator 29.1.0, SVG Export Plug-In . SVG Version: 2.1.0 Build 142)  -->
  <defs>
    <style>
      .st0 {
        fill: #059669;
      }
    </style>
  </defs>
  <path class="st0" d="M95.8,90.2l-4.7-24.4c-.5-3-3-5.3-6.2-6.3l-12-3.2c-.5-3.8-2.9-7.2-6.5-9.4,0,0-1.1-.6-2.5-1.2.1-.2.2-.3.2-.3,2.5-2.7,4.1-5.9,5.1-9.3,1.9-.2,3.4-.9,4.6-1.9.8-.9,1.2-1.9,1.2-3.1v-2.1c0-1.7-.9-3.1-2.4-4.1v-13.2C72.6,5.3,66.7,0,59.3,0h-22.9C29.2,0,23.2,5.3,23.2,11.8v13.2c-1.5.9-2.4,2.5-2.4,4.1v2.2c.1.7.1,1.3.4,1.9s.5.7.8,1.1c.9.9,2.3,2,4.6,2.1.8,2.6,2.1,5.7,4.9,9.4-.8.4-1.7.8-2.4,1.4,0,0-1.9,1.1-2.4,1.7-1.7,1.6-3.6,4.8-4,7.7l-12,3.2c-3.2.8-5.6,3.3-6.2,6.2L0,90.2c-.2,1.3,0,2.7.9,3.8.8,1.1,2.2,1.8,3.6,2h85.6c3.1,0,5.7-2.2,5.7-5.1v-.8h0s-.1,0-.1,0ZM70.7,27.4c.9,0,1.8.1,1.9.1.3.1.4,1.6.3,1.8l-.4,2.1c-.2,1.2-1.5,2-2.8,1.8,0,0,.2-5.8,1-5.8ZM70.5,70.7c2.2,0,3.9,1.6,3.9,3.5s-1.8,3.5-3.9,3.5-3.9-1.6-3.9-3.5,1.8-3.5,3.9-3.5ZM67.3,54.8l-3.6-.9c-.5,0-1-.2-1.5-.2s-.7,0-1.1,0c-.3-.4-.4-.8-.4-1.3v-3c3,.7,5.5,2.7,6.6,5.3ZM46.8,4.6h12.5c4.5,0,8.1,3.2,8.1,7.2v8.9c-12.1,1-20.2-1.8-24.2-8.3,1.9-2.4,3.1-5,3.6-7.7ZM26.4,33.2c-1.3.2-2.6-.7-2.8-1.8l-.3-2.1c0-.3,0-1.7.4-1.8-.3.1,1-.1,1.9,0,.7,0,.8,5.8.8,5.8ZM28.4,11.8c0-4,3.6-7.2,8.1-7.2h5.2c-1.7,6.1-8.4,10.9-13.3,12.2v-5ZM28.6,24.8v-4c3.6-.6,7.9-2.8,11.3-5.5,2.9,4,6.9,7.2,12.4,8.2,8.3,1.4,10.4,1.2,15.2,1.1s-.4,6.2-.4,6.3c-1.2,6.9-5.4,16.9-19.2,17.1-19.8.3-19.4-17-19.3-23.2ZM56.5,56.2h.1l-8.8,5.8-8.8-5.8c.7-1.1,1.1-2.4,1.2-3.7v-.8c4.9,1.8,10.3,1.8,15.1,0v.8c0,1.3.4,2.6,1.1,3.7ZM35.2,49.6v2.8c0,.5-.2.9-.4,1.4-.8-.2-1.7-.2-2.5,0h-.1l-3.5,1c1.1-2.6,3.6-4.5,6.5-5.2ZM5.7,91.6h0c-.3,0-.5-.3-.5-.6l1.6-8v-.4l3.1-16c.2-1.2,1.2-2.2,2.6-2.6l10.4-2.8v.8c-2.7.6-4.9,2.4-5.8,4.7-.3.6-.4,1.4-.5,2.1l-1.1,12.9c-.2,2.4,1.9,4.5,4.6,4.7h2.4c1.5,0,2.6-1,2.6-2.3s-1.1-2.3-2.6-2.3h-1.8l1.1-12.7c0-.3,0-.6.2-.8.5-1.3,2-2.1,3.4-2.1h.3c1.5,0,2.8.7,3.4,1.9.2.3.2.6.3,1l1.1,12.7h-1.8c-1.5,0-2.6,1-2.6,2.3s1.1,2.3,2.6,2.3h2c2.7,0,5-1.9,5-4.4l-1.1-13.3c0-.8-.3-1.7-.7-2.5-1-2.2-3.1-3.8-5.7-4.4v-2.1l3.7-1c.5,1,1.5,3,3,6.4,1.8,4,4.1,9.3,6.5,15v.2c1.6,3.5,3,7,4.2,10.1.2.6.6.9,1.1,1.2H5.7ZM38.4,61.3l9.5,6.4,9.6-6.4-9.5,21.8c-2.1-4.8-7.1-16.3-9.6-21.8ZM90.6,91.5c0,.2-.2.2-.3.2h-41c.5-.3.9-.6,1.1-1.2,1.2-3,2.7-6.5,4.2-10.1v-.2c2.4-5.5,4.8-10.9,6.5-15,1.3-3,2.4-5.1,3-6.4l3.7,1v6.7c-4.5,1.1-7.3,5.2-6.3,9.2.9,4.3,5.7,7.2,10.6,6.4,2.4-.4,4.5-1.7,5.8-3.4s1.9-4,1.3-6c-.6-3-3.1-5.3-6.3-6.2v-5.4l10.4,2.8c1.3.4,2.4,1.4,2.6,2.6l4.7,24.4c0,0,0,.3-.1.4v.2Z"/>
</svg>