<svg
id="Capa_1"
xmlns="http://www.w3.org/2000/svg"
version="1.1"
viewBox="0 0 92.4 104.2"
width="100px" 
height="120px"
>
  <defs>
    <style>
      .st0 {
        fill: #059669;
      }
    </style>
  </defs>
  <path class="st0" d="M92.4,97.8l-4.5-26.5c-.5-3.2-2.9-5.8-6-6.8l-11.6-3.5c-.5-4.1-2.8-7.8-6.3-10.2,0,0-1.1-.7-2.4-1.3.1-.2.2-.3.2-.3,2.4-2.9,4-6.4,4.9-10.1,1.8-.2,3.3-1,4.4-2.1.8-1,1.2-2.1,1.2-3.4v-2.3c0-1.8-.9-3.4-2.3-4.4v-14.3C70,5.7,64.3,0,57.2,0h-22.1c-7,0-12.8,5.7-12.8,12.8v14.3c-1.4,1-2.3,2.7-2.3,4.4v2.3c0,1.2.4,2.3,1.1,3.3h0c.9,1,2.7,2.4,4.5,2.8.8,2.8,3.1,6.9,4.7,9.6-.8.4-1.6.9-2.3,1.5,0,0-1.8,1.2-2.3,1.8-1.6,1.7-3.5,5.2-3.9,8.4l-11.6,3.5c-3.1.9-5.4,3.6-6,6.7L0,97.8c-.2,1.4,0,2.9.9,4.1.8,1.2,2.1,2,3.5,2.2.3,0,.6,0,.9,0h81.7c3,0,5.5-2.4,5.5-5.5s0-.6,0-.9ZM68,76.7c2.1,0,3.8,1.7,3.8,3.8s-1.7,3.8-3.8,3.8-3.8-1.7-3.8-3.8,1.7-3.8,3.8-3.8ZM64.9,59.4l-3.5-1c-.5-.1-1-.2-1.4-.2s-.7,0-1.1.1c-.3-.4-.4-.9-.4-1.4v-3.2c2.9.8,5.3,2.9,6.4,5.7ZM65.1,30.6c.9-1,3.4-1.1,3.7-1s.6,1.6.6,1.9v2.3c0,1.3-1.1,2.4-2.4,2.4h-1.8v-5.6ZM45.2,5h12c4.3,0,7.8,3.5,7.8,7.8v9.6c-11.7,1.1-19.5-2-23.4-9,1.8-2.6,3-5.4,3.5-8.4ZM27.3,36.2h-1.8c-1.3,0-2.4-1.1-2.4-2.4v-2.3c0-.3.3-1.8.6-1.9.3,0,2.7.1,3.7,1v5.6ZM27.3,12.8c0-4.3,3.5-7.8,7.8-7.8h5c-1.6,6.6-8.1,11.8-12.8,13.2v-5.4ZM30.4,36.3v-4s-.2-3.1-.2-3.1c0-.8-.5-1.5-1.2-1.8-.2,0-.8-.4-1.5-.5v-4.3c3.5-.7,7.6-3,10.9-6,4.4,6.8,11.9,10.3,22.3,10.3s2.8,0,4.4-.2v.2c-.4.1-.9.3-1.4.5-.7.3-1.2,1-1.3,1.8l-.2,3.2v3.9c0,2-1.5,6.1-4.1,9.4-.9,1.2-3.2,3.2-3.5,3.5-4.8,3.7-11.6,3.7-16.4,0,0,0,0,0,0,0-1.7-1.5-3-2.7-3.5-3.5-2.8-3.6-4.1-7.6-4.1-9.4ZM54.6,60.9l-8.5,6.3-8.5-6.3c.7-1.2,1.1-2.6,1.2-4v-.9c4.7,2,9.9,2,14.6,0v.9c0,1.4.4,2.8,1.1,4ZM33.9,53.7v3.1c0,.5-.2,1-.4,1.5-.8-.2-1.6-.2-2.4,0h-.1s-3.4,1.1-3.4,1.1c1.1-2.8,3.5-4.9,6.4-5.7ZM5.4,99.2c-.3,0-.5-.2-.5-.5s0,0,0,0l1.5-8.7c0-.1,0-.3,0-.4l3-17.4c.2-1.3,1.2-2.4,2.5-2.8l10-3v.9c-2.6.7-4.7,2.6-5.6,5.1-.3.7-.4,1.5-.5,2.3l-1.1,14c-.2,2.6,1.8,4.9,4.4,5.1.1,0,.3,0,.4,0h1.9c1.4,0,2.5-1.1,2.5-2.5s-1.1-2.5-2.5-2.5h-1.7l1.1-13.8c0-.3,0-.6.2-.9.5-1.4,1.9-2.3,3.3-2.3h.3c1.4,0,2.7.8,3.3,2.1.2.3.2.7.3,1.1l1.1,13.8h-1.7c-1.4,0-2.5,1.1-2.5,2.5s1.1,2.5,2.5,2.5h1.9c2.6,0,4.8-2.1,4.8-4.8l-1.1-14.4c0-.9-.3-1.8-.7-2.7-1-2.4-3-4.1-5.5-4.8v-2.3l3.6-1.1c.5,1.1,1.4,3.2,2.9,6.9,1.7,4.3,4,10.1,6.3,16.3,0,0,0,.2,0,.2,1.5,3.8,2.9,7.6,4.1,10.9.2.6.6,1,1.1,1.3H5.4ZM37,66.5l9.2,6.9,9.3-6.9-9.2,23.6c-2-5.2-6.9-17.7-9.3-23.6ZM87.4,99.2h0c0,.2-.2.2-.3.2h-39.6c.5-.3.9-.7,1.1-1.3,1.2-3.3,2.6-7,4.1-10.9,0,0,0-.1,0-.2,2.3-6,4.6-11.8,6.3-16.3,1.3-3.2,2.3-5.5,2.9-6.9l3.6,1.1v7.3c-4.3,1.2-7,5.6-6.1,10,.9,4.7,5.5,7.8,10.2,6.9,2.3-.4,4.3-1.8,5.6-3.7,1.3-1.9,1.8-4.3,1.3-6.5-.6-3.2-3-5.8-6.1-6.7v-5.9l10,3c1.3.4,2.3,1.5,2.5,2.8l4.5,26.5c0,.1,0,.3-.1.4Z"/>
</svg>