<svg xmlns="http://www.w3.org/2000/svg" width="92.381" height="104.161" viewBox="0 0 92.381 104.161">
  <path id="Trazado_138" data-name="Trazado 138" d="M158.291,91.454l-1.259,7.374a4.564,4.564,0,0,0,4.5,5.333h83.251a4.565,4.565,0,0,0,4.5-5.334l-4.608-26.977a7.679,7.679,0,0,0-5.382-6.093l-12.429-3.75a13.863,13.863,0,0,0-9.619-12.039c.394-.437.758-.872,1.093-1.3a24.121,24.121,0,0,0,4.941-10.726h.959a4.528,4.528,0,0,0,4.523-4.522V31.105a4.554,4.554,0,0,0-2.344-3.955l-.109-12.182a1.52,1.52,0,0,0,.108-.562v-2.4A12.022,12.022,0,0,0,214.407,0h-22.5A12.022,12.022,0,0,0,179.9,12.008V27.15a4.553,4.553,0,0,0-2.344,3.955v2.318a4.528,4.528,0,0,0,4.523,4.522h.959a24.121,24.121,0,0,0,4.941,10.726c.334.425.7.86,1.092,1.3a13.913,13.913,0,0,0-9.618,12.04l-12.429,3.75a7.678,7.678,0,0,0-5.382,6.093m68.575,9.194a4.842,4.842,0,1,1-4.842-4.842A4.847,4.847,0,0,1,230.215,81.046Zm-6.562-20.007-5.276-1.592h0a4.169,4.169,0,0,0-2.677.1,4.033,4.033,0,0,1-1.041-2.616V52.489A10.751,10.751,0,0,1,223.653,61.039ZM209.8,71.79l-.016-.007L206.2,70.257l8.594-6.423q-.061.14-.122.287c-.075.178-.154.365-.234.556l-.031.075-.243.584-.017.041c-.072.174-.146.353-.221.535l-.041.1-.051.126-.1.247-.126.309-.042.1q-.159.391-.327.8l-.052.129-.168.415-.066.164-.177.438-.05.125q-.31.772-.644,1.612l-.022.055-.218.55-.041.1-.231.582,0,.011-.254.643Zm.386,3.478q-.652,1.67-1.365,3.51-.456,1.178-.909,2.353l-.621-3.4,2.326-2.7Zm-5.226.494H201.35l-1.71-1.988,3.517-1.494,3.517,1.494Zm.852,10.847c-1.014,2.657-1.926,5.06-2.629,6.919a1.528,1.528,0,0,0-.156-.256c-.689-1.822-1.564-4.127-2.532-6.663l1.424-7.8h2.469Zm-9.288-14.827-.019.008-1.5.637-.251-.635-.008-.021-.229-.579-.041-.1-.22-.554-.015-.038q-.339-.852-.654-1.636l-.046-.114-.178-.443-.064-.159-.169-.419-.049-.122-.3-.73-.079-.192-.112-.273-.119-.29-.044-.109-.034-.083q-.264-.642-.5-1.211l0-.009c-.084-.2-.167-.4-.247-.588l-.122-.287,8.594,6.423Zm2.491,5.948-.621,3.4q-.452-1.173-.909-2.353-.713-1.843-1.365-3.51l.569-.242ZM213.15,61.25l-9.993,7.469-9.993-7.469a7.233,7.233,0,0,0,1.546-4.319V54.472a17.915,17.915,0,0,0,16.894,0v2.459A7.234,7.234,0,0,0,213.15,61.25Zm12.559-27.826a1.474,1.474,0,0,1-1.472,1.472h-.854V30.941a6.561,6.561,0,0,1,1.472-.2,1.559,1.559,0,0,0,.745-.177,1.442,1.442,0,0,1,.108.54ZM182.931,34.9h-.854a1.474,1.474,0,0,1-1.472-1.472V31.105a1.444,1.444,0,0,1,.108-.54,1.555,1.555,0,0,0,.745.177,6.82,6.82,0,0,1,1.473.2Zm2.752-6.138c-.163-.089-.327-.167-.491-.242a1.535,1.535,0,0,0-.215-.1,9.4,9.4,0,0,0-2.028-.587V12.008a8.968,8.968,0,0,1,8.957-8.957h22.5a8.968,8.968,0,0,1,8.958,8.957v.664a1.517,1.517,0,0,0-.124.6l.124,14.56a9.4,9.4,0,0,0-2.028.587,1.55,1.55,0,0,0-.215.1c-.164.075-.328.153-.491.242V16.466a6.166,6.166,0,0,0-6.159-6.159h-4.21a6.327,6.327,0,0,0-3.995,1.425l-.413.338a4.261,4.261,0,0,1-5.394,0l-.413-.338a6.329,6.329,0,0,0-3.995-1.425h-4.211a6.166,6.166,0,0,0-6.159,6.159Zm.3,7.848V32.6a2.14,2.14,0,0,0,2.752-2.052V16.466a3.112,3.112,0,0,1,3.108-3.108h4.21a3.271,3.271,0,0,1,2.064.736l.413.338a7.312,7.312,0,0,0,9.256,0l.413-.338a3.269,3.269,0,0,1,2.064-.736h4.21a3.112,3.112,0,0,1,3.108,3.108V30.547a2.141,2.141,0,0,0,2.752,2.053v4.006c0,2.227-1.54,6.552-4.393,10.181a20.106,20.106,0,0,1-3.656,3.622,1.541,1.541,0,0,0-.136.1,14.868,14.868,0,0,1-17.981,0,1.517,1.517,0,0,0-.135-.1,20.118,20.118,0,0,1-3.656-3.622C187.521,43.158,185.981,38.833,185.981,36.606Zm5.678,15.885v4.44a4.034,4.034,0,0,1-1.041,2.616,4.171,4.171,0,0,0-2.572-.129c-.037.009-.074.019-.11.029l-5.27,1.59A10.836,10.836,0,0,1,191.659,52.491Zm54.28,48.082a1.492,1.492,0,0,1-1.157.538H161.532a1.515,1.515,0,0,1-1.493-1.77l1.521-8.9a1.538,1.538,0,0,0,.02-.235l3.067-17.839a4.645,4.645,0,0,1,3.256-3.686l11.5-3.468v3.017a7.631,7.631,0,0,0-5.8,4.8,7.728,7.728,0,0,0-.453,2.071l-1.111,14.26A3.877,3.877,0,0,0,175.9,93.54h1.9a1.525,1.525,0,1,0,0-3.051h-1.9a.826.826,0,0,1-.824-.89l1.111-14.26a4.679,4.679,0,0,1,.274-1.254,4.612,4.612,0,0,1,4.318-2.94l.251,0h.035a4.57,4.57,0,0,1,4.259,2.732,4.667,4.667,0,0,1,.357,1.465L186.792,89.6a.826.826,0,0,1-.824.89h-1.9a1.525,1.525,0,0,0,0,3.051h1.9a3.877,3.877,0,0,0,3.865-4.178L188.721,75.1a7.723,7.723,0,0,0-.589-2.418,7.551,7.551,0,0,0-5.684-4.467V64.29l5.243-1.582c.477,1,1.422,3.176,3.3,7.857,1.888,4.723,4.233,10.776,6.483,16.661.016.05.035.1.055.145,1.5,3.929,2.958,7.777,4.2,11.1a1.525,1.525,0,0,0,2.856,0c1.245-3.319,2.7-7.167,4.2-11.1a1.486,1.486,0,0,0,.055-.145c2.248-5.881,4.593-11.931,6.479-16.652,1.875-4.687,2.821-6.86,3.3-7.865l5.243,1.582V73.3a7.891,7.891,0,1,0,3.05.006v-8.1l11.5,3.468a4.645,4.645,0,0,1,3.256,3.686l4.608,26.977A1.49,1.49,0,0,1,245.94,100.573Z" transform="translate(-156.966)" fill="#059669"/>
</svg>
