<svg xmlns="http://www.w3.org/2000/svg" width="96.074" height="74.787" viewBox="0 0 96.074 74.787">
  <g transform="translate(-1.999 -8.652)">
    <path id="Trazado_9" data-name="Trazado 9" d="M69.81,20.766H64V19.041a2.57,2.57,0,0,0-2.571-2.571H56.182V11.223a2.57,2.57,0,0,0-2.571-2.571H46.465a2.573,2.573,0,0,0-2.571,2.571h0v5.252H38.647a2.573,2.573,0,0,0-2.571,2.571h0v1.72H14.968a1.675,1.675,0,0,0-1.674,1.674h0v50.5H7.251a5.249,5.249,0,1,0,0,10.5H92.826a5.249,5.249,0,0,0,0-10.5H86.787V22.426a1.675,1.675,0,0,0-1.674-1.674H73.163ZM44.677,25.4H39.429V19.823h5.247a2.573,2.573,0,0,0,2.571-2.571h0V12.005h5.577v5.252A2.574,2.574,0,0,0,55.4,19.828h5.243v5.581H55.4a2.571,2.571,0,0,0-2.576,2.571h0v5.243H47.248V27.976a2.569,2.569,0,0,0-2.571-2.566ZM16.643,24.1H36.076v2.086a2.573,2.573,0,0,0,2.571,2.571h5.247V34.01a2.57,2.57,0,0,0,2.571,2.571h7.15a2.57,2.57,0,0,0,2.571-2.571h0V28.758h5.243A2.57,2.57,0,0,0,64,26.187h0V24.1H83.434V40.616H16.643Zm0,19.859H83.4V47.3H16.643Zm0,6.7H83.434V72.941H62.893V61.22a1.681,1.681,0,0,0-1.679-1.683H38.862a1.68,1.68,0,0,0-1.674,1.683v11.72H16.643ZM56.521,62.89V72.954H43.556V62.89Zm36.3,17.2H7.251a1.9,1.9,0,1,1,0-3.8H92.826a1.9,1.9,0,1,1,0,3.8Z" transform="translate(0 0)" fill="#e0e0e0"/>
    <path id="Trazado_13" data-name="Trazado 13" d="M17.062,18.647H6.686a1.438,1.438,0,0,0-1.437,1.441h0V29.7a1.433,1.433,0,0,0,1.433,1.441h10.38A1.435,1.435,0,0,0,18.5,29.7V20.088a1.435,1.435,0,0,0-1.433-1.441Zm-1.426,9.607H8.154V21.533h7.482Z" transform="translate(12.085 37.544)" fill="#e0e0e0"/>
    <path id="Trazado_14" data-name="Trazado 14" d="M28.115,18.647H17.739A1.442,1.442,0,0,0,16.3,20.08V29.7a1.435,1.435,0,0,0,1.433,1.441H28.115A1.433,1.433,0,0,0,29.556,29.7V20.088a1.438,1.438,0,0,0-1.433-1.441Zm-1.426,9.607H19.207V21.533h7.482Z" transform="translate(53.172 37.544)" fill="#e0e0e0"/>
  </g>
</svg>
