<?xml version="1.0" encoding="utf-8"?>
<!-- Generator: Adobe Illustrator 16.0.0, SVG Export Plug-In . SVG Version: 6.00 Build 0)  -->
<!DOCTYPE svg PUBLIC "-//W3C//DTD SVG 1.1//EN" "http://www.w3.org/Graphics/SVG/1.1/DTD/svg11.dtd">
<svg version="1.1" id="Capa_1" xmlns:svgjs="http://svgjs.com/svgjs"
	 xmlns="http://www.w3.org/2000/svg" xmlns:xlink="http://www.w3.org/1999/xlink" x="0px" y="0px" width="50px" height="50px"
	 viewBox="0 0 50 50" enable-background="new 0 0 50 50" xml:space="preserve">
<g>
	<g>
		<path d="M39.695,0H10.276C4.61,0,0,4.93,0,10.988s4.61,10.987,10.276,10.987h7.482v8.876l-0.365-0.327
			c-1.806-1.621-4.632-1.489-6.299,0.294c-1.747,1.867-1.633,4.836,0.268,6.541l6.396,5.74v5.53c0,0.865,0.656,1.565,1.464,1.565
			h17.566c0.811,0,1.464-0.7,1.464-1.565V31.04c0-2.364-1.652-4.369-3.848-4.659l-7.863-1.048v-3.358h13.153
			c5.666,0,10.276-4.928,10.276-10.987C49.972,4.929,45.361,0,39.695,0z M20.687,47.064v-3.131h14.64v3.131H20.687z M34.044,29.486
			c0.73,0.098,1.282,0.766,1.282,1.554v9.763H19.755l-6.512-5.842c-0.578-0.519-0.612-1.357-0.078-1.929
			c0.6-0.641,1.696-0.694,2.346-0.108l2.771,2.482c0.95,0.853,2.405,0.131,2.405-1.197V14.193c0-0.864,0.657-1.566,1.464-1.566
			s1.464,0.702,1.464,1.566v12.522c0,0.791,0.55,1.456,1.283,1.555L34.044,29.486z M39.695,18.843H26.542v-4.65
			c0-2.59-1.97-4.697-4.392-4.697s-4.392,2.107-4.392,4.697v4.65h-7.483c-4.051,0-7.347-3.524-7.347-7.855s3.296-7.857,7.348-7.857
			h29.419c4.051,0,7.348,3.524,7.348,7.857C47.043,15.319,43.746,18.843,39.695,18.843L39.695,18.843z" fill="#168c40"/>
		<path d="M38.58,6.72l-4.82,5.154l-1.894-2.023c-0.571-0.612-1.498-0.612-2.07,0c-0.57,0.611-0.57,1.602,0,2.214l2.929,3.13
			c0.571,0.61,1.498,0.611,2.07,0l5.855-6.261c0.572-0.611,0.572-1.603,0-2.214C40.079,6.108,39.152,6.108,38.58,6.72L38.58,6.72z" fill="#168c40"
			/>
	</g>
</g>
</svg>
