<?xml version="1.0" encoding="utf-8"?>
<!-- Generator: Adobe Illustrator 16.0.0, SVG Export Plug-In . SVG Version: 6.00 Build 0)  -->
<!DOCTYPE svg PUBLIC "-//W3C//DTD SVG 1.1//EN" "http://www.w3.org/Graphics/SVG/1.1/DTD/svg11.dtd">
<svg version="1.1" id="Capa_1" xmlns="http://www.w3.org/2000/svg" xmlns:xlink="http://www.w3.org/1999/xlink" x="0px" y="0px"
	 width="18px" height="18px" viewBox="-0.563 3.5 18 18" enable-background="new -0.563 3.5 18 18" xml:space="preserve">
<path id="Trazado_139" fill="#168C40" d="M11.39,16.216c-0.773,0.008-1.231-0.826-1.467-1.221c1.497-0.604,2.481-2.051,2.491-3.665
	V8.896c-0.002-1.149-0.933-2.08-2.081-2.082H6.535C5.387,6.816,4.456,7.747,4.455,8.896v1.927c-0.205-0.105-0.334-0.314-0.335-0.544
	V8.735c0-4.152,3.31-5.353,6.406-4.271l-0.238,0.098c-0.151,0.063-0.225,0.237-0.161,0.389c0.041,0.101,0.135,0.17,0.243,0.182
	l0.521,0.056c0.993,0.102,1.894,0.63,2.466,1.448c-0.375,0.455-0.579,1.027-0.577,1.617v2.028c0.008,0.165,0.147,0.291,0.312,0.283
	c0.153-0.007,0.275-0.13,0.282-0.283V8.251c-0.001-0.513,0.201-1.006,0.562-1.371c0.051-0.051,0.081-0.118,0.087-0.189
	c0.007-0.084-0.019-0.168-0.072-0.233c-0.557-0.887-1.438-1.521-2.455-1.768c0.125-0.106,0.14-0.294,0.033-0.42
	c-0.026-0.032-0.06-0.057-0.097-0.075C9.425,3.23,6.696,3.125,4.995,4.767C3.987,5.838,3.456,7.271,3.521,8.74v1.541
	c0.002,0.561,0.388,1.046,0.932,1.176c0.057,1.479,0.929,2.806,2.265,3.444v0.078c-0.001,0.686-0.556,1.24-1.241,1.239
	c0,0-0.001,0-0.002,0c-1.695,0-3.068,1.374-3.068,3.068l0,0v1.755c0.008,0.164,0.147,0.29,0.312,0.282
	c0.153-0.007,0.275-0.13,0.283-0.282v-1.756C3,17.919,4.106,16.812,5.472,16.81c0,0,0.002,0,0.002,0
	c0.511,0.005,1-0.208,1.346-0.585c0.634,0.433,2.574,0.399,3.332,0.118c0.024-0.005,0.048-0.014,0.07-0.024
	c0.322,0.288,0.729,0.461,1.16,0.491c1.365,0,2.473,1.106,2.475,2.473c0,0,0,0.002,0,0.003v1.756
	c-0.009,0.164,0.118,0.305,0.282,0.312c0.164,0.008,0.303-0.118,0.313-0.282c0-0.01,0-0.02,0-0.029v-1.756
	C14.452,17.592,13.081,16.22,11.39,16.216z M5.055,11.308V8.896c0.001-0.819,0.663-1.483,1.48-1.487h3.792
	c0.819,0,1.485,0.666,1.486,1.487v2.412c0.001,1.868-1.512,3.384-3.38,3.385c-1.868,0.001-3.383-1.511-3.385-3.379
	c0-0.002,0-0.004,0-0.005H5.055z M7.16,15.732c0.086-0.192,0.139-0.397,0.155-0.607c0.664,0.198,1.368,0.217,2.04,0.055
	c0.009,0.031,0.02,0.061,0.037,0.087c0.119,0.202,0.251,0.396,0.394,0.582c-0.87,0.216-1.782,0.175-2.629-0.118L7.16,15.732z"/>
</svg>
