<?xml version="1.0" encoding="utf-8"?>
<!-- Generator: Adobe Illustrator 16.0.0, SVG Export Plug-In . SVG Version: 6.00 Build 0)  -->
<!DOCTYPE svg PUBLIC "-//W3C//DTD SVG 1.1//EN" "http://www.w3.org/Graphics/SVG/1.1/DTD/svg11.dtd">
<svg version="1.1" id="Capa_1" xmlns="http://www.w3.org/2000/svg" xmlns:xlink="http://www.w3.org/1999/xlink" x="0px" y="0px"
	 width="50.003px" height="49.98px" viewBox="0 -1.98 50.003 49.98" enable-background="new 0 -1.98 50.003 49.98"
	 xml:space="preserve">
<g id="Grupo_296" transform="translate(-6922 3820)">
	<path id="Trazado_64" fill="#168C40" d="M6946.999-3800.433c3.184,0,5.765-2.581,5.765-5.766c0-3.184-2.581-5.766-5.765-5.766
		c-3.185,0-5.766,2.582-5.766,5.766C6941.237-3803.015,6943.815-3800.437,6946.999-3800.433z M6946.999-3810.317
		c2.275,0,4.118,1.845,4.118,4.119s-1.843,4.119-4.119,4.119c-2.274,0-4.118-1.845-4.118-4.119
		C6942.881-3808.472,6944.725-3810.315,6946.999-3810.317L6946.999-3810.317z"/>
	<path id="Trazado_65" fill="#168C40" d="M6946.854-3776.318l12.866-18.484c4.826-6.4,4.129-16.919-1.492-22.51
		c-6.295-6.248-16.452-6.248-22.747,0c-5.625,5.592-6.32,16.11-1.514,22.483L6946.854-3776.318z M6936.667-3816.135
		c5.639-5.596,14.735-5.596,20.376,0c5.074,5.047,5.697,14.547,1.319,20.355l-11.508,16.528l-11.53-16.553
		C6930.967-3801.583,6931.593-3811.087,6936.667-3816.135z"/>
	<path id="Trazado_66" fill="#168C40" d="M6957.1-3785.998c-0.451-0.053-0.863,0.27-0.916,0.722
		c-0.055,0.451,0.27,0.862,0.721,0.916c8.763,1.021,13.432,3.768,13.432,5.36c0,2.233-8.878,5.353-23.334,5.353
		s-23.333-3.119-23.333-5.353c0-1.594,4.667-4.342,13.431-5.36c0.452-0.054,0.774-0.465,0.721-0.916
		c-0.054-0.452-0.464-0.774-0.917-0.722c-8.773,1.022-14.901,3.898-14.901,6.998c0,3.479,8.588,7.001,25,7.001s25-3.522,25-7.001
		C6971.994-3782.1,6965.871-3784.973,6957.1-3785.998z"/>
</g>
</svg>
