<?xml version="1.0" encoding="utf-8"?>
<!-- Generator: Adobe Illustrator 16.0.0, SVG Export Plug-In . SVG Version: 6.00 Build 0)  -->
<!DOCTYPE svg PUBLIC "-//W3C//DTD SVG 1.1//EN" "http://www.w3.org/Graphics/SVG/1.1/DTD/svg11.dtd">
<svg version="1.1" id="Capa_1" xmlns="http://www.w3.org/2000/svg" xmlns:xlink="http://www.w3.org/1999/xlink" x="0px" y="0px"
	 width="55px" height="50px" viewBox="0 0 55 50" enable-background="new 0 0 55 50" xml:space="preserve">
<path fill-rule="evenodd" clip-rule="evenodd" fill="none" d="M331.131,8.066c0-3.499,0.094-7.001-0.016-10.496
	c-0.651-20.958-9.547-37.207-28.043-47.503c-11.348-6.316-23.088-11.923-34.594-17.958c-3.104-1.628-5.902-1.598-8.99,0.023
	c-10.471,5.497-27.755,14.64-38.251,20.091c-2.394,1.243-5.168,2.658-3.525,6.027c1.791,3.674,4.657,2.173,7.25,0.84
	c9.037-4.646,24.883-12.954,33.778-17.856c3.816-2.103,6.959-1.976,10.71,0.091c8.312,4.581,16.744,8.964,25.289,13.095
	c10.7,5.173,19.336,12.35,24.337,23.369c5.77,12.713,3.474,26.198,3.692,39.438c0.021,1.297-0.747,2.247-2.16,2.261
	c-1.755,0.018-2.213-1.214-2.241-2.679c-0.046-2.332-0.035-4.664-0.053-6.997c-0.134-17.521-14.798-28.451-31.693-23.521
	c-5.594,1.632-11.107,3.545-16.635,5.395c-4.425,1.48-8.797,1.518-13.223-0.012c-5.195-1.795-10.38-3.64-15.648-5.197
	c-16.405-4.85-31.319,6.272-31.447,23.348c-0.017,2.166-0.024,4.332-0.082,6.497c-0.042,1.548-0.161,3.226-2.277,3.137
	c-2.048-0.086-2.171-1.785-2.184-3.31c-0.049-5.831,0.136-11.669-0.086-17.492c-0.438-11.488,2.943-21.664,9.984-30.678
	c1.613-2.064,3.25-4.256,0.592-6.499c-2.884-2.434-4.929-0.309-6.674,1.839c-5.899,7.261-9.663,15.526-11.213,24.753
	c-1.751,10.43-0.55,20.952-0.828,31.429c-0.063,2.363-0.334,4.489-1.565,6.655c-5.476,9.63-0.694,19.496,10.291,21.101
	c2.953,0.431,3.987,1.604,4.064,4.434c0.316,11.778,4.636,22.157,12.07,31.079c3.039,3.647,2.324,5.571-0.773,8.487
	c-17.63,16.594-19.739,37.982-18.179,60.41c0.144,2.059,1.316,3.455,3.508,3.509c2.445,0.062,3.652-1.44,3.848-3.708
	c0.171-1.986,0.118-3.994,0.133-5.992c0.046-6.307,0.273-6.27,6.366-6.593c4.905-0.261,6.699,1.668,6.154,6.378
	c-0.19,1.643-0.051,3.329,0.011,4.994c0.093,2.515,0.719,4.804,3.767,4.926c2.985,0.119,4.14-1.997,4.223-4.539
	c0.157-4.824,0.155-9.661,0.004-14.486c-0.113-3.605-2.189-5.392-5.833-5.362c-3.332,0.028-6.675-0.182-9.994,0.023
	c-3.392,0.209-4.396-1.048-3.876-4.377c1.981-12.706,7.948-23.186,17.361-31.791c1.063-0.972,2.324-2.357,3.94-1.395
	c3.346,1.993,6.992,3.316,8.683,7.68c3.692,9.531,10.849,15,21.296,15.368c10.604,0.375,18.519-4.759,22.903-14.517
	c4.236-9.429,11.175-10.694,17.931-3.27c0.784,0.862,1.527,1.769,2.371,2.568c1.618,1.532,3.477,2.177,5.347,0.566
	c2.004-1.727,1.911-3.846,0.29-5.752c-1.832-2.152-3.727-4.293-5.853-6.141c-2.316-2.012-2.76-3.422-0.417-6.021
	c8.074-8.959,12.354-19.695,13.194-31.682c0.233-3.323,1.244-4.465,4.632-4.872c10.141-1.22,15.346-11.773,10.229-20.573
	c-1.429-2.455-1.996-4.81-1.909-7.546C331.233,15.4,331.146,11.731,331.131,8.066z M325.214,139.687
	c0.445-7.821-1.935-22.377-4.462-30.059c-0.882-2.679-2.159-5.304-5.585-4.155c-3.133,1.051-2.655,3.735-1.937,6.302
	c0.672,2.397,2.896,11.466,3.399,13.903c0.736,3.562-0.556,5.23-4.435,5.135c-16.964-0.417-15.275-0.766-15.235,15.896
	c0.008,3.238-1.242,8.143,3.806,8.301c5.528,0.173,4.185-4.941,4.283-8.316c0.227-7.791,0.515-8.077,8.262-7.769
	c3.164,0.126,4.711,1.144,4.066,4.514c-0.505,2.642-0.371,5.292,0.15,7.936c0.428,2.168,1.383,3.835,3.841,3.81
	c2.741-0.028,3.757-1.887,3.82-4.296C325.285,147.23,325.214,143.569,325.214,139.687z"/>
<path fill-rule="evenodd" clip-rule="evenodd" fill="none" d="M217.296,29.906c0.003-6.657-0.093-13.316,0.023-19.972
	c0.207-11.9,9.478-19.012,20.975-15.948c5.618,1.496,11.125,3.435,16.627,5.335c5.732,1.979,11.36,2.021,17.097-0.016
	c5.329-1.892,10.708-3.662,16.129-5.27c12.719-3.771,22.631,3.422,22.473,16.654c-0.182,15.123,1.36,30.32-0.864,45.36
	c-3.545,23.965-24.846,40.152-50.293,38.68c-22.472-1.299-41.354-21.101-42.134-44.354C217.101,43.56,217.293,36.729,217.296,29.906
	z M263.983,49.696c0-0.016,0-0.03,0-0.046c-3.327,0-6.653-0.021-9.98,0.004c-10.523,0.075-10.815,0.382-10.648,10.985
	c0.147,9.442,6.208,17.301,15.316,19.862c8.746,2.459,17.831-1.321,22.758-9.291c3.479-5.629,3.127-11.785,2.653-17.92
	c-0.223-2.88-2.571-3.595-5.129-3.595C273.963,49.696,268.973,49.696,263.983,49.696z M255.067,27.456
	c-0.159-0.399-0.363-1.211-0.777-1.896c-3.972-6.563-18.488-6.513-22.385,0.037c-1.001,1.682-0.79,3.171,0.461,4.546
	c1.454,1.599,3.203,1.77,4.913,0.539c3.979-2.866,7.737-2.994,11.922-0.121C251.906,32.418,254.919,30.757,255.067,27.456z
	 M295.127,27.653c-0.291-0.661-0.526-1.464-0.961-2.14c-4.105-6.374-17.753-6.476-22.134-0.208
	c-1.084,1.551-1.249,3.044-0.073,4.572c1.308,1.7,3.133,2.25,4.816,1.014c4.356-3.2,8.346-2.942,12.854-0.058
	C292.283,32.533,294.296,30.765,295.127,27.653z"/>
<path fill-rule="evenodd" clip-rule="evenodd" fill="none" d="M250.626,101.386c8.74,1.808,16.759,2.029,24.909,0.113
	C272.447,110.438,255.69,111.221,250.626,101.386z"/>
<path fill-rule="evenodd" clip-rule="evenodd" fill="none" d="M209.531,33.126c-1.568,2.233,1.876,6.302-2.9,6.395
	c-3.397,0.066-5.438-2.241-5.529-5.8c-0.1-3.903,2.294-6.143,5.772-6.12C211.399,27.629,207.601,31.693,209.531,33.126z"/>
<path fill-rule="evenodd" clip-rule="evenodd" fill="none" d="M318.59,34.178c1.211-2.408-1.318-6.421,3.106-6.42
	c3.362,0.002,5.338,2.411,5.205,6.007c-0.131,3.561-2.204,5.726-5.574,5.769C316.686,39.593,320.22,35.591,318.59,34.178z"/>
<path fill="#168C40" d="M20.881,23.051c0.282,0,0.561-0.088,0.828-0.262c0.851-0.552,1.559-0.557,2.424-0.021
	c0.262,0.162,0.552,0.248,0.838,0.248c0.749,0,1.342-0.578,1.38-1.344l-0.066-0.289c-0.041-0.11-0.104-0.278-0.211-0.439
	c-0.652-0.973-2.075-1.32-3.189-1.32c-1.124,0-2.554,0.35-3.201,1.332c-0.372,0.565-0.306,1.166,0.18,1.649
	C20.159,22.896,20.511,23.051,20.881,23.051z"/>
<path fill="#168C40" d="M30.771,23.067c0.258,0,0.517-0.081,0.747-0.234c0.885-0.586,1.646-0.585,2.665,0.003
	c0.247,0.143,0.496,0.215,0.741,0.215c0.621,0,1.127-0.456,1.354-1.219l0.055-0.186l-0.139-0.297
	c-0.055-0.125-0.121-0.281-0.228-0.429c-0.578-0.812-1.763-1.296-3.169-1.296c-1.36,0-2.529,0.461-3.128,1.233
	c-0.586,0.756-0.254,1.362-0.004,1.656C29.969,22.871,30.361,23.067,30.771,23.067z"/>
<path fill="#168C40" d="M45.626,21.075c-0.295-0.445-0.412-0.852-0.394-1.361c0.021-0.592,0.016-1.185,0.01-1.778l-0.005-0.637
	l0.004-0.767c0.004-0.512,0.009-1.024-0.009-1.536c-0.174-4.885-2.609-8.509-7.238-10.771c-1.767-0.863-3.597-1.677-5.366-2.463
	c-1.08-0.48-2.161-0.961-3.233-1.455c-0.908-0.417-1.742-0.417-2.657,0.005c-0.806,0.37-1.801,0.799-2.86,1.255
	c-2.37,1.02-5.056,2.177-6.685,3.147c-0.143,0.086-0.291,0.196-0.39,0.287l-0.146,0.106c-0.949,0.688-2.13,1.543-2.625,2.112
	c-1.528,1.65-2.505,3.545-2.905,5.632c-0.299,1.563-0.262,3.137-0.227,4.659c0.018,0.755,0.035,1.509,0.012,2.264
	c-0.014,0.468-0.07,0.832-0.311,1.203c-0.705,1.088-0.834,2.288-0.354,3.291c0.53,1.107,1.721,1.856,3.267,2.054
	c0.561,0.071,0.564,0.188,0.574,0.495c0.08,2.601,1.132,4.986,3.13,7.089c0.314,0.331,0.354,0.492,0.35,0.56
	c-0.012,0.183-0.377,0.485-0.498,0.585c-4.768,3.938-5.046,9.071-4.689,13.573c0.058,0.721,0.59,1.198,1.403,1.216
	c0.8,0,1.344-0.479,1.419-1.251c0.035-0.346,0.035-0.695,0.035-1.043l0.001-0.306c0.002-0.283,0.006-0.759,0.057-0.844
	c0.096-0.063,0.563-0.085,1.048-0.107l0.188-0.005c0.375,0,0.63,0.063,0.736,0.181c0.123,0.138,0.114,0.436,0.083,0.662
	c-0.044,0.338-0.027,0.664-0.01,0.98l0.01,0.19c0.051,1.236,0.798,1.521,1.495,1.543c0.884,0,1.454-0.56,1.487-1.461
	c0.039-1.045,0.04-2.118,0.001-3.19c-0.037-1.027-0.757-1.641-1.952-1.641l-0.147,0.001c-0.247,0-0.494-0.004-0.741-0.008
	c-0.54-0.008-1.079-0.018-1.617,0.013l-0.14,0.004c-0.247,0-0.312-0.033-0.313-0.037c-0.005-0.012-0.035-0.096,0.01-0.349
	c0.462-2.602,1.815-4.771,4.198-6.685c0.09-0.074,0.254-0.203,0.361-0.199c0.146,0.076,0.294,0.148,0.441,0.221
	c0.652,0.316,1.216,0.592,1.491,1.216c1.014,2.299,2.996,3.559,5.731,3.645l0.281,0.004c2.688,0,4.717-1.188,5.867-3.438
	c0.348-0.678,0.952-1.488,1.858-1.488c0.561,0,1.182,0.313,1.795,0.904l0.278,0.276c0.107,0.105,0.218,0.209,0.329,0.302
	c0.049,0.042,0.098,0.078,0.133,0.101c0.526,0.453,1.106,0.997,1.402,1.56c0.048,0.107,0.097,0.215,0.142,0.311l0.094,0.198
	c0.256,0.547,0.654,2.26,0.786,2.823l0.025,0.11c0.057,0.238,0.038,0.37,0.006,0.41c-0.01,0.011-0.104,0.11-0.604,0.11
	c-0.001,0-0.003,0-0.005,0l-0.286-0.006c-2.027-0.044-2.974-0.087-3.551,0.485c-0.494,0.489-0.483,1.232-0.464,2.579
	c0.004,0.27,0.008,0.567,0.009,0.895c0,0.104-0.008,0.217-0.015,0.333c-0.032,0.489-0.071,1.1,0.338,1.538
	c0.252,0.269,0.625,0.413,1.188,0.426c0.495,0,0.878-0.134,1.139-0.4c0.416-0.426,0.389-1.032,0.366-1.521
	c-0.006-0.127-0.012-0.25-0.008-0.363c0.041-1.237,0.041-1.237,0.838-1.237c0.198,0,0.429,0.007,0.695,0.016
	c0.472,0.017,0.549,0.107,0.55,0.107c0,0.001,0.037,0.064-0.012,0.285c-0.131,0.604-0.118,1.238,0.038,1.936
	c0.224,1.005,0.9,1.216,1.428,1.216h0.02c0.876-0.009,1.415-0.536,1.443-1.411c0.017-0.561,0.013-1.12,0.009-1.698l-0.004-0.726
	c0.104-1.583-0.099-4.773-1.071-6.633l-0.009-0.019c-0.031-0.073-0.074-0.158-0.107-0.215c-0.105-0.231-0.271-0.485-0.446-0.692
	c-0.671-0.929-1.685-2.059-1.972-2.35c-0.428-0.441-0.933-0.947-1.508-1.388c-0.251-0.19-0.292-0.273-0.296-0.273l-0.001,0.001
	c0.001-0.004,0.018-0.091,0.238-0.306c2.048-1.996,3.199-4.422,3.423-7.214c0.034-0.448,0.064-0.546,0.704-0.612
	c1.433-0.15,2.616-0.916,3.166-2.046C46.385,23.238,46.29,22.077,45.626,21.075z M13.57,21.273l0.023,0.713
	c0.198,0,0.333,0.01,0.424,0.021c-0.011,0.068-0.028,0.147-0.042,0.209c-0.056,0.26-0.126,0.583-0.049,0.928
	c0.03,0.137,0.073,0.279,0.115,0.423c0.062,0.21,0.177,0.603,0.137,0.691c-0.001,0.001-0.146,0.085-0.77,0.092
	c-1.323,0-1.626-0.627-1.646-1.152c-0.015-0.37,0.117-0.659,0.387-0.862c0.308-0.23,0.799-0.352,1.42-0.352V21.273L13.57,21.273z
	 M42.191,17.22c-0.022,0.696-0.045,1.392-0.006,2.071l-0.1,0.036c0,0-0.017-0.034-0.019-0.132c-0.008-0.329-0.009-0.657-0.011-0.986
	l-0.003-0.532c-0.029-3.4-2.709-5.868-6.371-5.868c-0.697,0-1.412,0.093-2.124,0.275c-1.139,0.292-2.265,0.624-3.391,0.956
	l-0.756,0.223c-1.017,0.298-2.007,0.298-2.991-0.001l-0.526-0.16c-1.1-0.334-2.238-0.681-3.378-0.977
	c-0.679-0.176-1.365-0.266-2.039-0.266c-3.618,0-6.368,2.502-6.396,5.821l-0.001,0.196c-0.003,0.403-0.006,0.806-0.019,1.208
	c-0.001,0.053,0.008,0.227,0.029,0.206l-0.11,0.027c-0.011-0.022-0.025-0.085-0.026-0.26c-0.005-0.465-0.001-0.929,0.002-1.394
	c0.006-0.812,0.011-1.623-0.024-2.433c-0.099-2.29,0.618-4.303,2.187-6.145c0.866-0.976,1.506-1.56,1.9-1.733
	c0.048-0.021,0.403-0.176,0.62-0.304c1.295-0.771,3.454-1.707,5.358-2.533c1.12-0.486,2.177-0.945,2.989-1.337
	c0.801-0.388,1.377-0.385,2.215,0.02c2.118,1.024,4.238,1.988,6.301,2.863c2.827,1.199,4.723,2.791,5.795,4.864
	C42.331,12.925,42.264,15.011,42.191,17.22z M16.965,23.469c0.005-0.47,0.01-0.94,0.01-1.411l-0.004-1.417
	c-0.004-0.975-0.009-1.95,0.01-2.925c0.037-1.884,1.408-3.15,3.411-3.15c0.382,0,0.779,0.047,1.181,0.141
	c1.271,0.297,2.547,0.685,3.782,1.059l0.314,0.096c1.53,0.463,3.044,0.462,4.544-0.004c1.359-0.424,2.698-0.809,3.98-1.142
	c1.652-0.431,3.156-0.152,4.057,0.74c0.599,0.593,0.907,1.426,0.894,2.409c-0.014,1.041,0.014,2.083,0.042,3.125
	c0.06,2.204,0.121,4.483-0.25,6.687c-0.833,4.94-5.822,8.315-11.966,8.019c-5.323-0.271-9.803-4.395-9.987-9.194
	C16.944,25.495,16.955,24.466,16.965,23.469z M42.18,23.083c-0.074-0.268-0.251-0.896-0.096-1.034
	c0.039-0.036,0.23-0.102,0.683-0.102c0.37,0,0.88,0.055,1.217,0.311c0.333,0.255,0.386,0.624,0.37,0.889
	c-0.043,0.773-0.642,1.17-1.834,1.181c-0.184,0-0.311-0.008-0.396-0.018c0.01-0.068,0.027-0.149,0.043-0.211
	C42.225,23.834,42.297,23.505,42.18,23.083z M26.298,38.35c1.137,0.115,2.207,0.12,3.248,0.015
	C28.726,38.752,27.439,38.866,26.298,38.35z M42.298,49.353L42.298,49.353v0.002V49.353z"/>
<path fill="#168C40" d="M33.553,27.396c-0.04-0.472-0.323-1.264-1.771-1.264l-5.265-0.013l-0.933,0.003
	c-1.373,0.009-2.201,0.014-2.696,0.521c-0.479,0.49-0.465,1.271-0.444,2.451c0.042,2.359,1.682,4.294,4.179,4.928
	c0.476,0.121,0.965,0.183,1.454,0.183c1.906,0,3.675-0.923,4.731-2.468C33.802,30.289,33.664,28.685,33.553,27.396z M30.134,31.549
	c-0.558,0.527-1.672,0.798-2.731,0.624c-0.991-0.163-1.692-0.629-1.706-1.132c-0.002-0.086-0.007-0.242,0-0.339
	c0.188-0.035,0.638-0.037,0.979-0.038l3.458,0.003c0.108,0,0.185,0.007,0.235,0.014C30.413,31.086,30.386,31.311,30.134,31.549z
	 M29.991,29.313h-3.819c-0.233,0-0.422-0.199-0.422-0.445s0.189-0.445,0.422-0.445h3.819c0.233,0,0.422,0.199,0.422,0.445
	S30.225,29.313,29.991,29.313z"/>
</svg>
