<?xml version="1.0" encoding="utf-8"?>
<!-- Generator: Adobe Illustrator 16.0.0, SVG Export Plug-In . SVG Version: 6.00 Build 0)  -->
<!DOCTYPE svg PUBLIC "-//W3C//DTD SVG 1.1//EN" "http://www.w3.org/Graphics/SVG/1.1/DTD/svg11.dtd">
<svg version="1.1" id="Capa_1" xmlns="http://www.w3.org/2000/svg" xmlns:xlink="http://www.w3.org/1999/xlink" x="0px" y="0px"
	 width="50px" height="50px" viewBox="0 0 50 50" enable-background="new 0 0 50 50" xml:space="preserve">
<g>
	<path fill="#168C40" d="M45.094,49.999l0.244-0.003c2.75-0.102,4.719-2.138,4.685-4.842c-0.052-3.995-0.041-13.675-0.031-17.607
		c0.004-1.651,0.009-3.3,0.009-4.95c0-4.999,0-9.999-0.004-14.998c0-0.326-0.003-0.656-0.038-0.979
		c-0.194-1.718-1.47-3.11-2.967-3.24c-0.542-0.047-1.409-0.07-2.653-0.07c-0.905,0-1.87,0.012-2.71,0.021l-0.841,0.009
		c-0.005-0.642-0.013-1.285-0.027-1.926c-0.01-0.534-0.425-1.112-0.819-1.363c-0.245-0.157-0.523-0.239-0.801-0.239
		c-0.852,0-1.538,0.714-1.565,1.626c-0.014,0.551-0.011,1.104-0.008,1.677l0.001,0.25H26.943c0-0.641-0.001-1.281-0.005-1.922
		c-0.006-0.941-0.604-1.61-1.487-1.625c-0.844,0-1.454,0.649-1.484,1.579c-0.012,0.399-0.01,0.799-0.007,1.199
		c0.001,0.24,0.002,0.48,0,0.719c0,0.016,0,0.031-0.001,0.047H13.552l-0.003-1.889C13.544,0.5,12.935-0.18,12.043-0.18
		c-0.878,0.013-1.451,0.669-1.46,1.672C10.579,1.986,10.58,2.481,10.581,3l0,0.271l-0.92,0L6.625,3.27
		c-0.958,0-1.917,0.001-2.876,0.007C1.916,3.288,0.48,4.455,0.092,6.251c-0.08,0.374-0.118,0.79-0.118,1.31
		c0.003,3.271,0.009,6.542,0.016,9.814c0.007,3.677,0.015,7.354,0.018,11.031c0.001,2.338-0.01,4.676-0.021,7.015l-0.016,10.002
		c-0.004,1.73,0.793,3.062,2.369,3.955C3.321,49.936,4.38,50,5.091,50l39.823-0.001 M10.583,8.173
		c0.006,0.752,0.344,1.32,0.889,1.555H3.043C3.042,9.57,3.04,9.414,3.038,9.256C3.029,8.472,3.02,7.732,3.06,6.987
		c0.009-0.176,0.034-0.643,0.804-0.645L6.502,6.34l4.079,0.003l0,0.258C10.579,7.131,10.578,7.652,10.583,8.173z M23.964,8.098
		c0.012,0.924,0.407,1.422,0.904,1.63H12.653c0.543-0.235,0.892-0.801,0.894-1.533l0.004-1.764l10.411-0.015l0,0.219
		C23.96,7.129,23.958,7.613,23.964,8.098z M26.942,6.411h10.627l-0.001,0.257c-0.003,0.541-0.005,1.048,0.006,1.555
		c0.016,0.699,0.41,1.267,0.994,1.505H26.053c0.55-0.241,0.886-0.829,0.89-1.626l0.001-1.431L26.942,6.411z M39.807,9.728
		c0.577-0.235,0.969-0.793,0.973-1.476l0.012-1.913l3.018-0.001c0.947,0,1.815,0,2.316,0.003c0.734,0.004,0.759,0.413,0.767,0.547
		c0.044,0.763,0.034,1.52,0.025,2.321c-0.002,0.173-0.004,0.345-0.006,0.519H39.807z M46.96,45.185
		c0.021,1.519-1.264,1.717-1.661,1.742c-0.051,0.004-0.1,0.005-0.149,0.005l-0.222-0.002L5.114,46.928
		c-0.234,0-0.54-0.007-0.822-0.065c-0.826-0.167-1.263-0.706-1.263-1.561L3.028,12.794h43.915l-0.009,17.931
		C46.928,33.625,46.921,42.235,46.96,45.185z"/>
	<path fill="#168C40" d="M38.711,30.356c-0.397,0.258-0.786,0.528-1.177,0.799l-0.154,0.107c0.377-3.792-0.495-6.934-2.651-9.578
		c-2.509-3.075-5.743-4.634-9.613-4.634l-0.205,0.002c-3.593,0.051-6.857,1.518-9.192,4.127c-2.3,2.573-3.429,6.031-3.097,9.486
		c0.749,7.809,7.425,11.319,11.926,11.319c0.182,0,0.36-0.006,0.536-0.017l0.428-0.025l0.219-2.912l-0.523-0.006
		c-2.401-0.025-4.416-0.735-6.158-2.171c-1.758-1.448-2.871-3.338-3.307-5.618c-0.89-4.661,1.878-8.472,4.826-10.04
		c1.383-0.735,2.929-1.124,4.469-1.124c2.44,0,4.772,0.946,6.567,2.665c2.277,2.176,3.116,5.411,2.797,7.891
		c-0.258-0.65-0.506-1.289-0.748-1.932c-0.324-0.858-0.904-1.038-1.334-1.038c-0.199,0-0.41,0.036-0.645,0.113
		c-0.363,0.117-0.651,0.363-0.817,0.692c-0.177,0.354-0.198,0.781-0.06,1.197c0.05,0.147,0.119,0.289,0.19,0.43
		c0.045,0.089,0.091,0.177,0.124,0.271l0.834,2.227c0.356,0.952,0.713,1.908,1.073,2.86c0.388,1.017,1.059,1.168,1.424,1.168
		c0.348,0,0.712-0.129,1.086-0.383c1.072-0.736,2.143-1.477,3.213-2.22l1.379-0.952c0.11-0.075,0.223-0.152,0.327-0.233
		c0.683-0.532,0.855-1.408,0.412-2.085C40.403,30.042,39.456,29.869,38.711,30.356z"/>
</g>
</svg>
