<?xml version="1.0" encoding="utf-8"?>
<!-- Generator: Adobe Illustrator 16.0.0, SVG Export Plug-In . SVG Version: 6.00 Build 0)  -->
<!DOCTYPE svg PUBLIC "-//W3C//DTD SVG 1.1//EN" "http://www.w3.org/Graphics/SVG/1.1/DTD/svg11.dtd">
<svg version="1.1" id="Capa_1" xmlns="http://www.w3.org/2000/svg" xmlns:xlink="http://www.w3.org/1999/xlink" x="0px" y="0px"
	 width="18px" height="18px" viewBox="5.787 5.787 18 18" enable-background="new 5.787 5.787 18 18" xml:space="preserve">
<g id="Grupo_297" transform="translate(29.573 14.82) rotate(135)">
	<path id="Trazado_73" fill="#5B5B5B" d="M16.773,16.866c-1.692,1.688-4.431,1.688-6.123,0c-0.695-0.69-1.133-1.597-1.24-2.57
		c-0.094-0.835,0.055-1.681,0.43-2.433l-6.76-6.76l1.928-1.928l0.789,0.789l0.849-0.856l1.83,1.83L7.624,5.79l0.628,0.628
		l0.851-0.854l1.831,1.831L10.08,8.247l1.688,1.688c0.753-0.376,1.597-0.524,2.433-0.43c0.973,0.107,1.881,0.545,2.57,1.24
		C18.459,12.436,18.46,15.173,16.773,16.866z M16.15,11.366c-1.122-1.128-2.872-1.338-4.23-0.51l-0.295,0.181l-2.79-2.79
		l0.852-0.852L9.103,6.809L8.252,7.663L6.379,5.79l0.852-0.853L6.646,4.353L5.794,5.205L5.005,4.416L4.322,5.099l6.617,6.617
		l-0.181,0.295c-0.99,1.628-0.473,3.749,1.155,4.739c1.628,0.99,3.749,0.473,4.739-1.154c0.826-1.359,0.617-3.105-0.507-4.23
		L16.15,11.366z"/>
	<path id="Trazado_74" fill="#5B5B5B" d="M13.527,15.661c-0.554-0.573-0.539-1.486,0.034-2.039c0.56-0.541,1.446-0.541,2.005,0l0,0
		c0.554,0.572,0.538,1.486-0.035,2.04C14.974,16.202,14.086,16.202,13.527,15.661z M14.944,14.244c-0.219-0.219-0.575-0.219-0.794,0
		c-0.219,0.219-0.219,0.575,0.001,0.794c0.219,0.219,0.574,0.219,0.793,0C15.163,14.819,15.163,14.464,14.944,14.244z"/>
</g>
</svg>
