<?xml version="1.0" encoding="utf-8"?>
<!-- Generator: Adobe Illustrator 16.0.0, SVG Export Plug-In . SVG Version: 6.00 Build 0)  -->
<!DOCTYPE svg PUBLIC "-//W3C//DTD SVG 1.1//EN" "http://www.w3.org/Graphics/SVG/1.1/DTD/svg11.dtd">
<svg version="1.1" id="Capa_1" xmlns="http://www.w3.org/2000/svg" xmlns:xlink="http://www.w3.org/1999/xlink" x="0px" y="0px"
	 width="50px" height="50px" viewBox="0 0 50 50" enable-background="new 0 0 50 50" xml:space="preserve">
<path fill="#168C40" d="M50,37.256V14.379c-0.003-2.52-2.055-4.572-4.574-4.576h-8.498V0h-2.613v19.281
	c0,0.72,0.587,1.307,1.307,1.307h1L25,27.562l-11.621-6.974h1c0.72,0,1.307-0.586,1.307-1.307V0h-2.615v9.804H4.575
	C2.056,9.807,0.003,11.859,0,14.38v22.876c0.003,2.521,2.056,4.572,4.575,4.574h12.591l-1.144,2.287H1.307
	C0.586,44.117,0,44.704,0,45.426C0,48.461,2.089,50,6.209,50h37.582C47.91,50,50,48.461,50,45.426c0-0.722-0.587-1.309-1.309-1.309
	H33.978l-1.144-2.287h12.592C47.944,41.828,49.997,39.776,50,37.256z M43.791,47.387H6.209c-1.817,0-2.685-0.289-3.117-0.656h43.816
	C46.476,47.098,45.607,47.387,43.791,47.387z M4.575,12.419h8.497v0.653H4.575c-0.72,0-1.307,0.586-1.307,1.308v21.241
	c0,0.721,0.586,1.307,1.307,1.307h40.851c0.719,0,1.305-0.586,1.305-1.307V14.38c0-0.721-0.586-1.308-1.305-1.308h-8.498v-0.653
	h8.498c1.081,0,1.961,0.879,1.961,1.961v22.876c0,1.079-0.88,1.959-1.961,1.959H4.575c-1.082,0-1.961-0.88-1.961-1.959V14.38
	C2.614,13.298,3.494,12.419,4.575,12.419z M7.986,20.4l16.341,9.805c0.405,0.242,0.939,0.242,1.345,0l16.34-9.804
	c0.616-0.37,0.817-1.175,0.447-1.795c-0.234-0.391-0.664-0.633-1.119-0.633h-4.412v-2.286h7.188v18.628H5.883V15.687h7.188v2.287
	H8.66c-0.721,0-1.308,0.586-1.308,1.307C7.353,19.736,7.595,20.166,7.986,20.4z M18.945,44.117l1.145-2.287h9.821l1.144,2.287
	H18.945z"/>
<path fill="#168C40" d="M19.167,16.917c0-1.519,1.231-2.75,2.75-2.75h6.167c1.518,0,2.75,1.231,2.75,2.75V20H32.5v-3.083
	c0.004-2.227-1.654-4.106-3.863-4.378c1.299-1.022,2.1-2.553,2.197-4.205c0-5.51-3.174-6.667-5.834-6.667
	c-2.661,0-5.833,1.157-5.833,6.667c0.097,1.652,0.897,3.184,2.198,4.208c-2.209,0.272-3.868,2.15-3.864,4.375V20h1.667
	L19.167,16.917L19.167,16.917z M20.876,7.451c0.226-2.792,1.54-4.117,4.124-4.117c2.365,0,3.666,1.118,4.039,3.452l-2.775-1.667
	c-0.396-0.237-0.908-0.108-1.145,0.286c-0.031,0.052-0.057,0.107-0.076,0.165C24.622,6.834,22.345,7.313,20.876,7.451z
	 M20.949,9.124V9.121c1.427-0.117,4-0.549,5.199-2.128l2.979,1.787C28.793,10.822,26.279,12.5,25,12.5
	C23.142,12.184,21.595,10.895,20.949,9.124z"/>
<polygon fill="#168C40" points="41.166,28.5 41.166,26.834 38.5,26.834 38.5,28.5 36.834,28.5 36.834,31.166 38.5,31.166 
	38.5,32.834 41.166,32.834 41.166,31.166 42.834,31.166 42.834,28.5 "/>
</svg>
