<?xml version="1.0" encoding="utf-8"?>
<!-- Generator: Adobe Illustrator 16.0.0, SVG Export Plug-In . SVG Version: 6.00 Build 0)  -->
<!DOCTYPE svg PUBLIC "-//W3C//DTD SVG 1.1//EN" "http://www.w3.org/Graphics/SVG/1.1/DTD/svg11.dtd">
<svg version="1.1" id="Capa_1" xmlns="http://www.w3.org/2000/svg" xmlns:xlink="http://www.w3.org/1999/xlink" x="0px" y="0px"
	 width="50px" height="50px" viewBox="0 0 50 50" enable-background="new 0 0 50 50" xml:space="preserve">
<g>
	<path fill="#168C40" d="M43.459,33.324l-0.928-0.937c-2.784-2.82-4.433-4.16-6.265-4.16c-1.813,0-3.53,1.366-6.26,4.056
		c-0.51,0.505-0.804,0.563-0.98,0.563c-0.25,0-0.562-0.13-1.009-0.422c-3.326-2.171-6.226-4.825-8.627-7.906
		c-2.665-3.415-2.665-3.415,0.308-6.577c2.656-2.825,2.694-5.474,0.119-8.337c-1.123-1.249-2.333-2.44-3.507-3.593l-0.938-0.926
		c-2.151-2.131-3.667-3.001-5.231-3.001c-1.555,0-3.049,0.861-5.151,2.971L4.66,5.392C4.37,5.693,4.096,5.978,3.797,6.213
		C0.374,8.92-0.766,12.74,0.505,17.259C4.056,29.89,12.372,39.807,25.217,46.735c2.717,1.461,6.372,3.155,10.566,3.265l0.537,0.005
		c1.179,0,2.701-0.106,4.027-0.948c2.773-1.764,5.036-4.036,6.726-6.755c1.224-1.97,0.901-4.217-0.885-6.165
		C45.306,35.175,44.384,34.249,43.459,33.324z M44.845,40.453c-0.598,2.593-6.326,6.764-9.287,6.764l-0.162-0.005
		c-1.715-0.184-3.249-0.544-4.557-1.072C17.844,40.883,8.819,31.809,4.015,19.167c-2.652-6.975-0.837-8.652,3.137-12.325
		c0.357-0.328,0.731-0.676,1.126-1.047c1.139-1.07,2.672-1.034,3.821,0.09c2.049,2.005,4.019,4.003,5.842,5.865
		c1.232,1.263,1.22,2.705-0.036,3.952c-0.317,0.315-0.63,0.634-0.946,0.953c-0.697,0.708-1.418,1.44-2.175,2.121
		c-1.031,0.928-1.182,1.887-0.492,3.108c3.403,6.027,8.074,10.674,13.879,13.81c1.184,0.64,2.025,0.515,2.901-0.463
		c0.95-1.065,1.997-2.056,3.007-3.017l0.104-0.097c1.339-1.276,2.818-1.244,4.119,0.092c1.218,1.25,2.456,2.483,3.692,3.717
		l1.831,1.827C44.258,38.186,45.16,39.088,44.845,40.453z"/>
	<path fill="#168C40" d="M49.98,21.178c-0.009-0.065-0.02-0.437-0.114-0.782C47.148,10.329,40.942,3.581,30.881,0.532
		c-0.824-0.252-1.687-0.382-2.542-0.508c-0.822-0.121-1.465,0.211-1.607,1.07c-0.139,0.833,0.31,1.375,1.123,1.591
		c0.561,0.149,1.125,0.274,1.683,0.425c8.02,2.169,13.593,7.087,16.571,14.867c0.487,1.275,0.814,2.616,1.168,3.938
		c0.234,0.865,0.646,1.5,1.632,1.359C49.948,23.127,50.06,22.331,49.98,21.178z"/>
	<path fill="#168C40" d="M27.533,11.7c5.791,1.34,9.37,4.879,10.768,10.66c0.193,0.795,0.602,1.535,1.645,1.36
		c1.034-0.175,1.112-0.989,1.126-1.611C40.906,16.511,33.43,9.046,28.05,8.907c-0.786-0.018-1.456,0.202-1.685,1.05
		C26.091,10.958,26.679,11.504,27.533,11.7z"/>
</g>
</svg>
