<?xml version="1.0" encoding="utf-8"?>
<!-- Generator: Adobe Illustrator 16.0.0, SVG Export Plug-In . SVG Version: 6.00 Build 0)  -->
<!DOCTYPE svg PUBLIC "-//W3C//DTD SVG 1.1//EN" "http://www.w3.org/Graphics/SVG/1.1/DTD/svg11.dtd">
<svg version="1.1" id="Capa_1" xmlns="http://www.w3.org/2000/svg" xmlns:xlink="http://www.w3.org/1999/xlink" x="0px" y="0px"
	 width="55px" height="50px" viewBox="0 0 55 50" enable-background="new 0 0 55 50" xml:space="preserve">
<path fill="#168C40" d="M53.385,23.292c-0.293-0.068-0.575-0.077-0.835-0.077l-0.263,0.001l-0.955-0.003
	c-1.708-0.006-3.395-0.013-5.139,0.002c-0.036,0-0.063-0.001-0.085-0.003c-0.006-0.015-0.012-0.034-0.022-0.056
	c-0.536-1.506-1.099-3.003-1.661-4.5l-0.683-1.823c-0.451-1.201-0.901-2.402-1.363-3.598c-0.358-0.931-1.085-1.464-1.991-1.464
	l-0.121,0.003c-0.627,0.031-1.468,0.322-1.905,1.522c-0.038,0.101-0.072,0.203-0.105,0.305l-3.5,10.458
	c-0.498-1.516-0.99-3.034-1.485-4.552c-0.446-1.371-1.345-1.659-2.046-1.659c-0.549,0.006-1.552,0.216-2.074,1.556
	c-0.178,0.46-0.367,0.917-0.556,1.374c-0.305,0.736-0.619,1.496-0.889,2.271c-0.031,0.091-0.059,0.141-0.059,0.156
	c-0.029,0.006-0.088,0.014-0.196,0.014l0,0c-3.347-0.021-6.693-0.015-10.037-0.008l-2.1,0.004c-1.369,0.001-2.334,0.843-2.348,2.047
	c-0.006,0.55,0.198,1.062,0.575,1.441c0.423,0.424,1.038,0.657,1.734,0.659l13.314,0.011c1.186,0,1.914-0.397,2.415-1.35
	l0.852,2.604c0.277,0.853,0.554,1.706,0.836,2.557c0.332,0.989,1.064,1.558,2.012,1.558h0.048c0.962-0.021,1.72-0.606,2.027-1.57
	c0.046-0.148,0.099-0.297,0.149-0.445l0.442-1.321c1.036-3.11,2.071-6.219,3.112-9.328l0.287,0.774
	c0.565,1.531,1.133,3.062,1.709,4.589c0.426,1.127,0.873,1.643,1.757,1.834c-3.992,5.304-10.771,11.797-16.755,17.529l-0.27,0.256
	c-0.449-0.425-0.905-0.843-1.361-1.262c-0.596-0.548-1.191-1.094-1.774-1.653c-3.539-3.401-6.547-6.464-9.196-9.365
	c-2.521-2.759-5.746-6.459-8.33-10.605c-1.089-1.749-2.083-3.476-2.278-5.382c-0.321-3.149,0.452-6.12,2.298-8.831
	c1.615-2.374,4.16-3.735,6.981-3.735c0.853,0,1.72,0.125,2.574,0.37c2.324,0.668,4.417,1.994,6.59,4.172
	c0.891,0.894,1.758,1.94,2.653,3.201c0.63,0.888,1.318,1.074,1.784,1.074c0.612,0,1.2-0.308,1.744-0.916
	c0.17-0.189,0.319-0.396,0.467-0.606c0.061-0.088,0.123-0.176,0.189-0.265c2.478-3.303,5.038-5.361,8.054-6.476
	c1.035-0.383,2.104-0.577,3.181-0.577c2.472,0,4.795,1.049,6.378,2.876c1.393,1.611,2.302,3.647,2.778,6.227
	c0.411,2.224,0.493,3.929-0.372,5.555c-0.225,0.423-0.413,1.279-0.335,1.981c0.105,0.959,0.658,1.68,1.411,1.835l0.274,0.026
	c0.527,0,1.205-0.307,1.529-0.592c1.451-1.279,1.651-3.284,1.783-4.611c0.442-4.424-0.681-8.563-3.332-12.3
	c-1.479-2.085-3.363-3.53-5.596-4.296c-3.818-1.31-7.729-0.893-11.659,1.255c-2.353,1.287-4.468,3.072-6.455,5.449
	c-0.902-1.123-1.946-2.188-3.105-3.17c-3.385-2.866-6.747-4.234-10.613-4.308c-2.84,0.044-5.305,0.832-7.328,2.343
	c-2.642,1.974-4.412,4.759-5.408,8.513c-0.532,2-1.055,4.334-0.523,6.75c0.769,3.501,2.62,6.485,4.33,8.94
	c3.235,4.652,7.177,8.836,10.936,12.722c3.087,3.189,6.432,6.424,9.943,9.613c0.442,0.402,1.047,0.863,1.808,0.863l0,0
	c0.777,0,1.374-0.474,1.809-0.886c0.846-0.806,1.691-1.605,2.542-2.408c3.212-3.033,6.536-6.173,9.609-9.477
	c2.085-2.245,3.954-4.286,5.689-6.52c0.073-0.095,0.145-0.183,0.216-0.267c0.203-0.249,0.415-0.506,0.62-0.867
	c0.358-0.639,0.157-1.479-0.438-2.077c0.299,0.001,0.598,0.002,0.896,0.002l4.379-0.006c0.291,0,0.604-0.014,0.934-0.107
	c0.957-0.283,1.542-1.055,1.521-2.016C54.985,24.266,54.365,23.518,53.385,23.292z M34.704,31.781L34.704,31.781v0.004V31.781z"/>
</svg>
