<?xml version="1.0" encoding="utf-8"?>
<!-- Generator: Adobe Illustrator 16.0.0, SVG Export Plug-In . SVG Version: 6.00 Build 0)  -->
<!DOCTYPE svg PUBLIC "-//W3C//DTD SVG 1.1//EN" "http://www.w3.org/Graphics/SVG/1.1/DTD/svg11.dtd">
<svg version="1.1" id="Capa_1" xmlns="http://www.w3.org/2000/svg" xmlns:xlink="http://www.w3.org/1999/xlink" x="0px" y="0px"
	 width="50px" height="50px" viewBox="0 0 50 50" enable-background="new 0 0 50 50" xml:space="preserve">
<g>
	<path fill="#168C40" d="M37.512,16.626l1.89-1.89v-2.426L49.88,1.832l-1.835-1.834L37.566,10.477H35.14l-1.888,1.889l-3.234-3.235
		L9.798,29.35l-2.426-2.426l-4.26,4.26l4.852,4.853l-3.018,3.019l-0.809-0.81l-4.26,4.261l7.496,7.496l4.261-4.262l-0.809-0.808
		l3.018-3.019l4.852,4.854l4.261-4.262l-2.426-2.427l20.218-20.218L37.512,16.626z M36.215,13.071h0.592v0.592l-1.129,1.129
		L35.086,14.2L36.215,13.071z M7.372,46.332l-3.827-3.826l0.592-0.592l3.827,3.826L7.372,46.332z M8.989,43.098L6.78,40.889
		l3.018-3.018l2.209,2.208L8.989,43.098z M18.694,43.098L6.78,31.184l0.592-0.592l11.914,11.914L18.694,43.098z M18.694,38.245
		l-7.062-7.062l2.209-2.21l3.472,3.474l1.834-1.835l-3.472-3.473l2.209-2.208l5.09,5.089l1.834-1.836l-5.09-5.088l2.209-2.209
		l3.472,3.472l1.835-1.834l-3.472-3.472l2.208-2.209l5.09,5.089l1.834-1.834l-5.09-5.089l2.211-2.209l7.061,7.062L18.694,38.245z"/>
	<path fill="#168C40" d="M48.519,11.341l-2.327-2.328l-2.328,2.328c-1.21,1.208-1.21,3.168-0.002,4.378
		c0.581,0.582,1.37,0.908,2.191,0.908h0.276c1.71,0,3.098-1.385,3.098-3.095C49.427,12.709,49.101,11.921,48.519,11.341
		L48.519,11.341z M47.374,14.576c-0.277,0.277-0.653,0.433-1.045,0.434h-0.277c-0.816,0-1.479-0.663-1.479-1.48
		c0-0.392,0.156-0.768,0.434-1.045l1.185-1.184l1.184,1.184C47.953,13.062,47.952,13.999,47.374,14.576z"/>
</g>
</svg>
