<svg xmlns="http://www.w3.org/2000/svg" width="25.0" height="25.010" viewBox="0 0 25.0 25.010">
  <g id="Grupo_291" data-name="Grupo 291" transform="translate(643 3228)">
    <path id="Trazado_103" data-name="Trazado 103" d="M122.868,224.891c0-.773-.006-1.467,0-2.16.007-.608.125-.726.721-.736.406-.007.813,0,1.283,0,0-.634.015-1.2,0-1.769-.017-.483.186-.666.668-.666q8.881.013,17.762,0c.508,0,.7.191.7.7q-.013,9.954-.009,19.908a2.441,2.441,0,0,1-2.63,2.492q-7.217.007-14.435,0c-1.163,0-2.325.009-3.488,0a2.4,2.4,0,0,1-2.528-2.53q-.008-7.244,0-14.488c0-.642.1-.735.752-.744C122.029,224.887,122.4,224.891,122.868,224.891Zm1.986,8.971c0-2.128.016-8.215.016-10.343v-.583H123.8v.654q0,7.86,0,15.719c0,.361.1.857-.447.867-.595.01-.48-.512-.48-.885q-.008-6.411,0-12.822c0-.208,0-.416,0-.644h-1.073v7.1c0,2.361-.006,4.721,0,7.082a1.537,1.537,0,0,0,1.561,1.722A1.552,1.552,0,0,0,124.869,240c.006-.894,0-1.788,0-2.682,0-1.019-.007-2.258-.009-3.277m.887.23c0,.107,0,.215,0,.322,0,1.717.025,3.434-.013,5.15a16.767,16.767,0,0,1-.282,1.99c.031,0,.168.019.305.019q7.752,0,15.5,0a1.62,1.62,0,0,0,1.846-1.843q0-9.443,0-18.885c0-.174-.018-.347-.028-.543H125.748v1.58q0,3.729,0,7.457c0,.125-.021,4.21-.013,4.334" transform="translate(-763.901 -3447.558)" fill="#fff" fill-rule="evenodd"/>
    <path id="Trazado_104" data-name="Trazado 104" d="M185.489,251.253q-3.3,0-6.6,0c-.664,0-.746-.084-.749-.739,0-.84,0-1.68,0-2.521,0-.782.078-.865.853-.866q4.8,0,9.6,0c1.2,0,2.4,0,3.593,0,.646,0,.753.113.756.752.005.894-.009,1.788.005,2.681.008.5-.194.7-.7.7C189.994,251.244,187.741,251.253,185.489,251.253Zm6.475-3.164H179.127V250.3h12.837Z" transform="translate(-814.998 -3472.166)" fill="#fff" fill-rule="evenodd"/>
    <path id="Trazado_105" data-name="Trazado 105" d="M185.943,302.276c0,1.359-.014,2.718.008,4.077.008.51-.181.7-.691.7q-3.245-.024-6.49,0c-.486,0-.667-.19-.665-.67q.017-4.1,0-8.207c0-.472.179-.68.667-.677q3.245.019,6.491,0c.519,0,.692.211.685.708C185.931,299.558,185.943,300.917,185.943,302.276Zm-6.89-3.856v7.71h5.94c.029-.07.055-.1.055-.134.006-2.412.006-4.824.018-7.236,0-.365-.23-.339-.465-.339h-5.548Z" transform="translate(-814.964 -3517.126)" fill="#fff" fill-rule="evenodd"/>
    <path id="Trazado_106" data-name="Trazado 106" d="M185.882,399.277h-6.543c-.143,0-.314.045-.422-.018-.163-.094-.386-.262-.389-.4s.21-.324.368-.424c.1-.065.278-.017.421-.017h13.139c.089,0,.179,0,.268,0,.321-.017.572.136.521.446-.027.162-.308.361-.5.4a5.871,5.871,0,0,1-1.069.019Z" transform="translate(-815.342 -3607.202)" fill="#fff" fill-rule="evenodd"/>
    <path id="Trazado_107" data-name="Trazado 107" d="M266.067,338.6q-1.073,0-2.146,0c-.306,0-.611-.058-.63-.427-.021-.408.307-.49.626-.491,1.466-.008,2.933-.022,4.4.018a.778.778,0,0,1,.592.45c.057.342-.273.448-.587.449C267.569,338.6,266.818,338.6,266.067,338.6Z" transform="translate(-891.007 -3552.991)" fill="#fff" fill-rule="evenodd"/>
    <path id="Trazado_108" data-name="Trazado 108" d="M266.1,297.538c.733,0,1.466,0,2.2,0,.319,0,.6.073.611.44s-.29.453-.6.453q-2.226,0-4.453,0c-.31,0-.6-.095-.583-.47s.312-.425.626-.422C264.638,297.542,265.371,297.538,266.1,297.538Z" transform="translate(-890.996 -3517.167)" fill="#fff" fill-rule="evenodd"/>
    <path id="Trazado_109" data-name="Trazado 109" d="M266.171,379.283c-.751,0-1.5.029-2.252-.019a.725.725,0,0,1-.543-.41c-.065-.318.211-.435.523-.434q2.28.008,4.559,0c.311,0,.589.121.516.44a.734.734,0,0,1-.552.4C267.674,379.312,266.922,379.283,266.171,379.283Z" transform="translate(-891.075 -3589.368)" fill="#fff" fill-rule="evenodd"/>
    <path id="Trazado_110" data-name="Trazado 110" d="M266.134,318.564c-.732,0-1.466.029-2.2-.018a.742.742,0,0,1-.565-.39c-.074-.357.236-.467.555-.468,1.5,0,3-.016,4.5.019a.723.723,0,0,1,.544.426c.061.319-.232.431-.534.431Q267.286,318.562,266.134,318.564Z" transform="translate(-891.072 -3535.151)" fill="#fff" fill-rule="evenodd"/>
    <path id="Trazado_111" data-name="Trazado 111" d="M266.08,359.04q-1.1,0-2.2,0c-.315,0-.6-.075-.606-.446s.295-.446.6-.446q2.226,0,4.452,0c.319,0,.631.108.56.465a.739.739,0,0,1-.558.408C267.583,359.069,266.831,359.04,266.08,359.04Z" transform="translate(-890.993 -3571.272)" fill="#fff" fill-rule="evenodd"/>
    <path id="Trazado_112" data-name="Trazado 112" d="M200.154,256.105v2.214H187.317v-2.214Z" transform="translate(-823.188 -3480.182)" fill="#3fa676" fill-rule="evenodd"/>
    <path id="Trazado_113" data-name="Trazado 113" d="M186.942,306.143h5.548c.235,0,.467-.026.466.339-.012,2.412-.012,4.824-.018,7.236,0,.032-.025.064-.055.134h-5.94Z" transform="translate(-822.854 -3524.849)" fill="#3fa676" fill-rule="evenodd"/>
  </g>
</svg>
