<?xml version="1.0" encoding="utf-8"?>
<!-- Generator: Adobe Illustrator 16.0.0, SVG Export Plug-In . SVG Version: 6.00 Build 0)  -->
<!DOCTYPE svg PUBLIC "-//W3C//DTD SVG 1.1//EN" "http://www.w3.org/Graphics/SVG/1.1/DTD/svg11.dtd">
<svg version="1.1" id="Capa_1" xmlns="http://www.w3.org/2000/svg" xmlns:xlink="http://www.w3.org/1999/xlink" x="0px" y="0px"
	 width="55px" height="50px" viewBox="0 0 55 50" enable-background="new 0 0 55 50" xml:space="preserve">
<g>
	<path fill-rule="evenodd" clip-rule="evenodd" fill="#168C40" d="M31.782,26.633c-1.239,0-2.478,0-3.716,0c0-0.004,0-0.008,0-0.011
		c-0.826,0-1.652-0.005-2.479,0.001c-2.613,0.017-2.685,0.086-2.644,2.463c0.037,2.116,1.541,3.878,3.802,4.452
		c2.172,0.552,4.427-0.296,5.65-2.083c0.864-1.262,0.776-2.642,0.658-4.017C33,26.793,32.417,26.633,31.782,26.633z M30.478,31.912
		c-0.683,0.646-1.943,0.953-3.156,0.754c-1.264-0.208-2.104-0.846-2.125-1.611c-0.023-0.86,0.017-0.885,1.477-0.891
		c0.461-0.002,0.923-0.001,1.384-0.001c0,0.002,0,0.003,0,0.004c0.692,0,1.385,0,2.076,0c0.355,0,0.681,0.058,0.712,0.292
		C30.911,30.956,30.961,31.455,30.478,31.912z M30.583,29.009c-1.686,0.154-3.376,0.151-5.062,0.003
		c-0.192-0.017-0.402-0.175-0.39-0.384c0.019-0.32,0.33-0.279,0.562-0.282c0.785-0.011,1.57-0.004,2.355-0.004
		c0.785-0.002,1.571-0.009,2.356,0.002c0.229,0.003,0.542-0.053,0.562,0.275C30.978,28.829,30.773,28.991,30.583,29.009z"/>
	<path fill-rule="evenodd" clip-rule="evenodd" fill="#168C40" d="M25.853,21.646c-0.04-0.09-0.09-0.271-0.193-0.425
		c-0.986-1.471-4.59-1.46-5.557,0.008c-0.248,0.377-0.196,0.711,0.115,1.02c0.361,0.358,0.795,0.396,1.22,0.121
		c0.987-0.643,1.92-0.671,2.96-0.027C25.068,22.758,25.815,22.386,25.853,21.646z"/>
	<path fill-rule="evenodd" clip-rule="evenodd" fill="#168C40" d="M30.064,21.164c-0.27,0.348-0.311,0.683-0.019,1.025
		c0.324,0.381,0.777,0.504,1.195,0.227c1.082-0.718,2.072-0.66,3.191-0.013c0.659,0.381,1.158-0.015,1.365-0.713
		c-0.072-0.148-0.131-0.328-0.239-0.48C34.54,19.782,31.152,19.759,30.064,21.164z"/>
	<path fill-rule="evenodd" clip-rule="evenodd" fill="#168C40" d="M41.518,26.991c0.057-0.739,0.308-0.995,1.149-1.085
		c2.518-0.271,3.81-2.623,2.539-4.583c-0.354-0.548-0.495-1.071-0.474-1.681c0.029-0.817,0.008-1.634,0.005-2.45
		c-0.002-0.779,0.021-1.56-0.005-2.338c-0.162-4.669-2.371-8.29-6.962-10.583c-2.817-1.408-5.731-2.656-8.589-4.001
		c-0.771-0.363-1.466-0.355-2.231,0.005c-2.6,1.225-7.176,3.062-9.497,4.476c-0.118,0.072-0.24,0.165-0.354,0.27
		c-0.884,0.656-2.203,1.621-2.698,2.202c-1.465,1.618-2.399,3.459-2.784,5.515c-0.435,2.324-0.137,4.667-0.206,7.001
		c-0.015,0.527-0.083,1-0.388,1.483c-1.359,2.145-0.172,4.344,2.555,4.701c0.732,0.096,0.989,0.357,1.009,0.987
		c0.078,2.625,1.15,4.937,2.997,6.924c0.754,0.813,0.577,1.242-0.192,1.892c-4.377,3.697-4.901,8.462-4.513,13.459
		c0.036,0.458,0.326,0.77,0.871,0.782c0.606,0.013,0.906-0.321,0.955-0.827c0.043-0.442,0.029-0.891,0.033-1.335
		c0.011-1.404,0.068-1.396,1.581-1.468c1.217-0.06,1.663,0.371,1.528,1.42c-0.047,0.366-0.013,0.742,0.003,1.113
		c0.022,0.561,0.178,1.07,0.935,1.097c0.741,0.027,1.028-0.444,1.048-1.012c0.039-1.074,0.039-2.151,0.001-3.227
		c-0.028-0.804-0.544-1.201-1.449-1.194c-0.827,0.006-1.657-0.041-2.481,0.005c-0.842,0.046-1.091-0.233-0.962-0.976
		c0.492-2.83,1.974-5.165,4.31-7.082c0.264-0.218,0.578-0.525,0.979-0.312c0.831,0.445,1.736,0.739,2.155,1.711
		c0.917,2.124,2.693,3.342,5.288,3.425c2.632,0.083,4.598-1.061,5.686-3.234c1.052-2.101,2.774-2.382,4.452-0.729
		c0.095,0.094,0.187,0.189,0.282,0.285v0.001l0,0c0.098,0.099,0.198,0.194,0.306,0.286c0.043,0.038,0.088,0.069,0.132,0.102
		c0.502,0.442,1.169,1.066,1.53,1.771c0.046,0.106,0.093,0.211,0.138,0.309c0.001,0.001,0.001,0.001,0.001,0.001l0,0
		c0.032,0.071,0.064,0.138,0.093,0.201c0.294,0.644,0.713,2.523,0.844,3.096c0.183,0.794-0.138,1.165-1.102,1.145
		c-4.211-0.092-3.792-0.171-3.781,3.541c0.001,0.722-0.31,1.815,0.944,1.85c1.372,0.038,1.039-1.101,1.063-1.853
		c0.057-1.735,0.128-1.801,2.051-1.731c0.786,0.028,1.17,0.255,1.01,1.005c-0.125,0.59-0.092,1.18,0.037,1.769
		c0.105,0.483,0.344,0.855,0.954,0.85c0.68-0.007,0.932-0.42,0.948-0.957c0.023-0.814,0.006-1.631,0.006-2.496
		c0.108-1.7-0.146-4.855-1.041-6.567c-0.002-0.004-0.001-0.008-0.002-0.012c-0.025-0.062-0.062-0.132-0.102-0.206
		c-0.083-0.186-0.222-0.408-0.398-0.623c-0.632-0.894-1.623-2.034-1.926-2.348c-0.455-0.479-0.926-0.957-1.453-1.368
		c-0.574-0.448-0.685-0.762-0.104-1.341C40.245,32.055,41.309,29.662,41.518,26.991z M43.686,22.917
		c-0.032,0.793-0.547,1.275-1.383,1.285c-1.153,0.014-0.579-0.693-0.681-1.193c-0.122-0.602-0.326-1.43,0.771-1.43
		C43.228,21.579,43.719,22.116,43.686,22.917z M13.828,24.2c-0.843,0.015-1.35-0.499-1.373-1.292
		c-0.024-0.869,0.569-1.369,1.434-1.363c1.123,0.006,0.568,0.665,0.66,1.23C14.649,23.397,15.013,24.179,13.828,24.2z
		 M14.582,17.583c-0.004,0.482-0.006,0.965-0.02,1.447c-0.011,0.345-0.04,0.719-0.566,0.699c-0.508-0.019-0.539-0.398-0.542-0.738
		c-0.013-1.298,0.034-2.6-0.021-3.897c-0.105-2.474,0.678-4.674,2.309-6.632c0.528-0.608,1.433-1.612,2.077-1.903
		c0.043-0.019,0.365-0.162,0.561-0.28c2.078-1.264,6.177-2.887,8.386-3.978c0.948-0.469,1.727-0.44,2.659,0.02
		c2.063,1.021,4.157,1.998,6.278,2.918c2.656,1.152,4.801,2.751,6.042,5.206c1.432,2.833,0.862,5.836,0.916,8.787
		c0.006,0.289-0.185,0.5-0.535,0.504c-0.436,0.003-0.55-0.271-0.557-0.596c-0.012-0.521-0.009-1.04-0.014-1.56
		c-0.033-3.904-3.673-6.339-7.868-5.24c-1.389,0.363-2.758,0.79-4.13,1.201c-1.098,0.33-2.184,0.339-3.282-0.003
		c-1.29-0.4-2.577-0.81-3.885-1.157C18.316,11.301,14.613,13.779,14.582,17.583z M24.75,37.982c2.17,0.403,4.16,0.452,6.184,0.025
		C30.167,39.999,26.007,40.174,24.75,37.982z M26.943,36.5c-5.579-0.289-10.267-4.7-10.46-9.882
		c-0.056-1.519-0.008-3.04-0.008-4.561c0.001-1.483-0.022-2.966,0.006-4.449c0.051-2.651,2.353-4.235,5.208-3.553
		c1.395,0.333,2.762,0.766,4.128,1.189c1.423,0.44,2.82,0.45,4.244-0.003c1.322-0.422,2.658-0.816,4.004-1.174
		c3.157-0.84,5.619,0.763,5.579,3.71c-0.045,3.37,0.338,6.755-0.215,10.106C38.549,33.222,33.261,36.828,26.943,36.5z"/>
</g>
</svg>
