<svg xmlns="http://www.w3.org/2000/svg" width="25" height="25" viewBox="0 0 25 25">
  <g id="Grupo_293" data-name="Grupo 293" transform="translate(0 -0.016)">
    <path id="Trazado_29" data-name="Trazado 29" d="M288.612,133.158l.008-.011c.013-.016.025-.033.036-.05s.013-.021.02-.032.013-.021.019-.032.014-.029.021-.044l.011-.024c.007-.018.014-.036.02-.054l.006-.016c.007-.023.013-.047.018-.071v0a.781.781,0,0,0-.212-.712l-3.908-3.908a.782.782,0,1,0-1.106,1.106l2.575,2.575H278.1a.782.782,0,1,0,0,1.563h8.014l-2.573,2.573a.782.782,0,1,0,1.106,1.1l3.9-3.9A.779.779,0,0,0,288.612,133.158Z" transform="translate(-263.788 -121.712)" fill="#5a5a5a"/>
    <path id="Trazado_30" data-name="Trazado 30" d="M15.894,13.557a.782.782,0,0,0-.782.781v4.687a1.3,1.3,0,0,1-1.3,1.3H10.422V4.183A2.1,2.1,0,0,0,9,2.2L7.132,1.578h6.678a1.3,1.3,0,0,1,1.3,1.3V7.568a.782.782,0,0,0,1.563,0V2.881A2.868,2.868,0,0,0,13.809.016H2.085A2.086,2.086,0,0,0,0,2.1v18.75A2.1,2.1,0,0,0,1.419,22.83l6.272,2.089a2.15,2.15,0,0,0,.646.1,2.086,2.086,0,0,0,2.084-2.083V21.891h3.387a2.868,2.868,0,0,0,2.866-2.865V14.339A.782.782,0,0,0,15.894,13.557ZM8.859,22.932a.522.522,0,0,1-.521.521.566.566,0,0,1-.17-.023L1.925,21.351a.541.541,0,0,1-.362-.5V2.1a.523.523,0,0,1,.521-.521.568.568,0,0,1,.17.023L8.5,3.681a.541.541,0,0,1,.362.5Z" fill="#5a5a5a"/>
  </g>
</svg>
