<?xml version="1.0" encoding="utf-8"?>
<!-- Generator: Adobe Illustrator 16.0.0, SVG Export Plug-In . SVG Version: 6.00 Build 0)  -->
<!DOCTYPE svg PUBLIC "-//W3C//DTD SVG 1.1//EN" "http://www.w3.org/Graphics/SVG/1.1/DTD/svg11.dtd">
<svg version="1.1" id="Capa_1" xmlns="http://www.w3.org/2000/svg" xmlns:xlink="http://www.w3.org/1999/xlink" x="0px" y="0px"
	 width="50px" height="50px" viewBox="0 0 50 50" enable-background="new 0 0 50 50" xml:space="preserve">
<g>
	<path fill="#168C40" d="M41.241,38.236V20.923c0-2.171-2.351-3.938-5.24-3.938h-0.75l-0.73,1.024h1.48
		c2.325,0,4.216,1.308,4.216,2.914v17.313c0,1.606-1.891,2.912-4.216,2.912h-3.139c-0.182,0-0.349,0.097-0.441,0.251
		c-0.092,0.156-0.095,0.35-0.008,0.508l2.248,4.094c0.09,0.164,0.262,0.267,0.449,0.267h0.891c2.594,0,4.06,0.51,4.216,0.688v2.521
		H7.887l-0.016-2.438c0.176-0.26,1.642-0.77,4.234-0.77h0.839c0.202,0,0.385-0.119,0.468-0.305l1.82-4.094
		c0.071-0.158,0.056-0.343-0.039-0.487c-0.094-0.146-0.256-0.233-0.429-0.233h-2.66c-2.324,0-4.215-1.306-4.215-2.912V20.923
		c0-1.606,1.891-2.914,4.215-2.914h1.481l-0.731-1.024h-0.75c-2.889,0-5.239,1.767-5.239,3.938v17.313
		c0,2.17,2.351,3.937,5.239,3.937h1.872l-1.364,3.07h-0.507c-0.536,0-5.239,0.048-5.239,1.712v3.033
		c0,0.282,0.229,0.512,0.512,0.512h33.351c0.282,0,0.512-0.229,0.512-0.512v-3.033c0-1.664-4.704-1.712-5.24-1.712h-0.588
		l-1.686-3.07h2.273C38.891,42.173,41.241,40.406,41.241,38.236z"/>
	<path fill="#168C40" d="M33.66,30.722c-0.258,0-0.466,0.195-0.466,0.454v2.125h-2.15c-0.246,0-0.454,0.197-0.454,0.441
		c0,0.245,0.208,0.442,0.454,0.442h2.15v2.125c0,0.259,0.208,0.454,0.466,0.454c0.246,0,0.454-0.195,0.454-0.454v-2.125h2.162
		c0.246,0,0.442-0.197,0.442-0.442c0-0.244-0.196-0.441-0.442-0.441h-2.162v-2.125C34.114,30.917,33.906,30.722,33.66,30.722z"/>
	<path fill="#168C40" d="M18.203,19.401c0.158-0.006,0.282-0.132,0.29-0.288v-1.798c-0.002-1.4,1.131-2.532,2.53-2.534h0.002
		c0.523,0.004,1.024-0.214,1.378-0.6c0.65,0.444,2.637,0.408,3.413,0.12c0.024-0.004,0.05-0.014,0.072-0.024
		c0.33,0.296,0.746,0.472,1.188,0.504c1.398,0,2.532,1.132,2.534,2.532v0.002v1.798c-0.01,0.168,0.12,0.314,0.288,0.32
		c0.168,0.008,0.311-0.12,0.322-0.288c0-0.01,0-0.022,0-0.03v-1.798c0-1.736-1.404-3.141-3.137-3.146
		c-0.792,0.01-1.26-0.844-1.502-1.25c1.532-0.618,2.54-2.101,2.55-3.753V6.674c-0.002-1.177-0.956-2.13-2.13-2.132h-3.891
		c-1.175,0.002-2.128,0.956-2.13,2.132v1.974c-0.21-0.108-0.342-0.322-0.342-0.557V6.509c0-4.252,3.39-5.482,6.559-4.374
		l-0.242,0.101C25.8,2.3,25.724,2.478,25.79,2.634c0.042,0.103,0.138,0.174,0.25,0.186l0.532,0.058
		c1.018,0.104,1.94,0.645,2.526,1.483c-0.384,0.466-0.595,1.052-0.593,1.656v2.078c0.011,0.169,0.152,0.298,0.32,0.289
		c0.158-0.006,0.282-0.132,0.29-0.289V6.013c-0.002-0.525,0.206-1.03,0.574-1.404c0.052-0.052,0.084-0.12,0.09-0.193
		c0.006-0.086-0.02-0.172-0.074-0.238c-0.569-0.909-1.472-1.558-2.514-1.811c0.128-0.108,0.144-0.301,0.034-0.43
		c-0.026-0.033-0.063-0.058-0.101-0.077c-2.054-0.988-4.85-1.096-6.591,0.586c-1.033,1.097-1.576,2.564-1.51,4.069v1.579
		c0.002,0.574,0.398,1.071,0.954,1.204c0.058,1.515,0.952,2.875,2.32,3.527v0.08c-0.002,0.702-0.57,1.27-1.271,1.268
		c0,0-0.001,0-0.002,0c-1.736,0-3.142,1.408-3.142,3.143v1.798C17.893,19.281,18.035,19.409,18.203,19.401z M22.752,13.674
		c0.087-0.197,0.142-0.407,0.159-0.621c0.68,0.202,1.401,0.222,2.089,0.056c0.01,0.032,0.02,0.062,0.038,0.09
		c0.122,0.206,0.256,0.404,0.404,0.596C24.551,14.016,23.617,13.974,22.752,13.674z M20.589,9.151c0-0.002,0-0.004,0-0.006h0.007
		V6.674c0.001-0.838,0.679-1.519,1.515-1.522h3.885c0.838,0,1.521,0.682,1.521,1.522v2.471c0.002,1.913-1.549,3.465-3.461,3.467
		C22.143,12.612,20.591,11.063,20.589,9.151z"/>
	<path fill="#168C40" d="M12.225,19.789h2.677l-0.731-1.024h-1.946c-1.945,0-3.47,1.132-3.47,2.576v16.511
		c0,1.445,1.524,2.577,3.47,2.577h23.658c1.945,0,3.468-1.132,3.468-2.577V21.341c0-1.444-1.522-2.576-3.468-2.576h-1.947
		l-0.731,1.024h2.679c1.325,0,2.444,0.711,2.444,1.552v16.511c0,0.842-1.119,1.553-2.444,1.553H12.225
		c-1.326,0-2.445-0.711-2.445-1.553V21.341C9.779,20.5,10.899,19.789,12.225,19.789z"/>
	<path fill="#168C40" d="M23.637,30.379c0.096,0.135,0.251,0.214,0.417,0.214s0.32-0.079,0.417-0.214l12.666-17.737
		c0.11-0.156,0.126-0.361,0.038-0.532c-0.088-0.171-0.264-0.278-0.455-0.278H31.96V0.125h-1.024v12.22
		c0,0.283,0.229,0.512,0.512,0.512h4.276L24.053,29.2l-11.67-16.343h4.276c0.283,0,0.512-0.229,0.512-0.512V0.125h-1.024v11.708
		h-4.759c-0.192,0-0.368,0.107-0.455,0.278c-0.088,0.17-0.073,0.376,0.038,0.532L23.637,30.379z"/>
</g>
</svg>
