<?xml version="1.0" encoding="utf-8"?>
<!-- Generator: Adobe Illustrator 16.0.0, SVG Export Plug-In . SVG Version: 6.00 Build 0)  -->
<!DOCTYPE svg PUBLIC "-//W3C//DTD SVG 1.1//EN" "http://www.w3.org/Graphics/SVG/1.1/DTD/svg11.dtd">
<svg version="1.1" id="Capa_1" xmlns="http://www.w3.org/2000/svg" xmlns:xlink="http://www.w3.org/1999/xlink" x="0px" y="0px"
	 width="50px" height="50px" viewBox="0 0 50 50" enable-background="new 0 0 50 50" xml:space="preserve">
<image overflow="visible" width="186" height="238" xlink:href="2417114.jpg"  transform="matrix(1 0 0 1 -259.6665 -94)">
</image>
<path fill-rule="evenodd" clip-rule="evenodd" fill="#168C40" d="M43.128,39.299c-0.044-2.366-1.27-4.172-3.644-5.329
	c-0.733-0.356-1.478-0.698-2.24-1.007c-0.618-0.249-0.802-0.538-0.45-1.115c1.245-2.042,1.553-4.265,1.548-6.546
	c-0.01-3.992-0.004-7.984,0.014-11.977c0.005-1.26-0.05-2.52-0.313-3.752C36.724,3.42,29.978-0.784,22.968,0.181
	c-1.68,0.231-3.264,0.722-4.705,1.5C18.26,1.68,18.256,1.68,18.256,1.68c-0.015,0.009-0.036,0.022-0.052,0.032
	c-0.265,0.145-0.525,0.295-0.78,0.46c-0.147,0.095-0.272,0.2-0.364,0.314c-1.199,0.87-2.821,2.204-3.457,3.294
	c-1.296,1.874-1.94,3.925-1.95,6.114c-0.02,4.769-0.004,9.537-0.005,14.306c0,1.492,0.34,2.929,0.864,4.347
	c0.254,0.688,1.152,1.349,0.781,2.007c-0.37,0.656-1.454,0.804-2.236,1.146c-2.346,1.027-3.991,2.596-4.111,4.937
	c-0.173,3.356-0.079,6.726-0.071,10.088c0.002,0.557,0.265,1.056,1.024,1.036c0.755-0.02,0.935-0.537,0.982-1.085
	c0.035-0.406,0.024-0.813,0.025-1.219c0.004-2.81-0.003-5.619,0.014-8.428c0.009-1.588,0.856-2.753,2.428-3.496
	c0.998-0.472,2.04-0.872,3.031-1.352c0.799-0.387,1.009-0.175,1.001,0.564c-0.028,2.44-0.024,4.879-0.004,7.319
	c0.004,0.57-0.234,0.941-0.731,1.313c-1.453,1.083-1.541,2.679-0.283,3.783c1.165,1.021,2.92,1.023,4.057,0.008
	c1.234-1.103,1.119-2.718-0.333-3.793c-0.457-0.336-0.692-0.645-0.683-1.196c0.04-2.661,0.014-5.323,0.035-7.982
	c0.004-0.371-0.189-0.81,0.272-1.124c0.409,0.342,0.456,0.806,0.614,1.213c1.869,4.826,3.72,9.658,5.579,14.486
	c0.179,0.462,0.361,0.949,1.034,0.98c0.754,0.035,0.964-0.479,1.16-0.982c0.516-1.327,1.029-2.657,1.551-3.983
	c0.03-0.079,0.054-0.157,0.072-0.232c0.619-1.336,1.388-3.596,1.655-4.268c0.065-0.157,0.127-0.314,0.188-0.472
	c0.873-2.229,1.744-4.457,2.616-6.686c0.13,0.009,0.263,0.019,0.393,0.03c0,1.423-0.037,2.851,0.02,4.271
	c0.023,0.621-0.104,1.022-0.781,1.337c-1.069,0.493-1.744,1.354-1.782,2.404c-0.082,2.325-0.068,4.657-0.019,6.984
	c0.022,0.953,0.674,1.572,1.769,1.747c0.447,0.072,0.829-0.077,1.076-0.429c0.23-0.33,0.202-0.728-0.134-0.898
	c-0.837-0.426-0.722-1.072-0.697-1.736c0.027-0.776,0.099-1.561-0.001-2.327c-0.127-0.965,0.191-1.311,1.346-1.264
	c1.89,0.077,1.894,0.014,1.896,1.633c0.003,0.776-0.006,1.553,0.003,2.329c0.004,0.491-0.023,0.943-0.528,1.291
	c-0.405,0.279-0.527,0.676-0.206,1.079c0.347,0.439,0.863,0.441,1.357,0.276c1.113-0.369,1.417-1.194,1.422-2.14
	c0.013-1.959,0.025-3.918-0.001-5.877c-0.016-1.341-0.57-2.455-1.962-3.139c-0.433-0.212-0.732-0.456-0.726-0.939
	c0.021-1.072,0.02-2.146-0.001-3.217c-0.01-0.654,0.314-0.654,0.855-0.408c0.896,0.406,1.792,0.81,2.708,1.177
	c2.032,0.813,2.927,2.213,2.909,4.148c-0.022,2.735-0.005,5.471-0.003,8.206c0,0.332-0.008,0.666,0.023,0.998
	c0.051,0.546,0.213,1.077,0.973,1.091c0.84,0.014,0.983-0.557,1.045-1.144c0.014-0.11,0.017-0.221,0.017-0.332
	C43.146,45.286,43.186,42.293,43.128,39.299z M17.709,45.325c0,0.598-0.552,1.083-1.231,1.083c-0.68,0-1.231-0.485-1.231-1.083
	c0-0.601,0.551-1.085,1.231-1.085C17.157,44.24,17.709,44.725,17.709,45.325z M27.322,40.299c-0.031,0.076-0.048,0.146-0.057,0.216
	c-0.435,1.337-0.988,2.989-1.293,3.644c-0.002,0.002-0.002,0.004-0.003,0.006c-0.254,0.54-0.548,1.293-1.072,1.848
	c-0.809-2.102-1.541-4.024-2.291-5.942c-0.235-0.604,0.008-0.804,0.692-0.786c1.006,0.023,2.015,0.035,3.02-0.006
	C27.193,39.243,27.739,39.334,27.322,40.299z M30.181,32.916c-0.49,1.138-0.96,2.287-1.323,3.459
	c-0.295,0.957-0.884,1.336-1.988,1.228c-0.619-0.061-1.255-0.012-1.881-0.012c-3.356,0.002-3.356,0.002-4.438-2.831
	c-0.107-0.279-0.18-0.572-0.321-0.838c-0.617-1.155-0.872-2.14,0.836-2.849c0.899-0.372,1.238-1.252,1.223-2.174
	c-0.017-1.033,0.02-2.065-0.008-3.099c-0.015-0.565,0.173-0.852,0.869-0.706c1.244,0.262,2.49,0.247,3.733-0.001
	c0.599-0.12,0.849,0.087,0.835,0.629c-0.021,0.923,0.046,1.849-0.015,2.767c-0.089,1.369,0.525,2.385,1.875,3.008
	C30.331,31.843,30.471,32.242,30.181,32.916z M17.492,17.118c-0.005-0.147-0.005-0.295-0.006-0.444
	c-0.018-2.056-0.018-2.056,2.103-2.778c2.08-0.709,3.615-1.973,4.753-3.637c0.211-0.308,0.416-0.62,0.731-1.087
	c1.666,2.485,3.798,4.183,6.729,5.023c0.337,0.097,0.563,0.269,0.673,0.592c1.195,3.491-1.483,7.574-5.598,8.516
	C22.214,24.371,17.625,21.347,17.492,17.118z M35.275,41.615h-3.316c0-0.806,0.742-1.46,1.658-1.46
	C34.532,40.155,35.275,40.81,35.275,41.615z M36.272,26.868c0,1.435-0.456,2.767-1.114,4.062c-0.325,0.639-0.757,0.815-1.484,0.468
	c-0.958-0.456-1.938-0.883-2.922-1.295c-0.69-0.287-0.988-0.737-0.975-1.407c0.021-1.071,0.054-2.146-0.018-3.214
	c-0.06-0.895,0.197-1.553,1.115-2.041c0.757-0.401,1.302-1.033,1.834-1.658c1.863-2.192,1.945-4.723,1.887-7.304
	c-0.024-1.008-0.448-1.514-1.593-1.781c-2.906-0.682-5.089-2.201-6.321-4.679c-0.101-0.203-0.203-0.409-0.345-0.591
	c-0.684-0.884-1.947-0.887-2.598,0.014c-0.29,0.403-0.479,0.862-0.714,1.295c-1.225,2.269-3.114,3.727-6.082,3.869
	c-1.028,0.049-1.501,0.555-1.504,1.439c-0.002,0.924-0.049,1.85,0.004,2.771c0.133,2.333,0.831,4.608,2.983,6.01
	c1.818,1.183,2.138,2.539,1.941,4.256c-0.021,0.183-0.015,0.371-0.003,0.556c0.072,1.378-0.376,2.443-2.049,2.893
	c-0.633,0.169-1.228,0.481-1.8,0.79c-0.937,0.503-1.419,0.209-1.806-0.613c-0.619-1.314-1.005-2.652-1-4.083
	c0.012-4.88,0.022-9.759-0.011-14.638c-0.011-1.67,0.389-3.226,1.196-4.691c0.051-0.09,0.105-0.181,0.159-0.273
	c0.085-0.144,0.169-0.288,0.262-0.43c0.076-0.117,0.152-0.236,0.218-0.355c0.591-0.907,1.378-1.838,2.72-2.563
	c0.06-0.022,0.119-0.048,0.179-0.078c0.153-0.075,0.303-0.154,0.455-0.232c0.008-0.003,0.016-0.007,0.025-0.011
	c0.19-0.082,0.343-0.161,0.469-0.238c0.12-0.061,0.239-0.124,0.361-0.181c7.3-3.461,16.423,1.222,16.519,8.521
	C36.328,16.593,36.271,21.732,36.272,26.868z"/>
</svg>
