<?xml version="1.0" encoding="utf-8"?>
<!-- Generator: Adobe Illustrator 16.0.0, SVG Export Plug-In . SVG Version: 6.00 Build 0)  -->
<!DOCTYPE svg PUBLIC "-//W3C//DTD SVG 1.1//EN" "http://www.w3.org/Graphics/SVG/1.1/DTD/svg11.dtd">
<svg version="1.1" id="Capa_1" xmlns="http://www.w3.org/2000/svg" xmlns:xlink="http://www.w3.org/1999/xlink" x="0px" y="0px"
	 width="50px" height="50px" viewBox="0 0 50 50" enable-background="new 0 0 50 50" xml:space="preserve">
<g>
	<path fill="#168C40" d="M40.787,44.845h-0.008c-0.461,0.002-0.833,0.377-0.831,0.838s0.378,0.833,0.839,0.83
		c0.461-0.001,0.832-0.376,0.831-0.837C41.616,45.217,41.245,44.847,40.787,44.845z"/>
	<path fill="#168C40" d="M40.787,41.522h-0.008c-0.461,0.002-0.833,0.378-0.831,0.839s0.378,0.832,0.839,0.831
		c0.461-0.003,0.832-0.379,0.831-0.84C41.616,41.896,41.245,41.524,40.787,41.522z"/>
	<path fill="#168C40" d="M40.787,38.201h-0.008c-0.461,0.001-0.833,0.377-0.831,0.838s0.378,0.833,0.839,0.831
		c0.461-0.003,0.832-0.379,0.831-0.84C41.616,38.573,41.245,38.202,40.787,38.201z"/>
	<path fill="#168C40" d="M40.787,34.879h-0.008c-0.461,0.002-0.833,0.377-0.831,0.838c0.002,0.462,0.378,0.833,0.839,0.83
		c0.461-0.001,0.832-0.376,0.831-0.837C41.616,35.252,41.245,34.881,40.787,34.879z"/>
	<path fill="#168C40" d="M40.787,31.556h-0.008c-0.461,0.003-0.833,0.379-0.831,0.84s0.378,0.833,0.839,0.83
		c0.461-0.002,0.832-0.378,0.831-0.839C41.616,31.929,41.245,31.559,40.787,31.556z"/>
	<path fill="#168C40" d="M40.787,28.235h-0.008c-0.461,0.002-0.833,0.377-0.831,0.838s0.378,0.833,0.839,0.831
		c0.461-0.003,0.832-0.378,0.831-0.839C41.616,28.607,41.245,28.237,40.787,28.235z"/>
	<path fill="#168C40" d="M40.787,24.913h-0.008c-0.461,0.002-0.833,0.378-0.831,0.839c0.002,0.461,0.378,0.832,0.839,0.83
		c0.461-0.003,0.832-0.378,0.831-0.839C41.616,25.286,41.245,24.915,40.787,24.913z"/>
	<path fill="#168C40" d="M40.787,21.591h-0.008c-0.461,0.002-0.833,0.378-0.831,0.838c0.002,0.461,0.378,0.833,0.839,0.831
		s0.832-0.378,0.831-0.838C41.616,21.963,41.245,21.593,40.787,21.591z"/>
	<path fill="#168C40" d="M40.787,4.981h-0.008c-0.461,0.002-0.833,0.378-0.831,0.839s0.378,0.833,0.839,0.831
		c0.461-0.002,0.832-0.378,0.831-0.839C41.616,5.354,41.245,4.984,40.787,4.981z"/>
	<path fill="#168C40" d="M40.787,18.269h-0.008c-0.461,0.002-0.833,0.378-0.831,0.838c0.002,0.461,0.378,0.833,0.839,0.831
		c0.461-0.002,0.832-0.378,0.831-0.839C41.616,18.642,41.245,18.271,40.787,18.269z"/>
	<path fill="#168C40" d="M40.787,14.947h-0.008c-0.461,0.002-0.833,0.378-0.831,0.839s0.378,0.833,0.839,0.83
		s0.832-0.377,0.831-0.839C41.616,15.32,41.245,14.95,40.787,14.947z"/>
	<path fill="#168C40" d="M40.787,11.625h-0.008c-0.461,0.002-0.833,0.378-0.831,0.839s0.378,0.833,0.839,0.831
		s0.832-0.378,0.831-0.839C41.616,11.998,41.245,11.627,40.787,11.625z"/>
	<path fill="#168C40" d="M40.787,8.304h-0.008c-0.461,0.002-0.833,0.378-0.831,0.838c0.002,0.461,0.378,0.833,0.839,0.831
		c0.461-0.002,0.832-0.377,0.831-0.838C41.616,8.676,41.245,8.306,40.787,8.304z"/>
	<path fill="#168C40" d="M48.568-0.003c-3.402,0.004-6.173,2.775-6.175,6.178v37.387c0.002,3.403,2.772,6.176,6.175,6.18h0.001
		c0.72,0,1.304-0.584,1.304-1.302V1.299C49.873,0.581,49.289-0.003,48.568-0.003z M47.268,46.892
		c-1.345-0.53-2.271-1.847-2.272-3.329V6.176c0.002-1.482,0.928-2.798,2.272-3.329V46.892z"/>
	<path fill="#168C40" d="M7.12,26.173c0.45,0,0.856-0.228,1.093-0.595c0.9-0.221,3.842-0.221,4.994-0.221l0.738,0v1.459h-0.279
		c-3.341,0-4.892,0.086-5.71,0.903c-0.326,0.315-0.513,0.758-0.513,1.215c0,0.717,0.583,1.301,1.302,1.303
		c0.468,0,0.892-0.249,1.123-0.642c0.766-0.174,3.01-0.174,3.789-0.174h0.289v1.46h-1.949c-0.718,0-1.302,0.584-1.302,1.302
		c0,2.511,2.042,4.555,4.553,4.555s4.553-2.044,4.553-4.555c0-0.718-0.584-1.302-1.302-1.302h-1.95v-1.46h0.29
		c0.779,0,3.022,0,3.789,0.174c0.298,0.509,0.957,0.765,1.534,0.574c0.533-0.177,0.891-0.674,0.891-1.234
		c0-0.457-0.187-0.9-0.508-1.21c-0.823-0.823-2.387-0.909-5.758-0.909h-0.236v-1.459l0.713,0c1.268,0,4.129,0,5.02,0.221
		c0.236,0.367,0.643,0.595,1.093,0.595c0.167,0,0.33-0.032,0.485-0.094c0.497-0.2,0.818-0.675,0.817-1.212
		c-0.003-0.437-0.184-0.862-0.492-1.164c-0.866-0.864-2.704-0.95-7.005-0.95l-0.631,0.001v-1.46l0.26,0c0.785,0,3.049,0,3.818,0.174
		c0.299,0.51,0.955,0.768,1.535,0.575c0.532-0.179,0.89-0.675,0.89-1.234c0-0.456-0.187-0.899-0.508-1.209
		c-0.823-0.823-2.38-0.909-5.737-0.909l-0.354,0c-0.193-0.476-0.661-0.813-1.206-0.813c-0.545,0-1.013,0.336-1.207,0.813l-0.371,0
		c-3.343,0-4.894,0.086-5.714,0.904c-0.326,0.315-0.513,0.758-0.513,1.213c0,0.717,0.584,1.301,1.302,1.302
		c0.469,0,0.892-0.25,1.123-0.642c0.761-0.173,2.967-0.173,3.841-0.173l0.237,0v1.46l-0.63-0.001c-4.301,0-6.14,0.086-7.002,0.947
		C6,24.005,5.82,24.43,5.817,24.869C5.816,25.587,6.4,26.172,7.12,26.173z M16.697,33.486c-0.505,0.561-1.35,0.803-2.099,0.536
		c-0.314-0.11-0.588-0.296-0.804-0.536H16.697z"/>
	<path fill="#168C40" d="M30.365,38.686V15.929c0-0.717-0.584-1.301-1.303-1.301h-2.088c-0.609-2.805-3.134-4.873-6.039-4.877
		h-1.718c0.86-1.338,1.395-3.018,1.395-4.387c0-2.959-2.407-5.366-5.366-5.366c-2.959,0-5.367,2.407-5.367,5.366
		c0,1.369,0.535,3.049,1.396,4.387H9.557c-2.903,0.004-5.428,2.073-6.038,4.877H1.43c-0.718,0-1.302,0.584-1.302,1.301v22.757
		c0,0.719,0.584,1.303,1.302,1.303h6.013v6.013c0,2.063,1.678,3.741,3.741,3.741c2.062,0,3.741-1.679,3.741-3.741v-6.013h0.646
		v6.013c0,2.063,1.678,3.741,3.741,3.741c2.062,0,3.74-1.679,3.74-3.741v-6.013h6.011C29.781,39.988,30.365,39.404,30.365,38.686z
		 M15.247,2.602c1.523,0,2.762,1.238,2.762,2.762c0,1.886-1.575,4.387-2.762,4.387c-1.188,0-2.762-2.501-2.762-4.387
		C12.485,3.84,13.724,2.602,15.247,2.602z M9.558,12.354h11.378c1.482,0.002,2.798,0.928,3.329,2.273H6.229
		C6.76,13.282,8.076,12.356,9.558,12.354z M12.318,46.001c0,0.627-0.509,1.137-1.135,1.137c-0.627,0-1.136-0.51-1.136-1.137v-6.013
		h2.271V46.001z M20.447,46.001c0,0.627-0.509,1.137-1.136,1.137s-1.137-0.51-1.137-1.137v-6.013h2.272V46.001z M27.763,37.386
		H2.731V17.231h25.031V37.386z"/>
	<path fill="#168C40" d="M37.191,4.874H22.562c-0.718,0-1.302,0.583-1.302,1.301c0,0.718,0.584,1.302,1.302,1.302H35.89v36.409
		h-8.451c-0.719,0-1.303,0.584-1.303,1.304c0,0.716,0.584,1.3,1.303,1.3h9.753c0.719,0,1.303-0.584,1.303-1.3V6.175
		C38.494,5.458,37.91,4.874,37.191,4.874z"/>
</g>
</svg>
