<?xml version="1.0" encoding="utf-8"?>
<!-- Generator: Adobe Illustrator 16.0.0, SVG Export Plug-In . SVG Version: 6.00 Build 0)  -->
<!DOCTYPE svg PUBLIC "-//W3C//DTD SVG 1.1//EN" "http://www.w3.org/Graphics/SVG/1.1/DTD/svg11.dtd">
<svg version="1.1" id="light" xmlns="http://www.w3.org/2000/svg" xmlns:xlink="http://www.w3.org/1999/xlink" x="0px" y="0px"
	 width="50px" height="50px" viewBox="0 0 50 50" enable-background="new 0 0 50 50" xml:space="preserve">
<g>
	<path fill="#FFFFFF" d="M45.428,0H21.936c-3.086,0-5.598,2.511-5.598,5.597v4.087c0,0.834,0.678,1.513,1.512,1.513
		s1.512-0.679,1.512-1.513V5.597c0-1.419,1.155-2.574,2.574-2.574h13.705l-3.904,1.302c-1.878,0.626-3.141,2.37-3.141,4.337v32.195
		h-6.66c-1.419,0-2.574-1.155-2.574-2.575v-4.086c0-0.834-0.678-1.511-1.512-1.511s-1.512,0.677-1.512,1.511v4.086
		c0,3.087,2.512,5.598,5.598,5.598h6.66v1.552c0,2.524,2.053,4.578,4.577,4.578c0.495,0,0.995-0.085,1.438-0.243l12.257-4.086
		c1.877-0.621,3.139-2.362,3.139-4.333V4.575C50.006,2.052,47.952,0,45.428,0z M46.981,4.577v36.771c0,0.662-0.43,1.252-1.069,1.467
		l-12.286,4.095c-0.141,0.05-0.299,0.076-0.454,0.076c-0.856,0-1.552-0.698-1.552-1.554V8.662c0-0.666,0.431-1.256,1.071-1.468
		L44.975,3.1c0.141-0.049,0.302-0.075,0.453-0.075C46.283,3.025,46.981,3.721,46.981,4.577z"/>
	<path fill="#FFFFFF" d="M23.109,22.89L23.109,22.89l0.117-0.163c0.145-0.238,0.221-0.508,0.221-0.786
		c0-0.418-0.168-0.808-0.465-1.089L14.83,12.7c-0.57-0.568-1.565-0.569-2.137,0.001c-0.59,0.59-0.59,1.55,0,2.139l5.591,5.59H1.506
		c-0.833,0-1.512,0.678-1.512,1.512c0,0.834,0.679,1.513,1.512,1.513h16.778l-5.591,5.589c-0.285,0.285-0.443,0.664-0.443,1.067
		c0,0.405,0.157,0.785,0.444,1.073c0.284,0.281,0.673,0.442,1.068,0.442c0.396,0,0.785-0.161,1.069-0.444l8.182-8.181L23.109,22.89z
		"/>
</g>
</svg>
