<svg id="configuracion" data-name="configuracion" xmlns="http://www.w3.org/2000/svg" width="25" height="25" viewBox="0 0 25 25">
  <path id="Trazado_25" data-name="Trazado 25" d="M13.284,25H11.716a2.3,2.3,0,0,1-2.3-2.3v-.531a10.09,10.09,0,0,1-1.567-.65l-.376.376a2.3,2.3,0,0,1-3.255,0L3.107,20.784a2.3,2.3,0,0,1,0-3.255l.376-.376a10.094,10.094,0,0,1-.651-1.567H2.3a2.3,2.3,0,0,1-2.3-2.3V11.716a2.3,2.3,0,0,1,2.3-2.3h.531a10.1,10.1,0,0,1,.651-1.567l-.376-.376a2.3,2.3,0,0,1,0-3.255L4.216,3.107a2.3,2.3,0,0,1,3.255,0l.376.376a10.1,10.1,0,0,1,1.567-.651V2.3a2.3,2.3,0,0,1,2.3-2.3h1.569a2.3,2.3,0,0,1,2.3,2.3v.531a10.093,10.093,0,0,1,1.567.651l.376-.376a2.3,2.3,0,0,1,3.255,0l1.109,1.109a2.3,2.3,0,0,1,0,3.255l-.376.376a10.091,10.091,0,0,1,.65,1.567H22.7a2.3,2.3,0,0,1,2.3,2.3v1.569a2.3,2.3,0,0,1-2.3,2.3h-.531a10.093,10.093,0,0,1-.65,1.567l.376.376a2.3,2.3,0,0,1,0,3.255l-1.109,1.109a2.3,2.3,0,0,1-3.255,0l-.376-.376a10.1,10.1,0,0,1-1.567.65V22.7A2.3,2.3,0,0,1,13.284,25ZM8.092,19.979a8.631,8.631,0,0,0,2.238.929.732.732,0,0,1,.549.709V22.7a.838.838,0,0,0,.837.837h1.569a.838.838,0,0,0,.837-.837V21.617a.732.732,0,0,1,.549-.709,8.631,8.631,0,0,0,2.238-.929.732.732,0,0,1,.891.113l.766.766a.836.836,0,0,0,1.183,0l1.11-1.11a.836.836,0,0,0,0-1.183l-.766-.766a.732.732,0,0,1-.113-.891,8.63,8.63,0,0,0,.929-2.238.732.732,0,0,1,.709-.549H22.7a.838.838,0,0,0,.837-.837V11.716a.838.838,0,0,0-.837-.837H21.617a.732.732,0,0,1-.709-.549,8.632,8.632,0,0,0-.929-2.238.732.732,0,0,1,.113-.891l.766-.766a.836.836,0,0,0,0-1.183l-1.11-1.11a.836.836,0,0,0-1.183,0l-.766.766a.732.732,0,0,1-.891.113,8.632,8.632,0,0,0-2.238-.929.732.732,0,0,1-.549-.709V2.3a.838.838,0,0,0-.837-.837H11.716a.838.838,0,0,0-.837.837V3.383a.732.732,0,0,1-.549.709,8.632,8.632,0,0,0-2.238.929A.732.732,0,0,1,7.2,4.908l-.766-.766a.836.836,0,0,0-1.183,0l-1.11,1.11a.836.836,0,0,0,0,1.183l.766.766a.732.732,0,0,1,.113.891,8.63,8.63,0,0,0-.929,2.238.732.732,0,0,1-.709.549H2.3a.838.838,0,0,0-.837.837v1.569a.838.838,0,0,0,.837.837H3.383a.732.732,0,0,1,.709.549,8.632,8.632,0,0,0,.929,2.238.732.732,0,0,1-.113.891l-.766.766a.836.836,0,0,0,0,1.183l1.11,1.11a.836.836,0,0,0,1.183,0l.766-.766a.736.736,0,0,1,.891-.113Z" fill="#5a5a5a"/>
  <path id="Trazado_26" data-name="Trazado 26" d="M150.135,155.668a5.534,5.534,0,1,1,5.534-5.534A5.54,5.54,0,0,1,150.135,155.668Zm0-9.577a4.043,4.043,0,1,0,4.044,4.043,4.048,4.048,0,0,0-4.044-4.043Z" transform="translate(-137.635 -137.635)" fill="#5a5a5a"/>
</svg>
