<svg xmlns="http://www.w3.org/2000/svg" width="28.58" height="24.558" viewBox="0 0 28.58 24.558">
  <path id="Trazado_8" data-name="Trazado 8" d="M28.563,15.673a1.841,1.841,0,0,0-.707-1.228L22.6,10.4V6.333a1.851,1.851,0,1,0-3.7,0V7.547L15.418,4.866a1.853,1.853,0,0,0-2.259,0L.72,14.445a1.851,1.851,0,0,0,1.131,3.317,1.825,1.825,0,0,0,.843-.2v9.629A1.854,1.854,0,0,0,4.546,29.04h8.316V20.3h2.85v8.741h8.2a1.853,1.853,0,0,0,1.851-1.852v-9.7a1.851,1.851,0,0,0,2.8-1.817ZM26.838,16a.138.138,0,0,1-.11.055.133.133,0,0,1-.084-.03l-2.6-2V27.188a.139.139,0,0,1-.14.14H17.422V18.586H11.15v8.742h-6.6a.14.14,0,0,1-.139-.14V14.118l-2.471,1.9a.136.136,0,0,1-.084.03A.14.14,0,0,1,1.74,16a.139.139,0,0,1,.025-.195l12.44-9.578a.12.12,0,0,1,.17,0l6.236,4.8V6.333a.14.14,0,0,1,.28,0v4.906L26.816,15.8a.134.134,0,0,1,.052.092A.132.132,0,0,1,26.838,16Z" transform="translate(0 -4.482)" fill="#fff"/>
</svg>
