<?xml version="1.0" encoding="utf-8"?>
<!-- Generator: Adobe Illustrator 16.0.0, SVG Export Plug-In . SVG Version: 6.00 Build 0)  -->
<!DOCTYPE svg PUBLIC "-//W3C//DTD SVG 1.1//EN" "http://www.w3.org/Graphics/SVG/1.1/DTD/svg11.dtd">
<svg version="1.1" id="Capa_1" xmlns="http://www.w3.org/2000/svg" xmlns:xlink="http://www.w3.org/1999/xlink" x="0px" y="0px"
	 width="50px" height="50px" viewBox="0 0 50 50" enable-background="new 0 0 50 50" xml:space="preserve">
<g>
	<path fill="#168C40" d="M39.609,28.779c0.803-1.582,1.398-3.27,1.733-5.1c0.755-4.126,0.243-8.016-1.413-11.647
		c-1.746-3.824-4.279-6.57-7.322-8.479C25.818-0.703,18.824-1.062,11.726,2.08C8.316,3.586,5.328,6.018,3.03,9.684
		c-3.585,5.721-3.964,12.233-1.272,18.466c0.884,2.048,2.09,3.772,3.495,5.242c0.829,0.866,1.713,1.646,2.594,2.485
		c-1.031,3.815-3.259,6.573-5.258,9.583c0.833-0.184,1.664-0.382,2.498-0.553c3.778-0.773,7.305-2.408,10.526-5.116
		c0.172-0.144,0.448-0.173,0.66-0.13c4.221,0.869,8.395,0.617,12.483-1.027C33.175,36.855,36.997,33.936,39.609,28.779z
		 M15.765,36.484c-0.295-0.082-0.517-0.021-0.767,0.207c-1.962,1.801-4.089,3.174-6.517,4.151c1.015-2.085,1.714-4.188,2.193-6.444
		c-0.646-0.474-1.292-0.924-1.92-1.409c-1.579-1.216-2.995-2.714-4.094-4.605c-0.699-1.209-1.292-2.577-1.713-3.986
		C1.48,19.5,2.519,15.17,4.998,11.304c1.94-3.024,4.459-5.033,7.294-6.313C18.903,2.005,25.417,2.3,31.738,6.336
		c2.64,1.685,4.837,4.086,6.311,7.459c1.374,3.146,1.703,6.466,0.889,9.954c-0.752,3.205-2.313,5.661-4.299,7.696
		c-2.824,2.892-6.08,4.498-9.601,5.255C21.939,37.369,18.844,37.305,15.765,36.484z"/>
	<path fill="#168C40" d="M43.2,42.6c1.748-1.242,3.284-2.819,4.526-4.855c2.801-4.598,3.026-10.264,0.601-15.074
		c-1.003-1.986-2.313-3.581-3.824-4.906c-0.203-0.179-0.414-0.344-0.685-0.568c0.021,0.295,0.031,0.486,0.049,0.676
		c0.357,4.121-0.332,7.935-2.004,11.457c-1.723,3.631-4.112,6.353-6.941,8.45c-3.758,2.785-7.83,4.188-12.131,4.55
		c-0.221,0.021-0.44,0.039-0.662,0.06c-0.004,0.051-0.01,0.104-0.016,0.155c0.636,0.394,1.26,0.823,1.909,1.174
		c4.097,2.216,8.341,2.714,12.701,1.776c0.426-0.092,0.741,0.02,1.116,0.289c1.281,0.929,2.574,1.849,3.91,2.628
		c1.353,0.791,2.799,1.237,4.358,1.59c-0.186-0.282-0.308-0.472-0.431-0.659c-1.168-1.792-2.081-3.771-2.692-5.984
		C42.879,42.975,42.921,42.798,43.2,42.6z"/>
	<path fill="#168C40" d="M20.86,27.056c-1.388,0-2.498,1.07-2.498,2.477c0,1.389,1.11,2.498,2.498,2.498
		c1.427,0,2.477-1.131,2.477-2.498C23.337,28.146,22.269,27.056,20.86,27.056z"/>
	<path fill="#168C40" d="M20.839,8.252c-3.506,0-5.903,2.278-6.796,4.933l3.251,1.368c0.434-1.326,1.465-2.931,3.565-2.931
		c3.21,0,3.844,3.011,2.714,4.616c-1.068,1.525-2.913,2.557-3.883,4.28c-0.771,1.367-0.614,2.952-0.614,3.922h3.604
		c0-1.842,0.139-2.219,0.438-2.792c0.771-1.427,2.198-2.1,3.705-4.301c1.347-1.981,0.831-4.678-0.041-6.102
		C25.772,9.579,23.773,8.252,20.839,8.252z"/>
</g>
</svg>
