<svg xmlns="http://www.w3.org/2000/svg" width="25.41" height="26.225" viewBox="0 0 25.41 26.225">
  <g id="agenda" data-name="agenda" transform="translate(546 3499)">
    <g id="Grupo_279" data-name="Grupo 279" transform="translate(-546 -3499)">
      <path id="Trazado_127" data-name="Trazado 127" d="M-27.241-253.71v-4.7c-.213-.01-.417-.01-.619-.03a1.538,1.538,0,0,1-1.394-1.593,1.534,1.534,0,0,1,1.427-1.534c.187-.015.376,0,.581,0V-266.3c-.17,0-.346.007-.522,0a1.552,1.552,0,0,1-1.48-1.4,1.556,1.556,0,0,1,1.2-1.706,5.765,5.765,0,0,1,.817-.052v-.3q0-1.345,0-2.69c0-.484.174-.669.632-.669H-4.505c.5,0,.659.161.659.686q0,1.931,0,3.863c0,.532-.158.692-.683.692l-2.065,0h-.289v1.052h.267c.723,0,1.445,0,2.168,0,.414,0,.6.191.6.618q0,1.478,0,2.957c0,.435-.19.626-.623.628-.705,0-1.411,0-2.116,0h-.294v1.026c.089.005.179.016.27.016.705,0,1.411,0,2.116,0,.481,0,.646.177.647.679q0,1.412,0,2.824c0,.527-.154.688-.656.689l-2.3,0a.477.477,0,0,0-.073.015v1.039h.821c.551,0,1.1,0,1.652,0a.5.5,0,0,1,.551.557q.007,1.532,0,3.063a.522.522,0,0,1-.592.575c-.714,0-1.428,0-2.142,0h-.3v1.026c.089,0,.179.014.269.015l2.09,0c.505,0,.671.17.672.681q0,1.425,0,2.85c0,.489-.166.664-.63.664H-26.594c-.46,0-.633-.182-.634-.667q0-1.345,0-2.691v-.317c-.179,0-.331,0-.483,0a1.537,1.537,0,0,1-1.542-1.525,1.552,1.552,0,0,1,1.484-1.618c.17-.008.34,0,.528,0m5.127-18.347v24.1h14.2v-.308q0-7.552,0-15.1,0-2.451,0-4.9c0-.465.176-.646.624-.649.473,0,.946,0,1.419,0h.984v-3.137Zm-4.082,24.1h3.023v-24.1h-3.015v2.607c.163,0,.308,0,.453,0a1.533,1.533,0,0,1,1.553,1.539A1.548,1.548,0,0,1-25.7-266.3c-.161,0-.322,0-.485,0v4.693a6.032,6.032,0,0,1,.864.082,1.541,1.541,0,0,1,1.136,1.677,1.526,1.526,0,0,1-1.364,1.4c-.21.02-.423,0-.634,0v4.733c.183,0,.347-.005.51,0a1.55,1.55,0,0,1,1.5,1.6,1.537,1.537,0,0,1-1.527,1.54c-.16,0-.32,0-.489,0ZM-4.875-260.51h-2v2.064h2Zm0,2.064M-6.884-263.7h2v-2.051h-2Zm.008,10.5h2v-2.064h-2Zm0-2.064-.01,7.307h2.008v-2.062H-6.886ZM-26.693-260.53h0c-.318,0-.636,0-.953,0a.523.523,0,0,0-.588.523.518.518,0,0,0,.578.532q.94.007,1.881,0a.53.53,0,0,0,.581-.535.53.53,0,0,0-.571-.518c-.309-.007-.618,0-.928,0m-.027-6.824h0c.335,0,.67.005,1,0a.513.513,0,0,0,.523-.507.5.5,0,0,0-.5-.529q-1.017-.021-2.034,0a.492.492,0,0,0-.5.546.5.5,0,0,0,.534.49c.326.005.652,0,.979,0m.006,14.7c-.326,0-.652,0-.978,0a.508.508,0,0,0-.542.512.491.491,0,0,0,.5.526q1.017.02,2.034,0a.5.5,0,0,0,.507-.524.517.517,0,0,0-.543-.514c-.326,0-.652,0-.978,0" transform="translate(29.255 273.116)" fill="#fff"/>
      <path id="Trazado_128" data-name="Trazado 128" d="M0-342.854H25.41v-26.225H0Z" transform="translate(0 369.079)" fill="none"/>
      <path id="Trazado_129" data-name="Trazado 129" d="M327.27-189.463h-2.207v-2.205h2.207Z" transform="translate(-302.996 204.201)" fill="#3fa676"/>
      <path id="Trazado_130" data-name="Trazado 130" d="M324.963-265.435h2.206v2.191h-2.206Z" transform="translate(-302.905 272.757)" fill="#d84f0c"/>
      <path id="Trazado_131" data-name="Trazado 131" d="M325.082-117.826h2.2v2.2h-2.2Z" transform="translate(-303.015 135.575)" fill="#168c3f"/>
      <path id="Trazado_132" data-name="Trazado 132" d="M324.935-44.008h2.214v2.2h-2.214Z" transform="translate(-302.879 66.893)" fill="#168c3f"/>
      <path id="Trazado_133" data-name="Trazado 133" d="M-78.583,0q2.844,0,5.688,0a1.237,1.237,0,0,1,.364.039.512.512,0,0,1,.38.538.506.506,0,0,1-.384.507,1.478,1.478,0,0,1-.392.042q-5.659,0-11.318,0h-.085c-.436,0-.708-.223-.706-.568s.272-.56.711-.56h5.745" transform="translate(92.697 22.867)" fill="#fff"/>
      <path id="Trazado_134" data-name="Trazado 134" d="M-44.281-13.57q-1.435,0-2.87,0a1.819,1.819,0,0,1-.339-.019.54.54,0,0,1-.428-.559.542.542,0,0,1,.441-.52,1.862,1.862,0,0,1,.312-.015h5.8c.477,0,.728.2.723.564s-.254.549-.737.55c-.445,0-.89,0-1.335,0h-1.563" transform="translate(58.7 34.847)" fill="#fff"/>
      <path id="Trazado_135" data-name="Trazado 135" d="M0-342.854H25.41v-26.225H0Z" transform="translate(0 369.079)" fill="none"/>
      <path id="Trazado_136" data-name="Trazado 136" d="M399.94,230.913q1.6,0,3.192,0h.338c0,1.206,0,2.37,0,3.534,0,.5.225.72.727.723q1.049,0,2.1,0c.625,0,.824-.2.825-.813,0-1.134,0-2.268,0-3.446h.364c1.054,0,2.108,0,3.162,0,.5,0,.728-.226.73-.723q.006-1.11,0-2.219a.625.625,0,0,0-.713-.707c-1.064,0-2.128,0-3.192,0h-.351v-.36q0-1.581,0-3.162c0-.518-.22-.734-.744-.736q-1.064,0-2.128,0c-.565,0-.776.208-.776.765q0,1.581,0,3.162c0,.106,0,.212,0,.33-1.214,0-2.379,0-3.544,0a.623.623,0,0,0-.711.708q0,1.11,0,2.219C399.216,230.692,399.438,230.912,399.94,230.913Zm.507-2.432h.315q1.581,0,3.163,0c.543,0,.76-.214.761-.751,0-1.154,0-2.309,0-3.485H405.9v.421c0,1.034,0,2.068,0,3.1a.623.623,0,0,0,.706.713c1.064,0,2.129,0,3.193,0h.342V229.7h-3.451c-.586,0-.791.2-.791.779v3.467h-1.216v-.333q0-1.551,0-3.1c0-.616-.2-.81-.825-.811l-3.1,0h-.314Z" transform="translate(-391.184 -219.433)" fill="#168c40" fill-rule="evenodd"/>
    </g>
  </g>
</svg>
