<?xml version="1.0" encoding="utf-8"?>
<!-- Generator: Adobe Illustrator 16.0.0, SVG Export Plug-In . SVG Version: 6.00 Build 0)  -->
<!DOCTYPE svg PUBLIC "-//W3C//DTD SVG 1.1//EN" "http://www.w3.org/Graphics/SVG/1.1/DTD/svg11.dtd">
<svg version="1.1" id="Capa_1" xmlns="http://www.w3.org/2000/svg" xmlns:xlink="http://www.w3.org/1999/xlink" x="0px" y="0px"
	 width="18px" height="18px" viewBox="0 0 18 18" enable-background="new 0 0 18 18" xml:space="preserve">
<path id="Trazado_139" fill="#5B5B5B" d="M11.391,12.791c-0.773,0.01-1.23-0.824-1.467-1.221c1.496-0.604,2.48-2.051,2.49-3.665
	V5.472c-0.002-1.149-0.934-2.08-2.08-2.082H6.536c-1.148,0.002-2.079,0.933-2.08,2.082v1.927C4.25,7.293,4.122,7.084,4.121,6.855
	V5.311c0-4.152,3.31-5.353,6.405-4.271l-0.236,0.098c-0.152,0.063-0.227,0.237-0.162,0.389c0.041,0.101,0.135,0.17,0.244,0.182
	l0.52,0.056c0.994,0.102,1.895,0.63,2.467,1.448c-0.375,0.455-0.58,1.027-0.578,1.617v2.028c0.01,0.165,0.148,0.291,0.313,0.282
	c0.154-0.006,0.275-0.129,0.283-0.282V4.827c-0.002-0.513,0.201-1.006,0.561-1.371c0.051-0.051,0.082-0.118,0.088-0.189
	c0.006-0.084-0.02-0.168-0.072-0.233c-0.557-0.887-1.438-1.521-2.455-1.768c0.125-0.106,0.141-0.294,0.033-0.42
	c-0.025-0.032-0.061-0.057-0.098-0.075c-2.006-0.965-4.735-1.07-6.436,0.572C3.987,2.414,3.457,3.847,3.521,5.316v1.541
	C3.523,7.417,3.91,7.903,4.454,8.033c0.057,1.479,0.929,2.807,2.265,3.444v0.078c-0.001,0.686-0.556,1.24-1.241,1.238
	c0,0-0.001,0-0.002,0c-1.695,0-3.068,1.375-3.068,3.068l0,0v1.756c0.008,0.164,0.147,0.289,0.312,0.281
	c0.153-0.006,0.275-0.129,0.283-0.281v-1.756C3,14.494,4.106,13.389,5.473,13.387h0.002c0.511,0.004,1-0.209,1.346-0.586
	c0.634,0.434,2.574,0.398,3.332,0.117c0.023-0.004,0.049-0.014,0.07-0.023c0.322,0.289,0.729,0.461,1.16,0.492
	c1.365,0,2.473,1.105,2.475,2.473v0.002v1.756c-0.01,0.164,0.117,0.307,0.281,0.313c0.164,0.008,0.303-0.117,0.314-0.281
	c0-0.01,0-0.021,0-0.029v-1.756C14.453,14.168,13.082,12.797,11.391,12.791z M5.056,7.884V5.472c0.001-0.819,0.663-1.483,1.48-1.487
	h3.792c0.818,0,1.484,0.666,1.484,1.487v2.413c0.002,1.868-1.512,3.383-3.379,3.385c-1.868,0-3.383-1.512-3.385-3.379
	c0-0.002,0-0.004,0-0.006H5.056L5.056,7.884z M7.161,12.309c0.086-0.193,0.139-0.398,0.155-0.607
	c0.664,0.197,1.368,0.217,2.04,0.055c0.009,0.031,0.02,0.061,0.037,0.088c0.119,0.201,0.25,0.395,0.395,0.582
	c-0.871,0.215-1.783,0.174-2.629-0.119L7.161,12.309z"/>
</svg>
