<?xml version="1.0" encoding="utf-8"?>
<!-- Generator: Adobe Illustrator 16.0.0, SVG Export Plug-In . SVG Version: 6.00 Build 0)  -->
<!DOCTYPE svg PUBLIC "-//W3C//DTD SVG 1.1//EN" "http://www.w3.org/Graphics/SVG/1.1/DTD/svg11.dtd">
<svg version="1.1" id="Capa_1" xmlns="http://www.w3.org/2000/svg" xmlns:xlink="http://www.w3.org/1999/xlink" x="0px" y="0px"
	 width="512px" height="512px" viewBox="0 0 512 512" enable-background="new 0 0 512 512" xml:space="preserve">
<g>
	<path fill="#168C40" d="M315.5,69.721c4.143,0,7.5-3.358,7.5-7.5V39.572c0-4.142-3.357-7.5-7.5-7.5s-7.5,3.358-7.5,7.5v22.649
		C308,66.363,311.357,69.721,315.5,69.721z"/>
	<path fill="#168C40" d="M278.596,71.113c2.055,3.646,6.664,4.851,10.217,2.847c3.608-2.035,4.883-6.609,2.849-10.217l-9.511-16.86
		c-2.034-3.607-6.61-4.881-10.217-2.847c-3.608,2.035-4.884,6.609-2.849,10.217L278.596,71.113z"/>
	<path fill="#168C40" d="M342.188,73.96c3.545,1.999,8.162,0.799,10.218-2.847l9.511-16.86c2.035-3.608,0.761-8.182-2.848-10.217
		c-3.605-2.035-8.182-0.76-10.217,2.847l-9.512,16.86C337.305,67.351,338.579,71.925,342.188,73.96z"/>
	<path fill="#168C40" d="M356.219,184.761c-1.914-4.758-6.467-7.833-11.596-7.833H266c-6.893,0-12.5,5.607-12.5,12.5v69.5
		c0,6.893,5.607,12.5,12.5,12.5h106.598c8.631,0.064,14.889-9.16,11.596-17.168L356.219,184.761z M268.5,256.428v-64.5h74.434
		l25.963,64.5H268.5z"/>
	<path fill="#168C40" d="M381,394.428c-12.406,0-22.5,10.093-22.5,22.5s10.094,22.5,22.5,22.5s22.5-10.093,22.5-22.5
		S393.406,394.428,381,394.428z M381,424.428c-4.136,0-7.5-3.363-7.5-7.5c0-4.136,3.364-7.5,7.5-7.5c4.137,0,7.5,3.364,7.5,7.5
		C388.5,421.064,385.137,424.428,381,424.428z"/>
	<path fill="#168C40" d="M119.25,394.428c-12.406,0-22.5,10.093-22.5,22.5s10.094,22.5,22.5,22.5c12.406,0,22.5-10.093,22.5-22.5
		S131.656,394.428,119.25,394.428z M119.25,424.428c-4.136,0-7.5-3.363-7.5-7.5c0-4.136,3.364-7.5,7.5-7.5
		c4.136,0,7.5,3.364,7.5,7.5C126.75,421.064,123.386,424.428,119.25,424.428z"/>
	<path fill="#168C40" d="M486.361,279.975l-60.8-20.26c-3.446-1.148-6.22-3.742-7.605-7.116l-33.879-82.428
		c-5.798-14.118-19.413-23.241-34.688-23.241H349v-13.502c0-18.472-15.027-33.5-33.5-33.5s-33.5,15.028-33.5,33.5v13.502h-50.961
		c-0.013,0-0.026-0.002-0.039-0.002s-0.026,0.002-0.039,0.002H37.5c-20.678,0-37.5,16.822-37.5,37.5v84.498v3.322v114.68
		c0,20.679,16.822,37.5,37.5,37.5h19.212c3.723,31.212,30.339,55.498,62.538,55.498s58.815-24.286,62.538-55.498h136.674
		c3.724,31.212,30.339,55.498,62.538,55.498s58.815-24.286,62.538-55.498H474.5c20.678,0,37.5-16.821,37.5-37.5v-71.38
		C512,299.379,501.696,285.082,486.361,279.975z M119.25,464.928c-26.468,0-48-21.533-48-48s21.532-48,48-48
		c26.468,0,48,21.533,48,48S145.718,464.928,119.25,464.928z M223.5,409.43h-41.712c-3.721-31.214-30.339-55.502-62.538-55.502
		s-58.817,24.288-62.538,55.502H37.5c-12.406,0-22.5-10.093-22.5-22.5v-48.002h208.5V409.43z M223.5,323.928H15V272.25v-3.322
		V184.43c0-12.407,10.094-22.5,22.5-22.5h186V323.928z M297,133.428c0-10.201,8.299-18.5,18.5-18.5s18.5,8.299,18.5,18.5v13.502h-37
		V133.428z M381,464.928c-26.468,0-48-21.533-48-48s21.532-48,48-48s48,21.533,48,48S407.468,464.928,381,464.928z M497,386.93
		c0,12.407-10.094,22.5-22.5,22.5h-30.962c-3.721-31.214-30.339-55.502-62.538-55.502s-58.816,24.288-62.538,55.502H238.5v-70.502
		l142.541-0.165c0.504,0.106,1.026,0.165,1.563,0.165H497V386.93z M497,323.928H393.36c-0.52-0.113-1.057-0.178-1.61-0.178
		l-153.25,0.178V161.93h110.891c9.164,0,17.334,5.471,20.813,13.941l33.879,82.43c3.047,7.413,9.146,13.114,16.736,15.645
		l60.802,20.26c9.199,3.064,15.38,11.642,15.38,21.344V323.928z"/>
	<path fill="#168C40" d="M66.75,265.428h30v30c0,7.444,6.056,13.5,13.5,13.5h18c7.444,0,13.5-6.056,13.5-13.5v-30h30
		c7.444,0,13.5-6.056,13.5-13.5v-18c0-7.444-6.056-13.5-13.5-13.5h-30v-30c0-7.444-6.056-13.5-13.5-13.5h-18
		c-7.444,0-13.5,6.056-13.5,13.5v30h-30c-7.444,0-13.5,6.056-13.5,13.5v18C53.25,259.372,59.306,265.428,66.75,265.428z
		 M68.25,235.428h33c5.79,0,10.5-4.71,10.5-10.5v-33h15v33c0,5.79,4.71,10.5,10.5,10.5h33v15h-33c-5.79,0-10.5,4.71-10.5,10.5v33
		h-15v-33c0-5.79-4.71-10.5-10.5-10.5h-33V235.428z"/>
</g>
</svg>
