<?xml version="1.0" encoding="utf-8"?>
<!-- Generator: Adobe Illustrator 16.0.0, SVG Export Plug-In . SVG Version: 6.00 Build 0)  -->
<!DOCTYPE svg PUBLIC "-//W3C//DTD SVG 1.1//EN" "http://www.w3.org/Graphics/SVG/1.1/DTD/svg11.dtd">
<svg version="1.1" id="Capa_1" xmlns="http://www.w3.org/2000/svg" xmlns:xlink="http://www.w3.org/1999/xlink" x="0px" y="0px"
	 width="50px" height="50px" viewBox="0 0 50 50" enable-background="new 0 0 50 50" xml:space="preserve">
<g>
	<path fill="#168C40" d="M41.491,37.637V20.652c0-2.268-2.463-4.113-5.49-4.113h-0.877l-1.093,1.504h1.97
		c2.187,0,3.966,1.17,3.966,2.608v16.985c0,1.438-1.779,2.606-3.966,2.606h-3.14c-0.264,0-0.515,0.14-0.655,0.367
		c-0.137,0.229-0.142,0.517-0.011,0.749l2.247,4.016c0.135,0.241,0.391,0.391,0.667,0.391h0.892c2.298,0,3.641,0.394,3.966,0.554
		v2.094H8.136l-0.014-2.032c0.284-0.179,1.568-0.613,3.983-0.613h0.839c0.299,0,0.572-0.175,0.696-0.446l1.82-4.017
		c0.107-0.236,0.085-0.505-0.057-0.718c-0.14-0.214-0.378-0.342-0.638-0.342h-2.66c-2.186,0-3.965-1.169-3.965-2.606V20.652
		c0-1.438,1.779-2.608,3.965-2.608h1.972l-1.095-1.504h-0.877c-3.026,0-5.489,1.845-5.489,4.113v16.985
		c0,2.267,2.462,4.111,5.489,4.111h1.484l-1.138,2.512h-0.346c-1.288,0-5.489,0.139-5.489,1.93v2.975
		c0,0.415,0.342,0.753,0.762,0.753h33.351c0.421,0,0.763-0.338,0.763-0.753v-2.975c0-1.791-4.202-1.93-5.49-1.93H35.56l-1.406-2.512
		H36C39.028,41.748,41.491,39.903,41.491,37.637z"/>
	<path fill="#168C40" d="M33.66,30.016c-0.402,0-0.717,0.305-0.717,0.694v1.835h-1.899c-0.389,0-0.704,0.307-0.704,0.683
		s0.315,0.683,0.704,0.683h1.899v1.835c0,0.391,0.314,0.697,0.717,0.697c0.388,0,0.703-0.313,0.703-0.697V33.91h1.912
		c0.382,0,0.692-0.307,0.692-0.683s-0.311-0.683-0.692-0.683h-1.912V30.71C34.363,30.327,34.048,30.016,33.66,30.016z"/>
	<path fill="#168C40" d="M18.211,19.409C18.211,19.409,18.212,19.409,18.211,19.409c0.288-0.011,0.516-0.234,0.532-0.532v-1.764
		c-0.001-0.596,0.235-1.157,0.665-1.578c0.431-0.423,1.004-0.656,1.631-0.657c0.519,0,1.021-0.192,1.406-0.532
		c0.532,0.243,1.37,0.271,1.734,0.271c0.664,0,1.309-0.083,1.655-0.206c0.352,0.273,0.773,0.433,1.242,0.466
		c1.257,0,2.281,1.002,2.283,2.235v1.749c-0.008,0.147,0.042,0.289,0.142,0.398c0.101,0.111,0.238,0.175,0.388,0.181l0.022,0
		c0.293,0,0.538-0.227,0.56-0.563v-1.764c0-1.834-1.52-3.331-3.402-3.336c-0.518,0-0.882-0.478-1.124-0.861
		c1.479-0.703,2.427-2.163,2.437-3.796V8.398c0.104,0.125,0.275,0.196,0.454,0.204c0.287-0.011,0.516-0.234,0.53-0.533V6.025
		c-0.002-0.444,0.181-0.881,0.499-1.198c0.096-0.093,0.153-0.216,0.164-0.35c0.011-0.148-0.037-0.298-0.112-0.385
		c-0.552-0.866-1.386-1.499-2.372-1.805c0.001-0.007,0.002-0.015,0.002-0.022c0.012-0.147-0.035-0.29-0.125-0.393
		c-0.047-0.06-0.11-0.109-0.19-0.146C26.237,1.257,25.102,1,24.032,1c-1.472,0-2.742,0.465-3.679,1.354
		c-1.073,1.118-1.648,2.64-1.58,4.165v1.55c0.002,0.617,0.391,1.156,0.965,1.369c0.119,1.459,0.986,2.748,2.306,3.426
		c-0.042,0.513-0.481,0.918-1.02,0.918c-1.871,0-3.392,1.496-3.392,3.333l0,1.781C17.652,19.183,17.895,19.409,18.211,19.409z
		 M23.115,13.242c0.573,0.128,1.174,0.138,1.75,0.029c0.046,0.075,0.095,0.148,0.144,0.221c-0.645,0.102-1.306,0.062-1.93-0.111
		C23.092,13.335,23.105,13.289,23.115,13.242z M20.846,6.675c0.001-0.684,0.568-1.241,1.265-1.244h3.885
		c0.701,0,1.271,0.558,1.271,1.243v2.425c0.001,0.839-0.332,1.629-0.938,2.225c-0.606,0.596-1.414,0.925-2.273,0.926
		c-1.7,0-3.098-1.298-3.21-2.935V6.675z M29.911,19.187L29.911,19.187v0.005V19.187z M28.257,5.93
		c-0.318-0.926-1.21-1.595-2.256-1.597h-3.892c-0.97,0.001-1.807,0.578-2.177,1.401c0.315-2.667,2.262-3.64,4.094-3.64
		c0.516,0,1.044,0.07,1.577,0.209c-0.018,0.027-0.033,0.057-0.046,0.087c-0.055,0.136-0.054,0.284,0.002,0.416
		c0.077,0.186,0.252,0.314,0.455,0.335l0.534,0.057c0.884,0.088,1.688,0.524,2.234,1.204C28.459,4.85,28.274,5.383,28.257,5.93z"/>
	<path fill="#168C40" d="M10.323,20.45c0.406-0.407,1.135-0.66,1.902-0.66h3.168l-1.095-1.504h-2.073c-2.086,0-3.72,1.22-3.72,2.777
		V37.26c0,1.558,1.634,2.778,3.72,2.778h23.658c2.085,0,3.719-1.221,3.719-2.778V21.063c0-1.557-1.634-2.777-3.719-2.777h-2.074
		l-1.095,1.504h3.17c1.169,0,2.194,0.595,2.194,1.272V37.26c0,0.678-1.025,1.272-2.194,1.272H12.225
		c-1.169,0-2.195-0.595-2.195-1.272V21.062C10.029,20.799,10.189,20.584,10.323,20.45z"/>
	<path fill="#168C40" d="M23.435,30.075c0.142,0.196,0.374,0.313,0.619,0.313c0.243,0,0.475-0.116,0.619-0.313L37.34,12.675
		c0.167-0.233,0.189-0.534,0.057-0.785c-0.132-0.25-0.391-0.406-0.676-0.406H32.21V0h-1.524v12.238c0,0.415,0.342,0.751,0.763,0.751
		h3.785l-11.18,15.357L12.874,12.99h3.785c0.42,0,0.762-0.337,0.762-0.751V0h-1.524v11.485h-4.509c-0.287,0-0.546,0.156-0.676,0.406
		c-0.133,0.253-0.111,0.554,0.057,0.786L23.435,30.075z"/>
</g>
</svg>
