<?xml version="1.0" encoding="utf-8"?>
<!-- Generator: Adobe Illustrator 16.0.0, SVG Export Plug-In . SVG Version: 6.00 Build 0)  -->
<!DOCTYPE svg PUBLIC "-//W3C//DTD SVG 1.1//EN" "http://www.w3.org/Graphics/SVG/1.1/DTD/svg11.dtd">
<svg version="1.1" id="Capa_1" xmlns="http://www.w3.org/2000/svg" xmlns:xlink="http://www.w3.org/1999/xlink" x="0px" y="0px"
	 width="55px" height="50px" viewBox="0 0 55 50" enable-background="new 0 0 55 50" xml:space="preserve">
<g>
	<path fill="#168C40" d="M43.114,29.275c-1.433,1.847-3.117,3.792-5.147,5.944c-2.63,2.79-5.353,5.604-7.987,8.324
		c-1.026,1.061-2.056,2.124-3.089,3.195c-0.051-0.041-0.096-0.077-0.138-0.111c-0.161-0.127-0.259-0.202-0.345-0.289
		c-1.341-1.377-2.694-2.738-4.048-4.104c-3.188-3.208-6.483-6.527-9.541-9.952c-2.57-2.879-4.843-6.139-7.041-9.291l-0.834-1.193
		c-2.464-3.518-2.787-7.467-0.987-12.07c1.649-4.217,4.989-6.734,8.934-6.734c1.749,0,3.525,0.48,5.279,1.429
		c2.499,1.351,4.651,3.339,6.775,6.257c0.605,0.832,1.084,1.421,1.727,1.421c0.636,0,1.113-0.58,1.717-1.398
		c2.778-3.761,5.442-5.95,8.642-7.1c1.154-0.415,2.315-0.625,3.446-0.625c2.632,0,4.992,1.11,6.825,3.211
		c3.375,3.868,3.72,8.35,2.137,13.58c-0.195,0.646-0.313,2.583,0.438,2.771c1.388,0.348,1.865-0.892,2.25-1.979
		c1.902-5.378,1.878-9.368-1.679-15.08c-2.631-4.222-6.874-6.058-12.105-5.235C33.289,1.043,29.841,4.38,27.4,7.199L26.67,8.05
		l-0.202-0.238c-0.397-0.469-0.755-0.893-1.126-1.304c-2.448-2.722-4.811-4.458-7.436-5.464C12.973-0.847,8.561-0.165,4.96,3.039
		c-4.94,4.398-6.445,12.84-3.355,18.817l0.144,0.279c0.628,1.217,1.276,2.476,2.125,3.576l0.813,1.056
		c2.035,2.65,4.138,5.391,6.439,7.881c3.265,3.534,6.683,7.028,9.988,10.408c1.406,1.438,2.813,2.876,4.211,4.321
		c0.425,0.439,0.875,0.663,1.337,0.663c0.444,0,0.887-0.208,1.313-0.614c7.043-6.712,11.551-11.483,18.367-19.634
		c0.163-0.195,1.031-1.808,0.25-2.352C45.164,26.445,43.838,28.346,43.114,29.275z"/>
	<path fill="#168C40" d="M53.035,23.605c-0.637,0.003-0.818,0.01-0.974,0.015c-0.278,0.01-0.487,0.017-3.19-0.007l-0.189-0.001
		c-2.276-0.018-2.276-0.018-2.965-1.907l-1.472-4.028c-0.542-1.496-1.104-3.042-1.718-4.58c-0.15-0.385-0.431-1.102-1.412-1.102
		c-1.129,0-1.586,1.492-1.781,2.128L39.3,14.233c-0.658,1.991-1.321,4.045-2.002,6.147c-0.561,1.737-1.133,3.509-1.721,5.306
		c-0.183-0.563-0.36-1.126-0.539-1.69c-0.445-1.41-0.907-2.868-1.419-4.285c-0.472-1.309-1.104-1.595-1.575-1.604
		c-0.881,0-1.349,0.99-1.6,1.521c-0.293,0.616-0.531,1.26-0.762,1.883c-0.193,0.527-0.389,1.055-0.618,1.569
		c-0.096,0.217-0.422,0.5-0.52,0.526c-2.355,0.012-4.724,0.002-7.119-0.007c-1.616-0.007-3.244-0.014-4.887-0.014
		c-1.147,0-1.859,0.511-1.859,1.332c0,1.492,1.426,1.492,1.895,1.494l2.5,0.002c2.606,0.002,5.271,0.002,7.846,0.018l0.303,0.002
		c1.874,0,3.532-0.195,4.675-2.438c0.034,0.091,0.072,0.194,0.113,0.314c0.198,0.618,0.394,1.238,0.591,1.859
		c0.463,1.454,0.922,2.911,1.425,4.352c0.292,0.846,0.761,1.326,1.321,1.347h0.036c0.528,0,0.985-0.406,1.357-1.209
		c0.528-1.147,0.997-2.318,1.392-3.479c0.634-1.881,1.252-3.769,1.867-5.656c0.369-1.13,0.74-2.261,1.11-3.387
		c0.028-0.078,0.057-0.154,0.089-0.234l2.487,6.887c0.237,0.687,0.565,1.629,1.915,1.643c1.66,0.021,3.345,0.015,5.012,0.007
		c0.822-0.003,1.641-0.007,2.449-0.007c0.767,0,1.246-0.14,1.551-0.452c0.231-0.24,0.34-0.561,0.328-0.978
		C54.926,24.358,54.418,23.605,53.035,23.605z"/>
</g>
</svg>
