<svg xmlns="http://www.w3.org/2000/svg" width="24" height="24" viewBox="0 0 24 24">
  <g id="Grupo_297" data-name="Grupo 297" transform="translate(-123.305)">
    <path id="Trazado_77" data-name="Trazado 77" d="M266.216,81.625a.9.9,0,0,0-1.331,1.225l4.553,4.944a.9.9,0,0,0,.646.292h.019a.906.906,0,0,0,.639-.264L282.26,76.336a.9.9,0,1,0-1.277-1.281L270.131,85.878Z" transform="translate(-135.643 -71.776)" fill="#168c40"/>
    <path id="Trazado_78" data-name="Trazado 78" d="M146.4,11.1a.9.9,0,0,0-.9.9A10.191,10.191,0,1,1,135.3,1.809.9.9,0,0,0,135.3,0a12,12,0,1,0,12,12A.9.9,0,0,0,146.4,11.1Z" transform="translate(0)" fill="#168c40"/>
  </g>
</svg>
