<?xml version="1.0" encoding="utf-8"?>
<!-- Generator: Adobe Illustrator 16.0.0, SVG Export Plug-In . SVG Version: 6.00 Build 0)  -->
<!DOCTYPE svg PUBLIC "-//W3C//DTD SVG 1.1//EN" "http://www.w3.org/Graphics/SVG/1.1/DTD/svg11.dtd">
<svg version="1.1" id="Capa_1" xmlns="http://www.w3.org/2000/svg" xmlns:xlink="http://www.w3.org/1999/xlink" x="0px" y="0px"
	 width="18px" height="18px" viewBox="0 0 18 18" enable-background="new 0 0 18 18" xml:space="preserve">
<path fill="none" d="M0,0h18v18H0V0z"/>
<path fill="#9B9B9B" d="M0.333,16.184l1.476,1.476l4.953-4.943v-0.78l0.269-0.279c1.128,0.971,2.595,1.556,4.188,1.556
	c3.557,0,6.439-2.883,6.439-6.439c0-3.557-2.883-6.439-6.439-6.439c-3.556,0-6.438,2.883-6.438,6.439
	c0,1.595,0.585,3.061,1.556,4.189L6.057,11.23h-0.78L0.333,16.184z M6.762,6.773c0-2.467,1.991-4.458,4.457-4.458
	c2.468,0,4.459,1.991,4.459,4.458c0,2.467-1.991,4.458-4.459,4.458C8.752,11.23,6.762,9.24,6.762,6.773z"/>
</svg>
