<?xml version="1.0" encoding="utf-8"?>
<!-- Generator: Adobe Illustrator 16.0.0, SVG Export Plug-In . SVG Version: 6.00 Build 0)  -->
<!DOCTYPE svg PUBLIC "-//W3C//DTD SVG 1.1//EN" "http://www.w3.org/Graphics/SVG/1.1/DTD/svg11.dtd">
<svg version="1.1" id="Capa_1" xmlns="http://www.w3.org/2000/svg" xmlns:xlink="http://www.w3.org/1999/xlink" x="0px" y="0px"
	 width="55px" height="50px" viewBox="0 0 55 50" enable-background="new 0 0 55 50" xml:space="preserve">
<g>
	<path fill="#168C40" d="M26.365,5.004h0.491v0.491c0,0.356,0.289,0.645,0.645,0.645s0.644-0.289,0.644-0.645V5.004h0.491
		c0.356,0,0.645-0.289,0.645-0.645c0-0.356-0.288-0.645-0.645-0.645h-0.491V3.223c0-0.356-0.288-0.645-0.644-0.645
		s-0.645,0.289-0.645,0.645v0.491h-0.491c-0.356,0-0.645,0.289-0.645,0.645C25.72,4.715,26.009,5.004,26.365,5.004z"/>
	<path fill="#168C40" d="M49.375,46.979L47.241,34.73c-0.264-1.512-1.358-2.729-2.856-3.171l-9.579-2.834
		c-0.399-0.119-0.83-0.117-1.229,0.006c-0.139-0.208-0.229-0.465-0.229-0.688v-2.017h0.629c1.441,0,2.778-0.567,3.766-1.598
		c0.987-1.031,1.48-2.375,1.39-3.787l-0.26-4.057c0-0.134-0.011-0.265-0.025-0.354l-0.313-4.605
		c-0.111-1.133-0.341-2.687-0.808-3.658l-0.048-0.099c-0.05-0.104-0.102-0.207-0.156-0.289c-0.02-0.029-0.039-0.054-0.044-0.054
		c0,0-0.001,0.001-0.001,0.003c-0.573-1.01-1.322-1.857-2.23-2.522l0.364-0.933c0.244-0.624,0.195-1.319-0.133-1.905
		c-0.329-0.585-0.9-0.998-1.568-1.13l-4.19-0.834c-1.402-0.28-2.845-0.28-4.247,0l-4.19,0.835c-0.668,0.133-1.239,0.545-1.568,1.131
		c-0.328,0.587-0.377,1.281-0.133,1.905l0.322,0.825C17.89,6.295,16.655,8.46,16.498,10.9l-0.343,5.325
		c-0.016,0.117-0.027,0.238-0.026,0.389l-0.26,4.028c-0.091,1.41,0.402,2.755,1.389,3.786s2.324,1.598,3.766,1.598h0.629v2.017
		c0,0.224-0.089,0.481-0.229,0.688c-0.396-0.123-0.83-0.125-1.229-0.006l-9.579,2.834c-1.499,0.442-2.593,1.659-2.857,3.172
		L5.625,46.979c-0.131,0.752,0.082,1.518,0.584,2.102S7.447,50,8.226,50h38.549c0.779,0,1.514-0.336,2.015-0.919
		C49.293,48.498,49.506,47.731,49.375,46.979z M35.965,22.759c0.331-0.61,0.571-1.223,0.716-1.837
		C36.692,21.606,36.441,22.253,35.965,22.759z M34.258,7.336c0.518,0.472,0.936,1.031,1.246,1.667
		c0.029,0.059,0.059,0.1,0.061,0.085c0.431,0.937,0.511,2.234,0.536,2.693l-0.005,0.019l0.129,1.993
		c-0.286-0.244-0.646-0.395-1.037-0.43c-7.394-0.652-9.5-2.795-11.039-4.36c-0.153-0.156-0.339-0.271-0.55-0.341h8.164
		C32.769,8.662,33.702,8.156,34.258,7.336z M25.961,2.569c1.082-0.215,2.188-0.215,3.267,0l4.022,0.8l-0.992,2.546
		c-0.078,0.2-0.277,0.334-0.497,0.334h-8.333c-0.219,0-0.418-0.134-0.497-0.334L21.939,3.37L25.961,2.569z M18.953,11.053
		c0.097-1.492,0.783-2.856,1.906-3.824c0.426,0.698,1.137,1.195,1.945,1.368c-0.25,0.03-0.522,0.102-0.813,0.213
		c-0.909,0.352-2.231,1.211-3.063,2.63L18.953,11.053z M18.319,20.921c0.146,0.615,0.385,1.229,0.717,1.84
		C18.559,22.254,18.307,21.606,18.319,20.921z M20.613,19.596c-0.015-0.651-0.566-1.18-1.23-1.18h-0.556
		c-0.132,0-0.24-0.105-0.24-0.234l0.005-1.64c0.021-0.111,0.12-0.191,0.235-0.191h0.553c0.679,0,1.23-0.541,1.23-1.207v-0.879
		c0.034-1.878,1.488-2.861,2.185-3.17c2.039,1.994,4.738,3.947,11.745,4.632c0.21,0.377,0.617,0.624,1.078,0.624h0.554
		c0.115,0,0.214,0.081,0.239,0.234v1.597c0,0.129-0.107,0.234-0.239,0.234h-0.556c-0.664,0-1.216,0.529-1.23,1.18
		c-0.031,1.445-1.057,3.158-2.744,4.583c-1.305,1.102-2.235,1.772-4.136,1.795c-1.913-0.023-2.843-0.693-4.149-1.795
		C21.671,22.755,20.645,21.042,20.613,19.596z M23.332,31.049l-0.256-0.497c0.647-0.669,1.037-1.599,1.037-2.51v-0.396
		c1.016,0.488,2.113,0.726,3.402,0.74c1.266-0.015,2.358-0.252,3.374-0.739v0.396c0,0.91,0.39,1.84,1.037,2.509l-0.257,0.497H23.332
		z M30.423,33.461l-2.68,5.189l-0.072,0.073c-0.135,0.101-0.348,0.057-0.429-0.101l-2.665-5.162H30.423z M46.908,47.526
		c-0.051,0.061-0.113,0.061-0.134,0.061h-4.101l-1.122-6.44c-0.114-0.648-0.731-1.098-1.421-0.986
		c-0.669,0.112-1.119,0.737-1.005,1.392l1.051,6.035H14.822l1.051-6.035c0.114-0.655-0.336-1.279-1.004-1.392
		c-0.68-0.112-1.308,0.336-1.42,0.987l-1.123,6.439H8.225c-0.021,0-0.083,0-0.135-0.062c-0.053-0.062-0.043-0.121-0.04-0.142
		l2.133-12.249c0.105-0.604,0.543-1.09,1.143-1.268l9.285-2.747l4.435,8.591c0.146,0.281,0.336,0.534,0.567,0.748
		c0.832,0.771,2.152,0.943,3.165,0.425c0.508-0.261,0.914-0.666,1.175-1.173l4.435-8.591l9.285,2.747
		c0.6,0.178,1.037,0.663,1.143,1.268l2.134,12.249C46.953,47.404,46.963,47.464,46.908,47.526z"/>
</g>
</svg>
