<svg xmlns="http://www.w3.org/2000/svg" width="96" height="96" viewBox="0 0 96 96">
  <path id="Trazado_137" data-name="Trazado 137" d="M93.537,8.605a12.088,12.088,0,0,0-9.73-4.848H82.173V2.82a2.812,2.812,0,1,0-5.625,0v7.5a2.812,2.812,0,1,0,5.625,0V9.382h1.634a6.563,6.563,0,0,1,6.31,8.365L82.652,43.874a17.074,17.074,0,0,1-32.833,0L42.354,17.747a6.563,6.563,0,0,1,6.31-8.365H50.3v.938a2.812,2.812,0,0,0,5.625,0V2.82a2.812,2.812,0,1,0-5.625,0v.938H48.664A12.187,12.187,0,0,0,36.946,19.292L44.41,45.419A22.527,22.527,0,0,0,52.567,57.3,23,23,0,0,0,55.22,59.03l8.2,19.361v2.03a9.961,9.961,0,0,1-19.923,0V61.132a16.125,16.125,0,0,0-32.25,0V67.79a14.062,14.062,0,1,0,5.625,0V61.132a10.5,10.5,0,0,1,21,0V80.421a15.586,15.586,0,0,0,31.173,0v-2.03l8.2-19.361A22.962,22.962,0,0,0,79.9,57.3a22.526,22.526,0,0,0,8.156-11.886l7.465-26.127A12.088,12.088,0,0,0,93.537,8.605ZM22.5,81.57a8.438,8.438,0,1,1-8.438-8.438A8.447,8.447,0,0,1,22.5,81.57ZM66.236,70.61,62.4,61.559a22.908,22.908,0,0,0,7.67,0Z" transform="translate(0 -0.007)" fill="#ffffffff"/>
</svg>
