<?xml version="1.0" encoding="utf-8"?>
<!-- Generator: Adobe Illustrator 16.0.0, SVG Export Plug-In . SVG Version: 6.00 Build 0)  -->
<!DOCTYPE svg PUBLIC "-//W3C//DTD SVG 1.1//EN" "http://www.w3.org/Graphics/SVG/1.1/DTD/svg11.dtd">
<svg version="1.1" id="Capa_1" xmlns="http://www.w3.org/2000/svg" xmlns:xlink="http://www.w3.org/1999/xlink" x="0px" y="0px"
	 width="50px" height="50px" viewBox="0 0 50 50" enable-background="new 0 0 50 50" xml:space="preserve">
<g>
	<rect x="6.946" y="31.082" fill="#168C40" width="1.937" height="14.424"/>
	<rect x="24.815" y="31.096" fill="#168C40" width="1.931" height="14.423"/>
</g>
<path fill="#168C40" d="M45.96,15.383l-0.05-0.02c-0.338-0.724-1.002-0.992-1.439-1.167c-0.101-0.041-0.2-0.078-0.289-0.131
	c-0.266-0.154-0.587-0.312-0.957-0.312c-0.909,0-1.253,0.837-1.438,1.286c-0.151,0.366-0.381,0.919-0.141,1.48
	c0.236,0.549,0.762,0.741,1.074,0.855l0.105,0.04c0.635,0.236,1.465,0.459,2.18,0.297c1.851,0.695,2.376,1.328,2.328,2.75
	c-0.069,2.023-0.215,4.124-0.429,6.245c-0.175,1.713-0.388,2.994-0.691,4.153c-0.415,1.568-1.241,2.789-2.456,3.623
	c-0.717,0.491-1.69,0.772-2.673,0.772c-0.948,0-2.729-0.275-3.988-2.122c-1.021-1.49-1.611-3.051-1.754-4.645
	c-0.271-2.944-0.454-5.664-0.557-8.318c-0.043-1.109,1.032-2.272,2.286-2.506c0.475,0.194,1.038,0.167,1.687-0.08l0.199-0.072
	c0.452-0.148,1.293-0.426,1.548-1.207c0.256-0.771-0.23-1.479-0.494-1.861c-0.227-0.327-0.705-0.687-1.282-0.646l-0.32,0.075
	c-0.11,0.048-0.229,0.093-0.373,0.147c-0.544,0.203-1.223,0.457-1.613,1.051c-0.169,0.253-0.353,0.345-0.761,0.511
	c-2.353,0.942-3.52,2.716-3.374,5.131l0.054,0.891c0.072,1.212,0.148,2.423,0.248,3.631c-1.298-3.265-4.209-5.764-7.835-6.424
	c-0.824-0.15-1.645-0.162-2.489-0.175c-0.265-0.004-0.532-0.008-0.795-0.019c-0.023-0.001-0.042-0.002-0.062-0.003l-0.005-0.456
	c-0.006-0.599-0.014-1.198,0.02-1.786c0.004-0.024,0.027-0.078,0.039-0.091c3.373-3.263,4.109-8.395,1.792-12.478
	c-1.463-2.582-3.93-4.124-6.599-4.124c-1.925,0-3.786,0.818-5.239,2.302C9.666,3.769,8.69,6.364,8.741,9.099
	c0.052,2.746,1.127,5.312,2.953,7.041c0.125,0.118,0.192,0.241,0.199,0.241c0.04,0.494,0.031,1.011,0.021,1.601
	c-0.003,0.2-0.006,0.401-0.007,0.628l-0.618-0.004c-0.388,0-0.776,0.004-1.162,0.014c-5.569,0.155-10.12,4.816-10.145,10.39
	c-0.016,4.193,0.007,6.622,0.036,9.433c0.017,1.65,0.034,3.456,0.046,5.845c0.001,0.166,0.021,0.332,0.045,0.503l0.125,1.071h2.572
	l0.106-1.048c0.02-0.179,0.038-0.344,0.038-0.516c0-0.205,0-0.379-0.005-0.517l0.004-0.649H2.943c0.001-1.374-0.004-2.75-0.01-4.171
	C2.92,35.591,2.906,32.107,3,28.689c0.07-2.578,1.368-4.638,3.858-6.122c1.454-0.867,3.097-0.983,4.513-0.983
	c0.204,0,0.41,0.003,0.618,0.007l0.114,0.001c1.803,0,2.729-0.961,2.757-2.856c0.003-0.288,0.004-0.576,0.004-0.867
	c0.562,0.126,0.994,0.186,1.5,0.186c0.542,0,1.095-0.068,2.05-0.229c-0.001,0.346,0.001,0.692,0.008,1.037
	c0.033,1.675,1.034,2.697,2.679,2.735c0.154,0.003,0.306,0.003,0.46,0.003l0.786-0.002c4.788,0,8.007,3.234,8.007,8.048v16.209
	h2.854l0.109-0.98c0.02-0.151,0.026-0.257,0.026-0.361c0-2.15,0.006-3.846,0.011-5.38v-0.15c0.008-2.653,0.015-4.847-0.012-8.126
	c0.792,2.824,2.32,5.845,6.313,6.771l-0.214,0.094h0.348l0.024,7.988c0.016,0.622,0.042,1.733-0.052,2.106
	c-0.076,0.015-0.212,0.031-0.445,0.031l-0.214-0.004c-1.014-0.031-6.78-0.062-17.375-0.062c-0.797,0-1.19-0.037-1.362-0.056
	c-0.011-0.208-0.011-0.517-0.011-0.673l-0.004-1.547c-0.011-3.165-0.017-7.353,0.04-11.803c1.749-0.517,2.884-2.351,2.587-4.181
	c-0.304-1.879-1.865-3.222-3.805-3.269c-1.803,0-3.387,1.301-3.763,3.096c-0.394,1.869,0.708,3.8,2.454,4.305
	c0.047,0.015,0.082,0.026,0.107,0.036c0,0.003,0,0.005,0,0.007c-0.043,3.678-0.054,7.103-0.038,11.814l0.004,1.543
	c0,1.008,0,1.881,0.746,2.529c0.636,0.552,1.489,0.647,3.047,0.647c11.17,0,16.465,0.037,17.308,0.063l0.268,0.004
	c1.017,0,1.66-0.208,2.155-0.692c0.844-0.828,0.815-2.127,0.778-3.922l0.021-8.032c1.958-0.233,3.586-1.247,4.842-3.013
	c1.296-1.824,2.003-4.005,2.22-6.86c0.056-0.678,0.1-1.356,0.146-2.054c0.085-1.268,0.172-2.579,0.306-3.854
	C50.137,18.388,49.178,16.751,45.96,15.383z M19.141,28.703c0.706,0,1.281,0.585,1.281,1.304c0,0.721-0.575,1.307-1.281,1.307
	c-0.707,0-1.281-0.586-1.281-1.307C17.86,29.288,18.435,28.703,19.141,28.703z M21.587,8.892c0.007,2.034-0.74,3.881-2.051,5.069
	c-1.704,1.545-4.307,1.479-5.917-0.151c-1.271-1.285-1.896-2.908-1.907-4.944c0.055-2.106,0.724-3.733,2.047-4.974
	c0.845-0.792,1.84-1.211,2.882-1.211c1.018,0,2.007,0.402,2.858,1.162C20.818,5.019,21.579,6.859,21.587,8.892z"/>
</svg>
