<?xml version="1.0" encoding="utf-8"?>
<!-- Generator: Adobe Illustrator 16.0.0, SVG Export Plug-In . SVG Version: 6.00 Build 0)  -->
<!DOCTYPE svg PUBLIC "-//W3C//DTD SVG 1.1//EN" "http://www.w3.org/Graphics/SVG/1.1/DTD/svg11.dtd">
<svg version="1.1" id="Capa_1" xmlns="http://www.w3.org/2000/svg" xmlns:xlink="http://www.w3.org/1999/xlink" x="0px" y="0px"
	 width="1211.176px" height="135px" viewBox="0 26 1211.176 135" enable-background="new 0 26 1211.176 135" xml:space="preserve">
<g>
	<g id="Grupo_283" transform="translate(2200.176 4038)">
		<g id="Grupo_282" transform="translate(-2599 -4276)">
			<g enable-background="new    ">
				<path fill="#268044" d="M724.807,342.443h-58.857l-12.951,28.638h-6.62l45.618-100.589h6.475l46.05,100.589h-6.619
					L724.807,342.443z M722.073,336.399l-26.91-59l-26.623,59H722.073z"/>
				<path fill="#268044" d="M819.498,296.107v66.772c0,22.16-14.246,36.264-36.264,36.12c-11.944-0.288-21.585-4.317-30.364-12.232
					l3.166-4.461c7.771,7.339,16.262,10.793,27.054,11.081c18.564,0.143,30.652-11.801,30.652-30.508v-14.104
					c-5.181,11.944-16.405,19.283-30.652,19.283c-20.146,0-34.681-15.109-34.681-35.976c0-21.01,14.536-36.12,34.538-36.12
					c14.391,0,25.472,7.483,30.796,19.427v-19.283H819.498z M813.742,332.227c0-17.844-12.664-30.795-29.933-30.795
					c-17.268,0-29.788,12.951-29.788,30.795c0,17.7,12.375,30.652,29.788,30.652C801.078,362.879,813.742,349.927,813.742,332.227z"
					/>
				<path fill="#268044" d="M910.733,335.249h-65.477c0.864,18.275,13.527,30.508,30.939,30.508
					c10.217,0,19.284-3.742,25.328-10.361l3.454,3.886c-6.908,7.482-17.125,11.943-29.069,11.943
					c-21.154,0-36.553-15.541-36.553-37.56c0-22.017,15.398-37.702,36.553-37.702C897.926,295.963,911.164,312.08,910.733,335.249z
					 M905.265,329.925c-1.152-16.981-12.232-28.494-29.356-28.494c-16.837,0-29.069,11.512-30.508,28.494H905.265z"/>
				<path fill="#268044" d="M997.939,325.319v45.762h-6.044v-44.61c0-15.398-9.066-24.464-24.464-24.464
					c-17.269,0.431-27.917,11.224-29.213,28.493v40.581h-6.044v-74.974h6.044v19.139c5.037-12.376,15.686-18.996,30.652-19.283
					C987.146,295.963,997.939,307.043,997.939,325.319z"/>
				<path fill="#268044" d="M1091.909,264.304v106.777h-6.044V351.51c-5.612,12.376-17.269,20.003-31.947,20.003
					c-21.298,0-36.551-15.829-36.551-37.848c0-22.161,15.253-37.99,36.406-37.99c14.823,0,26.479,7.627,32.092,20.003v-51.374
					H1091.909z M1085.865,333.665c0-18.707-13.096-32.234-31.228-32.234s-31.227,13.671-31.371,32.234
					c0.145,18.708,13.095,32.235,31.371,32.235C1072.769,365.9,1085.865,352.373,1085.865,333.665z"/>
				<path fill="#268044" d="M1170.768,371.081l-0.144-14.822c-6.332,10.36-16.981,14.966-29.933,14.966
					c-14.821,0-24.751-9.354-24.751-22.018c0-12.52,10.648-20.146,27.917-20.146h26.623v-7.34
					c-0.145-12.664-7.484-20.291-22.45-20.291c-9.354,0-17.269,3.742-25.183,9.786l-2.878-4.605
					c8.922-6.476,17.557-10.649,28.925-10.649c17.7,0,27.342,9.785,27.485,25.327l0.288,49.791H1170.768z M1170.625,346.617v-12.231
					h-26.191c-14.678,0-22.736,5.035-22.736,14.678c0,9.93,7.626,16.693,19.858,16.693
					C1155.514,365.757,1166.019,359.713,1170.625,346.617z"/>
				<path fill="#268044" d="M1274.808,276.536c-15.974,0-26.334,6.62-26.334,17.125c0,30.652,59.145,14.822,58.856,51.949
					c0,15.542-13.958,25.615-34.968,25.615c-13.384,0-27.055-5.899-35.833-14.534l3.166-5.325
					c8.203,8.491,21.011,13.672,32.811,13.672c17.269,0,28.35-7.483,28.35-19.284c0.287-31.514-58.857-15.397-58.857-51.661
					c0-14.534,13.239-23.888,33.098-23.888c10.218,0,21.298,3.31,28.782,8.203l-2.735,5.469
					C1293.661,278.982,1283.443,276.536,1274.808,276.536z"/>
				<path fill="#268044" d="M1380.435,371.081l-0.144-14.822c-6.332,10.36-16.98,14.966-29.933,14.966
					c-14.821,0-24.751-9.354-24.751-22.018c0-12.52,10.649-20.146,27.917-20.146h26.623v-7.34
					c-0.145-12.664-7.483-20.291-22.449-20.291c-9.354,0-17.27,3.742-25.184,9.786l-2.878-4.605
					c8.922-6.476,17.556-10.649,28.925-10.649c17.701,0,27.342,9.785,27.485,25.327l0.288,49.791H1380.435z M1380.292,346.617
					v-12.231h-26.19c-14.678,0-22.737,5.035-22.737,14.678c0,9.93,7.627,16.693,19.859,16.693
					C1365.181,365.757,1375.687,359.713,1380.292,346.617z"/>
				<path fill="#268044" d="M1420.584,264.304v106.777h-6.044V264.304H1420.584z"/>
				<path fill="#268044" d="M1513.403,296.107v74.974h-5.9v-20.002c-4.748,12.95-15.254,20.002-30.076,20.146
					c-18.132,0-28.638-10.936-28.638-29.356v-45.761h5.901v44.611c0,15.397,8.922,24.463,24.032,24.463
					c18.132-0.432,28.78-12.808,28.78-32.378v-36.696H1513.403z"/>
				<path fill="#268044" d="M1609.963,264.304v106.777h-6.044V351.51c-5.612,12.376-17.269,20.003-31.946,20.003
					c-21.298,0-36.553-15.829-36.553-37.848c0-22.161,15.255-37.99,36.408-37.99c14.822,0,26.479,7.627,32.091,20.003v-51.374
					H1609.963z M1603.919,333.665c0-18.707-13.096-32.234-31.228-32.234s-31.227,13.671-31.371,32.234
					c0.145,18.708,13.096,32.235,31.371,32.235C1590.823,365.9,1603.919,352.373,1603.919,333.665z"/>
			</g>
			<g id="Grupo_175" transform="translate(398.824 275.458)">
				<g id="Grupo_166" transform="translate(0)">
					<g id="Grupo_165" transform="translate(0)">
						<path id="Trazado_69" fill="#0A3318" d="M77.001,118.628c-31.761,0.011-57.518-25.727-57.53-57.487
							C19.46,29.379,45.195,3.623,76.957,3.61c12.14-0.005,23.97,3.833,33.798,10.962C86.148-11.062,45.42-11.895,19.785,12.71
							C-5.85,37.314-6.684,78.042,17.921,103.678c19.979,20.816,51.372,25.784,76.803,12.156
							C88.999,117.687,83.019,118.63,77.001,118.628z"/>
						<path id="Trazado_70" fill="#3FA676" d="M67.74,110.556c26.601,0.007,48.169-21.552,48.175-48.152
							c0.006-26.599-21.552-48.167-48.151-48.175c-10.164-0.002-20.066,3.209-28.292,9.178C60.08,1.935,94.191,1.234,115.661,21.841
							c21.473,20.606,22.173,54.718,1.566,76.189c-16.732,17.435-43.027,21.599-64.329,10.185
							C57.693,109.768,62.701,110.558,67.74,110.556z"/>
					</g>
				</g>
				<path id="Trazado_71" fill="#D94F0D" d="M94.686,51.649H76.135V33.1H58.022v18.55h-18.55v18.109h18.551v18.553h18.111V69.759
					h18.551V51.649z"/>
			</g>
		</g>
		<rect x="-2013.823" y="-4011.696" fill="#AAAAAA" width="7.094" height="134.488"/>
	</g>
	<g>
		<rect x="432.785" y="149.296" fill="#D94F0D" width="778.354" height="8.107"/>
	</g>
</g>
</svg>
