<?xml version="1.0" encoding="utf-8"?>
<!-- Generator: Adobe Illustrator 16.0.0, SVG Export Plug-In . SVG Version: 6.00 Build 0)  -->
<!DOCTYPE svg PUBLIC "-//W3C//DTD SVG 1.1//EN" "http://www.w3.org/Graphics/SVG/1.1/DTD/svg11.dtd">
<svg version="1.1" id="Capa_1" xmlns="http://www.w3.org/2000/svg" xmlns:xlink="http://www.w3.org/1999/xlink" x="0px" y="0px"
	 width="968px" height="306.2px" viewBox="0 0 968 306.2" enable-background="new 0 0 968 306.2" xml:space="preserve">
<g id="Grupo_288" transform="translate(2139 4495.2)">
	<g id="Grupo_284" transform="translate(-2781 -4614)">
		<g enable-background="new    ">
			<path fill="#268044" d="M721.623,357.941h-58.901l-12.961,28.658h-6.625l45.652-100.663h6.48l46.083,100.663h-6.624
				L721.623,357.941z M718.886,351.893l-26.93-59.045l-26.642,59.045H718.886z"/>
			<path fill="#268044" d="M816.383,311.57v66.821c0,22.177-14.257,36.29-36.291,36.147c-11.953-0.289-21.602-4.32-30.387-12.241
				l3.168-4.465c7.777,7.345,16.273,10.801,27.074,11.088c18.578,0.146,30.675-11.808,30.675-30.529v-14.113
				c-5.185,11.954-16.417,19.297-30.675,19.297c-20.161,0-34.707-15.12-34.707-36.002c0-21.025,14.546-36.147,34.563-36.147
				c14.401,0,25.49,7.489,30.818,19.441V311.57H816.383z M810.623,347.717c0-17.858-12.673-30.819-29.955-30.819
				c-17.281,0-29.811,12.961-29.811,30.819c0,17.713,12.385,30.674,29.811,30.674C797.95,378.391,810.623,365.43,810.623,347.717z"
				/>
			<path fill="#268044" d="M907.686,350.741h-65.525c0.864,18.289,13.537,30.53,30.962,30.53c10.225,0,19.298-3.744,25.346-10.368
				l3.457,3.889c-6.913,7.487-17.138,11.952-29.09,11.952c-21.17,0-36.58-15.554-36.58-37.587s15.41-37.731,36.58-37.731
				C894.869,311.425,908.118,327.555,907.686,350.741z M902.214,345.413c-1.153-16.994-12.242-28.515-29.378-28.515
				c-16.85,0-29.09,11.521-30.53,28.515H902.214z"/>
			<path fill="#268044" d="M994.956,340.805v45.794h-6.048v-44.644c0-15.408-9.073-24.48-24.482-24.48
				c-17.281,0.432-27.938,11.231-29.234,28.514v40.61h-6.049V311.57h6.049v19.153c5.041-12.385,15.698-19.009,30.675-19.298
				C984.155,311.425,994.956,322.514,994.956,340.805z"/>
			<path fill="#268044" d="M1088.995,279.744v106.855h-6.048v-19.584c-5.617,12.384-17.282,20.016-31.97,20.016
				c-21.313,0-36.579-15.841-36.579-37.874c0-22.178,15.265-38.019,36.434-38.019c14.833,0,26.499,7.632,32.115,20.018v-51.412
				H1088.995z M1082.947,349.157c0-18.722-13.105-32.259-31.25-32.259c-18.145,0-31.25,13.682-31.395,32.259
				c0.145,18.722,13.105,32.259,31.395,32.259C1069.842,381.416,1082.947,367.878,1082.947,349.157z"/>
			<path fill="#268044" d="M1167.912,386.599l-0.144-14.832c-6.336,10.367-16.993,14.977-29.954,14.977
				c-14.833,0-24.77-9.361-24.77-22.034c0-12.529,10.657-20.161,27.938-20.161h26.643v-7.345
				c-0.145-12.673-7.489-20.306-22.466-20.306c-9.36,0-17.282,3.744-25.202,9.794l-2.88-4.609
				c8.928-6.48,17.569-10.657,28.946-10.657c17.714,0,27.362,9.793,27.506,25.347l0.288,49.827H1167.912z M1167.769,362.119v-12.242
				h-26.21c-14.688,0-22.753,5.041-22.753,14.69c0,9.936,7.632,16.704,19.874,16.704
				C1152.647,381.271,1163.16,375.223,1167.769,362.119z"/>
			<path fill="#268044" d="M1272.029,291.984c-15.984,0-26.354,6.626-26.354,17.138c0,30.675,59.188,14.833,58.9,51.988
				c0,15.554-13.969,25.634-34.994,25.634c-13.393,0-27.074-5.904-35.859-14.545l3.168-5.328
				c8.21,8.495,21.026,13.681,32.835,13.681c17.282,0,28.37-7.489,28.37-19.299c0.289-31.537-58.9-15.408-58.9-51.699
				c0-14.545,13.249-23.906,33.123-23.906c10.225,0,21.313,3.313,28.803,8.21l-2.736,5.472
				C1290.896,294.432,1280.671,291.984,1272.029,291.984z"/>
			<path fill="#268044" d="M1377.734,386.599l-0.144-14.832c-6.337,10.367-16.993,14.977-29.955,14.977
				c-14.832,0-24.769-9.361-24.769-22.034c0-12.529,10.656-20.161,27.938-20.161h26.643v-7.345
				c-0.145-12.673-7.489-20.306-22.466-20.306c-9.36,0-17.282,3.744-25.202,9.794l-2.88-4.609
				c8.928-6.48,17.568-10.657,28.946-10.657c17.713,0,27.361,9.793,27.506,25.347l0.288,49.827H1377.734z M1377.591,362.119v-12.242
				h-26.21c-14.688,0-22.754,5.041-22.754,14.69c0,9.936,7.633,16.704,19.874,16.704
				C1362.47,381.271,1372.982,375.223,1377.591,362.119z"/>
			<path fill="#268044" d="M1417.912,279.744v106.855h-6.048V279.744H1417.912z"/>
			<path fill="#268044" d="M1510.801,311.57v75.029h-5.905v-20.016c-4.752,12.96-15.265,20.016-30.099,20.16
				c-18.145,0-28.658-10.944-28.658-29.378V311.57h5.905v44.644c0,15.409,8.928,24.48,24.05,24.48
				c18.146-0.432,28.802-12.815,28.802-32.401V311.57H1510.801z"/>
			<path fill="#268044" d="M1607.431,279.744v106.855h-6.048v-19.584c-5.616,12.384-17.281,20.016-31.971,20.016
				c-21.313,0-36.579-15.841-36.579-37.874c0-22.178,15.266-38.019,36.435-38.019c14.834,0,26.499,7.632,32.115,20.018v-51.412
				H1607.431z M1601.383,349.157c0-18.722-13.105-32.259-31.25-32.259c-18.146,0-31.251,13.682-31.396,32.259
				c0.145,18.722,13.105,32.259,31.396,32.259C1588.277,381.416,1601.383,367.878,1601.383,349.157z"/>
		</g>
		<g enable-background="new    ">
			<path fill="#D94F0D" d="M826.029,401.936c-1.026,0-1.702,0.373-1.702,1.12c0,2.705,8.605,1.166,8.605,7.043
				c0,3.334-2.939,5.037-6.577,5.037c-2.729,0-5.574-1.002-7.532-2.612l1.655-3.334c1.679,1.446,4.221,2.473,5.924,2.473
				c1.259,0,2.052-0.468,2.052-1.329c0-2.775-8.605-1.098-8.605-6.882c0-3.055,2.588-4.989,6.53-4.989
				c2.402,0,4.827,0.746,6.53,1.842l-1.609,3.382C829.574,402.708,827.382,401.936,826.029,401.936z"/>
			<path fill="#D94F0D" d="M839.373,398.789c0,1.306-0.91,2.215-2.192,2.215s-2.192-0.909-2.192-2.215
				c0-1.307,0.91-2.216,2.192-2.216S839.373,397.482,839.373,398.789z M839.232,402.38v12.615h-4.128V402.38H839.232z"/>
			<path fill="#D94F0D" d="M846.813,405.086c-0.7,0-1.189,0.255-1.189,0.792c0,1.656,6.623,0.861,6.599,5.247
				c0,2.589-2.262,4.057-5.34,4.057c-2.123,0-4.151-0.606-5.69-1.795l1.306-2.682c1.446,1.002,3.079,1.563,4.477,1.563
				c0.77,0,1.331-0.257,1.331-0.771c0-1.725-6.507-0.861-6.507-5.223c0-2.635,2.216-4.081,5.177-4.081
				c1.82,0,3.662,0.514,5.248,1.468l-1.398,2.706C849.262,405.551,847.839,405.086,846.813,405.086z"/>
			<path fill="#D94F0D" d="M862.674,414.344c-0.91,0.535-2.169,0.838-3.405,0.838c-2.449,0.023-4.221-1.422-4.221-4.033v-5.411
				h-1.749v-2.751h1.749v-3.499h4.128v3.499h3.264v2.751h-3.264v4.758c0,0.933,0.42,1.353,1.142,1.329
				c0.42,0,0.957-0.162,1.563-0.42L862.674,414.344z"/>
			<path fill="#D94F0D" d="M876.506,409.796h-8.769c0.396,1.422,1.446,2.215,2.868,2.215c1.073,0,2.123-0.442,2.962-1.282
				l2.169,2.169c-1.283,1.446-3.172,2.238-5.504,2.238c-4.128,0-6.67-2.541-6.67-6.39c0-3.918,2.636-6.507,6.577-6.507
				C874.547,402.24,876.785,405.201,876.506,409.796z M872.495,407.58c0-1.445-0.933-2.424-2.333-2.424
				c-1.353,0-2.239,0.979-2.519,2.424H872.495z"/>
			<path fill="#D94F0D" d="M900.016,407.045v7.95h-4.151v-6.762c0-1.446-0.793-2.31-2.076-2.31c-1.469,0.023-2.379,1.19-2.379,2.846
				v6.226h-4.15v-6.762c0-1.446-0.793-2.31-2.076-2.31c-1.469,0.023-2.402,1.19-2.402,2.846v6.226h-4.128V402.38h4.128v2.076
				c0.863-1.47,2.286-2.241,4.104-2.241c2.052,0,3.568,1.051,4.198,2.823c0.816-1.866,2.355-2.823,4.407-2.823
				C898.22,402.215,900.016,404.082,900.016,407.045z"/>
			<path fill="#D94F0D" d="M914.06,406.788v8.208h-4.081v-1.422c-0.817,1.05-2.1,1.608-3.802,1.608
				c-2.705,0-4.314-1.632-4.314-3.939c0-2.403,1.702-3.779,4.827-3.825h3.289v-0.141c0-1.188-0.817-1.888-2.403-1.888
				c-1.049,0-2.425,0.349-3.777,1.002l-1.143-2.799c1.982-0.885,3.801-1.377,5.877-1.377
				C912.008,402.215,914.037,403.896,914.06,406.788z M909.979,410.729v-1.097h-2.472c-1.167,0-1.749,0.42-1.749,1.307
				c0,0.862,0.629,1.423,1.702,1.423C908.696,412.362,909.723,411.684,909.979,410.729z"/>
			<path fill="#D94F0D" d="M934.96,397.692v17.304h-4.152v-1.632c-0.863,1.167-2.145,1.797-3.731,1.797
				c-3.544,0-5.877-2.613-5.877-6.531c0-3.849,2.309-6.39,5.784-6.39c1.632,0,2.938,0.653,3.824,1.797v-6.345H934.96z
				 M930.809,408.747c0-1.89-1.095-3.147-2.705-3.147c-1.632,0-2.729,1.281-2.729,3.147s1.096,3.147,2.729,3.147
				C929.713,411.894,930.809,410.613,930.809,408.747z"/>
			<path fill="#D94F0D" d="M950.169,409.796H941.4c0.396,1.422,1.446,2.215,2.868,2.215c1.073,0,2.123-0.442,2.962-1.282
				l2.169,2.169c-1.283,1.446-3.172,2.238-5.503,2.238c-4.128,0-6.67-2.541-6.67-6.39c0-3.918,2.635-6.507,6.576-6.507
				C948.21,402.24,950.448,405.201,950.169,409.796z M946.158,407.58c0-1.445-0.933-2.424-2.332-2.424
				c-1.353,0-2.239,0.979-2.519,2.424H946.158z"/>
			<path fill="#D94F0D" d="M965.891,414.344c-0.91,0.535-2.169,0.838-3.405,0.838c-2.449,0.023-4.221-1.422-4.221-4.033v-5.411
				h-1.749v-2.751h1.749v-3.499h4.128v3.499h3.265v2.751h-3.265v4.758c0,0.933,0.419,1.353,1.142,1.329
				c0.42,0,0.957-0.162,1.563-0.42L965.891,414.344z"/>
			<path fill="#D94F0D" d="M980.188,402.38v12.615h-4.15v-2.052c-0.864,1.47-2.239,2.217-4.035,2.238
				c-2.729,0-4.501-1.888-4.501-4.827v-7.975h4.152v6.786c0,1.422,0.792,2.286,2.028,2.286c1.47-0.024,2.356-1.19,2.356-2.847
				v-6.226H980.188z"/>
			<path fill="#D94F0D" d="M991.573,402.215v3.802c-2.309-0.231-3.849,0.794-4.058,2.543v6.436h-4.152V402.38h4.152v2.098
				C988.378,403.032,989.8,402.215,991.573,402.215z"/>
			<path fill="#D94F0D" d="M1006.291,407.045v7.95h-4.128v-6.762c0-1.423-0.84-2.31-2.145-2.31c-1.399,0.023-2.31,0.98-2.472,2.402
				v6.669h-4.152V402.38h4.152v2.052c0.886-1.445,2.332-2.217,4.174-2.217C1004.471,402.215,1006.291,404.082,1006.291,407.045z"/>
			<path fill="#D94F0D" d="M1021.872,408.677c0,3.895-2.751,6.459-6.903,6.459c-4.151,0-6.879-2.564-6.879-6.459
				c0-3.872,2.729-6.438,6.879-6.438C1019.12,402.24,1021.872,404.805,1021.872,408.677z M1012.264,408.747
				c0,1.866,1.096,3.126,2.705,3.126c1.633,0,2.729-1.26,2.729-3.126c0-1.89-1.095-3.147-2.729-3.147
				C1013.36,405.599,1012.264,406.857,1012.264,408.747z"/>
			<path fill="#D94F0D" d="M1028.405,405.086c-0.7,0-1.189,0.255-1.189,0.792c0,1.656,6.623,0.861,6.599,5.247
				c0,2.589-2.262,4.057-5.34,4.057c-2.123,0-4.151-0.606-5.69-1.795l1.305-2.682c1.446,1.002,3.079,1.563,4.478,1.563
				c0.77,0,1.33-0.257,1.33-0.771c0-1.725-6.507-0.861-6.507-5.223c0-2.635,2.215-4.081,5.177-4.081
				c1.819,0,3.662,0.514,5.247,1.468l-1.398,2.706C1030.854,405.551,1029.431,405.086,1028.405,405.086z"/>
			<path fill="#D94F0D" d="M1054.155,397.692v17.304h-4.152v-1.632c-0.863,1.167-2.146,1.797-3.731,1.797
				c-3.545,0-5.877-2.613-5.877-6.531c0-3.849,2.309-6.39,5.784-6.39c1.632,0,2.938,0.653,3.824,1.797v-6.345H1054.155z
				 M1050.003,408.747c0-1.89-1.096-3.147-2.705-3.147c-1.632,0-2.729,1.281-2.729,3.147s1.097,3.147,2.729,3.147
				C1048.907,411.894,1050.003,410.613,1050.003,408.747z"/>
			<path fill="#D94F0D" d="M1069.363,409.796h-8.769c0.396,1.422,1.446,2.215,2.868,2.215c1.073,0,2.123-0.442,2.962-1.282
				l2.169,2.169c-1.283,1.446-3.172,2.238-5.504,2.238c-4.128,0-6.67-2.541-6.67-6.39c0-3.918,2.636-6.507,6.577-6.507
				C1067.404,402.24,1069.643,405.201,1069.363,409.796z M1065.352,407.58c0-1.445-0.933-2.424-2.333-2.424
				c-1.353,0-2.239,0.979-2.519,2.424H1065.352z"/>
			<path fill="#D94F0D" d="M1081.144,397.692v17.304h-4.151v-17.304H1081.144z"/>
			<path fill="#D94F0D" d="M1095.65,406.788v8.208h-4.08v-1.422c-0.817,1.05-2.1,1.608-3.802,1.608
				c-2.705,0-4.314-1.632-4.314-3.939c0-2.403,1.703-3.779,4.827-3.825h3.29v-0.141c0-1.188-0.817-1.888-2.403-1.888
				c-1.049,0-2.426,0.349-3.777,1.002l-1.143-2.799c1.982-0.885,3.801-1.377,5.877-1.377
				C1093.599,402.215,1095.628,403.896,1095.65,406.788z M1091.57,410.729v-1.097h-2.472c-1.167,0-1.749,0.42-1.749,1.307
				c0,0.862,0.629,1.423,1.701,1.423C1090.287,412.362,1091.313,411.684,1091.57,410.729z"/>
			<path fill="#D94F0D" d="M1109.812,401.936c-1.026,0-1.703,0.373-1.703,1.12c0,2.705,8.605,1.166,8.605,7.043
				c0,3.334-2.938,5.037-6.577,5.037c-2.729,0-5.573-1.002-7.532-2.612l1.656-3.334c1.679,1.446,4.221,2.473,5.922,2.473
				c1.26,0,2.053-0.468,2.053-1.329c0-2.775-8.605-1.098-8.605-6.882c0-3.055,2.589-4.989,6.53-4.989
				c2.401,0,4.827,0.746,6.53,1.842l-1.61,3.382C1113.356,402.708,1111.163,401.936,1109.812,401.936z"/>
			<path fill="#D94F0D" d="M1130.803,409.796h-8.769c0.396,1.422,1.446,2.215,2.869,2.215c1.072,0,2.122-0.442,2.962-1.282
				l2.169,2.169c-1.282,1.446-3.172,2.238-5.503,2.238c-4.128,0-6.67-2.541-6.67-6.39c0-3.918,2.635-6.507,6.576-6.507
				C1128.844,402.24,1131.082,405.201,1130.803,409.796z M1126.792,407.58c0-1.445-0.933-2.424-2.333-2.424
				c-1.353,0-2.239,0.979-2.519,2.424H1126.792z"/>
			<path fill="#D94F0D" d="M1138.618,405.668c-1.492,0-2.519,1.236-2.519,3.055c0,1.842,1.026,3.056,2.519,3.056
				c1.097,0,1.959-0.443,2.472-1.424l3.056,1.749c-1.003,1.938-3.056,3.032-5.737,3.032c-3.895,0-6.483-2.541-6.483-6.39
				c0-3.918,2.612-6.507,6.53-6.507c2.542,0,4.548,1.098,5.645,2.985l-3.01,1.749C1140.53,406.158,1139.69,405.668,1138.618,405.668
				z"/>
			<path fill="#D94F0D" d="M1154.27,402.215v3.802c-2.309-0.231-3.849,0.794-4.058,2.543v6.436h-4.151V402.38h4.151v2.098
				C1151.074,403.032,1152.497,402.215,1154.27,402.215z"/>
			<path fill="#D94F0D" d="M1168.008,409.796h-8.77c0.396,1.422,1.446,2.215,2.868,2.215c1.073,0,2.123-0.442,2.963-1.282
				l2.169,2.169c-1.283,1.446-3.173,2.238-5.504,2.238c-4.128,0-6.671-2.541-6.671-6.39c0-3.918,2.636-6.507,6.577-6.507
				C1166.049,402.24,1168.287,405.201,1168.008,409.796z M1163.996,407.58c0-1.445-0.933-2.424-2.332-2.424
				c-1.353,0-2.239,0.979-2.519,2.424H1163.996z"/>
			<path fill="#D94F0D" d="M1178.365,414.344c-0.91,0.535-2.169,0.838-3.405,0.838c-2.449,0.023-4.221-1.422-4.221-4.033v-5.411
				h-1.749v-2.751h1.749v-3.499h4.128v3.499h3.265v2.751h-3.265v4.758c0,0.933,0.42,1.353,1.142,1.329
				c0.42,0,0.957-0.162,1.563-0.42L1178.365,414.344z"/>
			<path fill="#D94F0D" d="M1191.566,406.788v8.208h-4.081v-1.422c-0.816,1.05-2.1,1.608-3.802,1.608
				c-2.705,0-4.314-1.632-4.314-3.939c0-2.403,1.703-3.779,4.827-3.825h3.289v-0.141c0-1.188-0.816-1.888-2.402-1.888
				c-1.049,0-2.426,0.349-3.777,1.002l-1.143-2.799c1.981-0.885,3.801-1.377,5.877-1.377
				C1189.514,402.215,1191.544,403.896,1191.566,406.788z M1187.485,410.729v-1.097h-2.472c-1.167,0-1.749,0.42-1.749,1.307
				c0,0.862,0.629,1.423,1.701,1.423C1186.202,412.362,1187.229,411.684,1187.485,410.729z"/>
			<path fill="#D94F0D" d="M1202.577,402.215v3.802c-2.309-0.231-3.849,0.794-4.058,2.543v6.436h-4.151V402.38h4.151v2.098
				C1199.383,403.032,1200.805,402.215,1202.577,402.215z"/>
			<path fill="#D94F0D" d="M1210.602,398.345l-3.055,2.706h-3.149l2.496-4.012L1210.602,398.345z M1208.526,402.38v12.615h-4.129
				V402.38H1208.526z"/>
			<path fill="#D94F0D" d="M1222.917,406.788v8.208h-4.081v-1.422c-0.817,1.05-2.1,1.608-3.802,1.608
				c-2.705,0-4.314-1.632-4.314-3.939c0-2.403,1.702-3.779,4.827-3.825h3.289v-0.141c0-1.188-0.817-1.888-2.402-1.888
				c-1.049,0-2.426,0.349-3.777,1.002l-1.144-2.799c1.982-0.885,3.802-1.377,5.877-1.377
				C1220.864,402.215,1222.894,403.896,1222.917,406.788z M1218.836,410.729v-1.097h-2.472c-1.167,0-1.749,0.42-1.749,1.307
				c0,0.862,0.629,1.423,1.701,1.423C1217.553,412.362,1218.579,411.684,1218.836,410.729z"/>
			<path fill="#D94F0D" d="M1243.816,397.692v17.304h-4.152v-1.632c-0.862,1.167-2.146,1.797-3.73,1.797
				c-3.545,0-5.877-2.613-5.877-6.531c0-3.849,2.309-6.39,5.783-6.39c1.633,0,2.939,0.653,3.824,1.797v-6.345H1243.816z
				 M1239.664,408.747c0-1.89-1.095-3.147-2.705-3.147c-1.632,0-2.729,1.281-2.729,3.147s1.097,3.147,2.729,3.147
				C1238.569,411.894,1239.664,410.613,1239.664,408.747z"/>
			<path fill="#D94F0D" d="M1259.024,409.796h-8.769c0.396,1.422,1.445,2.215,2.868,2.215c1.072,0,2.122-0.442,2.962-1.282
				l2.169,2.169c-1.282,1.446-3.172,2.238-5.504,2.238c-4.128,0-6.67-2.541-6.67-6.39c0-3.918,2.636-6.507,6.576-6.507
				C1257.065,402.24,1259.304,405.201,1259.024,409.796z M1255.014,407.58c0-1.445-0.933-2.424-2.333-2.424
				c-1.353,0-2.239,0.979-2.519,2.424H1255.014z"/>
			<path fill="#D94F0D" d="M1272.532,401.936c-1.026,0-1.703,0.373-1.703,1.12c0,2.705,8.605,1.166,8.605,7.043
				c0,3.334-2.938,5.037-6.577,5.037c-2.729,0-5.573-1.002-7.532-2.612l1.656-3.334c1.679,1.446,4.222,2.473,5.923,2.473
				c1.26,0,2.053-0.468,2.053-1.329c0-2.775-8.605-1.098-8.605-6.882c0-3.055,2.589-4.989,6.53-4.989
				c2.401,0,4.827,0.746,6.529,1.842l-1.609,3.382C1276.076,402.708,1273.884,401.936,1272.532,401.936z"/>
			<path fill="#D94F0D" d="M1292.823,406.788v8.208h-4.08v-1.422c-0.817,1.05-2.1,1.608-3.803,1.608
				c-2.705,0-4.314-1.632-4.314-3.939c0-2.403,1.703-3.779,4.827-3.825h3.29v-0.141c0-1.188-0.817-1.888-2.403-1.888
				c-1.049,0-2.426,0.349-3.777,1.002l-1.143-2.799c1.981-0.885,3.801-1.377,5.877-1.377
				C1290.771,402.215,1292.801,403.896,1292.823,406.788z M1288.743,410.729v-1.097h-2.473c-1.167,0-1.749,0.42-1.749,1.307
				c0,0.862,0.629,1.423,1.702,1.423C1287.459,412.362,1288.486,411.684,1288.743,410.729z"/>
			<path fill="#D94F0D" d="M1299.893,397.692v17.304h-4.15v-17.304H1299.893z"/>
			<path fill="#D94F0D" d="M1315.496,402.38v12.615h-4.15v-2.052c-0.863,1.47-2.239,2.217-4.035,2.238
				c-2.729,0-4.501-1.888-4.501-4.827v-7.975h4.151v6.786c0,1.422,0.793,2.286,2.028,2.286c1.47-0.024,2.356-1.19,2.356-2.847
				v-6.226H1315.496z"/>
			<path fill="#D94F0D" d="M1331.404,397.692v17.304h-4.151v-1.632c-0.863,1.167-2.146,1.797-3.731,1.797
				c-3.544,0-5.877-2.613-5.877-6.531c0-3.849,2.309-6.39,5.784-6.39c1.632,0,2.938,0.653,3.824,1.797v-6.345H1331.404z
				 M1327.253,408.747c0-1.89-1.096-3.147-2.705-3.147c-1.632,0-2.729,1.281-2.729,3.147s1.097,3.147,2.729,3.147
				C1326.157,411.894,1327.253,410.613,1327.253,408.747z"/>
			<path fill="#D94F0D" d="M1352.794,397.692v17.304h-4.151v-1.632c-0.863,1.167-2.146,1.797-3.731,1.797
				c-3.544,0-5.877-2.613-5.877-6.531c0-3.849,2.309-6.39,5.784-6.39c1.632,0,2.938,0.653,3.824,1.797v-6.345H1352.794z
				 M1348.643,408.747c0-1.89-1.096-3.147-2.705-3.147c-1.632,0-2.729,1.281-2.729,3.147s1.097,3.147,2.729,3.147
				C1347.547,411.894,1348.643,410.613,1348.643,408.747z"/>
			<path fill="#D94F0D" d="M1368.003,409.796h-8.77c0.396,1.422,1.446,2.215,2.868,2.215c1.073,0,2.123-0.442,2.963-1.282
				l2.169,2.169c-1.282,1.446-3.173,2.238-5.504,2.238c-4.128,0-6.67-2.541-6.67-6.39c0-3.918,2.635-6.507,6.576-6.507
				C1366.044,402.24,1368.282,405.201,1368.003,409.796z M1363.992,407.58c0-1.445-0.934-2.424-2.333-2.424
				c-1.353,0-2.239,0.979-2.519,2.424H1363.992z"/>
			<path fill="#D94F0D" d="M1374.419,397.692v17.304h-4.151v-17.304H1374.419z"/>
			<path fill="#D94F0D" d="M1396.926,408.747c0,3.849-2.286,6.39-5.784,6.39c-1.608,0-2.915-0.63-3.801-1.772v6.156h-4.151v-17.14
				h4.151v1.632c0.886-1.143,2.146-1.772,3.708-1.772C1394.57,402.24,1396.926,404.829,1396.926,408.747z M1392.751,408.654
				c0-1.866-1.097-3.149-2.729-3.149c-1.586,0-2.682,1.283-2.682,3.149c0,1.865,1.096,3.125,2.682,3.125
				C1391.654,411.779,1392.751,410.519,1392.751,408.654z"/>
			<path fill="#D94F0D" d="M1410.292,406.788v8.208h-4.08v-1.422c-0.817,1.05-2.1,1.608-3.803,1.608
				c-2.704,0-4.313-1.632-4.313-3.939c0-2.403,1.702-3.779,4.827-3.825h3.289v-0.141c0-1.188-0.817-1.888-2.403-1.888
				c-1.049,0-2.425,0.349-3.777,1.002l-1.143-2.799c1.981-0.885,3.801-1.377,5.877-1.377
				C1408.24,402.215,1410.27,403.896,1410.292,406.788z M1406.212,410.729v-1.097h-2.473c-1.166,0-1.749,0.42-1.749,1.307
				c0,0.862,0.629,1.423,1.702,1.423C1404.928,412.362,1405.955,411.684,1406.212,410.729z"/>
			<path fill="#D94F0D" d="M1421.304,402.215v3.802c-2.309-0.231-3.849,0.794-4.058,2.543v6.436h-4.152V402.38h4.152v2.098
				C1418.108,403.032,1419.53,402.215,1421.304,402.215z"/>
			<path fill="#D94F0D" d="M1431.333,414.344c-0.91,0.535-2.169,0.838-3.404,0.838c-2.45,0.023-4.222-1.422-4.222-4.033v-5.411
				h-1.749v-2.751h1.749v-3.499h4.128v3.499h3.265v2.751h-3.265v4.758c0,0.933,0.419,1.353,1.143,1.329
				c0.42,0,0.956-0.162,1.563-0.42L1431.333,414.344z"/>
			<path fill="#D94F0D" d="M1437.585,398.789c0,1.306-0.909,2.215-2.192,2.215c-1.282,0-2.192-0.909-2.192-2.215
				c0-1.307,0.91-2.216,2.192-2.216C1436.676,396.573,1437.585,397.482,1437.585,398.789z M1437.445,402.38v12.615h-4.128V402.38
				H1437.445z"/>
			<path fill="#D94F0D" d="M1453.351,397.692v17.304h-4.151v-1.632c-0.862,1.167-2.146,1.797-3.73,1.797
				c-3.545,0-5.878-2.613-5.878-6.531c0-3.849,2.309-6.39,5.784-6.39c1.633,0,2.938,0.653,3.824,1.797v-6.345H1453.351z
				 M1449.199,408.747c0-1.89-1.096-3.147-2.705-3.147c-1.632,0-2.729,1.281-2.729,3.147s1.097,3.147,2.729,3.147
				C1448.104,411.894,1449.199,410.613,1449.199,408.747z"/>
			<path fill="#D94F0D" d="M1469.398,408.677c0,3.895-2.751,6.459-6.903,6.459c-4.15,0-6.879-2.564-6.879-6.459
				c0-3.872,2.729-6.438,6.879-6.438C1466.647,402.24,1469.398,404.805,1469.398,408.677z M1459.791,408.747
				c0,1.866,1.096,3.126,2.704,3.126c1.634,0,2.729-1.26,2.729-3.126c0-1.89-1.095-3.147-2.729-3.147
				C1460.887,405.599,1459.791,406.857,1459.791,408.747z"/>
			<path fill="#D94F0D" d="M1489.622,397.692v17.304h-4.151v-1.632c-0.862,1.167-2.146,1.797-3.73,1.797
				c-3.545,0-5.877-2.613-5.877-6.531c0-3.849,2.309-6.39,5.783-6.39c1.633,0,2.938,0.653,3.824,1.797v-6.345H1489.622z
				 M1485.471,408.747c0-1.89-1.096-3.147-2.705-3.147c-1.632,0-2.729,1.281-2.729,3.147s1.097,3.147,2.729,3.147
				C1484.375,411.894,1485.471,410.613,1485.471,408.747z"/>
			<path fill="#D94F0D" d="M1504.831,409.796h-8.769c0.396,1.422,1.445,2.215,2.868,2.215c1.072,0,2.122-0.442,2.962-1.282
				l2.169,2.169c-1.282,1.446-3.172,2.238-5.504,2.238c-4.128,0-6.67-2.541-6.67-6.39c0-3.918,2.636-6.507,6.576-6.507
				C1502.872,402.24,1505.11,405.201,1504.831,409.796z M1500.82,407.58c0-1.445-0.934-2.424-2.333-2.424
				c-1.353,0-2.239,0.979-2.519,2.424H1500.82z"/>
			<path fill="#D94F0D" d="M1516.612,398.648v12.711h6.927v3.637h-11.194v-16.348H1516.612z"/>
			<path fill="#D94F0D" d="M1536.693,406.788v8.208h-4.08v-1.422c-0.817,1.05-2.1,1.608-3.803,1.608
				c-2.704,0-4.313-1.632-4.313-3.939c0-2.403,1.702-3.779,4.827-3.825h3.289v-0.141c0-1.188-0.817-1.888-2.403-1.888
				c-1.049,0-2.425,0.349-3.777,1.002l-1.143-2.799c1.981-0.885,3.801-1.377,5.877-1.377
				C1534.642,402.215,1536.671,403.896,1536.693,406.788z M1532.613,410.729v-1.097h-2.473c-1.166,0-1.749,0.42-1.749,1.307
				c0,0.862,0.629,1.423,1.702,1.423C1531.329,412.362,1532.356,411.684,1532.613,410.729z"/>
			<path fill="#D94F0D" d="M1552.626,402.146c-2.519,0-4.431,1.983-4.431,4.594c0,2.637,1.912,4.642,4.431,4.642
				c1.353,0,2.916-0.745,4.058-1.912l2.496,2.683c-1.749,1.842-4.361,3.03-6.786,3.03c-4.922,0-8.582-3.591-8.582-8.395
				c0-4.71,3.755-8.256,8.745-8.256c2.426,0,4.967,1.073,6.6,2.799l-2.473,2.961
				C1555.611,402.987,1554.049,402.146,1552.626,402.146z"/>
			<path fill="#D94F0D" d="M1573.479,408.677c0,3.895-2.752,6.459-6.903,6.459s-6.88-2.564-6.88-6.459
				c0-3.872,2.729-6.438,6.88-6.438S1573.479,404.805,1573.479,408.677z M1563.87,408.747c0,1.866,1.097,3.126,2.705,3.126
				c1.633,0,2.729-1.26,2.729-3.126c0-1.89-1.096-3.147-2.729-3.147C1564.967,405.599,1563.87,406.857,1563.87,408.747z"/>
			<path fill="#D94F0D" d="M1580.012,405.086c-0.7,0-1.189,0.255-1.189,0.792c0,1.656,6.623,0.861,6.599,5.247
				c0,2.589-2.262,4.057-5.34,4.057c-2.122,0-4.15-0.606-5.689-1.795l1.305-2.682c1.446,1.002,3.079,1.563,4.478,1.563
				c0.77,0,1.33-0.257,1.33-0.771c0-1.725-6.507-0.861-6.507-5.223c0-2.635,2.216-4.081,5.177-4.081
				c1.819,0,3.662,0.514,5.247,1.468l-1.398,2.706C1582.46,405.551,1581.038,405.086,1580.012,405.086z"/>
			<path fill="#D94F0D" d="M1595.872,414.344c-0.91,0.535-2.169,0.838-3.405,0.838c-2.449,0.023-4.221-1.422-4.221-4.033v-5.411
				h-1.749v-2.751h1.749v-3.499h4.128v3.499h3.265v2.751h-3.265v4.758c0,0.933,0.42,1.353,1.142,1.329
				c0.42,0,0.957-0.162,1.563-0.42L1595.872,414.344z"/>
			<path fill="#D94F0D" d="M1609.073,406.788v8.208h-4.08v-1.422c-0.817,1.05-2.1,1.608-3.803,1.608
				c-2.705,0-4.314-1.632-4.314-3.939c0-2.403,1.703-3.779,4.827-3.825h3.29v-0.141c0-1.188-0.817-1.888-2.403-1.888
				c-1.049,0-2.426,0.349-3.777,1.002l-1.143-2.799c1.981-0.885,3.801-1.377,5.877-1.377
				C1607.021,402.215,1609.051,403.896,1609.073,406.788z M1604.993,410.729v-1.097h-2.473c-1.167,0-1.749,0.42-1.749,1.307
				c0,0.862,0.629,1.423,1.701,1.423C1603.709,412.362,1604.736,411.684,1604.993,410.729z"/>
		</g>
	</g>
	<g id="Grupo_287" transform="translate(-1710 -4495.2)">
		<g id="Grupo_166" transform="translate(0)">
			<g id="Grupo_165" transform="translate(0)">
				<path id="Trazado_69" fill="#0A3318" d="M70.196,109.068c-26.441,0.007-47.88-21.422-47.887-47.862S43.73,13.327,70.171,13.32
					c10.102-0.002,19.946,3.19,28.124,9.123C77.811,1.103,43.906,0.409,22.566,20.893c-21.34,20.483-22.034,54.389-1.55,75.729
					c16.633,17.327,42.766,21.463,63.936,10.12C80.185,108.285,75.206,109.07,70.196,109.068z"/>
				<path id="Trazado_70" fill="#3FA676" d="M62.486,102.348c22.144,0.007,40.101-17.938,40.107-40.082
					c0.006-22.144-17.939-40.1-40.083-40.106c-8.46-0.003-16.705,2.671-23.554,7.639c17.155-17.875,45.553-18.458,63.428-1.303
					c17.873,17.155,18.458,45.552,1.302,63.427c-13.931,14.515-35.821,17.98-53.554,8.477
					C54.123,101.692,58.292,102.349,62.486,102.348z"/>
			</g>
		</g>
		<path id="Trazado_71" fill="#D94F0D" d="M84.919,53.31H69.476V37.867H54.397v15.444H38.954v15.076h15.443v15.445h15.078V68.386
			h15.443V53.31z"/>
	</g>
</g>
</svg>
