<svg id="Capa_1" xmlns="http://www.w3.org/2000/svg" version="1.1" viewBox="0 0 96 96">
  <defs>
    <style>
      .st0 {
        fill: #059669;
      }
    </style>
  </defs>
  <path class="st0" d="M93.7,48.3h-5.7c5-8.7,7.3-16.9,5.3-25.6C91.4,14.1,83.8.9,70.9,0c-8.6-.6-17.3,4.5-22.9,13.1C42.5,4.5,33.7-.6,25.1,0,12.2.9,4.6,14.1,2.6,22.7c-1.9,8.6.4,16.8,5.3,25.6H2.3c-1.2,0-2.2,1-2.2,2.2s1,2.2,2.2,2.2h8.4c4.5,6.9,10.5,14.3,17.2,22.6,5.5,6.9,11.8,13.6,18.6,20.1.4.4,1,.6,1.6.6s1.1-.2,1.6-.6c6.8-6.5,13-13.2,18.6-20.1,6.7-8.3,12.7-15.7,17.2-22.6h8.4c1.2,0,2.2-1,2.2-2.2s-1-2.2-2.2-2.2ZM7,23.7c1.6-7,8-18.5,18.4-19.2.4,0,.7,0,1.1,0,7.5,0,15.2,5.6,19.4,14.2.4.8,1.2,1.3,2,1.3s1.6-.5,2-1.3c4.4-9,12.7-14.7,20.5-14.1,10.5.7,16.9,12.2,18.4,19.2,1.8,8-.8,15.8-6.2,24.6h-14.3l-2.6-7.6c-.3-.9-1.2-1.6-2.1-1.5-1,0-1.8.6-2.1,1.6l-3.1,9.9h-7.1c-1,0-1.8.6-2.1,1.6l-1.9,6-1.9-6c-.3-.9-1.2-1.6-2.1-1.6h-6.8l-6.6-20.8c-.3-.9-1.1-1.5-2.1-1.6-1,0-1.8.7-2.1,1.6l-5.4,18.4h-7.3c-5.3-8.7-8-16.6-6.2-24.6ZM64.6,72.5c-5,6.2-10.6,12.3-16.6,18.2-6.1-5.9-11.6-12-16.6-18.2-5.9-7.2-11.1-13.8-15.3-19.8h6.1c1,0,1.9-.7,2.1-1.6l3.8-13,4.8,15.4c.3.9,1.2,1.6,2.1,1.6h6.8l3.5,11.2c.3.9,1.2,1.6,2.1,1.6s1.8-.6,2.1-1.6l3.5-11.2h7.1c1,0,1.8-.6,2.1-1.6l1.6-5,.9,2.7c.3.9,1.2,1.5,2.1,1.5h13c-4.2,6.1-9.4,12.6-15.3,19.8Z" />
</svg>