<?xml version="1.0" encoding="UTF-8"?>
<svg id="Capa_1" xmlns="http://www.w3.org/2000/svg" version="1.1" viewBox="0 0 96 96">
  <!-- Generator: Adobe Illustrator 29.1.0, SVG Export Plug-In . SVG Version: 2.1.0 Build 142)  -->
  <defs>
    <style>
      .st0 {
        fill: #fff;
        stroke: #000;
        stroke-miterlimit: 10;
        stroke-width: 4.5px;
      }

      .st1 {
        fill: #059669;
      }
    </style>
  </defs>
  <rect class="st1" x="33.7" y="92.4" width="14.7" height="3.6"/>
  <rect class="st1" x="55.8" y="92.4" width="14.7" height="3.6"/>
  <rect class="st1" x="77.8" y="92.4" width="14.7" height="3.6"/>
  <path class="st1" d="M95.9,10.7c-1-9.2-11.3-13.9-18-8.3L0,87.4c1.9,2.1,3.7,4.2,6.1,5.7,6.5,5.4,17.5,1.7,20.4-1.8l18.9-20.2c-1-.9-3.5-2.8-1.4-5.4l8.8-9.5,4.2,3.9,36.3-39.7c1.3-1.7,2.5-4.3,2.7-6.6v-3.1h0ZM25.5,86.2c-8.2,7.8-14.8,5.5-18.8.7l36.3-39.7,6.4,5.8c-4.6,5.1-14.6,13.8-11,18.8,0,0-8.7,10-12.9,14.4ZM90.2,16.9c-7,7.7-33.6,36.8-33.6,36.8l-10.6-9.9s17.7-19.5,28.4-31,4-4.3,5.5-5.8c6-5.4,15.1,2.7,10.2,9.9h.1Z"/>
  <path class="st0" d="M92.6,18.7"/>
  <path class="st0" d="M21.7,96"/>
</svg>