<svg id="Capa_1" xmlns="http://www.w3.org/2000/svg" version="1.1" viewBox="0 0 96 96">
  <defs>
    <style>
      .st0 {
        fill: #059669;
      }
    </style>
  </defs>
  <path class="st0" d="M94.7,86.5l-12.7-12.8c2-3.3,3.8-6.7,4.8-10.5,4.6-17-4.6-34.8-21.1-40.4-.2-2.8.2-5.9,0-8.7-.5-6.8-8.2-10.1-13.5-5.7-1.7-5.4-8.6-6.9-12.7-3.2-2.1-6.4-11.1-7.1-14.2-1.1-3.1-3.1-8.2-3.4-11.4-.3-3.5,3.3-2.2,8-2.4,12.3-4.6.5-8.6,3.7-10.3,7.9-.3.9-1.1,2.8-1.1,3.7,0,7,.1,13.1,0,19.9.3,1.2.7,2.6,1,3.7,1.9,5.6,9.7,13.5,13.4,18.6.7,1,1.5,1.9,2,3,2.7,5.6.4,13.2,1.3,19.1.3,2,1.9,3.2,3.7,3.9h33.9c4.1-1.1,4.1-4.8,3.9-8.4,5.2-.6,10.1-2.7,14.3-5.6l13,12.8,2.2,1.2h1.7c1.4-.6,4.1-2.8,4.8-4.1,1-1.8.7-4-.7-5.4ZM56.1,91.4c0,.4-.7,1.2-1.1,1.3H22.6c-1,0-1.5-.7-1.6-1.7-.8-8.3,2-14.7-3.3-22.2-3.9-5.6-13.7-15-14.3-21.5,0-6.2,0-12.7,0-19.1.4-4.5,3.6-8.1,8.1-8.9v22.8c0,1,2.8,1.9,3.2-.4V9.1c1-5.4,8.1-5.9,9.5-.3.2,1,0,2.6,1.8,2.4,2.1-.2,1.2-3.3,1.8-5,1.7-4.6,8.6-3.6,9.2,1,.2,1.6-.9,6.2,2.1,5.5,1.4-.3,1.1-2.4,1.5-3.5,2-4.7,8.8-3.3,9.3,2.5.1,1.5-.7,5,2.1,4.2,1.2-.3,1-2.3,1.3-3.2,1.3-3.8,6.8-4.1,8.7-.5.1.3.6,1.6.6,1.8v7.8c-6.5-1.5-13.1-1.2-19.4,1.1-10.1,3.6-18.1,12.2-20.9,22.6-6.1,22.2,11.1,43.7,34,42.6v3.5ZM29.8,72.1c-13.7-19.4-1-46.4,22.6-48,24.4-1.7,40.8,25.1,28.1,46.1-11.3,18.6-38.1,19.6-50.6,1.9ZM76.4,79.8c1.3-1,2.4-2.2,3.5-3.5l2.1,2-3.6,3.7-2-2.1ZM90.1,92.8c-.2,0-.4,0-.7,0l-8.7-8.5,3.6-3.7,8.4,8.6c.6.7-2.4,3.4-2.7,3.5Z"/>
  <path class="st0" d="M59.3,36.8c.2-1.3,0-3.5-1.9-3.2-1.5.3-1.4,2.2-1.3,3.4.2,1.9,2.9,1.9,3.2-.2Z"/>
  <path class="st0" d="M37,61.8c-.8,2.1.6,5.3,2.6,3.4.6-.6.6-3.4,0-4-.8-.7-2.2-.4-2.6.6Z"/>
  <path class="st0" d="M50.9,51.2c-1.5.3-1.4,3.9-.6,4.4,3.1,2.2,3.9-5.2.6-4.4Z"/>
  <path class="st0" d="M38.1,44.8c-1.8.4-1.8,4.9.4,4.7,1.7-.1,1.7-2.2,1.5-3.5-.1-.9-1-1.4-1.9-1.2Z"/>
  <path class="st0" d="M37.9,52.9c-1.6.4-1.7,5.2,1,4.6,1.3-.3,1.3-2.5,1-3.6-.2-1-1.2-1.2-2.1-1Z"/>
  <path class="st0" d="M45,59.2c1.7,0,1.6-2.2,1.4-3.5-.1-1-.8-1.5-1.7-1.4-2.1.3-2,5,.3,4.8Z"/>
  <path class="st0" d="M57,46.3c3.2,1,3.1-5.2.2-4.6-1.6.3-1.5,4.2-.2,4.6Z"/>
  <path class="st0" d="M51.2,43.2c-2,.1-1.9,4.3-.5,4.7,2.9.9,3.1-4.9.5-4.7Z"/>
  <path class="st0" d="M57,49.7c-1.3.4-1.3,4,0,4.5,3,1.3,3.5-5.5,0-4.5Z"/>
  <path class="st0" d="M51.2,67.2c-2,.1-1.9,4.3-.5,4.7,2.9.9,3.1-4.9.5-4.7Z"/>
  <path class="st0" d="M50.9,35.3c-1.6.4-1.4,4.1-.3,4.5,3.1,1.3,3.4-5.3.3-4.5Z"/>
  <path class="st0" d="M44.3,46.5c-1.3.3-1.3,2.9-.8,3.9.7,1.1,2.6,1,2.8-.3.4-1.7.2-4.1-2.1-3.6Z"/>
  <path class="st0" d="M50.9,59.3c-1.6.4-1.4,4.1-.3,4.5,3.1,1.3,3.4-5.3.3-4.5Z"/>
  <path class="st0" d="M45.8,42.9c.8-.5.8-2.6.6-3.5-.1-.8-1.2-1.2-1.9-1-2.2.5-1.5,6,1.3,4.5Z"/>
  <path class="st0" d="M44.5,62.5c-2.2.5-1.5,6,1.3,4.5.8-.5.8-2.6.6-3.5-.1-.8-1.2-1.2-1.9-1Z"/>
  <path class="st0" d="M54.5,27.1c-.1,0-.2,0-.4,0-.4,0-.9,0-1.3,0-5.3.3-10.1,2.1-14,4.9,0,0,0,0-.1,0,0,0,0,0,0,0-6.9,4.9-11.3,13-11.3,22.1s.6,6.6,1.7,9.5c0,0,0,0,0,.1,0,0,0,.1,0,.2,0,.1,0,.2.1.3,3.4,8.6,10.4,14.1,18.2,16.2.1,0,.2,0,.3,0,0,0,0,0,.1,0,2,.5,4,.8,6.1.8,0,0,0,0,0,0,.1,0,.3,0,.4,0s.1,0,.2,0c.1,0,.3,0,.4,0,0,0,.2,0,.2,0,7.7-.2,15.4-3.6,20.6-10.5,3.6-4.6,5.7-10.4,5.7-16.7,0-15-12.2-27.2-27.2-27.2ZM56.2,78.1c0,.1-.2.2-.6.2-.4,0-.7,0-1.1,0-7.9,0-15.6-4.1-20-10.7-4.4-6.5-5.2-15-2.2-22.2,2.6-6.5,8-11.6,14.7-13.8,2.5-.8,5.2-1.2,7.9-1.1,1.4,0,2.8.2,4.1.4.5,0,3.4.4,3.5.9v18.9c-.5,5.7-5.8,11.8-6.4,17.3-.3,3.2.2,6.9,0,10.1ZM73.9,68.5c-.5.7-1.1,1.4-1.7,2.1,0,0-.2.2-.3.3,0,0,0,0,0,0-2.8,2.9-6.2,5.1-10.1,6.3-.8.2-1.6.4-2.4.6v-9.7c0-.4.6-2.2.8-2.7,1.4-3.6,5.5-10.6,5.5-14.2v-18.1c12.8,6.9,16.7,23.4,8.2,35.3Z"/>
</svg>