<svg id="Capa_1" xmlns="http://www.w3.org/2000/svg" version="1.1" viewBox="0 0 96 96">
  <defs>
    <style>
      .st0 {
        fill: #059669;
      }
    </style>
  </defs>
  <path class="st0" d="M78,38.6c1.9-4.7,1.2-10.4-1.9-13.5-1.3-1.3-3.9-3.1-8-2.1.4-1.6,1-3.2,1.5-4.8.7-2.1,1.4-4.2,1.9-6.3.3-1.5.4-2.9.2-4.2C71.1,3.4,67.5,0,63,0s-6.1,1.8-7.6,4.4c0,0,0,.2-.2.3-.6,1-1,2.2-1.4,3.3-1,2.9-1.8,5.2-5.5,5.3-4.1.2-5-2.1-6.2-5.2C40.9,5.1,38.6,0,32.9,0,29.9,0,27.2,1.9,25.6,4.2c-1,1.3-1.6,3-1.6,4.7,0,.5.1,1.9.3,2.7l3.3,11.3c-1.4-.4-2.8-.3-4.3,0-2.4.6-4.2,2.1-5.3,4.5-1.5,3.1-1.5,7.6-.1,11.1-6.3,8.1-6.3,19.4,0,27.3-1.7,4.5-1.3,9.2,1.1,13.2,1.8,2.9,4.4,4.9,7.3,5.5,2.5.5,4.9-.2,7.2-1.8-.2.3-.3.7-.4,1.1-.2,1.7-.2,6.7,0,8.3.3,2,1.9,3.6,4,3.8h21.7c2-.2,3.7-1.8,4-4,.2-1.6.3-7.6-.4-9.2h0c2.6,1.9,5.6,2.4,8.4,1.4,3.5-1.1,6.3-4.3,7.5-8.2,1-3.4.9-6.7-.4-10,6.3-7.7,6.3-19.2,0-27.3h.1ZM30,5.8c.8-.6,2.8-1.8,5.4-.4,1.7.9,2.2,2.5,2.8,4.3.4,1.2.8,2.5,1.6,3.7.2.3.4.6.7.9,1.9,2.2,4.7,3.4,7.7,3.3,3,0,5.7-1.5,7.5-3.7.2-.3.5-.6.6-.9.7-1.1,1-2.2,1.3-3.3.5-1.7.9-3.1,2.5-4,1.7-1,3.6-1.1,5.2,0,1.6,1,2.5,2.7,2.3,4.6l-2.2,7.3-4.5,15h-26c-.6-2-2.2-7.3-3.4-10.9-.4-1.2-.8-2.3-1.1-3.3-1.1-3.6-2.2-5.9-2.2-8.5s1.8-4.1,1.8-4.1ZM60.1,36.5c-.2,2.2-.5,4.5-2,6s-1.8,1-3.1,1.2h-.4c-4.2.8-10.8.9-15.2-.3-2.5-.7-3.2-3.6-3.5-6.9h24.2ZM58.6,92h-20.8c-1,0-.7-7.8-.5-7.8h21.2c.2.4.5,6.7,0,7.8h0ZM37.3,74c0-.6.5-1.4,1.8-1.5,5.3-.6,12.5-.6,17.8,0,1.1,0,1.7.7,1.9,1.7.2,1.1,0,4.1,0,5.2,0,0,0,.3,0,.5-.2,0-.4,0-.5,0h-20.5c-.3,0-.3-.3-.3-.5-.2-.9,0-4.7,0-5.5h-.1ZM74.9,63.2c-.5.6-.9,1.2-1.3,1.9l-.2.4.2.5c1,2.3,1.6,4.3,1.3,6.7-.3,3-2.2,6-4.5,7.2-1.7.8-3.3.7-5-.3-2-1.2-2.2-2.6-2.4-4.7,0-.5,0-1-.2-1.6h.2c1.6.4,3.5.8,4.2-.7.3-.7.4-1.3,0-1.8-.4-.9-1.4-1.1-1.8-1.3-1.2-.3-2.4-.4-3.5-.6-.7,0-1.4,0-2.1-.3,1.2-.7,2.3-1.7,2-3.1-.2-.9-.8-1.3-1.2-1.4-1.2-.4-2.5.6-3.5,1.3-.2.2-.4.3-.5.3-4.7,2.7-11.7,2.8-16.6.3-.2,0-.5-.3-.8-.5-1.1-.8-2.4-1.7-3.6-1.4-.5.2-1,.5-1.2,1.1-.7,1.5.7,2.6,1.9,3.4-.7,0-1.4.2-2.2.3-1.2,0-2.5.2-3.7.6-1,.3-1.4.8-1.6,1.2-.2.4-.3,1,0,1.8.7,1.4,2.5,1,4.2.6h.2c0,.4,0,.7-.2,1.1,0,.4,0,.7,0,.9h0c-.2,2.5-1.5,4.3-3.6,4.9-2.2.7-4.6,0-6.2-2.1-2.7-3.3-3.1-7.8-1-12.1l.3-.6-.5-.6c-1.8-2.4-3.3-4.5-4.1-7.3-1.8-6.2-.4-12.4,4.1-17.7l.3-.4v-.5c-.3-.6-.5-1.1-.7-1.5s-.3-.7-.4-1.1c-.8-2.6-.6-6.1,1-8,.8-.9,1.8-1.3,3.1-1.3s.5,0,.8,0c3.8.4,4.6,6,5.3,10.4.2,1.2.4,2.4.6,3.3,0,.2,0,.3,0,.5-1.1-.5-2.3-.9-3.2-.2-.8.7-.8,1.4-.8,1.7.2,1.2,1.5,1.9,2.8,2.5h.1c1.2.6,2.4,1,3.6,1.4.8.2,1.5.5,2.2.7-3.1,1.7-3,2.9-2.9,3.4v.2c.4.9,1,1.2,1.4,1.4,1.2.4,2.5-.5,3.5-1.3.3-.2.7-.5.9-.6,4.6-2.4,11.1-2.4,15.8,0,.3.2.9.6,1.4.9.9.6,1.4,1,1.9,1.2.6.2,1.4,0,1.9-.4.6-.5.9-1.2.8-1.9,0-1-1.3-1.8-3-2.8.5-.2,1-.3,1.5-.5,1.2-.4,2.4-.8,3.6-1.3h.2c1.5-.7,3.2-1.5,3.4-2.8,0-.4,0-1-.6-1.7-1-.9-2.2-.5-3.2,0,0-.2,0-.3,0-.5.2-.9.4-2,.5-3.1.2-1.1.3-2.1.5-3.1.6,1.5,2.7,3.1,4.3,3.3h.4c1.7,0,4-1.2,4.9-2.6.5-.8.5-1.8,0-2.5s-1-.8-1.4-.9c-1,0-1.7.7-2.3,1.3-.2.2-.4.4-.5.5-.6.2-.8,0-1.4-.6-.4-.5-1.1-1.3-2.2-1.1-.5,0-.9.3-1.2.5.9-3.3,2.4-5.5,5.5-5.2,1.3.1,2.3.7,3,1.7,1.4,2,1.3,5.4.7,7.6,0,.3-.2.6-.4,1-.2.5-.5,1.1-.6,1.7v.4c0,.6.6,1.3,1.4,2.3.2.3.5.6.6.8,4,6.2,4,13.8,0,19.8-.2.4-.5.7-.8,1.1h.1Z"/>
  <path class="st0" d="M55.4,55.6c-1.6-1-3,.7-3.9,1.7-.3.3-.5.6-.7.8-2.3,1.9-4.4,1.5-6.9-1.2,0,0,0-.2-.2-.3,0-.3-.3-.5-.5-.8-.8-.6-1.9-.7-2.7-.2s-1.1,1.4-.8,2.4,2.6,3.1,2.9,3.3c1.6,1.3,3.4,1.9,5.3,1.9s3.2-.5,4.7-1.4c0,0,3.8-2.6,3.7-4.8,0-.6-.3-1.2-.9-1.5h0Z"/>
  <path class="st0" d="M33.6,52.9c-1.3-.8-2.5.6-3.2,1.4-.2.2-.4.5-.6.7-1.9,1.6-3.6,1.2-5.7-1,0,0,0-.2-.2-.2,0-.2-.2-.4-.4-.7-.7-.5-1.6-.6-2.2-.2s-.9,1.2-.7,2,2.2,2.6,2.4,2.7c1.3,1.1,2.8,1.6,4.4,1.6s2.7-.4,3.9-1.2c0,0,3.2-2.2,3.1-4,0-.5-.2-1-.7-1.2h0Z"/>
  <path class="st0" d="M74.4,57.4c-1.3-.8-2.5.6-3.2,1.4-.2.2-.4.5-.6.7-1.9,1.6-3.6,1.2-5.7-1,0,0,0-.2-.2-.2,0-.2-.2-.4-.4-.7-.7-.5-1.6-.6-2.2-.2s-.9,1.2-.7,2,2.2,2.6,2.4,2.7c1.3,1.1,2.8,1.6,4.4,1.6s2.7-.4,3.9-1.2c0,0,3.2-2.2,3.1-4,0-.5-.2-1-.7-1.2h0Z"/>
</svg>