<?xml version="1.0" encoding="UTF-8"?>
<svg id="Capa_1" xmlns="http://www.w3.org/2000/svg" version="1.1" viewBox="0 0 96 96">
  <!-- Generator: Adobe Illustrator 29.1.0, SVG Export Plug-In . SVG Version: 2.1.0 Build 142)  -->
  <defs>
    <style>
      .st0 {
        fill: #fff;
        stroke: #000;
        stroke-miterlimit: 10;
        stroke-width: 4.5px;
      }

      .st1 {
        fill: #059669;
      }
    </style>
  </defs>
  <path class="st0" d="M137.7,95.2"/>
  <path class="st1" d="M89.6,29.4c-2.2-3.1-8.1-11.4-16.5-11.5-3.8,0-6.6,1.5-8.8,2.7-2,1.1-3,1.6-3.7,1.2-1.2-.6-1.7-3.9-2.2-7.7-.8-5.7-.7-8.3-.3-11.4.2-1.2-.7-2.4-1.9-2.5-1.2-.2-2.4.7-2.5,1.9-.5,3.4-.6,6.4.3,12.6.8,5.4,1.3,9.4,4.6,11.1,2.9,1.5,5.6,0,7.9-1.3,2-1.1,4-2.2,6.6-2.2,6.1,0,11,7,12.9,9.6,5.4,7.6,5.7,16.1,5.5,21-.9-.4-1.7-.5-2.6-.6h0c-2,0-3.3.9-4.3,1.5-.8.5-1.3.8-2,.9-.7,0-1-.2-1.8-.7-1-.7-2.3-1.6-4.5-1.6-2.3,0-3.7.9-4.8,1.5-.8.5-1.3.8-2.2.8-.9,0-1.3-.3-2-.8-.9-.7-2.2-1.5-4.4-1.6h0c-2.1,0-3.5.8-4.6,1.4-.9.5-1.5.9-2.5.9-.8,0-1.6-.2-2.4-.5,2-4.9,1-10.1.2-14.4-.6-3.4-1.4-5.1-2.2-7-.8-1.7-1.6-3.7-2.7-7.7-.9-3.2-2.1-7.7-2.3-13.6-.1-4.6,0-6.1.6-8.7.3-1.2-.5-2.4-1.7-2.7-1.2-.3-2.4.5-2.7,1.7-.6,2.9-.8,4.8-.7,9.8.2,6.4,1.5,11.3,2.4,14.6,1.2,4.3,2.2,6.5,3,8.3.8,1.8,1.4,3.2,1.9,6,.9,4.6,1.7,9.3-.7,13.3-2.3,3.8-6.5,5.1-9.3,6.1-4.3,1.4-7.2,1.1-10.2.7-3.1-.4-6.3-.8-10.8,1-7.6,2.9-11.7,9.2-13,11.3C1.3,78.8.3,84.6,0,88.4c0,1.2.9,2.3,2.1,2.4,0,0,0,0,.1,0,1.2,0,2.2-.9,2.2-2.1.2-3.3,1-8.2,4.2-13.2,1.3-2,4.6-7.2,10.9-9.6,3.4-1.3,5.8-1,8.7-.7,3.2.4,6.8.8,12.1-.9,2.8-.9,7.2-2.4,10.4-6.2,1.5.8,3,1.1,4.5,1.1s.3,0,.4,0c2.1,0,3.4-.9,4.5-1.5,1-.6,1.5-.8,2.3-.8h0c.8,0,1.2.3,1.9.8.9.6,2.2,1.5,4.4,1.6,2.3,0,3.7-.9,4.8-1.5.8-.5,1.3-.8,2.2-.8.9,0,1.3.3,2.1.8,1,.7,2.3,1.6,4.6,1.5,2,0,3.3-1,4.3-1.6.8-.5,1.2-.8,1.8-.8h0c.7,0,1.5.3,2.2,1-1.3,9.2-5,16.9-11.2,22.8-10.2,9.9-22.9,10.7-27.8,10.6-15.3-.3-21.5-4.8-23.9-8.6-.2-.3-.4-.7-.7-1.1-1.2-2-2.9-4.8-6-5.2-4.4-.6-8.2,3.7-9.7,6.4-2.1,3.8-1.9,7.6-1.6,9.5.2,1.2,1.4,2.1,2.6,1.9,1.2-.2,2.1-1.4,1.9-2.6-.2-1.4-.4-4,1.1-6.6,1.2-2.2,3.6-4.4,5.2-4.2,1,.1,1.9,1.7,2.7,3,.3.4.5.8.8,1.2,4.4,6.7,13.7,10.3,27.6,10.6.3,0,.5,0,.8,0,6,0,19.3-1.3,30.2-11.9,7.1-6.9,11.4-15.8,12.7-26.5,0-.1,0-.3,0-.4,0-.2,0-.5,0-.7.4-4,1.6-16.2-6.1-27Z"/>
  <circle class="st1" cx="70.5" cy="64.2" r="2.3"/>
  <circle class="st1" cx="79.8" cy="72.5" r="2.3"/>
  <circle class="st1" cx="64.2" cy="79.9" r="2.3"/>
  <circle class="st1" cx="48.9" cy="68.5" r="2.3"/>
  <circle class="st1" cx="51.6" cy="84.8" r="2.3"/>
  <circle class="st1" cx="38.2" cy="76.9" r="2.3"/>
</svg>