<?xml version="1.0" encoding="UTF-8"?>
<svg id="Capa_1" xmlns="http://www.w3.org/2000/svg" version="1.1" viewBox="0 0 96 96">
  <!-- Generator: Adobe Illustrator 29.1.0, SVG Export Plug-In . SVG Version: 2.1.0 Build 142)  -->
  <defs>
    <style>
      .st0 {
        fill: #059669;
      }
    </style>
  </defs>
  <path class="st0" d="M53.8,0c-6.2,0-11.3,5.2-11.3,11.6s5.1,11.6,11.3,11.6,11.3-5.2,11.3-11.6S60,0,53.8,0ZM53.8,18.6c-3.8,0-6.8-3.1-6.8-7s3.1-7,6.8-7,6.8,3.1,6.8,7-3.1,7-6.8,7Z"/>
  <path class="st0" d="M45.8,90.8c-.3.3-.8.7-1.3.8.2,0,.4,0,.6,0,0,0,.2,0,.2,0,.5-.1.8-.4,1.2-.7s.2-.3.3-.4c0,0,.1-.2.2-.2,0,0,0-.2.1-.3,0,0,0,0,0,0,0-.2.2-.3.2-.5,0-.1,0-.2.1-.3.2-.7.4-1.6.5-2.5,0-.3,0-.7,0-1-.1,1.9-1,4.1-2.2,5.3ZM42.8,85.4s0,0,0-.1c0,.1,0,.2,0,.3,0,.3,0,.6,0,.9,0,0,0,0,0,.1,0,.2,0,.4,0,.6.1,1.5.3,2.4.5,3.1,0,.2.1.4.2.5.2.5.5.6.8.6h0s-1.3-.4-1.6-6.1ZM42.8,85.4s0,0,0-.1c0,.1,0,.2,0,.3,0,.3,0,.6,0,.9,0,0,0,0,0,.1,0,.2,0,.4,0,.6.1,1.5.3,2.4.5,3.1,0,.2.1.4.2.5.2.5.5.6.8.6h0s-1.3-.4-1.6-6.1ZM45.8,90.8c-.3.3-.8.7-1.3.8.2,0,.4,0,.6,0,0,0,.2,0,.2,0,.5-.1.8-.4,1.2-.7s.2-.3.3-.4c0,0,.1-.2.2-.2,0,0,0-.2.1-.3,0,0,0,0,0,0,0-.2.2-.3.2-.5,0-.1,0-.2.1-.3.2-.7.4-1.6.5-2.5,0-.3,0-.7,0-1-.1,1.9-1,4.1-2.2,5.3Z"/>
  <g>
    <path class="st0" d="M44.2,96.2c-5.3-.1-5.8-6.8-5.9-10.3.1,3.4.9,10.1,5.9,10.3Z"/>
    <path class="st0" d="M42.8,85.6c0-.1,0-.2,0-.3,0,0,0,0,0,.1v.2Z"/>
    <path class="st0" d="M43.6,90.9c0-.1-.1-.3-.2-.5,0,.2.1.4.2.5Z"/>
    <path class="st0" d="M52.6,85.2c0,2.7-.5,6.4-2.8,8.8-1.4,1.4-3.2,2.2-5.2,2.2,1.6,0,3.2-.8,4.5-2.1,2.1-2.1,3.5-5.7,3.5-8.8Z"/>
  </g>
  <path class="st0" d="M79.6,76c-1.8-6.1-3.3-14.3-5.5-18.6s-1.7-2.1-2.5-2.8c.2-2.8-.8-5.7-2.6-7.5-1.4-1.4-2.9-1.8-4.2-2.1-1-.2-2.1-.5-3.5-1.3-1.9-1-3.1-2.2-4.2-3.2-2.4-2.3-3.6-4.1-4.8-5.7-.2-.2-.3-.5-.5-.7,1.1-4.1,1.5-6.2.5-7.9-2.2-3.6-5.4-5.4-9.9-5.5-8.2-.2-13.5,7.6-15.8,10.9-6.8,10-6.1,21.1-5.9,24.8.3,4.7,1.3,9.4,3.1,13.8l-9.5,10.1c-2.6,2.7-2.5,8.3-.6,10.9,2.9,4,9,1.2,11.5,0,2.7-1.1,9.3-4.6,12.4-12.5.1-.3.2-.5.3-.8.2,2.2.4,4.4.4,6.8h0c0,0,0,.5,0,.5,0,.2,0,.4,0,.7.1,3.3.8,9.7,5.4,10.2.2,0,.3,0,.5,0,0,0,0,0,.1,0s0,0,.1,0c1.6,0,3.2-.8,4.5-2.1,2.1-2.1,3.5-5.7,3.5-8.8v-.2c0-4,0-13.2,0-13.4,0-2.1-.5-4.1-1.6-5.8l-2.5-4.1c.5-2,.9-5.2,1-7.7,1.8,1.4,3.9,2.7,6,3.7-.8,1.2-1.3,2.6-1.5,4.1-.7,4.2.8,6.5,1.9,8.2.1.2.2.4.4.6l3.8-2.4c-.1-.2-.3-.4-.4-.7-.9-1.4-1.6-2.5-1.2-5,.2-1,.6-2.1,1.3-3.1,2.1.7,4.2,1.1,5.9,1.1s1.4,0,2-.2c.9-.2,1.6-.6,2.2-1.1.8,1.2,3.8,12.2,5.5,18.1,1.7,6.1,3.6,12.3,5.4,18.2l4.2-1.3c-1.8-5.9-3.6-12.2-5.4-18.2ZM48.1,85h0c0,.2,0,.3,0,.5,0,.3,0,.7,0,1,0,1-.2,1.8-.5,2.6,0,0,0,.2-.1.3,0,.2-.1.4-.2.5,0,0,0,0,0,0,0,0,0,.2-.1.2,0,0,0,.2-.2.2,0,.1-.2.3-.3.4-.3.3-.7.6-1.2.7,0,0-.2,0-.2,0-.2,0-.4,0-.6,0,0,0-.1,0-.2,0h0c-.2,0-.5-.2-.8-.6,0-.1-.1-.3-.2-.5-.2-.7-.4-1.6-.5-3.1,0-.2,0-.4,0-.6,0,0,0,0,0-.1,0-.3,0-.6,0-.9,0,0,0-.2,0-.3v-.7c0-3-.3-5.5-.5-8.2-.1-1.4-.2-2.8-.3-4.3,0-.4-.2-.9-.4-1.2l-3-4.1c-.4-.6-1.1-.9-1.8-.9s-.6,0-.8.2c-.9.4-1.5,1.4-1.4,2.4.3,2.9,0,5.9-1,8.5-2.4,6.2-7.7,9-10,10-5.3,2.5-6,1.5-6.1,1.5-.7-1-.7-4,.2-5l10.6-11.2c.6-.7.8-1.7.4-2.5-1.9-4.4-3-9-3.3-13.7-.2-3.3-.8-13.2,5.1-21.8,1.8-2.7,6.1-8.9,11.8-8.9s.1,0,.2,0c2.9,0,4.7,1,6,3.1,0,.3,0,.9-.2,1.6-.4-.3-.9-.7-1.4-1.1l-.2-.2c-2-1.4-5-3.6-8.1-1.5-2.8,1.9-3.4,6.1-1.7,11.8h0c1.6,5.7,4.4,8,7.5,10.4.1,0,.3.2.4.3.1.8.2,1.7.5,2.5.3,1.3-.4,7.1-.8,8.5-.4.7-.4,1.6,0,2.4l3,5c.6,1,.9,2.2.9,3.4,0,.4-.1,9.4,0,13.4ZM66.9,55.8c-.8.7-4.2.1-8.1-1.6-2.7-1.2-5.7-3-8.2-5.3-.5-.5-1-.9-1.5-1.4-.7-.6-1.4-1.2-2-1.7-.8-.6-1.5-1.2-2.2-1.8h0c-1.7-1.5-2.9-3.1-3.8-6.1v-.2c-1.2-3.9-.9-6.2-.1-6.7.1,0,.2-.1.4-.1.6,0,1.4.5,2.8,1.5l.2.2c1.1.8,1.9,1.6,2.6,2.4.6.8,1.2,1.5,1.8,2.4.5.7,1,1.4,1.6,2.2.2.2.3.4.5.6.8,1,1.9,2.2,3.2,3.5,1.2,1.1,2.7,2.7,5.2,4,1.9,1,3.4,1.4,4.5,1.6,1.2.3,1.7.4,2.2,1,.5.5.9,1.2,1.1,2.1.3,1.1.3,2.3,0,3.3Z"/>
</svg>