<svg id="Capa_2" xmlns="http://www.w3.org/2000/svg" version="1.1" viewBox="0 0 96 96">
  <defs>
    <style>
      .st0 {
        fill: #059669;
      }
    </style>
  </defs>
  <path class="st0" d="M96,18c0-4.7-1.7-9-4.9-12.3C87.6,2.1,82.7,0,78,.1c-3.5,0-5.8,1.4-9.3,3.4-1.1.6-2.3,1.3-3.7,2.1-2-1.7-4.2-3.1-6.7-4.1-3.3-1.3-6.8-1.8-10.3-1.5-3.5-.3-7.1.2-10.3,1.5-2.4,1-4.7,2.3-6.7,4.1-1.4-.8-2.6-1.5-3.7-2.1C23.9,1.5,21.6.2,18.1.1,13.3,0,8.4,2.1,5,5.7,1.8,9,0,13.3,0,18s2.5,11.8,4,13.5c.2.2.4.3.6.4-.2,1.5-.1,2.9.4,4.4,1.3,4,5.2,6.5,9.5,6.5s2.7-.2,4-.7c2.1-.8,3.9-2.1,5.2-3.8,1.1,0,2.2-.3,3.2-.6,1.1-.3,2.2-.8,3.2-1.3.6,1.3,1.2,2.5,1.7,3.6,1.3,2.6,2.5,4.9,2.9,8.4.3,2.7-.4,5.1-1.1,7.5-.6,1.9-1.1,3.7-1,5.5.3,6.2,2,13.6,3.8,20.8.7,2.8,1.4,5.7,1.9,8.4.5,2.2,2.1,4,4.1,4.6,3.8,1.1,7.4,1.1,11.2,0,2.1-.6,3.6-2.4,4.1-4.6.6-2.8,1.3-5.6,1.9-8.4,1.7-7.2,3.5-14.6,3.8-20.8,0-1.8-.5-3.6-1-5.5-.7-2.4-1.4-4.8-1.1-7.5.4-3.4,1.5-5.7,2.9-8.4.6-1.1,1.1-2.3,1.7-3.6,1,.5,2.1,1,3.2,1.3,1,.3,2.1.5,3.2.6,1.3,1.7,3.2,3,5.2,3.8,1.3.5,2.7.7,4,.7,4.3,0,8.1-2.5,9.5-6.5.5-1.4.6-2.9.4-4.4.2-.1.4-.2.6-.4,1.6-1.8,4-7,4-13.5ZM39.2,5.7c2.5-1,5.1-1.4,7.7-1.3.4,0,.7,0,1.1,0,.4,0,.7,0,1.1,0,2.6-.1,5.3.3,7.7,1.3,1.4.5,2.6,1.2,3.8,2.1-3.8,1.7-7.9,2.8-12.2,3.3-.3,0-.6,0-.9,0-4.3-.5-8.4-1.7-12.3-3.3,1.2-.8,2.5-1.5,3.8-2.1ZM22.4,35.2c-1,1.8-2.7,3.3-4.8,4-4.2,1.5-8.6-.2-9.9-3.9-1.2-3.7,1.2-8,5.4-9.5,0,0,1.4-.6,2.9-.6s2.3.2,3.3.6c1.8.8,3.1,2.1,3.7,3.9.6,1.8.4,3.7-.6,5.5ZM20.3,23.1c-2.3-1-4.9-1.1-7.4-.3-.9,0-2.1-.2-3.1-1.1-1.2-1.1-1.4-2.5-1.5-3.4-.4-2.3.3-4.9,1.7-6.8,2.6-3.3,7.7-3.9,11-2.6,1.4.6,2.1,1.3,3.1,2.3,1,1.1,2.2,2.3,4.4,3.8,0,.2-.2.4-.2.5-1.3,5.9-1,9.8-.4,13-.3.3-.7.6-1.2.8-.3.1-.5.2-.8.2,0-.3-.2-.6-.3-.9-.9-2.6-2.8-4.6-5.4-5.7ZM26.2,34.8c-.2,0-.4.1-.6.2.3-.8.4-1.5.5-2.3.6,0,1.2-.2,1.7-.5.3-.1.6-.3.8-.4.2.6.3,1.2.5,1.8-.9.5-1.9.9-2.9,1.2ZM32.6,30.6c-.8-3.1-1.7-6.7-.5-13,1.6,1.2,2.4,2.1,2.6,3,.4,1.7.3,2.9,0,4.5-.3,2.4-.6,5.4,1.2,10.4.8,2.2,1.6,3.2,2.4,4.2.8,1,1.6,2,2.6,4.6,1.4,3.8,1.5,6.9,1.6,10.3.2,3.7,0,5.5-.1,6.4,0,0-.1-.2-.2-.2-.8-1-2.1-2.2-3.8-2.2-.5,0-1,.1-1.4.3.1-.6.3-1.1.5-1.7.8-2.5,1.7-5.7,1.3-9.3-.5-4.2-1.9-7.1-3.3-9.9-1.1-2.2-2.2-4.4-3-7.4ZM55.7,80.8c-2.5.7-5,1-7.5,1s-.1,0-.2,0c-2.6,0-5.1-.4-7.6-1.1-.4-1.8-.9-3.7-1.3-5.5,2.9.8,5.9,1.2,8.9,1.2,0,0,.2,0,.2,0,3,0,5.9-.4,8.7-1.1-.4,1.8-.8,3.7-1.3,5.5ZM52.5,90.9c-1.1.3-2.7.8-4.5.8-1.8,0-3.4-.5-4.5-.8-.6-.2-1-.7-1.1-1.3-.4-1.9-.8-3.8-1.3-5.6,2.2.5,4.5.8,6.8.8,0,0,.1,0,.2,0,2.3,0,4.5-.3,6.7-.8-.4,1.9-.9,3.7-1.3,5.6-.1.6-.6,1.1-1.1,1.3ZM63.4,30.6c-.8,3-1.9,5.3-3,7.4-1.4,2.8-2.8,5.7-3.3,9.9-.4,3.6.5,6.8,1.3,9.3.2.6.3,1.2.5,1.7-.5-.2-.9-.3-1.4-.3-1.8,0-3,1.3-3.8,2.2,0,0-.1.1-.2.2-.2-.9-.3-2.6-.1-6.4.1-3.3.3-6.5,1.6-10.3.9-2.6,1.7-3.6,2.6-4.6.8-1,1.6-2,2.4-4.2,1.8-5,1.4-8,1.2-10.4-.2-1.6-.3-2.9.1-4.5.2-.9,1-1.8,2.6-3,1.2,6.3.3,9.8-.5,13ZM69.8,34.8c-1-.3-2-.7-2.9-1.2.2-.6.4-1.2.5-1.8.2.2.5.3.8.4.6.2,1.1.4,1.7.5,0,.8.2,1.5.5,2.3-.2,0-.4,0-.6-.2ZM70.4,28.8c-.1.3-.2.6-.3.9-.3,0-.6-.1-.8-.2-.5-.2-.9-.5-1.2-.8.6-3.1.9-7.1-.4-13,0-.2-.1-.4-.2-.5,2.2-1.5,3.4-2.8,4.4-3.8,1-1.1,1.7-1.8,3.1-2.3,3.4-1.3,8.4-.8,11,2.6,1.4,1.8,2.1,4.4,1.7,6.8-.1.9-.4,2.4-1.6,3.4-1,.9-2.2,1.1-3.1,1.1-2.5-.7-5.1-.6-7.4.3-2.6,1.1-4.5,3.1-5.4,5.7ZM88.4,35.4c-1.2,3.7-5.7,5.4-9.9,3.9-2.1-.8-3.8-2.2-4.8-4-1-1.8-1.2-3.7-.6-5.5.6-1.8,1.9-3.1,3.7-3.9,1-.4,2-.6,3-.6s.9,0,1.3.1c.8,0,1.7.4,1.8.5,4.2,1.5,6.6,5.8,5.4,9.5ZM89.6,27.4c-.7-1-1.5-1.9-2.6-2.7.4-.2.7-.5,1-.8,2-1.8,2.3-4.1,2.5-5.2.5-3.2-.4-6.7-2.3-9.2-3.6-4.5-10-5.1-14.2-3.4-2,.8-2.9,1.8-4.1,3-1.1,1.2-2.4,2.6-5.2,4.3-3.5,2.2-5.6,3.9-6.2,6.4-.5,2.2-.4,3.9-.2,5.6.2,2.3.5,4.7-1,9-.6,1.7-1.2,2.4-1.9,3.3-.9,1.1-2,2.4-3.1,5.5-1.5,4.2-1.7,7.8-1.8,11.2-.3,5.9,0,9.2,2.2,9.9,1.4.4,2.4-.7,3.1-1.5.5-.6,1.1-1.3,1.7-1.3h0c.2,0,.8.2,1.7,1.4-.2,2.8-.8,5.8-1.4,9-3.1,1-6.4,1.5-9.7,1.4-3.3,0-6.5-.6-9.7-1.6-.6-3.1-1.2-6.1-1.4-8.8.9-1.3,1.5-1.4,1.7-1.4h0c.5,0,1.1.7,1.7,1.3.7.8,1.7,2,3.1,1.5,2.2-.7,2.4-4,2.2-9.9-.2-3.4-.3-6.9-1.8-11.2-1.1-3.1-2.2-4.4-3.1-5.5-.7-.9-1.3-1.6-1.9-3.3-1.5-4.3-1.3-6.7-1-9,.2-1.7.4-3.4-.2-5.6-.6-2.4-2.7-4.2-6.2-6.4-2.8-1.7-4.1-3.1-5.2-4.3-1.2-1.2-2.1-2.3-4.1-3-4.2-1.7-10.7-1.1-14.2,3.4-2,2.5-2.9,6-2.3,9.2.2,1.1.6,3.5,2.5,5.2.3.3.7.5,1,.8-1,.8-1.9,1.7-2.6,2.7-.9-1.7-2.2-5.2-2.2-9.4s2-7.4,3.7-9.2c2.7-2.8,6.5-4.4,10.1-4.3,2.5,0,4.1,1,7.3,2.9,1.4.8,3,1.8,5.1,2.8,4.5,2.4,9.4,4,14.5,4.9.8.1,1.7.3,2.6.4.4,0,.8,0,1.2,0,.9-.1,1.7-.2,2.6-.4,5.1-.9,10-2.5,14.5-4.9,2-1.1,3.6-2,5-2.8,3.2-1.9,4.8-2.8,7.3-2.9,3.6,0,7.4,1.6,10.1,4.3,1.7,1.7,3.7,4.7,3.7,9.2s-1.3,7.7-2.2,9.4Z"/>
</svg>