<?xml version="1.0" encoding="UTF-8"?>
<svg id="Capa_1" xmlns="http://www.w3.org/2000/svg" version="1.1" viewBox="0 0 96 96">
  <!-- Generator: Adobe Illustrator 29.1.0, SVG Export Plug-In . SVG Version: 2.1.0 Build 142)  -->
  <defs>
    <style>
      .st0 {
        fill: #059669;
      }

      .st1 {
        fill: none;
        stroke: #059669;
        stroke-miterlimit: 10;
        stroke-width: 3px;
      }
    </style>
  </defs>
  <path class="st0" d="M72.2,29.9c-2.2,0-4,1.8-4,4v.2h-2c-.6-3.7-2-7.2-4-10.3l1.8-1.8h.1c1.6,1.7,4.1,1.7,5.7.1s1.6-4.1,0-5.7l-7.7-7.6c-1.6-1.6-4.1-1.6-5.7,0s-1.5,4.1,0,5.6h.1c0,.1-1.6,1.7-1.6,1.7-3.2-2.3-7-4-11.1-4.7v-2.2h.2c2.2,0,4-1.8,4-4s-1.8-4-4-4h-10.8c-2.2,0-4,1.8-4,4s1.8,4,4,4h.2v2.3c-4.1.8-7.9,2.6-11.2,5l-2-2h.1c1.6-1.7,1.6-4.2,0-5.8-1.6-1.6-4.1-1.6-5.7,0l-7.7,7.6c-1.6,1.6-1.6,4.1,0,5.7,1.6,1.6,4.1,1.6,5.7,0h.1c0-.1,2.3,2.2,2.3,2.2-1.8,3-3.1,6.3-3.6,9.8h-3.6v-.2c0-2.2-1.8-4-4-4s-4,1.8-4,4v10.8c0,2.2,1.8,4,4,4s4-1.8,4-4v-.2h3.9c.8,3.6,2.3,7,4.3,9.9,0,0,0,0,0,0l-3.3,3.2h-.1c-1.6-1.7-4.1-1.7-5.7-.1-1.6,1.6-1.6,4.1,0,5.7l7.7,7.6c1.6,1.6,4.1,1.6,5.7,0,1.6-1.6,1.6-4.1,0-5.6h-.1c0-.1,3.3-3.5,3.3-3.5,2.9,1.9,6.1,3.3,9.7,4v3.3h-.2c-2.2,0-4,1.8-4,4s1.8,4,4,4h10.8c2.2,0,4-1.8,4-4s-1.8-4-4-4h-.2v-3.2c3.1-.5,6.1-1.6,8.7-3.2l2.4,2.4h-.1c-1.6,1.7-1.6,4.2,0,5.8,1.6,1.6,4.1,1.6,5.7,0l7.7-7.6c1.6-1.6,1.6-4.1,0-5.7s-4.1-1.6-5.7,0h-.1c0,.1-1.8-1.7-1.8-1.7,2.6-3.3,4.5-7.1,5.4-11.4h2.3v.2c0,2.2,1.8,4,4,4s4-1.8,4-4v-10.8c0-2.2-1.8-4-4-4ZM73.7,43.2c0,.8-.6,1.4-1.4,1.4s-.4,0-.6-.1c-.5-.2-.9-.7-.9-1.3v-3.1h-8.7c0,1.5-.3,3-.7,4.5-.8,3-2.2,5.8-4,8.2-.9,1.2-1.9,2.3-3,3.3l3.1,3.2,3.5,3.5,2.2-2.2c.4-.4,1-.5,1.6-.3.2,0,.3.2.5.3.6.6.6,1.5,0,2l-5.5,5.5c-.6.6-1.5.6-2,0-.1-.1-.3-.3-.3-.5-.2-.5,0-1.1.3-1.5l2.2-2.2-3.6-3.6-3.2-3.2c-1.2.9-2.5,1.8-3.9,2.4-1.7.9-3.5,1.5-5.5,1.9-1.4.3-2.9.5-4.5.5v9.8h3.1c.6,0,1.1.4,1.3.9,0,.2.1.4.1.6,0,.8-.6,1.4-1.4,1.4h-7.8c-.8,0-1.4-.6-1.4-1.4s0-.4.1-.6c.2-.5.7-.9,1.3-.9h3.1v-9.8c-1.5,0-3-.3-4.5-.6-2.3-.6-4.5-1.5-6.4-2.7-1.3-.8-2.5-1.7-3.6-2.7l-3.2,3.2-4.8,4.8,2.2,2.2c.4.4.5,1,.3,1.6,0,.2-.2.3-.3.5-.6.6-1.5.6-2,0l-5.5-5.5c-.5-.5-.6-1.5,0-2,.2-.1.3-.3.5-.3.5-.2,1.1,0,1.5.3l2.2,2.2,4.8-4.8,3.2-3.1c-1-1-1.9-2.2-2.7-3.4-1.4-2.1-2.4-4.4-3-6.8-.4-1.4-.6-2.9-.7-4.5H5.4v3.1c0,.6-.4,1.1-.9,1.3-.2,0-.4.1-.6.1-.8,0-1.4-.6-1.4-1.4v-7.8c0-.8.6-1.4,1.4-1.4s.4,0,.6.1c.5.2.9.7.9,1.3v3.1h10.3c0-1.5.2-3,.5-4.5.5-2.3,1.3-4.5,2.4-6.5.7-1.3,1.6-2.6,2.5-3.7l-3.2-3.2-3.6-3.6-2.2,2.2c-.4.4-1,.5-1.6.3-.2,0-.3-.2-.5-.3-.6-.6-.6-1.5,0-2l5.5-5.5c.5-.5,1.5-.6,2,0,.2.1.3.3.3.5.2.5,0,1.1-.3,1.5l-2.2,2.2,3.6,3.6,3.2,3.1c1-1.1,2.1-2.1,3.4-2.9,2.4-1.7,5.1-2.9,8-3.6,1.4-.3,2.9-.6,4.5-.6V6.7h-3.1c-.6,0-1.1-.4-1.3-.9,0-.2-.1-.4-.1-.6,0-.8.6-1.4,1.4-1.4h7.8c.8,0,1.4.6,1.4,1.4s0,.4-.1.6c-.2.5-.7.9-1.3.9h-3.1v8.8c1.5,0,3,.2,4.5.5,2.9.6,5.5,1.8,7.9,3.4,1.2.8,2.4,1.8,3.5,2.8l3.1-3.2,3.2-3.1-2.2-2.2c-.4-.4-.5-1-.3-1.6,0-.2.2-.3.3-.5.6-.6,1.5-.6,2,0l5.5,5.5c.6.6.6,1.5,0,2-.1.1-.3.3-.5.3-.5.2-1.1,0-1.5-.3l-2.2-2.2-3.2,3.2-3.1,3.2c1,1.1,1.9,2.3,2.6,3.7h0c1.3,2.2,2.2,4.6,2.7,7.1.3,1.4.4,2.9.5,4.5h8.7v-3.1c0-.6.4-1.1.9-1.3.2,0,.4-.1.6-.1.8,0,1.4.6,1.4,1.4v7.8Z"/>
  <path class="st0" d="M92.9,75.9c-.9,0-1.6.7-1.6,1.6h0c0,0-.8,0-.8,0-.2-1.5-.8-2.9-1.6-4.1l.7-.7h0c.6.7,1.6.7,2.3,0,.6-.6.6-1.6,0-2.3l-3.1-3.1c-.6-.6-1.7-.6-2.3,0-.6.6-.6,1.6,0,2.3h0c0,0-.6.7-.6.7-1.3-.9-2.8-1.6-4.4-1.9v-.9h0c.9,0,1.6-.7,1.6-1.6s-.7-1.6-1.6-1.6h-4.3c-.9,0-1.6.7-1.6,1.6s.7,1.6,1.6,1.6h0v.9c-1.7.3-3.2,1-4.5,2l-.8-.8h0c.6-.7.6-1.7,0-2.3-.6-.6-1.6-.6-2.3,0l-3.1,3.1c-.6.6-.6,1.6,0,2.3.6.6,1.6.6,2.3,0h0s.9.9.9.9c-.7,1.2-1.2,2.5-1.5,3.9h-1.5c0-1-.7-1.7-1.6-1.7s-1.6.7-1.6,1.6v4.3c0,.9.7,1.6,1.6,1.6s1.6-.7,1.6-1.6h0c0,0,1.5,0,1.5,0,.3,1.5.9,2.8,1.7,4,0,0,0,0,0,0l-1.3,1.3h0c-.6-.7-1.6-.7-2.3,0-.6.6-.6,1.6,0,2.3l3.1,3.1c.6.6,1.6.6,2.3,0,.6-.6.6-1.6,0-2.3h0c0,0,1.3-1.4,1.3-1.4,1.1.8,2.5,1.3,3.9,1.6v1.3h0c-.9,0-1.6.7-1.6,1.6s.7,1.6,1.6,1.6h4.3c.9,0,1.6-.7,1.6-1.6s-.7-1.6-1.6-1.6h0v-1.3c1.3-.2,2.4-.7,3.5-1.3l.9.9h0c-.6.7-.6,1.7,0,2.3.6.6,1.6.6,2.3,0l3.1-3.1c.6-.6.6-1.6,0-2.3s-1.6-.6-2.3,0h0s-.7-.7-.7-.7c1.1-1.3,1.8-2.9,2.2-4.6h.9c0,1,.7,1.7,1.6,1.7s1.6-.7,1.6-1.6v-4.3c0-.9-.7-1.6-1.6-1.6ZM79.2,88.2c-4.7,0-8.6-3.8-8.6-8.6s3.8-8.6,8.6-8.6,8.6,3.8,8.6,8.6-3.8,8.6-8.6,8.6Z"/>
  <circle class="st0" cx="78" cy="76.2" r="2.3"/>
  <circle class="st0" cx="81.2" cy="82" r="3.3"/>
  <path class="st0" d="M56.7,40.1c-.9,0-1.6.7-1.6,1.6h0c0,0-.8,0-.8,0-.2-1.5-.8-2.9-1.6-4.1l.7-.7h0c.6.7,1.6.7,2.3,0,.6-.6.6-1.6,0-2.3l-3.1-3.1c-.6-.6-1.7-.6-2.3,0-.6.6-.6,1.6,0,2.3h0c0,0-.6.7-.6.7-1.3-.9-2.8-1.6-4.4-1.9v-.9h0c.9,0,1.6-.7,1.6-1.6s-.7-1.6-1.6-1.6h-4.3c-.9,0-1.6.7-1.6,1.6s.7,1.6,1.6,1.6h0v.9c-1.7.3-3.2,1-4.5,2l-.8-.8h0c.6-.7.6-1.7,0-2.3-.6-.6-1.6-.6-2.3,0l-3.1,3.1c-.6.6-.6,1.6,0,2.3.6.6,1.6.6,2.3,0h0s.9.9.9.9c-.7,1.2-1.2,2.5-1.5,3.9h-1.5c0-1-.7-1.7-1.6-1.7s-1.6.7-1.6,1.6v4.3c0,.9.7,1.6,1.6,1.6s1.6-.7,1.6-1.6h0c0,0,1.5,0,1.5,0,.3,1.5.9,2.8,1.7,4,0,0,0,0,0,0l-1.3,1.3h0c-.6-.7-1.6-.7-2.3,0-.6.6-.6,1.6,0,2.3l3.1,3.1c.6.6,1.6.6,2.3,0,.6-.6.6-1.6,0-2.3h0c0,0,1.3-1.4,1.3-1.4,1.1.8,2.5,1.3,3.9,1.6v1.3h0c-.9,0-1.6.7-1.6,1.6s.7,1.6,1.6,1.6h4.3c.9,0,1.6-.7,1.6-1.6s-.7-1.6-1.6-1.6h0v-1.3c1.3-.2,2.4-.7,3.5-1.3l.9.9h0c-.6.7-.6,1.7,0,2.3.6.6,1.6.6,2.3,0l3.1-3.1c.6-.6.6-1.6,0-2.3s-1.6-.6-2.3,0h0s-.7-.7-.7-.7c1.1-1.3,1.8-2.9,2.2-4.6h.9c0,1,.7,1.7,1.6,1.7s1.6-.7,1.6-1.6v-4.3c0-.9-.7-1.6-1.6-1.6ZM43,52.4c-4.7,0-8.6-3.8-8.6-8.6s3.8-8.6,8.6-8.6,8.6,3.8,8.6,8.6-3.8,8.6-8.6,8.6Z"/>
  <circle class="st0" cx="41.8" cy="40.3" r="2.3"/>
  <circle class="st0" cx="44.9" cy="46.1" r="3.3"/>
  <circle class="st1" cx="39.4" cy="22.1" r="4.3"/>
  <circle class="st0" cx="72.4" cy="7.3" r="4.7"/>
  <circle class="st1" cx="78.7" cy="22.1" r="4.3"/>
  <circle class="st1" cx="90.3" cy="51.3" r="4.3"/>
  <circle class="st1" cx="47.2" cy="89" r="4.3"/>
  <circle class="st0" cx="24.9" cy="81.2" r="5"/>
  <circle class="st1" cx="5.9" cy="71.3" r="4.3"/>
  <circle class="st1" cx="26.8" cy="26.9" r="4.3"/>
  <circle class="st1" cx="22" cy="38.9" r="4.3"/>
</svg>