<svg id="Capa_1" xmlns="http://www.w3.org/2000/svg" version="1.1" viewBox="0 0 96 96">
  <defs>
    <style>
      .st0 {
        fill: #059669;
      }
    </style>
  </defs>
  <path class="st0" d="M79.8,13.1c-.5-.6-11.7-13.5-29.3-13.1-14.4.3-26.7,9.1-32.5,17.8-1.8,2.7-3.7,6.6-2.6,9.5.1.3.3.6.5,1,.6,1.1,1.3,2.6,1,4.2-.1.5-.3,1-.7,1.6l-7.5,12.4c-.8,1.4-.9,3.1,0,4.5.8,1.4,2.3,2.3,3.9,2.3,0,.6.1,1.2.3,1.8.4,1.5,1.2,2.7,2,3.6-.7,1.3-.9,2.9-.5,4.4.3.8.7,1.5,1.2,2-1,1.2-1.6,2.7-1.6,4.3,0,3.2,2.3,6.1,5.7,7,.2,0,.4,0,.6,0h10.4c0-.1,0-.1,0-.1,1,.3,3.5,2.8,3.5,4.3v13c0,1.3,1,2.3,2.3,2.3h38.6c1.3,0,2.3-1,2.3-2.3v-28.9c5.8-5.8,11.2-15,11.3-27.6,0-12.7-6.7-21.6-8.8-24.1ZM73.6,62.1s0,0,0,0c0,0-.1.1-.2.2-3.1,2.9-6.1,4.4-7.5,4.9-1.2.4-1.9,1.7-1.5,2.9.3,1,1.2,1.6,2.2,1.6s.5,0,.7-.1c1.5-.5,3.4-1.5,5.4-2.9v22.7h-33.9v-10.7c0-1.7-.7-3.2-1.5-4.4h8.8c1.3-.1,2.3-1.2,2.3-2.4,0-1.3-1.1-2.2-2.3-2.3l-25.3.3c-1.2-.4-2-1.4-2-2.4s.3-1.2.9-1.7c.4-.4,1.2-1,2.5-.8,1.3,0,2.4-.8,2.5-2.1.1-1.3-.8-2.4-2.1-2.5-.9,0-1.8,0-2.7.2,0,0,0,0,0,0,0,0-.7-.2-.8-.7-.1-.4,0-1,.6-1.3.7-.4,1-1.2,1-2,0-.8-.4-1.5-1.1-1.9-.5-.3-1.6-1.1-2-2.6,0-.2,0-.4-.1-.6h3.2c1.3,0,2.3-1,2.3-2.3s-1-2.3-2.3-2.3h-7.6l7.3-12.1c.6-1,1-2,1.3-3.1.6-3.2-.7-5.8-1.5-7.2-.1-.2-.2-.4-.3-.5-.1-.3,0-2,2.1-5.3,5-7.4,16.1-15.5,28.8-15.8,15.4-.3,25.3,11,25.7,11.5,1.8,2.1,7.8,10,7.7,21.1,0,12.1-5.4,20.2-10.4,24.9Z"/>
  <path class="st0" d="M52,47.5v-21.6c0-.9-.7-1.6-1.6-1.6s-1.6.7-1.6,1.6v21.6c-2.4.7-4.1,2.9-4.1,5.4s2.5,5.7,5.7,5.7,5.7-2.5,5.7-5.7-1.7-4.8-4.1-5.4ZM50.4,55.4c-1.4,0-2.6-1.1-2.6-2.6s1.1-2.5,2.6-2.5,2.5,1.1,2.5,2.5-1.1,2.6-2.5,2.6Z"/>
  <path class="st0" d="M59.2,45.5v-22.2c0,0,0-.2,0-.2-.1-4.7-4-8.6-8.8-8.6s-8.3,3.4-8.7,7.8h-2.2c-.9,0-1.6.7-1.6,1.6s.7,1.6,1.6,1.6h2.2v2.7h-2.2c-.9,0-1.6.7-1.6,1.6s.7,1.6,1.6,1.6h2.2v2.7h-2.2c-.9,0-1.6.7-1.6,1.6s.7,1.6,1.6,1.6h2.2v2.7h-2.2c-.9,0-1.6.7-1.6,1.6s.7,1.6,1.6,1.6h2.2v2.6c-1.7,2-2.7,4.6-2.7,7.4,0,6.3,5.2,11.5,11.5,11.5s11.5-5.2,11.5-11.5-1-5.4-2.7-7.4ZM50.4,60c-3.9,0-7.1-3.2-7.1-7.1s.8-3.7,2.1-5t0,0c.4-.4.6-.9.6-1.5v-23c0-2.4,2-4.4,4.4-4.4s4.4,2,4.4,4.4v23c0,.3,0,.6.2.9,0,.1,0,.2.2.3,0,.1.2.3.3.4,0,0,0,0,0,0,1.3,1.3,2.1,3.1,2.1,5,0,3.9-3.2,7.1-7.1,7.1Z"/>
</svg>