<svg id="Capa_1" xmlns="http://www.w3.org/2000/svg" version="1.1" viewBox="0 0 96 96">
  <defs>
    <style>
      .st0 {
        fill: #059669;
      }
    </style>
  </defs>
  <path class="st0" d="M89.3,37.8c-4.7-5-12.3-8.4-18.5-8.2-3.4,0-6.2,1.3-8.1,3.4-5.4,6.3-.4,17.8.2,19.1.4.8,1.2,1.3,2,1.3-.3.4-.6.7-.7.8-.4.4-3,1.1-7.4-1.8V8.5c0-4.2-2.1-6.2-4-6.2s-4,1.9-4,6.2v83.8c0,.8.6,1.5,1.4,1.5s1.4-.7,1.4-1.5V8.5c0-2.3.8-3.2,1.1-3.2s.3.1.5.5c.2.3.6,1.2.6,2.7v44.7c0,.5.2,1,.6,1.2,6,4.2,10,3.3,11.4,2.1.3-.3.7-.7,1.4-1.6,1.2-1.4,3-3.5,5.1-5.4,1.4,2.2,4.3,6.3,7.7,8.1.2.1.4.2.7.2.5,0,1-.3,1.3-.8.4-.7,0-1.6-.6-2-.4-.2-.8-.5-1.2-.8.4-.2.8-.4,1.2-.7.4-.2,1-.6,1.2-.6.5-.1,2.9-.3,5.5-.3.8,0,1.4-.7,1.4-1.5,0-.8-.7-1.5-1.5-1.5-1.9,0-5.3.1-6.3.5-.5.1-1,.5-1.7.9-.5.3-1.5.9-2.1,1.1-1.4-1.5-2.5-3.2-3.2-4.3,1.3-.8,2.7-1.5,4-1.6.8,0,1.4-.8,1.3-1.7,0-.8-.8-1.4-1.6-1.3-2.3.3-4.5,1.4-6.4,2.9,0,0-.1,0-.2.1-1.9,1.5-3.6,3.2-5,4.7,0-.3,0-.5-.2-.8-1.3-2.8-3.9-10.7-.9-14.2,1.3-1.5,3.4-1.9,4.9-1.9,5-.2,11.4,2.8,15.3,6.9,8.1,8.6,6.5,24-.2,31.5-3,3.4-6.3,5.1-9.7,5.1h0c-2.6,0-7.8-1.1-9.5-5.4-1.2-3,.1-6.4.2-6.5.3-.8.7-1.5,1.2-2.2.7-1,.6-2.4-.4-3.2-.4-.3-.8-.4-1.3-.5,0,0,0,0,0,0,1.4-.8,4.2-.9,7.7,1.9-.3,2.7-.8,5.8-1.1,6.3-.5.7-.4,1.6.3,2.1.3.2.6.3.9.3.4,0,.9-.2,1.2-.6.6-.8,1.1-3.2,1.4-5.7,1.3,1.4,2.6,3.2,4,5.4.4.7,1.3.9,2,.4.7-.5.9-1.4.4-2.1-9.4-14.8-16.8-11.5-18.2-10.7-.9.5-6.4,1.4-9.1.3-.4-.2-.9-.1-1.3.2-.4.3-.6.7-.6,1.2v33.3c0,.8.6,1.5,1.4,1.5s1.4-.7,1.4-1.5v-31.4c2.8.4,6.2,0,8.2-.5-.1.1-.3.2-.4.4-.7,1-1.4,2.1-1.8,3.3-.3.9-1.9,5.4-.2,9.9,2.2,5.7,8.4,8.3,13.5,8.3h0c4.7,0,9-2.2,12.9-6.6,8.2-9.2,10-27.3.2-37.7Z"/>
  <path class="st0" d="M43,2.3c-1.9,0-4,1.9-4,6.2v43.9c-4.4,2.9-6.9,2.2-7.4,1.8-.1,0-.4-.4-.7-.8.8,0,1.7-.4,2-1.3.6-1.3,5.6-12.8.2-19.1-1.8-2.2-4.6-3.4-8.1-3.4-6.2-.2-13.8,3.2-18.5,8.2-9.8,10.5-8,28.6.2,37.7,3.9,4.4,8.2,6.6,12.9,6.6h0c5.1,0,11.3-2.6,13.5-8.3,1.7-4.5.1-9-.2-9.9-.4-1.2-1.1-2.3-1.8-3.3-.1-.2-.2-.3-.4-.4,2,.5,5.4.9,8.2.5v31.4c0,.8.6,1.5,1.4,1.5s1.4-.7,1.4-1.5v-33.3c0-.5-.2-1-.6-1.2-.4-.3-.9-.3-1.3-.2-2.7,1.1-8.2.1-9.1-.3-1.4-.8-8.8-4.1-18.2,10.7-.4.7-.3,1.6.4,2.1.7.5,1.6.3,2-.4,1.4-2.2,2.8-4,4-5.4.3,2.5.8,4.9,1.4,5.7.3.4.7.6,1.2.6s.6,0,.9-.3c.6-.5.8-1.4.3-2.1-.3-.6-.8-3.6-1.1-6.3,3.5-2.8,6.3-2.7,7.7-1.9,0,0,0,0,0,0-.4,0-.9.2-1.3.5-.9.8-1.1,2.2-.4,3.2.5.7.9,1.4,1.2,2.2,0,.1,1.3,3.6.2,6.5-1.7,4.3-6.9,5.4-9.5,5.4h0c-3.4,0-6.7-1.7-9.7-5.1-6.7-7.5-8.3-22.9-.2-31.5,3.9-4.1,10.3-7,15.3-6.9,1.5,0,3.6.4,4.9,1.9,3,3.5.4,11.4-.9,14.2-.1.3-.2.5-.2.8-1.4-1.5-3-3.3-5-4.7,0,0-.1,0-.2-.1-2-1.5-4.2-2.6-6.4-2.9-.8,0-1.5.5-1.6,1.3,0,.8.5,1.6,1.3,1.7,1.3.2,2.7.8,4,1.6-.7,1.1-1.8,2.7-3.2,4.3-.6-.2-1.6-.8-2.1-1.1-.7-.4-1.3-.7-1.7-.9-1-.3-4.4-.4-6.3-.5-.8,0-1.5.7-1.5,1.5,0,.8.6,1.5,1.4,1.5,2.6,0,5,.2,5.5.3.2,0,.8.4,1.2.6.4.2.8.5,1.2.7-.4.3-.8.6-1.2.8-.7.4-1,1.3-.6,2,.3.5.8.8,1.3.8s.5,0,.7-.2c3.4-1.8,6.3-5.9,7.7-8.1,2.1,1.8,3.9,4,5.1,5.4.7.9,1.1,1.3,1.4,1.6,1.4,1.2,5.5,2.1,11.4-2.1.4-.3.6-.7.6-1.2V8.5c0-1.5.4-2.4.6-2.7.2-.3.4-.5.5-.5.3,0,1.1.9,1.1,3.2v83.8c0,.8.6,1.5,1.4,1.5s1.4-.7,1.4-1.5V8.5c0-4.2-2.1-6.2-4-6.2Z"/>
</svg>