<svg id="Capa_1" xmlns="http://www.w3.org/2000/svg" version="1.1" viewBox="0 0 96 96">
  <defs>
    <style>
      .st0 {
        fill: #059669;
      }
    </style>
  </defs>
  <path class="st0" d="M84,71.3c0,0-.2,0-.3,0-.8-.2-1.3-.9-1.2-1.8.9-4.5,1.1-9,.8-13.5-.4-5.5-1.6-10.8-3.7-15.9-.3-.8,0-1.6.8-2,.8-.3,1.6,0,2,.8,2.2,5.4,3.5,11.1,3.9,16.9.3,4.8,0,9.6-.9,14.3-.1.7-.8,1.2-1.5,1.2Z"/>
  <path class="st0" d="M13.8,71.3c-.7,0-1.3-.5-1.5-1.2-.9-4.7-1.2-9.5-.9-14.3.4-5.8,1.7-11.5,3.9-16.9.3-.8,1.2-1.1,2-.8.8.3,1.1,1.2.8,2-2.1,5.1-3.3,10.5-3.7,15.9-.3,4.5,0,9,.8,13.5.2.8-.4,1.6-1.2,1.8,0,0-.2,0-.3,0Z"/>
  <path class="st0" d="M96.1,65.4c-.6-11.8-3.5-20.5-5.3-25.7-1.9-5.8-3.4-10-6.8-14.7-6.4-8.6-16-14.2-21.8-12.6-2.1.6-3.4,1.8-3.5,2-2.1,2.2-2.3,5.2-2.1,8.1.2,3,.7,5.2,1.3,7.3.6,2.2,1.1,4.3,1.1,7.4,0,.3,0,.6,0,.8-.9-.7-2.6-2.1-5.5-5.2-.2-2.9-.3-7-.3-11.2,0-7.4.1-14.7.1-17.3,0-.9-.4-1.7-1.2-2.5-.8-.8-2.3-1.7-4.1-1.7s-3.2.9-4.1,1.7c-.8.8-1.2,1.6-1.2,2.5,0,2.6,0,9.9.1,17.3,0,4.2-.1,8.3-.3,11.2-2.8,3.1-4.5,4.6-5.5,5.2,0-.2,0-.5,0-.8,0-3,.6-5.1,1.1-7.4.5-2.1,1.1-4.3,1.3-7.3.2-2.9,0-5.9-2.1-8.1-.1-.1-1.4-1.4-3.5-2-5.8-1.6-15.4,4-21.8,12.6-3.5,4.7-4.9,8.9-6.8,14.7C3.6,44.9.7,53.5.1,65.4c0,1.2-1.4,29,7,30.2.2,0,.4,0,.6,0,2.5,0,4.2-2.4,6.1-5.1,2.3-3.3,5.3-7.5,10.4-9.2,5.2-1.7,8-1.9,8.1-1.9,1.1,0,2.1,0,3,0,2.2,0,4.3,0,6.2-1.6,1.4-1.2,2.3-3.3,2.7-6.5.6-4.9-.5-8.8-1.3-11.7-1.1-4-2.3-8.1-3.5-12l8.6-6.5,8.6,6.5c-1.2,3.9-2.3,8-3.5,12-.8,2.9-1.9,6.8-1.3,11.7.4,3.2,1.2,5.3,2.7,6.5,1.9,1.6,4,1.6,6.2,1.6.9,0,1.9,0,3,0,0,0,2.9.3,8.1,1.9,5.2,1.7,8.1,5.8,10.4,9.2,1.9,2.7,3.5,5.1,6.1,5.1.2,0,.4,0,.6,0,8.4-1.3,7-29.1,7-30.2ZM48.8,21.7c0,.5,0,1.1,0,1.6h-1.4c0-.5,0-1.1,0-1.6,0-1,0-1.9,0-2.9h1.4c0,1,0,1.9,0,2.9ZM48.8,15.8h-1.4c0-1.6,0-3.1,0-4.5h1.3c0,1.4,0,2.9,0,4.5ZM48.1,4.5c.2,0,.5.2.7.3v.4c0,.8,0,1.9,0,3.1h-1.3c0-1.2,0-2.3,0-3.1v-.4c.2-.2.5-.3.7-.3ZM88.5,91.3c-.6-.4-1.7-2-2.5-3.1-2.6-3.7-6.1-8.7-12.7-10.8-5.8-1.9-9-2.1-9.1-2.1-1.3,0-2.4,0-3.4,0-2,0-2.7,0-3.3-.5-.4-.3-.9-1.5-1.2-3.7-.5-4.1.4-7.4,1.2-10.1,1.2-4.5,2.5-9,3.9-13.3.3-.9,0-1.8-.8-2.3l-10.7-8.1c-.5-.4-1.2-.5-1.7-.4-.6-.1-1.2,0-1.7.4l-10.7,8.1c-.7.5-1,1.5-.8,2.3,1.3,4.3,2.6,8.8,3.9,13.3.7,2.7,1.6,6,1.2,10.1-.3,2.2-.8,3.4-1.2,3.7-.6.5-1.3.5-3.3.5-1,0-2.1,0-3.4,0h0c-.7,0-3.8.4-9.1,2.1-6.6,2.1-10.1,7.2-12.7,10.8-.8,1.2-1.9,2.7-2.5,3.1-2-1.5-3.8-13.3-3.2-25.7.6-11.3,3.4-19.6,5-24.5,2.1-6.1,3.3-9.5,6.2-13.5,5.5-7.4,13.5-11.9,17-11,.9.2,1.5.8,1.5.8h0c.5.5,1.1,1.5.9,4.8-.2,2.6-.6,4.5-1.1,6.6-.6,2.4-1.2,4.8-1.3,8.3,0,2.3,0,4.4,1.8,5.4,2.6,1.4,5.9-.7,11.8-7.4.2-.3.4-.6.5-.9.3-.4.5-.9.5-1.4,0-2,0-4.2,0-6.5h1.4c0,2.3,0,4.5,0,6.5,0,.5.2,1,.5,1.4,0,.3.2.7.5.9,6,6.8,9.2,8.8,11.8,7.4,1.8-1,1.9-3.1,1.8-5.4,0-3.5-.7-6-1.3-8.3-.5-2-1-3.9-1.1-6.6-.2-3.3.3-4.3.9-4.8,0,0,.6-.6,1.5-.8,3.5-1,11.5,3.5,17,11,2.9,4,4.1,7.3,6.2,13.5,1.7,5,4.5,13.3,5,24.5.6,12.4-1.2,24.4-3.1,25.7Z"/>
</svg>