<?xml version="1.0" encoding="UTF-8"?>
<svg id="Capa_1" xmlns="http://www.w3.org/2000/svg" version="1.1" viewBox="0 0 96 96">
  <!-- Generator: Adobe Illustrator 29.1.0, SVG Export Plug-In . SVG Version: 2.1.0 Build 142)  -->
  <defs>
    <style>
      .st0 {
        fill: #059669;
      }
    </style>
  </defs>
  <path class="st0" d="M58,40.6h0Z"/>
  <path class="st0" d="M95.3,42.1c0-.8-.7-1.5-1.5-1.5h-31.9c-.4-1.2-.8-2.2-1.3-3.2-.5-1.1-1-2.1-1.6-2.9h34.8c.8,0,1.5-.7,1.5-1.5s-.7-1.5-1.5-1.5h-36.9c0-.2-.2-.3-.3-.4h0c-.4-.4-9.1-10.5-22.9-10.2-11.3.2-20.9,7.1-25.4,13.9-1.4,2.1-2.9,5.2-2,7.4,0,.2.2.5.4.8.5.9,1,2,.8,3.3,0,.4-.2.8-.5,1.2L.9,57.3c-.6,1.1-.7,2.4,0,3.5.6,1.1,1.8,1.8,3,1.8,0,.5,0,.9.2,1.4.3,1.2.9,2.1,1.6,2.8-.5,1-.7,2.3-.4,3.4.2.6.5,1.2.9,1.6-.8.9-1.2,2.1-1.2,3.4,0,2.5,1.8,4.8,4.5,5.5h8.6c.8.2,2.7,2.1,2.7,3.3v10.2c0,1,.8,1.8,1.8,1.8h30.2c1,0,1.8-.8,1.8-1.8v-22.6c4-4,7.8-10.1,8.6-18.2h30.5c.8,0,1.5-.7,1.5-1.5s-.7-1.5-1.5-1.5h-30.4v-.4c0-1.6,0-3.2-.4-4.7,0-.5-.2-1.1-.3-1.6h31.1c.8,0,1.5-.7,1.5-1.5h0ZM51.8,69.7c-.2.2-.5.4-.9.6v22h-26.5v-8.4c0-1.3-.5-2.5-1.2-3.4h6.9c1,0,1.8-.9,1.8-1.9s-.9-1.7-1.8-1.8l-19.8.2c-.9-.3-1.6-1.1-1.6-1.9s.2-.9.7-1.3c.3-.3.9-.8,2-.6,1,0,1.9-.6,2-1.6,0-1-.6-1.9-1.6-2-.7,0-1.4,0-2.1.2,0,0-.6-.2-.6-.5s0-.8.5-1c.5-.3.8-.9.8-1.6s-.3-1.2-.9-1.5c-.4-.2-1.2-.9-1.6-2v-.5h2.5c1,0,1.8-.8,1.8-1.8s-.8-1.8-1.8-1.8h-5.9l5.7-9.5c.5-.8.8-1.6,1-2.4.3-1.5,0-2.8-.3-3.9l23.3,9.2,5.4,12.6c.4.8,1.1,1.3,2,1.3h13.6c-1,1.3-2,2.4-3.1,3.2h-.3ZM38.3,51.8h0c0-1.1.9-1.9,1.9-1.9s1.9.9,1.9,1.9-.9,1.9-1.9,1.9-.9-.2-1.2-.4h0c-.4-.3-.7-.9-.7-1.5ZM57.5,62.1h-14.7l-2.3-5.4c2.1,0,3.8-1.5,4.4-3.4h4.1c.6,2,2.5,3.4,4.7,3.4s4.1-1.4,4.7-3.4h1.5c-.3,3.4-1.2,6.3-2.3,8.8h-.1ZM51.7,51.8c0-.6.3-1.2.7-1.5.3-.3.8-.4,1.2-.4s.9,0,1.2.4c.4.3.7.9.7,1.5s-.3,1.2-.7,1.5c-.3.3-.7.4-1.2.4s-.9-.2-1.2-.4c-.5-.3-.7-.9-.7-1.5ZM59.9,50.3h-1.6c-.6-2-2.5-3.4-4.7-3.4s-4,1.4-4.7,3.4h-4c-.6-2-2.5-3.4-4.7-3.4s-3,.8-3.9,2l-25.9-10.2c.2-.5.5-1,.9-1.5,3.9-5.8,12.6-12.1,22.5-12.3,8.3-.2,14.6,4,17.8,6.8h-7.3c-.6-2-2.5-3.4-4.7-3.4s-4.1,1.4-4.7,3.4h-4.1c-.6-2-2.5-3.4-4.7-3.4s-4.9,2.2-4.9,4.9,2.2,4.9,4.9,4.9,4.1-1.4,4.7-3.4h4c.6,2,2.5,3.4,4.7,3.4s4.1-1.4,4.7-3.4h10.2c.6.8,1.4,1.9,2.2,3.4-1,.6-1.8,1.6-2.2,2.7h-3.7c-.6-2-2.5-3.4-4.7-3.4s-4.1,1.4-4.7,3.4h-3.7c-.6-2-2.5-3.4-4.7-3.4s-4.9,2.2-4.9,4.9,2.2,4.9,4.9,4.9,4-1.4,4.7-3.4h3.7c.6,2,2.5,3.4,4.7,3.4s4-1.4,4.7-3.4h3.7c.6,2,2.5,3.4,4.7,3.4s.3,0,.5,0c0,1,.2,2.1.2,3.2h0ZM41.5,33c0,.6-.3,1.2-.7,1.5-.3.3-.8.4-1.2.4s-.9-.2-1.2-.4c-.5-.3-.7-.9-.7-1.5s.3-1.2.7-1.5c.3-.3.7-.4,1.2-.4s.9.2,1.2.4c.5.3.7.9.7,1.5ZM28.1,33c0,1.1-.9,1.9-1.9,1.9s-1.9-.9-1.9-1.9.9-1.9,1.9-1.9,1.9.9,1.9,1.9ZM48.1,42.1c0,.6-.3,1.2-.7,1.5-.3.3-.7.4-1.2.4s-.9,0-1.2-.4c-.5-.3-.7-.9-.7-1.5s.3-1.2.7-1.5c.3-.3.7-.4,1.2-.4s.9,0,1.2.4c.4.3.7.9.7,1.5ZM35,42.1c0,1.1-.9,1.9-1.9,1.9s-1.9-.9-1.9-1.9.9-1.9,1.9-1.9,1.9.9,1.9,1.9ZM60.4,43.6c-.3.3-.7.4-1.2.4s0,0,0,0c-.4,0-.8,0-1.1-.4-.4-.3-.7-.9-.7-1.5s.3-1.2.7-1.5h0c.3-.3.7-.4,1.2-.4s.9,0,1.2.4c.4.3.7.9.7,1.5s-.3,1.2-.7,1.5h-.1Z"/>
  <path class="st0" d="M34,16.9c-.6,0-1.3-.2-1.5-.8l-2.5-4.9c-.2.2-.6.3-.9.3h-10.4c-.5,0-.9-.2-1.2-.6l-1.4-2v9.8c0,.6-.4,1.2-1,1.4-.6.2-1.2,0-1.6-.5l-5.3-6.7H1.5c-.8,0-1.5-.7-1.5-1.5s.7-1.5,1.5-1.5h7.5c.4,0,.9.2,1.1.6l3.1,3.9V4.2c0-.6.4-1.2,1-1.4s1.3,0,1.6.6l3.6,5.2h8.2v-3.4c0-.7.5-1.3,1.2-1.4.7,0,1.4.2,1.6.9l2.8,6.7V2.3c0-.7.5-1.3,1.1-1.4.7-.1,1.3.2,1.6.8l3.2,6.9h9.5V3c0-.6.4-1.2.9-1.4.6-.2,1.2,0,1.6.4l5.6,6.6h8.6V1.5c0-.7.5-1.3,1.1-1.4.6-.2,1.3,0,1.6.7l5,9.5v-.2c0-.8.7-1.5,1.5-1.5h7.5v-4.5c0-.6.4-1.2,1-1.4s1.2,0,1.6.5l4.1,5.4h5.7c.8,0,1.5.7,1.5,1.5s-.7,1.5-1.5,1.5h-6.4c-.5,0-.9-.2-1.2-.6l-1.9-2.5v1.7c0,.8-.7,1.5-1.5,1.5h-7.5v4.6c0,.7-.5,1.3-1.1,1.4-.6.2-1.3-.1-1.6-.7l-5-9.5v2.7c0,.8-.7,1.5-1.5,1.5h-10.8c-.4,0-.8-.2-1.1-.5l-3.5-4.1v3.2c0,.8-.7,1.5-1.5,1.5h-11.9c-.6,0-1.1-.3-1.3-.8l-.8-1.7-.8,6.6c0,.7-.6,1-1,1Z"/>
  <path class="st0" d="M58,40.6h0Z"/>
  <path class="st0" d="M58,40.6h0Z"/>
</svg>