<svg id="Capa_2" xmlns="http://www.w3.org/2000/svg" version="1.1" viewBox="0 0 96 96">
  <defs>
    <style>
      .st0 {
        fill: #059669;
      }
    </style>
  </defs>
  <path class="st0" d="M82.4,54.2c-.5-1.2-1-2.5-1.6-3.9-4.4-10.8-7.3-17.9-8.3-24.8-.7-5.1-1.1-12.3,2.7-22.4.3-.7.2-1.4-.2-2-.4-.6-1.1-.9-1.8-.9h-31c-.4,0-.9.1-1.2.4-1.5,1-3.2,1.8-5.3,2.7l-1.5.7c-2.6,1.2-5.4,2.1-8.2,2.8-.2,0-.5-.1-.7-.1-1.3,0-2.3,1-2.3,2.3s.5,1.6,1.2,2c0,2.2.5,4.4,1.3,6.5,1.2,3.1,3,5.3,4.8,7-.3.1-.7.3-1,.4-12.2,5.7-19.9,20.2-17.9,33.9,1.8,12.8,11.6,23.1,24.4,27.1,0,1.7.2,3.4.5,5.1.3,1.3.6,2.6,1.1,3.9.3.9,1.1,1.4,2.1,1.4h32.9c1.1,0,2.1-.9,2.2-2,.1-1.8.3-3.6.4-5.3,0-1.3.1-2.7.2-4.1.9-.6,1.8-1.2,2.7-1.9,2-1.6,6.7-6.2,8.1-13,1-5.3-.5-8.9-3.3-15.6ZM42.2,49.4c0,.4.3.8.4,1.2,0,.2.2.4.2.5,0,.7-.3,2.3-.5,3.5,0,.5-.2.9-.3,1.3l-7.2,2.2c-.8.2-1.2,1.1-1,1.9.2.6.8,1.1,1.4,1.1s.3,0,.4,0l11.6-3.5c.5-.2.9-.6,1-1.1l1.9-7.6c.3-.4.8-.6,1.3-.5.5.1,1.1.7,1,1.5l-1.9,8.3c-1.1,1-1.7,1.9-1.8,3.1,0,0,0,.2,0,.2l-7.7,2c-.8.2-1.3,1-1.1,1.8.2.7.8,1.1,1.5,1.1s.2,0,.4,0l7.8-2c.3.5.4.9.3,1.4,0,.9-.7,1.8-1.8,2.8-.6.5-.7,1.5-.2,2.1.5.6,1.5.7,2.1.2,1.8-1.5,2.8-3.1,2.9-4.8.1-1.5-.4-2.5-.8-3.3-.3-.6-.4-.9-.4-1.3,0-1,2.4-2.5,5.4-4.3,5-3.1,6.6-3.1,7.3-3.2.6,0,2.4,0,2.7.5.3.5,0,1.8-.6,2.7-.9,1.3-2.4,1.7-4,2-1.6.4-3.5.8-4.3,2.6-.8,1.8.1,3.2,1,4.5.7,1,1.3,2.1,1.5,3.6.4,3.6-2.3,7.5-5.1,9.3-5.5,3.5-12.5,0-15.2-1.3-2.2-1.1-8.9-4.4-10-11-.4-2.1-.1-4.2.6-6.4.2-.5,0-1-.2-1.3-.3-.4-.7-.6-1.2-.7-1.2,0-5.4-.5-8.2-3.8-3.3-3.9-3.3-10.3,0-14.1,3.9-4.5,10.2-3.4,11.4-3.1,2.1.5,6,1.7,7.6,5.2.5,1,.7,2.2.8,3.4,0,.5.3,1,.7,1.2l.5.3c-.2.3-.3.7-.5,1.3,0,.2,0,.4,0,.6ZM15.5,58c-.5-3.7-.2-7.5.8-11.1-.1,3.4,1,6.8,3.2,9.5,2.7,3.1,6.1,4.2,8.5,4.6-.5,2.1-.6,4.1-.2,6.1.9,5.4,4.8,9.9,11.6,13.2,1.5.7,4.1,2,7.2,2.7-2.8,0-5.6-.4-8.2-1.1,0,0,0,0,0,0-12-3.1-21.2-12.4-22.9-24ZM81.4,69c-1.1,5.4-4.9,9.1-6.6,10.5-3.6,3-7.5,4.1-10.1,4.4-1.2.2-2,1.3-1.9,2.5.2,1.1,1.1,1.9,2.2,1.9s.2,0,.3,0c1.4-.2,3.2-.6,5.1-1.3,0,.5,0,1.1,0,1.6,0,1.1-.1,2.1-.2,3.2h-29.3c-.2-.6-.3-1.2-.4-1.8-.2-1-.3-2.1-.4-3.1,2.2.4,4.5.6,6.8.7h0c1.2,0,2.2-1,2.2-2.2,0-.9-.5-1.7-1.3-2,.9.1,1.8.2,2.7.2,2.4,0,4.8-.5,7.1-2,3.6-2.3,7-7.3,6.4-12.2-.3-2.2-1.3-3.7-2-4.9-.5-.9-.9-1.4-.7-1.7.2-.4,1.1-.6,2.2-.8,1.8-.4,4.2-.9,5.8-3.2,1.2-1.7,1.9-4.3.7-6.1-1.3-2-4-1.9-5.3-1.8-1.7,0-3.9.5-8.8,3.6-.5.3-1,.6-1.4.9l1.2-5.1c0,0,0-.1,0-.2.2-2.3-1.3-4.4-3.4-4.8-1.8-.4-3.6.5-4.6,2.1,0,.1-.1.3-.2.4l-1.8,7h-.3c.3-1.3.6-2.8.5-3.8,0-.6-.3-1.1-.5-1.6,0,0,0-.2-.1-.2,0-.2.2-.4.3-.6.2-.3.3-.6.5-1.2.2-.7,0-1.4-.6-1.8l-1-.6c-.1-1.3-.5-2.6-1-3.8-1.6-3.4-5.1-5.9-9.7-6.9-1.3-.3-7.6-1.4-12.5,2.4,2.6-3.4,5.9-6.2,9.6-7.9,4-1.8,8.4-2.5,13.3-1.9,1.2.1,2.3-.7,2.5-1.9.1-1.2-.7-2.3-1.9-2.5-3.4-.4-6.6-.3-9.6.3-1.7-1.2-4.3-3.4-5.7-7-.6-1.6-1-3.4-1-5.2,2.5-.7,5-1.6,7.4-2.7l1.5-.7c2-.9,3.8-1.7,5.4-2.7h27.3c-3.1,9.5-2.7,16.5-1.9,21.6,1.1,7.5,4.1,14.8,8.6,25.9.6,1.4,1.1,2.7,1.6,3.9,2.7,6.5,3.8,9.1,3.1,13.1Z"/>
  <path class="st0" d="M39.1,44.2c-.7-.5-1.6-.3-2.1.3-.3.4-1.6.8-2.7.5-.8-.3-1.6.2-1.9,1-.3.8.2,1.6,1,1.9.5.2,1.1.3,1.8.3,1.6,0,3.3-.6,4.2-1.8.5-.7.3-1.6-.3-2.1Z"/>
  <path class="st0" d="M32.3,50.6c-.7-.4-1.6-.2-2,.5,0,.1-.8,1.3-2.1,1.4,0,0-1.6.2-2.3-.8-.5-.7-.4-1.6-.2-2.1.4-1.4,1.8-1.9,2-2,.8-.3,1.2-1.1.9-1.9-.3-.8-1.1-1.2-1.9-.9-.5.2-3,1.2-3.8,3.9-.5,1.7-.3,3.4.7,4.7,1.1,1.6,3,2.1,4.4,2.1.2,0,.4,0,.6,0,2.8-.3,4.1-2.5,4.4-2.9.4-.7.2-1.6-.5-2Z"/>
</svg>