<svg id="Capa_1" xmlns="http://www.w3.org/2000/svg" version="1.1" viewBox="0 0 96 96">
  <defs>
    <style>
      .st0 {
        fill: #059669;
      }

      .st1 {
        fill: #059669;
      }
    </style>
  </defs>
  <path class="st1" d="M3.3,79.3c-1.8-3-2.9-6.4-3.3-9.8.3,3.6,1.5,6.9,3.3,9.8Z"/>
  <path class="st1" d="M95.8,69.4c-.4,3.5-1.5,6.9-3.3,9.8,1.8-2.9,2.9-6.3,3.3-9.8Z"/>
  <path class="st0" d="M83.8,46.2c-3.1-1.9-6.7-3.1-10.3-3.4,0-.3.2-.6.4-.7.5-.5,1.6-.4,2.7-.4.3,0,.5,0,.8,0h4s0,0,0,0c3.6,0,6.5-2.9,6.5-6.5s-2.9-6.5-6.5-6.5h-23.7c-.5-2.1-1.6-4-3.2-5.3v-5.4c0-3.9-3.4-7-7.4-6.5s-5.7,3.4-5.7,6.8v5.1c-1.6,1.4-2.7,3.3-3.2,5.4H14.7c-3.3,0-6.3,2.4-6.7,5.7s2.6,7.4,6.5,7.4h4.1c.3,0,.5,0,.8,0,1.1,0,2.2,0,2.7.4s.3.4.4.7h0c-3.6.3-7.1,1.5-10.3,3.4-10.6,6.4-15.1,19.8-9.8,31.1.8,1.8,1.9,3.4,3.1,4.9.9,1.1,2.3,3.1,3.9,3.1s1.2-.2,1.6-.7c2.1-2.3-2.3-5.3-3.4-7-1.6-2.5-2.6-5.4-3-8.4-1.2-11.5,8.6-21.9,20-21.9s3.1.2,4.6.6c0,0,0,0,0,0,1.5.4,3-.7,3-2.3v-2.9c0-.5.4-.9.9-.9h2.7c.5,0,.9.4.9.9v.6c-.2.8-.4,1.6-.5,2.5,0,.3,0,.6,0,.8,0,1.2.2,2.2.5,3.3v5.4c-3.6-3.9-8.9-6.1-14.7-5.6-8.4.7-15.3,7.4-16.2,15.8s7.3,19.9,17.8,19.9h0c1.6,0,3.1-.2,4.6-.6,6.9-1.9,12.1-7.7,13.1-14.8,0-.2,2.1-.6,2.4-.6.9-.2,1.8-.3,2.7-.3,2.7-.2,5.5.3,8.1,1.3,1,6.7,5.8,12.2,12.2,14.3,1.5.5,3,.8,4.6.9.3,0,.6,0,.9,0,10.5,0,18.9-9.1,17.8-19.8-.9-8.4-7.7-15.1-16-15.9-5.8-.6-11.1,1.7-14.7,5.4v-5.5c.3-1,.4-2,.4-3.1s0-.4,0-.6c0,0,0-.2,0-.2,0-.8-.2-1.5-.4-2.2v-.8c0-.5.4-.9.9-.9h2.7c.5,0,.9.4.9.9v2.8c0,1.5,1.5,2.6,3,2.3s0,0,0,0c1.4-.3,2.9-.5,4.4-.5,11.4,0,21.3,10.4,20,21.9-.3,3-1.4,5.9-3,8.4-1.1,1.8-5.5,4.8-3.4,7,.4.5,1,.7,1.6.7,1.6,0,3-1.9,3.9-3.1,1.2-1.5,2.3-3.2,3.1-4.9,5.3-11.3.8-24.7-9.8-31.1ZM42.9,28.7c.8-2,2.8-3.4,5.1-3.4,3.6,0,6.4,3.7,5.3,7.2s-1,2.1-1.9,2.8c-1.1-.3-2.2-.5-3.4-.5s-2.3.2-3.4.5c-.3,0-1.2-1.2-1.3-1.4-.3-.5-.6-1.2-.7-1.8-.2-1.2-.1-2.3.3-3.3ZM44.5,17.9c0-2,1.6-3.6,3.6-3.6s3.6,1.6,3.6,3.6v3.6c-1.1-.4-2.3-.7-3.6-.7s-2.4.2-3.5.6v-3.6ZM44.4,40.2c1.1-.6,2.3-1,3.6-1s2.5.3,3.6,1c2.2,1.3,3.7,3.6,3.7,6.3,0,3.8-3.3,7.2-7.1,7.3-4,0-7.5-3.3-7.5-7.3,0-2.7,1.5-5.1,3.7-6.3ZM36,72.6c-.9,2.1-2.2,4-4.1,5.4-4.9,3.9-12.2,3.8-17-.3s-4.8-6.4-4.8-10.3c0-7.4,6-13.5,13.5-13.5,5.6,0,10.7,3.6,12.6,8.8s1,6.7-.2,9.8ZM38.5,39.7c-.7-.6-1.6-1-2.6-1h-2.7c-2.1,0-3.9,1.8-3.9,3.9v.5c-1.2-.2-2.5-.4-3.8-.4-.2-1.2-.6-2.1-1.3-2.8-1.2-1.2-2.8-1.3-4.2-1.3-.2,0-.5,0-.7,0-.2,0-4.4,0-4.8,0h0c-1.9,0-3.5-1.6-3.5-3.5s1.6-3.5,3.5-3.5h23.6c.2,2.2,1.1,4.2,2.5,5.8-.8.6-1.5,1.4-2.1,2.2ZM56.3,59.2c-1,1.9-1.6,4-1.9,6.2,0-.4-5-.9-5.5-1-2.5-.1-5.1,0-7.5.8-.2-2-.8-3.9-1.7-5.7v-4.7c0,.2.7.6.8.7.3.2.5.4.8.6.6.4,1.3.8,2,1.1,1.4.6,2.9.9,4.4,1,3.2,0,6.3-1.2,8.6-3.5v4.4ZM72.2,54c7.4,0,13.5,6,13.5,13.5s-6,13.5-13.5,13.5-1.3,0-2-.2c-2.2-.3-4.3-1.2-6-2.5-1.7-1.2-3-2.8-4-4.7-1-1.8-1.5-3.9-1.5-6.2s0-.1,0-.2c0-7.3,6.1-13.3,13.5-13.3ZM70.5,42.7h0c-1.2,0-2.4.2-3.5.4v-.5c0-2.2-1.7-3.9-3.9-3.9h-2.7c-1,0-1.9.4-2.6,1.1-.6-.8-1.3-1.6-2.1-2.3,1.4-1.6,2.3-3.6,2.5-5.8h23.5c1.9,0,3.5,1.6,3.5,3.5s-1.6,3.5-3.5,3.5c0,0-4.6,0-4.9,0-.2,0-.4,0-.6,0-1.4,0-3,0-4.2,1.3-.7.7-1.1,1.6-1.3,2.8Z"/>
  <path class="st1" d="M0,66.5c0,.1,0,.2,0,.4,0,.5,0,1,0,1.5,0-.4,0-.8,0-1.2s0-.4,0-.7Z"/>
</svg>