<?xml version="1.0" encoding="UTF-8"?>
<svg id="Capa_1" xmlns="http://www.w3.org/2000/svg" version="1.1" viewBox="0 0 96 96">
  <!-- Generator: Adobe Illustrator 29.1.0, SVG Export Plug-In . SVG Version: 2.1.0 Build 142)  -->
  <defs>
    <style>
      .st1 {
        fill: #059669;
      }
    </style>
  </defs>
  <g>
    <path class="st1" d="M66.7,49.9c-1.8-4.5,2.4-6,1.5-9.5-1.2-5-5.2-3-7.7-5.7-1.9-2.1-1-4.3-3.2-6.2-3.8-3-6.1,1.2-9.8,1.2-2.6,0-3.7-1.9-5.7-2.1-1.2,0-2.3.3-3.3.9-3,1.8-1.1,5.9-5.4,8-1.2.6-2.2.4-3.4,1.1-1.8,1.1-2.9,3.5-2.3,5.5.5,1.8,1.9,2.4,2.1,4.8.3,3.9-3.6,5-1.4,9.3,1.8,3.3,6,1.3,8.2,5.7.6,1.2.4,2.2,1.1,3.4,1.1,1.8,3.5,2.9,5.5,2.3,1.8-.5,2.4-1.9,4.8-2.1,3.8-.3,5,3.5,9.1,1.4,3.2-1.6,1.8-4.5,4-6.8,2-2.1,3.3-1.4,5.2-2.5,1.8-1.1,2.9-3.5,2.3-5.5-.3-1.2-1.3-2-1.7-3.1ZM65.7,55c-.5,1.5-1.8,1.2-2.9,1.6-2.1.7-4.1,2.3-5.2,4.4-.6,1.1-.7,3.1-1.2,3.8-1.5,2.2-3.8-.3-5.6-.8-1.7-.5-3.9-.4-5.5.2-1.4.5-2.8,2.1-4.2,1.6-1.5-.5-1.2-1.8-1.6-2.9-1.1-3.1-3.3-4.9-6.3-6-.6-.2-1.2,0-1.8-.5-2.1-1.5.2-3.7.7-5.4.6-1.8.6-4-.1-5.8-.5-1.4-2.1-2.8-1.6-4.2.5-1.5,1.8-1.2,2.9-1.6,3.1-1.1,4.9-3.3,6-6.3.2-.7,0-1.7.8-2.2,1.8-1.3,3.3.6,5,1.2,1.8.6,4,.6,5.8-.1,1.4-.5,2.8-2.1,4.2-1.6,1.5.5,1.2,1.8,1.6,2.9.8,2.3,2.7,4.5,5,5.4,1.3.5,3.1.2,3.8,1.6.9,1.9-.6,2.5-1.2,4.1-.7,1.9-.6,5.1.2,7,.5,1.2,1.9,2.2,1.4,3.7Z"/>
    <path class="st1" d="M39.2,38.2c-7.9,3.4-2.8,15,4.8,12.1,8.2-3.1,3.3-15.6-4.8-12.1ZM40.3,40.8c4.4-1.9,7.4,5,2.7,6.9-4.2,1.7-7.4-4.9-2.7-6.9Z"/>
    <path class="st1" d="M52.6,40c-6,3.7-.3,13.6,6.4,9.4,5.8-3.6.4-13.6-6.4-9.4ZM54.7,47.3c-3-1.2-1.8-6.1,1.7-5.4,4.1.8,2.1,6.9-1.7,5.4Z"/>
    <path class="st1" d="M44.2,54.2c-2.2,5.5,5.7,9.5,8.7,4.1,3.2-5.7-6.2-10.3-8.7-4.1ZM50.1,57.5c-2.7,2-4.6-1.9-2.5-3.1,2.2-1.3,4.1,1.9,2.5,3.1Z"/>
    <path class="st1" d="M48,17.5h0c-16.8,0-30.5,13.7-30.5,30.5s0,0,0,0c0,0,0,0,0,0,0,0,0,0,0,0,0,16.8,13.7,30.4,30.5,30.4s0,0,.1,0c0,0,0,0,0,0,0,0,0,0,0,0,16.7-.1,30.2-13.7,30.3-30.4,0,0,0,0,0,0s0,0,0,0c0,0,0,0,0,0,0-16.8-13.7-30.5-30.5-30.5ZM49.7,75.5v-5.6c0-.8-.7-1.5-1.5-1.5s-1.5.7-1.5,1.5v5.6c-14-.7-25.3-11.9-26.1-25.9h5.6c.8,0,1.5-.7,1.5-1.5s-.7-1.5-1.5-1.5h-5.6c.7-14,12-25.3,26-26v5.6c0,.8.7,1.5,1.5,1.5s1.5-.7,1.5-1.5v-5.6c14,.8,25.2,12,26,26h-5.6c-.8,0-1.5.7-1.5,1.5s.7,1.5,1.5,1.5h5.6c-.8,13.9-11.9,25-25.8,25.9Z"/>
    <path class="st1" d="M95.7,46.7s0,0,0,0c0,0-.1-.1-.2-.2,0,0,0,0,0,0l-6.1-5.3c-.6-.5-1.6-.5-2.1.2-.5.6-.5,1.6.2,2.1l3.1,2.7h-4.8c-.5-9.3-4.3-17.7-10.3-24l5-5-.3,4.1c0,.5.1.9.4,1.2s.6.4,1,.4c.8,0,1.5-.6,1.6-1.4l.6-8.1s0,0,0,0c0,0,0-.2,0-.3,0,0,0,0,0,0,0-.3-.2-.6-.4-.8s-.5-.4-.8-.4c0,0,0,0,0,0,0,0-.2,0-.3,0,0,0,0,0,0,0l-8.1.6c-.8,0-1.4.8-1.4,1.6,0,.8.8,1.4,1.6,1.4l4.1-.3-5,5c-6.3-5.7-14.6-9.3-23.7-9.7v-4.8l2.7,3.1c.3.3.7.5,1.1.5s.7-.1,1-.4c.6-.5.7-1.5.2-2.1l-5.3-6.1s0,0,0,0c0,0-.1-.1-.2-.2,0,0,0,0,0,0C48.7.1,48.4,0,48,0s-.6.1-.9.3c0,0,0,0,0,0,0,0-.1.1-.2.2,0,0,0,0,0,0l-5.3,6.1c-.5.6-.5,1.6.2,2.1.6.5,1.6.5,2.1-.2l2.7-3.1v4.8c-9.3.4-17.7,4.1-24.1,10l-3.6-3.6,4.1.3c.5,0,.9-.1,1.2-.4s.4-.6.4-1c0-.8-.6-1.5-1.4-1.6l-8.1-.6s0,0,0,0c0,0-.2,0-.3,0,0,0,0,0,0,0-.3,0-.6.2-.8.4s-.4.5-.4.8c0,0,0,0,0,0,0,0,0,.2,0,.3,0,0,0,0,0,0l.6,8.1c0,.8.8,1.4,1.6,1.4.8,0,1.4-.8,1.4-1.6l-.3-4.1,3.6,3.6c-5.9,6.4-9.6,14.8-10,24.1h-4.8l3.1-2.7c.3-.3.5-.7.5-1.1s-.1-.7-.4-1c-.5-.6-1.5-.7-2.1-.2l-6.1,5.3s0,0,0,0c0,0-.1.1-.2.2,0,0,0,0,0,0-.2.2-.3.6-.3.9s.1.6.3.9c0,0,0,0,0,0,0,0,.1.1.2.2,0,0,0,0,0,0l6.1,5.3c.6.5,1.6.5,2.1-.2.5-.6.5-1.6-.2-2.1l-3.1-2.7h4.8c.4,9.3,4.1,17.7,10,24.1l-3.4,3.4.3-4.1c0-.5-.1-.9-.4-1.2s-.6-.4-1-.4c-.8,0-1.5.6-1.6,1.4l-.6,8.1s0,0,0,0c0,0,0,.2,0,.3,0,0,0,0,0,0,0,.3.2.6.4.8s.5.4.8.4c0,0,0,0,0,0,0,0,.2,0,.3,0,0,0,0,0,0,0l8.1-.6c.8,0,1.4-.8,1.4-1.6,0-.8-.8-1.4-1.6-1.4l-4.1.3,3.4-3.4c6.4,5.9,14.8,9.6,24,9.9v4.8l-2.7-3.1c-.3-.3-.7-.5-1.1-.5s-.7.1-1,.4c-.6.5-.7,1.5-.2,2.1l5.3,6.1s0,0,0,0c0,0,.1.1.2.2,0,0,0,0,0,0,.2.2.6.3.9.3s.6-.1.9-.3c0,0,0,0,0,0,0,0,.1-.1.2-.2,0,0,0,0,0,0l5.3-6.1c.5-.6.5-1.6-.2-2.1-.6-.5-1.6-.5-2.1.2l-2.7,3.1v-4.8c9.2-.4,17.6-4,24-9.9l3.3,3.3-4.1-.3c-.5,0-.9.1-1.2.4-.2.2-.4.6-.4,1,0,.8.6,1.5,1.4,1.6l8.1.6s0,0,0,0c0,0,.2,0,.3,0,0,0,0,0,0,0,.3,0,.6-.2.8-.4s.4-.5.4-.8c0,0,0,0,0,0,0,0,0-.2,0-.3,0,0,0,0,0,0l-.6-8.1c0-.8-.8-1.4-1.6-1.4-.8,0-1.4.8-1.4,1.6l.3,4.1-3.3-3.3c6-6.5,9.8-15.1,10.1-24.6h4.8l-3.1,2.7c-.3.3-.5.7-.5,1.1s.1.7.4,1c.5.6,1.5.7,2.1.2l6.1-5.3s0,0,0,0c0,0,.1-.1.2-.2,0,0,0,0,0,0,.2-.2.3-.6.3-.9s-.1-.6-.3-.9ZM48,81.3c-18.3,0-33.3-14.9-33.3-33.3S29.7,14.8,48,14.8s33.3,14.9,33.3,33.3-14.9,33.3-33.3,33.3Z"/>
  </g>
</svg>