<svg id="Capa_1" xmlns="http://www.w3.org/2000/svg" version="1.1" viewBox="0 0 96 96">
  <defs>
    <style>
      .st0 {
        fill: #059669;
      }
    </style>
  </defs>
  <path class="st0" d="M0,79.3v-1.5l29.5-30.4c.2-.4-.9-1.2-1.2-1.6-1-1.4-1.2-2.7-.1-4.1s6.6-7.1,8.1-8.2,2.3-.8,3.3-.2l7.2,7.2,4.3-4.2-8.3-13.8c-.1-1,0-1.8.6-2.6l15.3-15.5c1.3-1,2.1-1,3.5-.3,4.9,2.3,10.6,6.1,14.9,9.6s6.3,5.5,8.2,8.2-2,5.1-3.4,7.4l13.8,23.8c1.4,2.5-.9,5.1-3.5,4.1l-23.9-14.3c-2.2,1.7-4.2,5.9-7.3,3.6s-5.7-6.1-6.2-6.1c-.9,1.1-2.8,2.4-3.5,3.5s-.2.3-.2.5l7,7.2c.6,1,.6,2.2,0,3.2l-8.8,8.8c-2.1,1.1-3.6-.5-4.9-1.9l-29.2,29.5c-1.4,1-2.5.7-3.8-.3-2.6-2-8-7.7-10.2-10.3S.4,79.8,0,79.3ZM61.4,7.8l-14.5,14.5,7.2,10.8,18-17.9-10.8-7.4ZM75,17.4l-18.5,18.9,5,5.2s17.8-18,18.7-19c-.9-1-3.9-3.9-5.2-5.2ZM90.6,52.2l-13.1-18.4-5.3,5.4,18.4,13ZM35.8,38.7l-3.2,3.4,16.8,16.9,3.3-3.5c.9-.9.9-2.4,0-3.3l-13.4-13.5c-1-1-2.5-.9-3.4,0ZM34.3,50.1l-20.8,21.1,7.4,7.4,20.8-21.1-7.3-7.4ZM10.8,74.6c-.5.6-3.9,3.7-3.8,4l6.6,6.6,3.9-3.9-6.7-6.7Z"/>
</svg>