<svg id="Capa_1" xmlns="http://www.w3.org/2000/svg" version="1.1" viewBox="0 0 96 96">
  <defs>
    <style>
      .st0 {
        fill: #059669;
      }
    </style>
  </defs>
  <path class="st0" d="M90.4,34.6c-2.7,0-4.9,2.7-5.4,6.6-1,0-1.8,0-2.6,0,.1-1.3.2-2.7.2-4.1,0-12.7-6.7-21.6-8.8-24.1h-.1C73.3,12.5,62.1-.4,44.5,0,30,.3,17.7,9.1,11.9,17.8c-1.8,2.7-3.7,6.6-2.6,9.5.1.3.3.6.5,1,.6,1.1,1.3,2.6,1,4.2-.1.5-.3,1-.7,1.6l-7.5,12.4c-.8,1.4-.9,3.1,0,4.5.8,1.4,2.3,2.3,3.9,2.3,0,.6.1,1.2.3,1.8.4,1.5,1.2,2.7,2,3.6-.7,1.3-.9,2.9-.5,4.4.3.8.7,1.5,1.2,2-1,1.2-1.6,2.7-1.6,4.3,0,3.2,2.3,6.1,5.7,7h11c1,.2,3.5,2.7,3.5,4.2v13c0,1.3,1,2.3,2.3,2.3h38.6c1.3,0,2.3-1,2.3-2.3v-28.9c4.7-4.7,9.1-11.5,10.7-20.6.9,0,1.9,0,3,0,.4,4,2.6,6.9,5.4,6.9s5.5-3.5,5.5-8.2-2.4-8.2-5.5-8.2ZM67.8,62.5c-1.8,1.4-6.5,4.3-7.9,4.8-1.2.4-1.9,1.7-1.5,2.9.3,1,1.2,1.6,2.2,1.6s.5,0,.7-.1c1.5-.5,3.4-1.5,5.4-2.9v22.7h-33.9v-10.7c0-1.7-.7-3.2-1.5-4.4h8.8c1.3-.1,2.3-1.2,2.3-2.4s-1.1-2.2-2.3-2.3l-25.3.3c-1.2-.4-2-1.4-2-2.4s.3-1.2.9-1.7c.4-.4,1.2-1,2.5-.8,1.3,0,2.4-.8,2.5-2.1.1-1.3-.8-2.4-2.1-2.5-.9,0-1.8,0-2.7.2,0,0-.7-.2-.8-.7-.1-.4,0-1,.6-1.3.7-.4,1-1.2,1-2s-.4-1.5-1.1-1.9c-.5-.3-1.6-1.1-2-2.6,0-.2,0-.4-.1-.6h3.2c1.3,0,2.3-1,2.3-2.3s-1-2.3-2.3-2.3h-7.6l7.3-12.1c.6-1,1-2,1.3-3.1.6-3.2-.7-5.8-1.5-7.2-.1-.2-.2-.4-.3-.5-.1-.3,0-2,2.1-5.3,5-7.4,16.1-15.5,28.8-15.8,15.4-.3,25.3,11,25.7,11.5,1.8,2.1,7.8,10,7.7,21.1,0,1.3,0,2.5-.2,3.7-.2,0-.4,0-.6,0,0-.3,0-.7,0-1.1-.2-1.9-.4-4.8-1.3-7.9-1.4-4.6-4.8-8.7-10.1-12.2,0-.4.1-.8.1-1.3,0-4.5-3.7-8.2-8.2-8.2s-8.2,3.7-8.2,8.2,3.7,8.2,8.2,8.2,5.6-1.6,7.1-4.1c4.3,3,7.1,6.4,8.3,10.2.4,1.5.7,2.8.9,4.1-2.6-2.8-6.3-5.7-11.2-7.6-8.5-3.4-16.2-2-20.5-.7-1-1.5-2.4-2.7-4.1-3.3l.6-1.8c.2,0,.3,0,.5,0,4.5,0,8.2-3.7,8.2-8.2s-3.7-8.2-8.2-8.2-8.2,3.7-8.2,8.2,2,6.2,4.8,7.5l-.7,2.1c-4.5,0-8.1,3.7-8.1,8.2s3.7,8.2,8.2,8.2,5.5-1.5,7-3.9l8.1,2.5c0,.3,0,.7,0,1,0,2.1.8,4.1,2.2,5.5l-3.4,1.6c-1.5-1.5-3.6-2.5-5.9-2.5-4.5,0-8.2,3.7-8.2,8.2s3.7,8.2,8.2,8.2,6.2-2,7.5-4.9c1,.1,2.1.2,3.3.2,3.1,0,6.7-.4,10.5-1.8,5.6-2,9.6-5.1,12.3-7.9-1.8,6.8-5.4,11.7-9.1,14.7ZM51.2,52.2l6.2-2.9c.4,0,.8,0,1.2,0,3.4,0,6.3-2.1,7.6-5l8.5,1.4c-2.5,2.5-6.1,5.3-11.1,7.1-4.7,1.6-8.9,1.8-12.2,1.5,0-.1,0-.3,0-.4,0-.6,0-1.2-.2-1.8ZM43.5,31.6c3.9-1.1,10.7-2.2,18.2.7,6.6,2.6,10.7,7.1,12.9,10.4l-7.8-1.3c0-.1,0-.2,0-.3,0-4.5-3.7-8.2-8.2-8.2s-5.8,1.8-7.2,4.3l-7.9-2.4c0-.5.2-1,.2-1.6s0-1.1-.2-1.6ZM62.4,41.1c0,2.1-1.7,3.8-3.8,3.8s-3.8-1.7-3.8-3.8,1.7-3.8,3.8-3.8,3.8,1.7,3.8,3.8ZM61.5,18.7c0,2.1-1.7,3.8-3.8,3.8s-3.8-1.7-3.8-3.8,1.7-3.8,3.8-3.8,3.8,1.7,3.8,3.8ZM39.2,33.3c0,2.1-1.7,3.8-3.8,3.8s-3.8-1.7-3.8-3.8,1.7-3.8,3.8-3.8,3.8,1.7,3.8,3.8ZM35.6,15.5c0-2.1,1.7-3.8,3.8-3.8s3.8,1.7,3.8,3.8-1.7,3.8-3.8,3.8-3.8-1.7-3.8-3.8ZM47,54c0,2.1-1.7,3.8-3.8,3.8s-3.8-1.7-3.8-3.8,1.7-3.8,3.8-3.8,3.8,1.7,3.8,3.8ZM90.4,46.5c-.4-.4-1-1.7-1-3.7s.6-3.3,1-3.7c.4.4,1,1.7,1,3.7s-.6,3.3-1,3.7Z"/>
</svg>