<svg id="Capa_3" xmlns="http://www.w3.org/2000/svg" version="1.1" viewBox="0 0 96 96">
  <defs>
    <style>
      .st0 {
        fill: #059669;
      }
    </style>
  </defs>
  <path class="st0" d="M55,86.6c-3.1-.8-6.2-2-9.1-3.4-5.6-2.7-9.3-4.4-11.2-7.4-.5-1.8.5-10,1.1-14.4.4-3.5.8-6.5.9-8.3,0,0,0,0,0-.1,0-1.3,1.8-7,3-10.8,1.8-5.7,2.7-8.4,2.7-9.8,0-4.1-1.1-8.4-1.9-11.2-.2-.8-.4-1.5-.5-1.9-.5-2.4-.3-10.4.2-16.8,0-1.2-.8-2.3-2.1-2.4-1.2,0-2.3.8-2.4,2.1-.3,4.7-.8,14.5-.1,18,.1.6.3,1.3.6,2.2.7,2.6,1.7,6.6,1.7,10,0,.9-1.4,5.3-2.5,8.5-2,6.3-3.3,10.3-3.3,12.2,0,1.7-.4,4.7-.8,7.9-1.3,10.2-1.7,14.8-.7,16.9,0,0,0,.2.1.3,2.6,4.1,7.1,6.3,13.2,9.2,2.7,1.3,5.5,2.4,8.4,3.2,0,.2,0,.4-.2.5-.5.7-2.6.8-6.2.2-.8-.1-1.1-.2-1.6-.4-.5-.2-1.2-.4-2.5-.7-4.6-1.2-7.7-1.9-11.1-1-1.4.4-2.1.9-2.7,1.3-.6.4-1,.6-2,.9-1,.2-2.8.7-4.1.1-1.5-.6-2.5-2.5-3.2-5.6-.8-4.1.4-7.1,2.1-10.8.8-1.9,1.7-3.9,2.4-6.2,0,0,0-.2,0-.3.4-2.8-.3-6.4-1.3-11.3-1.2-5.9-2.9-14-3.1-24.4-.1-6.1.6-12.2,2.1-18.3.3-1.2-.4-2.4-1.6-2.7-1.2-.3-2.4.4-2.7,1.6-1.6,6.5-2.3,13-2.2,19.5.2,10.8,2,19.1,3.2,25.2.9,4.2,1.6,7.6,1.3,9.6-.6,2-1.4,3.8-2.1,5.5-1.7,3.9-3.5,8-2.4,13.5.4,1.7,1.4,7,5.8,8.8,2.6,1.1,5.4.4,6.8.1,1.8-.4,2.7-1,3.4-1.4.5-.3.8-.5,1.6-.7,2.3-.6,4.6,0,8.8,1,1.1.3,1.7.5,2.2.6.6.2,1.1.4,2.3.6,1.2.2,2.8.5,4.5.5s4.7-.5,6.1-2.5c.7-.9,1.4-2.6.8-5.3-.2-.8-.8-1.5-1.6-1.7Z"/>
  <path class="st0" d="M79.7,88.5c-.2-.8-.8-1.5-1.6-1.7-3.1-.8-6.2-2-9.1-3.4-5.6-2.7-9.3-4.4-11.3-7.4-.4-1.6.3-8.3.9-12.9.4,0,.7,0,1.1,0,1.4,0,2.6-1.1,2.6-2.4v-8.4c0-1.1-.8-2.1-1.9-2.4.6-2.3,1.6-5.4,2.4-7.7,1.8-5.8,2.7-8.4,2.7-9.8,0-4.1-1.1-8.4-1.9-11.3-.2-.6-.3-1.2-.4-1.6.5-.4.8-1.1.8-1.8v-8.4c0-.8-.4-1.5-1-2,0-1.7.2-3.4.3-5,0-1.2-.8-2.3-2.1-2.4-1.2,0-2.3.8-2.4,2.1,0,1.3-.2,3-.3,4.9h-15.4c-.1,1.8-.5,11.9,0,13.2.5,0,3.1,0,6.4,0v6.3c-3.1.7-5.4,3.4-5.4,6.7s2.3,6,5.4,6.7v10.1c-2.2,0-4.3,0-6,0-.4-2.1-.7-4.4-1-6.8-.3.8-.5,1.7-.9,2.7-.7,2.1-1.5,4.7-2.1,6.9.1.7.3,1.3.4,2,.2,1.2.5,2.3.7,3.3.4,1.8.7,3.5,1,5,.3,1.9.5,3.5.3,4.6-.6,2-1.4,3.8-2.1,5.6-.5,1.2-1,2.4-1.5,3.6,1.1.8,2.4,1.6,3.9,2.3.4-1.3,1-2.7,1.6-4.1.8-1.9,1.7-3.9,2.4-6.2,0,0,0-.2,0-.3.2-1.5.1-3.3-.2-5.4,2.5,0,5.4,0,8.1,0-1.1,8.8-1.3,12.9-.4,14.8,0,0,0,.2.1.3,2.6,4.2,7.1,6.3,13.2,9.2,2.7,1.3,5.5,2.4,8.4,3.2,0,.2,0,.4-.2.5-.5.7-2.6.8-6.2.2-.8-.1-1.1-.2-1.6-.4-.5-.2-1.2-.4-2.5-.7-1.2-.3-2.4-.6-3.4-.8.2,2-.4,3.3-1,4.1,0,0,0,.1-.1.2,1,.2,2.1.5,3.5.8,1.1.3,1.7.5,2.2.6.6.2,1.1.4,2.3.6,1.2.2,2.8.5,4.5.5s4.7-.5,6.1-2.5c.7-.9,1.4-2.6.8-5.3ZM55.8,49.9c-1,0-2.1,0-3.2,0v-10c3.1-.7,5.4-3.4,5.4-6.7s-2.3-6-5.4-6.7v-6.3c2.1,0,4.3,0,6.2,0,.1.6.3,1.3.5,2.1.7,2.6,1.8,6.6,1.7,10.1,0,.9-1.4,5.3-2.5,8.5-1.2,3.9-2.2,6.8-2.7,9Z"/>
  <path class="st0" d="M26.7,29.7c.7-.2,1-.6,1.6-.9,0,0,0-.3.2-.2,2.9,1.6,6.4-1.2,5.2-4.4-.4-1.2-1.3-1.8-2.4-2.3l-2.3-12.8c0-.4-.4-.6-.8-.6l-6.2,1c-.5,0-.9.6-.8,1.1l2.2,12.8c-3.2,2.4-.8,7.4,3.1,6.3ZM23.2,11.1c.6,0,3.2-.6,4.4-.8l2.1,12.7c.2.5.7.4,1.1.6,2.7,1.3.5,4.7-1.7,3.5-.4-.2-.5-.7-1.1-.6-.6.1-.9,1.4-2,1.5-1.5.2-2.6-1.1-2.2-2.6.3-.9,1.6-.9,1.4-2l-2.1-12.5Z"/>
  <path class="st0" d="M22,51.5l6,1.8c.5.2,1-.1,1.2-.6l3.7-12.4c4-.7,4-6.2,0-7.1-.7-.1-1.2,0-1.8.1,0,0-.2.2-.3,0-1.9-2.8-6.2-1.8-6.7,1.6-.2,1.3.4,2.2,1.1,3.1l-3.7,12.4c0,.4,0,.7.5.9ZM27.2,37.8c0-.5-.5-.7-.7-1-1.8-2.4,1.7-4.5,3.1-2.4.2.4.1.8.7,1,.6.2,1.5-.8,2.5-.5,1.5.5,1.9,2.1.8,3.3-.7.7-1.9,0-2.2,1.2l-3.7,12.1c-.6-.2-3.1-.9-4.3-1.2l3.8-12.3Z"/>
</svg>