<svg id="Capa_2" xmlns="http://www.w3.org/2000/svg" version="1.1" viewBox="0 0 96 96">
  <defs>
    <style>
      .st0 {
        fill: #059669;
      }
    </style>
  </defs>
  <path class="st0" d="M68.9,0c0,0-.1,0-.2,0C61.9,0,54.5,7.3,53.9,14.5c-.2,3.2.9,5.1,1.9,6.9.5.9,1.1,1.8,1.4,3-4.9.5-7.7,2.4-9.4,4.6-1.7-2.3-4.8-4.2-10-4.7.4-1.1.9-2,1.4-2.9,1-1.8,2.2-3.8,1.9-6.9C40.6,7.2,33.1-.1,26.2,0,16.3.2,8.9,15.2,9.1,27.9c.2,11.1,6.8,26.6,17.2,26.8,0,0,.1,0,.2,0,6.4,0,13.4-6.1,14.5-12.6.6-3.5-.6-5.9-1.7-8-.8-1.6-1.6-3.2-1.8-5.3,5.5.4,8.2,2.8,8.2,7.5v18.7c-2.7.2-7.1,1-11.1,4.2-4.6,3.6-6.9,7.8-6.9,12.2,0,7,6,11.9,6.7,12.4,1.7,1.3,3.4,2.1,4.8,2.7,1.8.8,2.6,1.2,2.7,1.9,0,.3,0,.7,0,1.2,0,1-.1,2.4.9,3.9,1.2,1.7,3.1,2.7,5.1,2.7s3.9-1,5.1-2.7c1-1.5,1-2.9.9-3.9,0-.5,0-.8,0-1.2.2-.7.9-1,2.7-1.9,1.4-.6,3.1-1.4,4.8-2.7.7-.5,6.7-5.4,6.7-12.4,0-4.5-2.4-8.6-6.9-12.2-4-3.2-8.4-4-11.1-4.2v-18.7c0-4.5,2.5-6.9,7.6-7.4-.2,2.1-1,3.7-1.8,5.3-1.1,2.2-2.3,4.6-1.7,8,1.1,6.6,8.1,12.6,14.5,12.6,0,0,.1,0,.2,0,10.4-.2,17-15.7,17.2-26.8C86.3,15.2,78.8.2,68.9,0ZM36.5,41.3c-.8,4.5-5.8,9-10,9s0,0-.1,0c-6.7-.1-12.6-12.4-12.8-22.4-.2-11.3,6.4-23.3,12.8-23.4,0,0,0,0,0,0,4.5,0,10,5.5,10.3,10.4.1,1.8-.5,2.8-1.4,4.4-1,1.8-2.3,3.9-2.5,7.6h0c-.2,4.2,1.1,7,2.3,9.2,1,1.9,1.7,3.3,1.3,5.3ZM63.7,71.3c0,5-4.7,8.7-4.9,8.9-1.3,1-2.6,1.6-3.9,2.2-2.1.9-4.5,2-5.2,4.8-.2,1-.2,1.8-.2,2.5,0,.8,0,.9-.1,1.1-.4.5-.8.8-1.4.8s-1-.3-1.4-.8c-.1-.2-.2-.4-.1-1.1,0-.7,0-1.5-.2-2.5-.7-2.8-3.1-3.9-5.2-4.8-1.3-.6-2.6-1.2-3.9-2.2-.2-.2-4.9-3.9-4.9-8.9,0-3.1,1.8-6,5.3-8.8,4.1-3.2,8.7-3.3,10.4-3.3h.1s.2,0,.2,0c1.7,0,6.3,0,10.4,3.3,3.5,2.8,5.3,5.7,5.3,8.8ZM68.8,50.3s0,0-.1,0c-4.2,0-9.3-4.5-10-9-.3-2,.4-3.4,1.3-5.3,1.1-2.2,2.5-5,2.3-9.2h0c0-.1,0-.2,0-.4,0,0,0,0,0,0,0,0,0-.1,0-.2-.3-3.3-1.5-5.4-2.4-7-.9-1.6-1.5-2.6-1.4-4.4.4-4.9,5.9-10.4,10.3-10.4s0,0,0,0c6.4.1,12.9,12.2,12.8,23.4-.1,10-6.1,22.3-12.8,22.4Z"/>
  <path class="st0" d="M73.4,9.6c-1.8-1.3-4.1-2-6.5-2,0,0,0,0,0,0-.8,0-1.5.6-1.5,1.5,0,.8.6,1.5,1.5,1.5,1.3,0,3.2.3,4.9,1.5,4.2,2.9,3.8,9.6,3.6,11.7,0,.8-.2,1.6-.5,2.4-.2.8.3,1.6,1.1,1.8.1,0,.3,0,.4,0,.7,0,1.3-.4,1.5-1.1.3-.9.4-1.9.5-2.9.3-3.1.5-10.7-4.9-14.4Z"/>
  <path class="st0" d="M28.3,7.5c-2.4,0-4.7.8-6.5,2-5.4,3.7-5.2,11.3-4.9,14.4.1,1,.3,1.9.5,2.9.2.7.8,1.1,1.5,1.1s.3,0,.4,0c.8-.2,1.3-1,1.1-1.8-.2-.8-.4-1.6-.5-2.4-.2-2-.6-8.7,3.6-11.6,1.7-1.2,3.6-1.5,4.9-1.5.8,0,1.5-.7,1.5-1.5,0-.8-.7-1.5-1.5-1.5Z"/>
</svg>